M48
METRIC,LZ,000.000
;FILE_FORMAT=3:3
;TYPE=PLATED
;Layer: PTH_Through_Via
;EasyEDA v6.5.22, 2023-01-18 22:18:13
;66d29df89567445d99ed279259f9073e,7be1179030e74d40a97a3c751b95adb4,10
;Gerber Generator version 0.2
;Holesize 1 = 0.200 mm
T01C0.200
%
G05
G90
T01
X026093Y-065090
X029014Y-064105
X032542Y-030264
X030356Y-035560
X023655Y-029924
X032299Y-061613
X025684Y-034290
X025344Y-048039
X023068Y-022177
X026266Y-038486
X031290Y-034889
X031107Y-048710
X033886Y-017082
X038915Y-032634
X035395Y-027051
X034061Y-041212
X023200Y-059408
X018694Y-024346
X035438Y-023241
X034059Y-057404
X026119Y-060320
X026518Y-025847
X028438Y-043960
X029459Y-036853
X027567Y-049931
X025961Y-041948
X028131Y-050757
X025174Y-040640
X023630Y-053609
X032083Y-029624
X033472Y-039489
X031590Y-050648
M30
