M48
METRIC,LZ,000.000
;FILE_FORMAT=3:3
;TYPE=PLATED
;Layer: PTH_Through
;EasyEDA v6.5.22, 2023-01-18 22:18:13
;66d29df89567445d99ed279259f9073e,7be1179030e74d40a97a3c751b95adb4,10
;Gerber Generator version 0.2
;Holesize 1 = 1.000 mm
T01C1.000
%
G05
G90
T01
X021714Y-017907G85X021720Y-017907
X036954Y-066167G85X036960Y-066167
X021714Y-020447G85X021720Y-020447
X036954Y-063627G85X036960Y-063627
X021714Y-022987G85X021720Y-022987
X036954Y-061087G85X036960Y-061087
X021714Y-025527G85X021720Y-025527
X036954Y-058547G85X036960Y-058547
X021714Y-028067G85X021720Y-028067
X036954Y-056007G85X036960Y-056007
X021714Y-030607G85X021720Y-030607
X036954Y-053467G85X036960Y-053467
X021714Y-033147G85X021720Y-033147
X036954Y-050927G85X036960Y-050927
X021714Y-035687G85X021720Y-035687
X036954Y-048387G85X036960Y-048387
X021714Y-038227G85X021720Y-038227
X036954Y-045847G85X036960Y-045847
X021714Y-040767G85X021720Y-040767
X036954Y-043307G85X036960Y-043307
X021714Y-043307G85X021720Y-043307
X036954Y-040767G85X036960Y-040767
X021714Y-045847G85X021720Y-045847
X036954Y-038227G85X036960Y-038227
X021714Y-048387G85X021720Y-048387
X036954Y-035687G85X036960Y-035687
X021714Y-050927G85X021720Y-050927
X036954Y-033147G85X036960Y-033147
X021714Y-053467G85X021720Y-053467
X036954Y-030607G85X036960Y-030607
X021714Y-056007G85X021720Y-056007
X036954Y-028067G85X036960Y-028067
X021714Y-058547G85X021720Y-058547
X036954Y-025527G85X036960Y-025527
X021714Y-061087G85X021720Y-061087
X036954Y-022987G85X036960Y-022987
X021714Y-063627G85X021720Y-063627
X036954Y-020447G85X036960Y-020447
X021714Y-066167G85X021720Y-066167
X036954Y-017907G85X036960Y-017907
M30
