G04 Layer: BottomLayer*
G04 EasyEDA v6.5.22, 2023-01-18 22:18:13*
G04 66d29df89567445d99ed279259f9073e,7be1179030e74d40a97a3c751b95adb4,10*
G04 Gerber Generator version 0.2*
G04 Scale: 100 percent, Rotated: No, Reflected: No *
G04 Dimensions in millimeters *
G04 leading zeros omitted , absolute positions ,4 integer and 5 decimal *
%FSLAX45Y45*%
%MOMM*%

%AMMACRO1*21,1,$1,$2,0,0,$3*%
%ADD10C,0.1000*%
%ADD11O,2.2999954X0.5999988*%
%ADD12O,0.5999988X1.7999964*%
%ADD13MACRO1,1.6002X0.5994X-90.0000*%
%ADD14O,0.599948X1.599946*%
%ADD15MACRO1,1X1.1X0.0000*%
%ADD16MACRO1,1X1.1X90.0000*%
%ADD17MACRO1,1X1.1X-90.0000*%
%ADD18MACRO1,2.3978X1.6002X0.0000*%
%ADD19O,2.3999952X1.5999968*%
%ADD20C,0.4000*%
%ADD21C,0.0147*%

%LPD*%
D10*
X3467100Y-4681473D02*
G01*
X3535679Y-4613147D01*
X3535679Y-3801618D01*
X3609847Y-3727450D01*
X3790950Y-3727450D01*
X3882390Y-3636010D01*
X3882390Y-3502660D01*
X3800856Y-3421126D01*
X3625595Y-3421126D01*
X3556000Y-3351529D01*
X3556000Y-3231387D01*
X3457702Y-3133089D01*
X3249929Y-3133089D01*
X2653791Y-2536952D01*
X2649727Y-2536952D01*
X2608579Y-2578100D01*
X2420365Y-2578100D01*
X2379218Y-2619247D01*
X2379218Y-2658871D01*
X2488945Y-2768600D01*
X2516886Y-2768600D01*
X2171700Y-6362700D02*
G01*
X1953513Y-6144513D01*
X1953513Y-5101589D01*
X2109978Y-4945379D01*
X2247900Y-4945379D01*
X2321813Y-4871720D01*
X2321813Y-4525263D01*
X2631693Y-4215384D01*
X2631693Y-4005071D01*
X2674365Y-3962145D01*
X3093974Y-3962145D01*
X3213100Y-4081526D01*
X2171700Y-5854700D02*
G01*
X2309621Y-5716778D01*
X2309621Y-5547868D01*
X2252726Y-5490971D01*
X2085594Y-5490971D01*
X2014473Y-5419852D01*
X2014473Y-5293613D01*
X2086610Y-5221731D01*
X2253487Y-5221731D01*
X2430271Y-5044694D01*
X2430271Y-4628895D01*
X2832100Y-4227068D01*
X2832100Y-4081526D01*
X2171700Y-5600700D02*
G01*
X2166620Y-5600700D01*
X1994154Y-5428234D01*
X1994154Y-5285231D01*
X2078228Y-5201412D01*
X2238247Y-5201412D01*
X2409952Y-5029454D01*
X2409952Y-4581144D01*
X2705100Y-4285995D01*
X2705100Y-4081526D01*
X3426713Y-1879600D02*
G01*
X3464813Y-1917700D01*
X3743706Y-1917700D01*
X3926840Y-2100834D01*
X3926840Y-3620262D01*
X3724402Y-3822700D01*
X3695700Y-3822700D01*
X3695700Y-2298700D02*
G01*
X3695700Y-2253487D01*
X3448811Y-2006600D01*
X3426713Y-2006600D01*
X3695700Y-2552700D02*
G01*
X3530600Y-2387600D01*
X3426713Y-2387600D01*
X3695700Y-2806700D02*
G01*
X3695700Y-2741168D01*
X3469131Y-2514600D01*
X3426713Y-2514600D01*
X2516886Y-2006600D02*
G01*
X2564891Y-1958594D01*
X3609593Y-1958594D01*
X3695700Y-2044700D01*
X3340100Y-4681473D02*
G01*
X3621786Y-4963160D01*
X3774440Y-4963160D01*
X3874770Y-5063489D01*
X3874770Y-6183629D01*
X3695700Y-6362700D01*
X2171700Y-3822700D02*
G01*
X2284984Y-3935984D01*
X3245611Y-3935984D01*
X3352800Y-3828795D01*
X3213100Y-5746495D02*
G01*
X2833624Y-5367020D01*
X2650490Y-5367020D01*
X2607056Y-5323331D01*
X2195068Y-5323331D01*
X2171700Y-5346700D01*
X2516886Y-2387600D02*
G01*
X2684272Y-2387600D01*
X3256279Y-2959862D01*
X3594861Y-2959862D01*
X3695700Y-3060700D01*
X3695700Y-3314700D02*
G01*
X3493770Y-3112770D01*
X3287013Y-3112770D01*
X2688590Y-2514600D01*
X2516886Y-2514600D01*
X3213100Y-4681473D02*
G01*
X3523488Y-4991862D01*
X3774693Y-4991862D01*
X3834638Y-5051805D01*
X3834638Y-6173215D01*
X3764788Y-6242812D01*
X3634486Y-6242812D01*
X3558540Y-6318757D01*
X3558540Y-6479539D01*
X3695700Y-6616700D01*
X2516886Y-2895600D02*
G01*
X2811018Y-2895600D01*
X3177540Y-3262121D01*
X3177540Y-3399028D01*
X3347211Y-3568700D01*
X3695700Y-3568700D01*
X2171700Y-6108700D02*
G01*
X1973834Y-5910834D01*
X1973834Y-5109971D01*
X2095245Y-4988813D01*
X2233421Y-4988813D01*
X2389631Y-4832604D01*
X2389631Y-4501134D01*
X2654808Y-4235957D01*
X2654808Y-4010660D01*
X2682747Y-3982465D01*
X2987040Y-3982465D01*
X3086100Y-4081526D01*
X2516886Y-2641600D02*
G01*
X2541270Y-2641600D01*
X2647188Y-2747263D01*
X2647188Y-2793492D01*
X2608579Y-2832100D01*
X2430526Y-2832100D01*
X2376423Y-2886202D01*
X2376423Y-2904489D01*
X2431287Y-2959100D01*
X2634741Y-2959100D01*
X2908300Y-3232657D01*
X2908300Y-3378200D01*
X3246120Y-3715765D01*
X3386581Y-3715765D01*
X3402329Y-3731768D01*
X3402329Y-4019295D01*
X3340100Y-4081526D01*
X3158997Y-5064760D02*
G01*
X3183127Y-5064760D01*
X3291840Y-5173218D01*
X3291840Y-5316473D01*
X3322065Y-5346700D01*
X3695700Y-5346700D01*
X2959100Y-4081526D02*
G01*
X3069081Y-4191254D01*
X3218688Y-4191254D01*
X3258311Y-4151884D01*
X3258311Y-4037837D01*
X3347211Y-3948937D01*
X2516886Y-2260600D02*
G01*
X2391918Y-2260600D01*
X2258568Y-2393950D01*
X1846834Y-2393950D01*
X1832355Y-2408428D01*
X1832355Y-2456687D01*
X2023618Y-2647950D01*
X2251202Y-2647950D01*
X2306828Y-2592323D01*
X2306828Y-2571495D01*
X2409444Y-2468879D01*
X2714752Y-2468879D01*
X3208274Y-2962402D01*
X2362962Y-5360923D02*
G01*
X2362962Y-5649213D01*
X2423921Y-5710173D01*
X2544825Y-5710173D01*
X2832100Y-5997447D01*
X2832100Y-6040120D01*
X2171700Y-4076700D02*
G01*
X2504693Y-4076700D01*
X2517393Y-4064000D01*
X2813050Y-5075681D02*
G01*
X2877311Y-5140197D01*
X2877311Y-5300979D01*
X3181095Y-5604763D01*
X3228593Y-5604763D01*
X3291840Y-5668010D01*
X3291840Y-5854700D01*
X3695700Y-5854700D02*
G01*
X3291840Y-5854700D01*
X3291840Y-5854700D02*
G01*
X3271520Y-5854700D01*
X3086100Y-6040120D01*
X2578100Y-4081526D02*
G01*
X2578100Y-4176776D01*
X2578100Y-4176776D02*
G01*
X2596134Y-4194810D01*
X2756661Y-4993131D02*
G01*
X2780284Y-4993131D01*
X2909824Y-5122926D01*
X2909824Y-5304789D01*
X2940304Y-5335270D01*
X3055874Y-5335270D01*
X3467100Y-5746495D01*
X2959100Y-6040120D02*
G01*
X3105911Y-5893307D01*
X3192779Y-5893307D01*
X3261359Y-5824728D01*
X3261359Y-5666231D01*
X3227324Y-5632195D01*
X3143504Y-5632195D01*
X2843022Y-5331713D01*
X2811018Y-5331713D01*
X2768600Y-5289295D01*
X2768600Y-5126989D01*
X2621025Y-4979415D01*
X2621025Y-4791455D01*
X2626613Y-4785868D01*
X2626613Y-4613147D01*
X2843784Y-4395978D01*
X3225800Y-3828795D02*
G01*
X3082543Y-3685286D01*
X2945891Y-3685286D01*
X3479800Y-3828795D02*
G01*
X3608577Y-3699763D01*
X3781043Y-3699763D01*
X3862070Y-3618737D01*
X3862070Y-3512565D01*
X3798315Y-3448557D01*
X3624325Y-3448557D01*
X3535679Y-3359912D01*
X3535679Y-3239770D01*
X3449320Y-3153410D01*
X3220211Y-3153410D01*
X2651759Y-2584704D01*
X2611881Y-6031992D02*
G01*
X2696972Y-6031992D01*
X2705100Y-6040120D01*
X3340100Y-5746495D02*
G01*
X3346195Y-5740400D01*
X3405886Y-5740400D01*
X3543808Y-2324100D02*
G01*
X3558793Y-2309368D01*
X3558793Y-2241295D01*
X3451097Y-2133600D01*
X3426713Y-2133600D01*
X3426713Y-2260600D02*
G01*
X3363213Y-2324100D01*
X2384044Y-2324100D01*
X2273554Y-2434589D01*
X1869439Y-2434589D01*
X3539490Y-2705100D02*
G01*
X3490213Y-2705100D01*
X3426713Y-2641600D01*
X2320036Y-5940805D02*
G01*
X2331465Y-5929376D01*
X2331465Y-5535929D01*
X2246884Y-5451347D01*
X2074671Y-5451347D01*
X2034794Y-5411470D01*
X2034794Y-5301995D01*
X2085339Y-5251450D01*
X2252218Y-5251450D01*
X2475229Y-5028692D01*
X2475229Y-4670552D01*
X2933700Y-4211828D01*
X3336797Y-4211828D01*
X3406140Y-4142486D01*
X3406140Y-4121150D01*
X3891534Y-3263392D02*
G01*
X3891534Y-3059684D01*
X3772915Y-2940812D01*
X3641343Y-2940812D01*
X3469131Y-2768600D01*
X3426713Y-2768600D01*
X2171700Y-6616700D02*
G01*
X2400045Y-6616700D01*
X2406395Y-6610604D01*
X3695700Y-5092700D02*
G01*
X3562095Y-5226304D01*
X3467100Y-5226304D01*
X2441447Y-6610604D02*
G01*
X2406395Y-6610604D01*
X2441447Y-6610604D02*
G01*
X2476500Y-6610604D01*
X2686304Y-4914900D02*
G01*
X2686304Y-4844795D01*
X2476500Y-6610604D02*
G01*
X2655824Y-6610604D01*
X2655824Y-6610604D02*
G01*
X2705100Y-6659879D01*
X2979674Y-1651000D02*
G01*
X2979674Y-1585721D01*
X2984754Y-1580642D01*
X3261359Y-1580642D01*
X3388613Y-1708150D01*
X2914650Y-1651000D02*
G01*
X2979674Y-1651000D01*
X2686304Y-4844795D02*
G01*
X2705100Y-4825745D01*
X2705100Y-4825745D02*
G01*
X2705100Y-4681473D01*
X2914650Y-1651000D02*
G01*
X2745486Y-1651000D01*
X2516886Y-1879600D01*
X2705100Y-4825745D02*
G01*
X3065779Y-4825745D01*
X3110738Y-4870957D01*
X3695700Y-5092700D02*
G01*
X3332734Y-5092700D01*
X3110738Y-4870957D01*
X3467100Y-4081526D02*
G01*
X3422650Y-4037076D01*
X3422650Y-3664457D01*
X3479800Y-3308604D02*
G01*
X3479800Y-3332734D01*
X3615943Y-3468878D01*
X3789934Y-3468878D01*
X3841750Y-3520947D01*
X3841750Y-3610355D01*
X3787647Y-3664457D01*
X3422650Y-3664457D01*
X3422650Y-3664457D02*
G01*
X3304540Y-3664457D01*
X3129025Y-3488944D01*
X2425700Y-3587750D02*
G01*
X2425700Y-3652773D01*
X2425700Y-3652773D02*
G01*
X2360421Y-3652773D01*
X2351023Y-3662426D01*
X2351023Y-3780281D01*
X2419350Y-3848607D01*
X2626613Y-3848607D01*
X3467100Y-4081526D02*
G01*
X3467100Y-4110228D01*
X3343909Y-4233418D01*
X3153156Y-4233418D01*
X2705100Y-4681473D01*
X2425700Y-3587750D02*
G01*
X2425700Y-3124454D01*
X2263139Y-2961894D01*
X2132076Y-2961894D01*
X1812036Y-2641854D01*
X1812036Y-2207513D01*
X2076957Y-1942592D01*
X2453893Y-1942592D01*
X2516886Y-1879600D01*
X2701797Y-6445757D02*
G01*
X2655824Y-6491731D01*
X2655824Y-6610604D01*
X3695700Y-6108700D02*
G01*
X3358895Y-6445757D01*
X2701797Y-6445757D01*
X2701797Y-6445757D02*
G01*
X2489200Y-6232905D01*
X2489200Y-5785104D01*
X2516886Y-2133600D02*
G01*
X2391155Y-2133600D01*
X2306828Y-2217673D01*
X3695700Y-1790700D02*
G01*
X3259581Y-1790700D01*
X3119881Y-1651000D01*
X3054604Y-1651000D02*
G01*
X3119881Y-1651000D01*
X2705100Y-5746495D02*
G01*
X2603754Y-5644895D01*
X2489200Y-5644895D01*
X2546095Y-4914900D02*
G01*
X2546095Y-4844795D01*
X2425700Y-3727704D02*
G01*
X2425700Y-3760215D01*
X2425700Y-3760215D02*
G01*
X2425700Y-3792981D01*
X2546095Y-4844795D02*
G01*
X2534411Y-4832857D01*
X2534411Y-4803902D01*
X2534411Y-4803902D02*
G01*
X2534411Y-4725162D01*
X2578100Y-4681473D01*
X2516886Y-3429000D02*
G01*
X2516886Y-3022600D01*
X2425700Y-3760215D02*
G01*
X2516886Y-3669029D01*
X2516886Y-3429000D01*
X2516886Y-3429000D02*
G01*
X2568447Y-3429000D01*
X3467100Y-6040120D02*
G01*
X3360674Y-6146545D01*
X3229863Y-6146545D01*
X3229863Y-6146545D02*
G01*
X3229863Y-6161278D01*
X2516886Y-3022600D02*
G01*
X2486659Y-2992373D01*
X2365502Y-2992373D01*
X2425700Y-3792981D02*
G01*
X2681986Y-3792981D01*
X2717800Y-3828795D01*
X2717800Y-3828795D02*
G01*
X2990595Y-3556000D01*
X3035554Y-3556000D01*
X3254247Y-3026410D02*
G01*
X3423158Y-3026410D01*
X3426713Y-3022600D01*
X2927095Y-6146545D02*
G01*
X2927095Y-6384797D01*
X2901441Y-6410452D01*
X3229863Y-6146545D02*
G01*
X2927095Y-6146545D01*
X2927095Y-6146545D02*
G01*
X2893059Y-6112763D01*
X2893059Y-5934455D01*
X2705100Y-5746495D01*
X2609341Y-6509004D02*
G01*
X2585211Y-6509004D01*
X2546858Y-6470395D01*
X2476500Y-6470395D02*
G01*
X2546858Y-6470395D01*
D11*
G01*
X2516809Y-3022600D03*
G01*
X2516809Y-2895600D03*
G01*
X2516809Y-2768600D03*
G01*
X2516809Y-2641600D03*
G01*
X2516809Y-2514600D03*
G01*
X2516809Y-2387600D03*
G01*
X2516809Y-2260600D03*
G01*
X2516809Y-2133600D03*
G01*
X2516809Y-2006600D03*
G01*
X2516809Y-1879600D03*
G01*
X3426790Y-3022600D03*
G01*
X3426790Y-2895600D03*
G01*
X3426790Y-2768600D03*
G01*
X3426790Y-2641600D03*
G01*
X3426790Y-2514600D03*
G01*
X3426790Y-2387600D03*
G01*
X3426790Y-2260600D03*
G01*
X3426790Y-2133600D03*
G01*
X3426790Y-2006600D03*
G01*
X3426790Y-1879600D03*
D12*
G01*
X3467100Y-5746394D03*
G01*
X3340100Y-5746394D03*
G01*
X3213100Y-5746394D03*
G01*
X3086100Y-5746394D03*
G01*
X2959100Y-5746394D03*
G01*
X2832100Y-5746394D03*
G01*
X2705100Y-5746394D03*
G01*
X3467100Y-5226405D03*
G01*
X3340100Y-5226405D03*
G01*
X3213100Y-5226405D03*
G01*
X3086100Y-5226405D03*
G01*
X2959100Y-5226405D03*
G01*
X2832100Y-5226405D03*
G01*
X2705100Y-5226405D03*
G01*
X3467100Y-6659879D03*
G01*
X3340100Y-6659879D03*
G01*
X3213100Y-6659879D03*
G01*
X3086100Y-6659879D03*
G01*
X2959100Y-6659879D03*
G01*
X2832100Y-6659879D03*
G01*
X2705100Y-6659879D03*
G01*
X3467100Y-6040120D03*
G01*
X3340100Y-6040120D03*
G01*
X3213100Y-6040120D03*
G01*
X3086100Y-6040120D03*
G01*
X2959100Y-6040120D03*
G01*
X2832100Y-6040120D03*
G01*
X2705100Y-6040120D03*
G01*
X3479800Y-3828694D03*
G01*
X3352800Y-3828694D03*
G01*
X3225800Y-3828694D03*
G01*
X3098800Y-3828694D03*
G01*
X2971800Y-3828694D03*
G01*
X2844800Y-3828694D03*
G01*
X2717800Y-3828694D03*
G01*
X3479800Y-3308705D03*
G01*
X3352800Y-3308705D03*
G01*
X3225800Y-3308705D03*
G01*
X3098800Y-3308705D03*
G01*
X2971800Y-3308705D03*
G01*
X2844800Y-3308705D03*
G01*
X2717800Y-3308705D03*
D13*
G01*
X2578100Y-4081500D03*
D14*
G01*
X2705100Y-4081500D03*
G01*
X2832100Y-4081500D03*
G01*
X2959100Y-4081500D03*
G01*
X3086100Y-4081500D03*
G01*
X3213100Y-4081500D03*
G01*
X3340100Y-4081500D03*
G01*
X3467100Y-4081500D03*
G01*
X2578100Y-4681499D03*
G01*
X2705100Y-4681499D03*
G01*
X2832100Y-4681499D03*
G01*
X2959100Y-4681499D03*
G01*
X3086100Y-4681499D03*
G01*
X3213100Y-4681499D03*
G01*
X3340100Y-4681499D03*
G01*
X3467100Y-4681499D03*
D15*
G01*
X3054510Y-1651001D03*
G01*
X2914510Y-1651001D03*
G01*
X2546189Y-4914898D03*
G01*
X2686189Y-4914898D03*
D16*
G01*
X2425698Y-3727610D03*
G01*
X2425698Y-3587610D03*
D17*
G01*
X2476501Y-6470489D03*
G01*
X2476501Y-6610489D03*
G01*
X2489201Y-5644989D03*
G01*
X2489201Y-5784989D03*
D18*
G01*
X2171700Y-1790700D03*
D19*
G01*
X3695700Y-6616700D03*
G01*
X2171700Y-2044700D03*
G01*
X3695700Y-6362700D03*
G01*
X2171700Y-2298700D03*
G01*
X3695700Y-6108700D03*
G01*
X2171700Y-2552700D03*
G01*
X3695700Y-5854700D03*
G01*
X2171700Y-2806700D03*
G01*
X3695700Y-5600700D03*
G01*
X2171700Y-3060700D03*
G01*
X3695700Y-5346700D03*
G01*
X2171700Y-3314700D03*
G01*
X3695700Y-5092700D03*
G01*
X2171700Y-3568700D03*
G01*
X3695700Y-4838700D03*
G01*
X2171700Y-3822700D03*
G01*
X3695700Y-4584700D03*
G01*
X2171700Y-4076700D03*
G01*
X3695700Y-4330700D03*
G01*
X2171700Y-4330700D03*
G01*
X3695700Y-4076700D03*
G01*
X2171700Y-4584700D03*
G01*
X3695700Y-3822700D03*
G01*
X2171700Y-4838700D03*
G01*
X3695700Y-3568700D03*
G01*
X2171700Y-5092700D03*
G01*
X3695700Y-3314700D03*
G01*
X2171700Y-5346700D03*
G01*
X3695700Y-3060700D03*
G01*
X2171700Y-5600700D03*
G01*
X3695700Y-2806700D03*
G01*
X2171700Y-5854700D03*
G01*
X3695700Y-2552700D03*
G01*
X2171700Y-6108700D03*
G01*
X3695700Y-2298700D03*
G01*
X2171700Y-6362700D03*
G01*
X3695700Y-2044700D03*
G01*
X2171700Y-6616700D03*
G01*
X3695700Y-1790700D03*
D20*
G01*
X2609341Y-6509004D03*
G01*
X2901441Y-6410452D03*
G01*
X3254247Y-3026410D03*
G01*
X3035554Y-3556000D03*
G01*
X2365502Y-2992373D03*
G01*
X3229863Y-6161278D03*
G01*
X2568447Y-3429000D03*
G01*
X2534411Y-4803902D03*
G01*
X2306828Y-2217673D03*
G01*
X2626613Y-3848607D03*
G01*
X3129025Y-3488944D03*
G01*
X3110738Y-4870957D03*
G01*
X3388613Y-1708150D03*
G01*
X3891534Y-3263392D03*
G01*
X3539490Y-2705100D03*
G01*
X3406140Y-4121150D03*
G01*
X2320036Y-5940805D03*
G01*
X1869439Y-2434589D03*
G01*
X3543808Y-2324100D03*
G01*
X3405886Y-5740400D03*
G01*
X2611881Y-6031992D03*
G01*
X2651759Y-2584704D03*
G01*
X2843784Y-4395978D03*
G01*
X2945891Y-3685286D03*
G01*
X2756661Y-4993131D03*
G01*
X2596134Y-4194810D03*
G01*
X2813050Y-5075681D03*
G01*
X2517393Y-4064000D03*
G01*
X2362962Y-5360923D03*
G01*
X3208274Y-2962402D03*
G01*
X3347211Y-3948937D03*
G01*
X3158997Y-5064760D03*
M02*
