G04 Layer: TopSilkscreenLayer*
G04 EasyEDA v6.5.22, 2023-01-18 22:18:13*
G04 66d29df89567445d99ed279259f9073e,7be1179030e74d40a97a3c751b95adb4,10*
G04 Gerber Generator version 0.2*
G04 Scale: 100 percent, Rotated: No, Reflected: No *
G04 Dimensions in millimeters *
G04 leading zeros omitted , absolute positions ,4 integer and 5 decimal *
%FSLAX45Y45*%
%MOMM*%

%ADD10C,0.1524*%
%ADD11C,0.1200*%
%ADD12C,0.2540*%
%ADD13C,0.2000*%
%ADD14C,0.6000*%
%ADD15C,0.3000*%
%ADD16C,0.4000*%
%ADD17C,0.0116*%

%LPD*%
G36*
X3500628Y-3298901D02*
G01*
X3496005Y-3299307D01*
X3492042Y-3300780D01*
X3487826Y-3303473D01*
X3480409Y-3308858D01*
X3400856Y-3307486D01*
X3376168Y-3307283D01*
X3367176Y-3307384D01*
X3360013Y-3307740D01*
X3354527Y-3308350D01*
X3350412Y-3309264D01*
X3347415Y-3310483D01*
X3345383Y-3312058D01*
X3343910Y-3314090D01*
X3342894Y-3316528D01*
X3341420Y-3321862D01*
X3341065Y-3323996D01*
X3341065Y-3325876D01*
X3341522Y-3327501D01*
X3342487Y-3328873D01*
X3344062Y-3330092D01*
X3346348Y-3331108D01*
X3349396Y-3331921D01*
X3358235Y-3333140D01*
X3371291Y-3333902D01*
X3389274Y-3334410D01*
X3452876Y-3335375D01*
X3464610Y-3335883D01*
X3472230Y-3336594D01*
X3476751Y-3337560D01*
X3478174Y-3338169D01*
X3479139Y-3338880D01*
X3482441Y-3342386D01*
X3482340Y-3344468D01*
X3478682Y-3345230D01*
X3462375Y-3344316D01*
X3440887Y-3343503D01*
X3390595Y-3342386D01*
X3367379Y-3342284D01*
X3358743Y-3342538D01*
X3351834Y-3343046D01*
X3346500Y-3343808D01*
X3342487Y-3344875D01*
X3339592Y-3346348D01*
X3337661Y-3348228D01*
X3336493Y-3350514D01*
X3335832Y-3353308D01*
X3334969Y-3360978D01*
X3333648Y-3365804D01*
X3331870Y-3370529D01*
X3327501Y-3378555D01*
X3326384Y-3381959D01*
X3326333Y-3384854D01*
X3328466Y-3389731D01*
X3328365Y-3392017D01*
X3327044Y-3394456D01*
X3324453Y-3397199D01*
X3322116Y-3400247D01*
X3319881Y-3404870D01*
X3317849Y-3410559D01*
X3316071Y-3416858D01*
X3314801Y-3423259D01*
X3314039Y-3429304D01*
X3313887Y-3434537D01*
X3314547Y-3438398D01*
X3316630Y-3442157D01*
X3319678Y-3445001D01*
X3323539Y-3446983D01*
X3328009Y-3448202D01*
X3332937Y-3448558D01*
X3338068Y-3448202D01*
X3343198Y-3447084D01*
X3348126Y-3445256D01*
X3352698Y-3442715D01*
X3356711Y-3439566D01*
X3359912Y-3435807D01*
X3363874Y-3427628D01*
X3366109Y-3425240D01*
X3369310Y-3423970D01*
X3374136Y-3423361D01*
X3379012Y-3423361D01*
X3382670Y-3424174D01*
X3385769Y-3426053D01*
X3392220Y-3432759D01*
X3395929Y-3434689D01*
X3401364Y-3435553D01*
X3410000Y-3435756D01*
X3418179Y-3435553D01*
X3423920Y-3434740D01*
X3428136Y-3433114D01*
X3435350Y-3427984D01*
X3439109Y-3426307D01*
X3443427Y-3425342D01*
X3448405Y-3425037D01*
X3458616Y-3425037D01*
X3457041Y-3434587D01*
X3456940Y-3441801D01*
X3459987Y-3446627D01*
X3466896Y-3449726D01*
X3478529Y-3451707D01*
X3485184Y-3452215D01*
X3490366Y-3451961D01*
X3494887Y-3450844D01*
X3499459Y-3448761D01*
X3503777Y-3445916D01*
X3506571Y-3442208D01*
X3508349Y-3436416D01*
X3509822Y-3427222D01*
X3510635Y-3418586D01*
X3510584Y-3412236D01*
X3509467Y-3407460D01*
X3507232Y-3403498D01*
X3504742Y-3399840D01*
X3504082Y-3397351D01*
X3505352Y-3395268D01*
X3512769Y-3389376D01*
X3514394Y-3386124D01*
X3513378Y-3382264D01*
X3507486Y-3373577D01*
X3506825Y-3371342D01*
X3508146Y-3369665D01*
X3511499Y-3367836D01*
X3515664Y-3364890D01*
X3517595Y-3361182D01*
X3517290Y-3356864D01*
X3513531Y-3350006D01*
X3513785Y-3347872D01*
X3515715Y-3345586D01*
X3523691Y-3339439D01*
X3526078Y-3335680D01*
X3527145Y-3330143D01*
X3527399Y-3321507D01*
X3527145Y-3314242D01*
X3526332Y-3308807D01*
X3524961Y-3305200D01*
X3522929Y-3303117D01*
X3520287Y-3302050D01*
X3516376Y-3300984D01*
X3511702Y-3300018D01*
X3506825Y-3299358D01*
G37*
G36*
X3349599Y-3507232D02*
G01*
X3341268Y-3507435D01*
X3334054Y-3508197D01*
X3328517Y-3509467D01*
X3324301Y-3510787D01*
X3319779Y-3511854D01*
X3315614Y-3512565D01*
X3309112Y-3513277D01*
X3305352Y-3514496D01*
X3301441Y-3516325D01*
X3297885Y-3518509D01*
X3293922Y-3521913D01*
X3291586Y-3525621D01*
X3290417Y-3530498D01*
X3290240Y-3535375D01*
X3343351Y-3535375D01*
X3343605Y-3535019D01*
X3348685Y-3534664D01*
X3354222Y-3534918D01*
X3355035Y-3535273D01*
X3354273Y-3535679D01*
X3349853Y-3536137D01*
X3344773Y-3535730D01*
X3343351Y-3535375D01*
X3290240Y-3535375D01*
X3290163Y-3537508D01*
X3290671Y-3546043D01*
X3292856Y-3551326D01*
X3297682Y-3554526D01*
X3309416Y-3557574D01*
X3316173Y-3559911D01*
X3318611Y-3561130D01*
X3322726Y-3562553D01*
X3329330Y-3563620D01*
X3337610Y-3564432D01*
X3346856Y-3564890D01*
X3356254Y-3564991D01*
X3364992Y-3564686D01*
X3372408Y-3563975D01*
X3377590Y-3562807D01*
X3382111Y-3561435D01*
X3385413Y-3560927D01*
X3388156Y-3561435D01*
X3391052Y-3562858D01*
X3395065Y-3564178D01*
X3402228Y-3565448D01*
X3411778Y-3566515D01*
X3423005Y-3567328D01*
X3436620Y-3567887D01*
X3445814Y-3567836D01*
X3451910Y-3567074D01*
X3459327Y-3564229D01*
X3463086Y-3563162D01*
X3467049Y-3562451D01*
X3475736Y-3561740D01*
X3480104Y-3560622D01*
X3483864Y-3558743D01*
X3486962Y-3556203D01*
X3489401Y-3552951D01*
X3491179Y-3549040D01*
X3492246Y-3544468D01*
X3492601Y-3539286D01*
X3492296Y-3532936D01*
X3491331Y-3528364D01*
X3489553Y-3525113D01*
X3486810Y-3522827D01*
X3484168Y-3521456D01*
X3481324Y-3520287D01*
X3478529Y-3519525D01*
X3473704Y-3518966D01*
X3470503Y-3518103D01*
X3467100Y-3516833D01*
X3458667Y-3513124D01*
X3452520Y-3511448D01*
X3445560Y-3510229D01*
X3438042Y-3509518D01*
X3430219Y-3509314D01*
X3422294Y-3509670D01*
X3414572Y-3510534D01*
X3407257Y-3511956D01*
X3398621Y-3513937D01*
X3393186Y-3514648D01*
X3389426Y-3514140D01*
X3385921Y-3512413D01*
X3381451Y-3510635D01*
X3374948Y-3509162D01*
X3367074Y-3508095D01*
X3358387Y-3507435D01*
G37*
G36*
X3291027Y-3631031D02*
G01*
X3282696Y-3631437D01*
X3278936Y-3632403D01*
X3275584Y-3634028D01*
X3272688Y-3636365D01*
X3270148Y-3639413D01*
X3267964Y-3643274D01*
X3266135Y-3647948D01*
X3264611Y-3653485D01*
X3262928Y-3662629D01*
X3315462Y-3662629D01*
X3316427Y-3660648D01*
X3319526Y-3659581D01*
X3324758Y-3659327D01*
X3332378Y-3659886D01*
X3339642Y-3661054D01*
X3343351Y-3662476D01*
X3343198Y-3664051D01*
X3339134Y-3665677D01*
X3335385Y-3665982D01*
X3394557Y-3665982D01*
X3395218Y-3664458D01*
X3397453Y-3663492D01*
X3401364Y-3662934D01*
X3407206Y-3662730D01*
X3412998Y-3662934D01*
X3416960Y-3663492D01*
X3419144Y-3664458D01*
X3419856Y-3665982D01*
X3419144Y-3667455D01*
X3416960Y-3668420D01*
X3412998Y-3668979D01*
X3407206Y-3669182D01*
X3401364Y-3668979D01*
X3397453Y-3668420D01*
X3395218Y-3667455D01*
X3394557Y-3665982D01*
X3335385Y-3665982D01*
X3332886Y-3666185D01*
X3325063Y-3665626D01*
X3318306Y-3664305D01*
X3315462Y-3662629D01*
X3262928Y-3662629D01*
X3262274Y-3667404D01*
X3262629Y-3672078D01*
X3264763Y-3675379D01*
X3269132Y-3678732D01*
X3272688Y-3680815D01*
X3276396Y-3682542D01*
X3279851Y-3683711D01*
X3284931Y-3684473D01*
X3287471Y-3685235D01*
X3289909Y-3686454D01*
X3291840Y-3687876D01*
X3295091Y-3689654D01*
X3300831Y-3691077D01*
X3309670Y-3692144D01*
X3322269Y-3693007D01*
X3336493Y-3693617D01*
X3345687Y-3693515D01*
X3351987Y-3692448D01*
X3357473Y-3690264D01*
X3362655Y-3687876D01*
X3365906Y-3687165D01*
X3368446Y-3688029D01*
X3371748Y-3690518D01*
X3374390Y-3691991D01*
X3378504Y-3693312D01*
X3383838Y-3694480D01*
X3396742Y-3696157D01*
X3410813Y-3696970D01*
X3417620Y-3697020D01*
X3423818Y-3696766D01*
X3429152Y-3696258D01*
X3433368Y-3695395D01*
X3438855Y-3692906D01*
X3442665Y-3691686D01*
X3447034Y-3690772D01*
X3456838Y-3689502D01*
X3461410Y-3688181D01*
X3465271Y-3686149D01*
X3468420Y-3683254D01*
X3471011Y-3679545D01*
X3472992Y-3674922D01*
X3474516Y-3669233D01*
X3475634Y-3662527D01*
X3476498Y-3653688D01*
X3476244Y-3648201D01*
X3474618Y-3644696D01*
X3470300Y-3641242D01*
X3468115Y-3640074D01*
X3465118Y-3639108D01*
X3460800Y-3638245D01*
X3454400Y-3637483D01*
X3432810Y-3636010D01*
X3344875Y-3632149D01*
X3313785Y-3631234D01*
G37*
G36*
X3281324Y-3705250D02*
G01*
X3275076Y-3705453D01*
X3269234Y-3706266D01*
X3264103Y-3707688D01*
X3260191Y-3709822D01*
X3257448Y-3712921D01*
X3255264Y-3717391D01*
X3253638Y-3722827D01*
X3252673Y-3728618D01*
X3252419Y-3734358D01*
X3252876Y-3739438D01*
X3254146Y-3743502D01*
X3256279Y-3745890D01*
X3260090Y-3747566D01*
X3264662Y-3748735D01*
X3269792Y-3749497D01*
X3275177Y-3749751D01*
X3280562Y-3749598D01*
X3285693Y-3748938D01*
X3290315Y-3747820D01*
X3296970Y-3744874D01*
X3299866Y-3743858D01*
X3303473Y-3743198D01*
X3308502Y-3742842D01*
X3315563Y-3742791D01*
X3338423Y-3743604D01*
X3372053Y-3745179D01*
X3394608Y-3746550D01*
X3401720Y-3747262D01*
X3406851Y-3748074D01*
X3410559Y-3749090D01*
X3413302Y-3750360D01*
X3419754Y-3754323D01*
X3424174Y-3755898D01*
X3429609Y-3756710D01*
X3436467Y-3756964D01*
X3447694Y-3756304D01*
X3455568Y-3753967D01*
X3460800Y-3749700D01*
X3464204Y-3742994D01*
X3466693Y-3733901D01*
X3466795Y-3727043D01*
X3464458Y-3721709D01*
X3459530Y-3717290D01*
X3455619Y-3715105D01*
X3451199Y-3713530D01*
X3446424Y-3712514D01*
X3441446Y-3712057D01*
X3436416Y-3712210D01*
X3431387Y-3712972D01*
X3426612Y-3714292D01*
X3419500Y-3717594D01*
X3416604Y-3718610D01*
X3412947Y-3719220D01*
X3407867Y-3719576D01*
X3400755Y-3719626D01*
X3377895Y-3718915D01*
X3344011Y-3717442D01*
X3321354Y-3716121D01*
X3314395Y-3715461D01*
X3309518Y-3714648D01*
X3306165Y-3713632D01*
X3303778Y-3712362D01*
X3301746Y-3710736D01*
X3298088Y-3708450D01*
X3293211Y-3706774D01*
X3287471Y-3705707D01*
G37*
G36*
X3431184Y-3773932D02*
G01*
X3425342Y-3774287D01*
X3419856Y-3775303D01*
X3414928Y-3776878D01*
X3410915Y-3779062D01*
X3408222Y-3781196D01*
X3406038Y-3783431D01*
X3404565Y-3785362D01*
X3404006Y-3786886D01*
X3402533Y-3788257D01*
X3397250Y-3788918D01*
X3386886Y-3788918D01*
X3294735Y-3785565D01*
X3264915Y-3785158D01*
X3257448Y-3785362D01*
X3252165Y-3785819D01*
X3248761Y-3786428D01*
X3246983Y-3787241D01*
X3242868Y-3791661D01*
X3241243Y-3796029D01*
X3241954Y-3800195D01*
X3245154Y-3804056D01*
X3247339Y-3805783D01*
X3249574Y-3807155D01*
X3252571Y-3808171D01*
X3257092Y-3808984D01*
X3273399Y-3810203D01*
X3357016Y-3814064D01*
X3396691Y-3814826D01*
X3400501Y-3823360D01*
X3403041Y-3828389D01*
X3406698Y-3831285D01*
X3413963Y-3833164D01*
X3427323Y-3835146D01*
X3434486Y-3835146D01*
X3441547Y-3833622D01*
X3447440Y-3830828D01*
X3451098Y-3827170D01*
X3452317Y-3823715D01*
X3453637Y-3817924D01*
X3454958Y-3810660D01*
X3456025Y-3802634D01*
X3457041Y-3791813D01*
X3456889Y-3785311D01*
X3455212Y-3781501D01*
X3451707Y-3778554D01*
X3447592Y-3776472D01*
X3442614Y-3774998D01*
X3437077Y-3774135D01*
G37*
G36*
X3240328Y-3909466D02*
G01*
X3234639Y-3909720D01*
X3230270Y-3910685D01*
X3226612Y-3912412D01*
X3222345Y-3916934D01*
X3220669Y-3922776D01*
X3221634Y-3928465D01*
X3225342Y-3932631D01*
X3227273Y-3933647D01*
X3229356Y-3934409D01*
X3232200Y-3935069D01*
X3242310Y-3936034D01*
X3293313Y-3938473D01*
X3314344Y-3939794D01*
X3320542Y-3940657D01*
X3324453Y-3941673D01*
X3326587Y-3942994D01*
X3327349Y-3944721D01*
X3327349Y-3946906D01*
X3326637Y-3949954D01*
X3324555Y-3951427D01*
X3319729Y-3951681D01*
X3295650Y-3950157D01*
X3266084Y-3948734D01*
X3235198Y-3947769D01*
X3227679Y-3948023D01*
X3222294Y-3948734D01*
X3218535Y-3950055D01*
X3215995Y-3952087D01*
X3214166Y-3954881D01*
X3212642Y-3958640D01*
X3211982Y-3961485D01*
X3212388Y-3963974D01*
X3213912Y-3966260D01*
X3217672Y-3969105D01*
X3220313Y-3970223D01*
X3224123Y-3971239D01*
X3229660Y-3972204D01*
X3247796Y-3974084D01*
X3278581Y-3976166D01*
X3408679Y-3983380D01*
X3415537Y-3983177D01*
X3421075Y-3982465D01*
X3425444Y-3981196D01*
X3428644Y-3979367D01*
X3430828Y-3976878D01*
X3432098Y-3973728D01*
X3432505Y-3969867D01*
X3430930Y-3964584D01*
X3426714Y-3960215D01*
X3420567Y-3957269D01*
X3413150Y-3956151D01*
X3409289Y-3955237D01*
X3406292Y-3953001D01*
X3404819Y-3950258D01*
X3405530Y-3947668D01*
X3407105Y-3946906D01*
X3414674Y-3945280D01*
X3425951Y-3943553D01*
X3431082Y-3941876D01*
X3434892Y-3939692D01*
X3437483Y-3937050D01*
X3438651Y-3934104D01*
X3438347Y-3930954D01*
X3436620Y-3927652D01*
X3433267Y-3924300D01*
X3430270Y-3922572D01*
X3425342Y-3921099D01*
X3418332Y-3919778D01*
X3408984Y-3918559D01*
X3396945Y-3917442D01*
X3373374Y-3915918D01*
X3300933Y-3912615D01*
G37*
G36*
X3232861Y-3986174D02*
G01*
X3223361Y-3986631D01*
X3219754Y-3986987D01*
X3214420Y-3988155D01*
X3210915Y-3989832D01*
X3209645Y-3990898D01*
X3205937Y-3995369D01*
X3204464Y-3999433D01*
X3205124Y-4003040D01*
X3207918Y-4006037D01*
X3212693Y-4008526D01*
X3219450Y-4010304D01*
X3228136Y-4011422D01*
X3238601Y-4011828D01*
X3258413Y-4011828D01*
X3256788Y-4025392D01*
X3222040Y-4024782D01*
X3213963Y-4025239D01*
X3208426Y-4026306D01*
X3206615Y-4027119D01*
X3309315Y-4027119D01*
X3309365Y-4025595D01*
X3310483Y-4021277D01*
X3312007Y-4018076D01*
X3314598Y-4016501D01*
X3319729Y-4016248D01*
X3336493Y-4017416D01*
X3352444Y-4018127D01*
X3366668Y-4018381D01*
X3370630Y-4019245D01*
X3372154Y-4021480D01*
X3372408Y-4025798D01*
X3372154Y-4029760D01*
X3371189Y-4031894D01*
X3369056Y-4032605D01*
X3344265Y-4030573D01*
X3325317Y-4029456D01*
X3312058Y-4028338D01*
X3309670Y-4027881D01*
X3309315Y-4027119D01*
X3206615Y-4027119D01*
X3204464Y-4028084D01*
X3200857Y-4031081D01*
X3198876Y-4034434D01*
X3198368Y-4038041D01*
X3199333Y-4041597D01*
X3201568Y-4044899D01*
X3205022Y-4047744D01*
X3209645Y-4049979D01*
X3215233Y-4051300D01*
X3235452Y-4052671D01*
X3313988Y-4056634D01*
X3348634Y-4058665D01*
X3365601Y-4059275D01*
X3375660Y-4059377D01*
X3382467Y-4058970D01*
X3386836Y-4057954D01*
X3392017Y-4054703D01*
X3395370Y-4053535D01*
X3399332Y-4052773D01*
X3403600Y-4052519D01*
X3413201Y-4051300D01*
X3420313Y-4047845D01*
X3424682Y-4042156D01*
X3426155Y-4034485D01*
X3426561Y-4026966D01*
X3426917Y-4024020D01*
X3427729Y-4020667D01*
X3427679Y-4018584D01*
X3427272Y-4016298D01*
X3426510Y-4014012D01*
X3424783Y-4011523D01*
X3421837Y-4009237D01*
X3417620Y-4007307D01*
X3406851Y-4003954D01*
X3401364Y-4001922D01*
X3396437Y-3999687D01*
X3389223Y-3995572D01*
X3385362Y-3993997D01*
X3381451Y-3992879D01*
X3273856Y-3987292D01*
X3254044Y-3986479D01*
G37*
G36*
X3210814Y-4063949D02*
G01*
X3202279Y-4065422D01*
X3196742Y-4068775D01*
X3193592Y-4074160D01*
X3192881Y-4076954D01*
X3192780Y-4079392D01*
X3193338Y-4081526D01*
X3194659Y-4083405D01*
X3196793Y-4084980D01*
X3199841Y-4086402D01*
X3203905Y-4087571D01*
X3209086Y-4088587D01*
X3222955Y-4090263D01*
X3256889Y-4092651D01*
X3268726Y-4093718D01*
X3276396Y-4094784D01*
X3278378Y-4095242D01*
X3278835Y-4095597D01*
X3277311Y-4096258D01*
X3274364Y-4096765D01*
X3260191Y-4097172D01*
X3255670Y-4097883D01*
X3251962Y-4099306D01*
X3245002Y-4104081D01*
X3240328Y-4105300D01*
X3232708Y-4105503D01*
X3207613Y-4104233D01*
X3199942Y-4104386D01*
X3195167Y-4105351D01*
X3191713Y-4107434D01*
X3186684Y-4112615D01*
X3184448Y-4117949D01*
X3185007Y-4123080D01*
X3188462Y-4127601D01*
X3190849Y-4129125D01*
X3194558Y-4130446D01*
X3200044Y-4131614D01*
X3207664Y-4132783D01*
X3231388Y-4134967D01*
X3269284Y-4137304D01*
X3369462Y-4142638D01*
X3393389Y-4144162D01*
X3398875Y-4143857D01*
X3403142Y-4142638D01*
X3407257Y-4140250D01*
X3410508Y-4137710D01*
X3412286Y-4135170D01*
X3412845Y-4132326D01*
X3412236Y-4128871D01*
X3410915Y-4125468D01*
X3408883Y-4122572D01*
X3406140Y-4120134D01*
X3402736Y-4118101D01*
X3398570Y-4116527D01*
X3393694Y-4115409D01*
X3388004Y-4114647D01*
X3365347Y-4113784D01*
X3360369Y-4113326D01*
X3334308Y-4112209D01*
X3330600Y-4111853D01*
X3331667Y-4111294D01*
X3341624Y-4109364D01*
X3346450Y-4107942D01*
X3350920Y-4106265D01*
X3358794Y-4102354D01*
X3364179Y-4101236D01*
X3372154Y-4100931D01*
X3393541Y-4101541D01*
X3400856Y-4101439D01*
X3406546Y-4100931D01*
X3410712Y-4099814D01*
X3413607Y-4098137D01*
X3415436Y-4095800D01*
X3416401Y-4092651D01*
X3416655Y-4088688D01*
X3416300Y-4084624D01*
X3415131Y-4081576D01*
X3412947Y-4079290D01*
X3409543Y-4077411D01*
X3404565Y-4076090D01*
X3396183Y-4074820D01*
X3385565Y-4073702D01*
X3323132Y-4069892D01*
X3222904Y-4064152D01*
G37*
G36*
X3231184Y-4147464D02*
G01*
X3224733Y-4147921D01*
X3218738Y-4149090D01*
X3209594Y-4152646D01*
X3205124Y-4154017D01*
X3200654Y-4154982D01*
X3191713Y-4155694D01*
X3187192Y-4156862D01*
X3183178Y-4158792D01*
X3179724Y-4161485D01*
X3176828Y-4164990D01*
X3174441Y-4169206D01*
X3172663Y-4174236D01*
X3171393Y-4179976D01*
X3170580Y-4186529D01*
X3170377Y-4191965D01*
X3170885Y-4196384D01*
X3172206Y-4199940D01*
X3174288Y-4202734D01*
X3177286Y-4204868D01*
X3181248Y-4206494D01*
X3191154Y-4208983D01*
X3196082Y-4210710D01*
X3200450Y-4212793D01*
X3207715Y-4217517D01*
X3213658Y-4219194D01*
X3223564Y-4220210D01*
X3248761Y-4221327D01*
X3261715Y-4221530D01*
X3266084Y-4221276D01*
X3269488Y-4220819D01*
X3272231Y-4220057D01*
X3274720Y-4219041D01*
X3280816Y-4215892D01*
X3285032Y-4214469D01*
X3289401Y-4213504D01*
X3293313Y-4213148D01*
X3301288Y-4211980D01*
X3307537Y-4208475D01*
X3312109Y-4202684D01*
X3314903Y-4194606D01*
X3316325Y-4189272D01*
X3318052Y-4186021D01*
X3320643Y-4184243D01*
X3324504Y-4183481D01*
X3334359Y-4183227D01*
X3341420Y-4184548D01*
X3345687Y-4187393D01*
X3347110Y-4191863D01*
X3346856Y-4194505D01*
X3346196Y-4196283D01*
X3345129Y-4197146D01*
X3341827Y-4196537D01*
X3339033Y-4196384D01*
X3332479Y-4196943D01*
X3326129Y-4199585D01*
X3320897Y-4204411D01*
X3317798Y-4210151D01*
X3317849Y-4215638D01*
X3320796Y-4219651D01*
X3325825Y-4223054D01*
X3332429Y-4225645D01*
X3339947Y-4227423D01*
X3347821Y-4228185D01*
X3355492Y-4227931D01*
X3362299Y-4226509D01*
X3370732Y-4222089D01*
X3374593Y-4220718D01*
X3378911Y-4219854D01*
X3389071Y-4219244D01*
X3393744Y-4218330D01*
X3397554Y-4216603D01*
X3400551Y-4214063D01*
X3402837Y-4210507D01*
X3404565Y-4205884D01*
X3405784Y-4200144D01*
X3406546Y-4193082D01*
X3407156Y-4182872D01*
X3406597Y-4177029D01*
X3404158Y-4173626D01*
X3399231Y-4170629D01*
X3395472Y-4168851D01*
X3391611Y-4167378D01*
X3388207Y-4166362D01*
X3383026Y-4165600D01*
X3379673Y-4164431D01*
X3375964Y-4162704D01*
X3369716Y-4159046D01*
X3367024Y-4157776D01*
X3364026Y-4156760D01*
X3360420Y-4155948D01*
X3350463Y-4154779D01*
X3334918Y-4153915D01*
X3319322Y-4153357D01*
X3309620Y-4153509D01*
X3303676Y-4154525D01*
X3296107Y-4158132D01*
X3292398Y-4159250D01*
X3288588Y-4159910D01*
X3280765Y-4160012D01*
X3276549Y-4160977D01*
X3272586Y-4162704D01*
X3268979Y-4165142D01*
X3265830Y-4168292D01*
X3263188Y-4171950D01*
X3261156Y-4176166D01*
X3258007Y-4187596D01*
X3254756Y-4191000D01*
X3248304Y-4191660D01*
X3236772Y-4190390D01*
X3231743Y-4189476D01*
X3228746Y-4188155D01*
X3227273Y-4186123D01*
X3226866Y-4183024D01*
X3227171Y-4179824D01*
X3228543Y-4178046D01*
X3231540Y-4177284D01*
X3242818Y-4176826D01*
X3247847Y-4175556D01*
X3252012Y-4173474D01*
X3255111Y-4170679D01*
X3257143Y-4167276D01*
X3257956Y-4163415D01*
X3257448Y-4159199D01*
X3255619Y-4154678D01*
X3253079Y-4152087D01*
X3248964Y-4150055D01*
X3243681Y-4148582D01*
X3237585Y-4147667D01*
G37*
G36*
X3186328Y-4230878D02*
G01*
X3178352Y-4231233D01*
X3175558Y-4231690D01*
X3173323Y-4232300D01*
X3168548Y-4234789D01*
X3164941Y-4238193D01*
X3162655Y-4242104D01*
X3161639Y-4246321D01*
X3161893Y-4250486D01*
X3163519Y-4254347D01*
X3166516Y-4257548D01*
X3170885Y-4259783D01*
X3175660Y-4260799D01*
X3183585Y-4261815D01*
X3193542Y-4262780D01*
X3215640Y-4264152D01*
X3224784Y-4264914D01*
X3231997Y-4265777D01*
X3237484Y-4266793D01*
X3241395Y-4268012D01*
X3243986Y-4269486D01*
X3245408Y-4271213D01*
X3245866Y-4273346D01*
X3245764Y-4274820D01*
X3245256Y-4275937D01*
X3243935Y-4276699D01*
X3241395Y-4277156D01*
X3231286Y-4277156D01*
X3176828Y-4274870D01*
X3171799Y-4274820D01*
X3165602Y-4275937D01*
X3160725Y-4278731D01*
X3157270Y-4283252D01*
X3155188Y-4289399D01*
X3154832Y-4291634D01*
X3154781Y-4293717D01*
X3155086Y-4295648D01*
X3155746Y-4297375D01*
X3156813Y-4299000D01*
X3158388Y-4300474D01*
X3160471Y-4301794D01*
X3163163Y-4303014D01*
X3170377Y-4305198D01*
X3180486Y-4307027D01*
X3193796Y-4308602D01*
X3210712Y-4310075D01*
X3364484Y-4318965D01*
X3370834Y-4319117D01*
X3376269Y-4318609D01*
X3380892Y-4317441D01*
X3384651Y-4315663D01*
X3387547Y-4313174D01*
X3389629Y-4310024D01*
X3390900Y-4306214D01*
X3391306Y-4301693D01*
X3390900Y-4298340D01*
X3389477Y-4295495D01*
X3386836Y-4293108D01*
X3382822Y-4291126D01*
X3377336Y-4289501D01*
X3370173Y-4288180D01*
X3361232Y-4287012D01*
X3335070Y-4284878D01*
X3315106Y-4282948D01*
X3309365Y-4281982D01*
X3305759Y-4280916D01*
X3303778Y-4279595D01*
X3302965Y-4277969D01*
X3302863Y-4273296D01*
X3303270Y-4272432D01*
X3304286Y-4271772D01*
X3306165Y-4271365D01*
X3313328Y-4271162D01*
X3326790Y-4271873D01*
X3362909Y-4274413D01*
X3372154Y-4274870D01*
X3378708Y-4274566D01*
X3383889Y-4273346D01*
X3389020Y-4271010D01*
X3395421Y-4265777D01*
X3397859Y-4259681D01*
X3396234Y-4253433D01*
X3390595Y-4247997D01*
X3386378Y-4245965D01*
X3380841Y-4244340D01*
X3374085Y-4243171D01*
X3206191Y-4231640D01*
G37*
G36*
X3171850Y-4318558D02*
G01*
X3164281Y-4318660D01*
X3158896Y-4319219D01*
X3155543Y-4320286D01*
X3152851Y-4322470D01*
X3150260Y-4325924D01*
X3147822Y-4330446D01*
X3145586Y-4335983D01*
X3143605Y-4342434D01*
X3141929Y-4349648D01*
X3140557Y-4357624D01*
X3139541Y-4366158D01*
X3138525Y-4378502D01*
X3138728Y-4385665D01*
X3140608Y-4389780D01*
X3144570Y-4392980D01*
X3148787Y-4395419D01*
X3153206Y-4396740D01*
X3158947Y-4397146D01*
X3167024Y-4396790D01*
X3173374Y-4396232D01*
X3179216Y-4395368D01*
X3183940Y-4394301D01*
X3186938Y-4393234D01*
X3189020Y-4390847D01*
X3191256Y-4386224D01*
X3193389Y-4379976D01*
X3195269Y-4372610D01*
X3196691Y-4366006D01*
X3198063Y-4361129D01*
X3199739Y-4357674D01*
X3201974Y-4355541D01*
X3205124Y-4354474D01*
X3209493Y-4354271D01*
X3215487Y-4354779D01*
X3223310Y-4355795D01*
X3228136Y-4356709D01*
X3231184Y-4357928D01*
X3232759Y-4359757D01*
X3233572Y-4364837D01*
X3234588Y-4367784D01*
X3236061Y-4370832D01*
X3237839Y-4373626D01*
X3240735Y-4376674D01*
X3244291Y-4378706D01*
X3249117Y-4379976D01*
X3256026Y-4380738D01*
X3262020Y-4380941D01*
X3267506Y-4380636D01*
X3272434Y-4379772D01*
X3276854Y-4378350D01*
X3280664Y-4376470D01*
X3283864Y-4374032D01*
X3286455Y-4371086D01*
X3290315Y-4364228D01*
X3292652Y-4362145D01*
X3296056Y-4361180D01*
X3301085Y-4360926D01*
X3308705Y-4361027D01*
X3314547Y-4361383D01*
X3318764Y-4362246D01*
X3321659Y-4363821D01*
X3323488Y-4366310D01*
X3324453Y-4369968D01*
X3324860Y-4374997D01*
X3325164Y-4391456D01*
X3326180Y-4397552D01*
X3328517Y-4401566D01*
X3332683Y-4404918D01*
X3337001Y-4407154D01*
X3342132Y-4408779D01*
X3347872Y-4409897D01*
X3353815Y-4410354D01*
X3359708Y-4410202D01*
X3365195Y-4409490D01*
X3369919Y-4408119D01*
X3373678Y-4406087D01*
X3376269Y-4403140D01*
X3378555Y-4398568D01*
X3380587Y-4392726D01*
X3382314Y-4385868D01*
X3383635Y-4378452D01*
X3384600Y-4370679D01*
X3385108Y-4362958D01*
X3385159Y-4355642D01*
X3384753Y-4348988D01*
X3383787Y-4343349D01*
X3382314Y-4339132D01*
X3380282Y-4336542D01*
X3377336Y-4335221D01*
X3372967Y-4333951D01*
X3367633Y-4332884D01*
X3358591Y-4331919D01*
X3303219Y-4327347D01*
X3253028Y-4323537D01*
X3194354Y-4319727D01*
G37*
G36*
X3153918Y-4407560D02*
G01*
X3145637Y-4408220D01*
X3142691Y-4408932D01*
X3140506Y-4409795D01*
X3137865Y-4411980D01*
X3135477Y-4415383D01*
X3133293Y-4419803D01*
X3131362Y-4425188D01*
X3129788Y-4431284D01*
X3128568Y-4437989D01*
X3127756Y-4445152D01*
X3127509Y-4451197D01*
X3184144Y-4451197D01*
X3185414Y-4448098D01*
X3187344Y-4444847D01*
X3198012Y-4445101D01*
X3299968Y-4452010D01*
X3305759Y-4452772D01*
X3309924Y-4453636D01*
X3312718Y-4454702D01*
X3314395Y-4456023D01*
X3315208Y-4457750D01*
X3315462Y-4459833D01*
X3314954Y-4462272D01*
X3312515Y-4463440D01*
X3306572Y-4463592D01*
X3261867Y-4460494D01*
X3203397Y-4455718D01*
X3195218Y-4454855D01*
X3189681Y-4454042D01*
X3186277Y-4453229D01*
X3184601Y-4452315D01*
X3184144Y-4451197D01*
X3127509Y-4451197D01*
X3127552Y-4461967D01*
X3128365Y-4467809D01*
X3130194Y-4471263D01*
X3133394Y-4473498D01*
X3136290Y-4474667D01*
X3139694Y-4475632D01*
X3143148Y-4476292D01*
X3149396Y-4477004D01*
X3152952Y-4478375D01*
X3156559Y-4480356D01*
X3164128Y-4486198D01*
X3169412Y-4488230D01*
X3177692Y-4489500D01*
X3230930Y-4493158D01*
X3306572Y-4498695D01*
X3313582Y-4498898D01*
X3318611Y-4498746D01*
X3322320Y-4498289D01*
X3325215Y-4497476D01*
X3332073Y-4494784D01*
X3337306Y-4493361D01*
X3343046Y-4492244D01*
X3354984Y-4490618D01*
X3360318Y-4488891D01*
X3364636Y-4486300D01*
X3368090Y-4482592D01*
X3370681Y-4477715D01*
X3372662Y-4471466D01*
X3373983Y-4463694D01*
X3374898Y-4454296D01*
X3375406Y-4442815D01*
X3375050Y-4435551D01*
X3373424Y-4431030D01*
X3370376Y-4427728D01*
X3366820Y-4425391D01*
X3362248Y-4423714D01*
X3356305Y-4422546D01*
X3348685Y-4421784D01*
X3250590Y-4414469D01*
X3165602Y-4407814D01*
G37*
G36*
X1845564Y-3496564D02*
G01*
X1845564Y-3550920D01*
X1852422Y-3550920D01*
X1854454Y-3532632D01*
X1890775Y-3532378D01*
X1914143Y-3551682D01*
X1854200Y-3583940D01*
X1852422Y-3567684D01*
X1845564Y-3567684D01*
X1845564Y-3617722D01*
X1852422Y-3617722D01*
X1854200Y-3602482D01*
X1926589Y-3562350D01*
X1966722Y-3595370D01*
X1969007Y-3613912D01*
X1975866Y-3613912D01*
X1975866Y-3569208D01*
X1969007Y-3569208D01*
X1966468Y-3584701D01*
X1902206Y-3532378D01*
X1967230Y-3532632D01*
X1969007Y-3551174D01*
X1975866Y-3551174D01*
X1975866Y-3496564D01*
X1969007Y-3496564D01*
X1967230Y-3514851D01*
X1941525Y-3515055D01*
X1873453Y-3515055D01*
X1854200Y-3514851D01*
X1852422Y-3496564D01*
G37*
G36*
X1845564Y-3625342D02*
G01*
X1845564Y-3671315D01*
X1852422Y-3671315D01*
X1854962Y-3650487D01*
X1953514Y-3650234D01*
X1844293Y-3729736D01*
X1844293Y-3736594D01*
X1966722Y-3736848D01*
X1969007Y-3753104D01*
X1975866Y-3753104D01*
X1975866Y-3707129D01*
X1969007Y-3707129D01*
X1966722Y-3727958D01*
X1876298Y-3728212D01*
X1975866Y-3656329D01*
X1975866Y-3626358D01*
X1969007Y-3626358D01*
X1967230Y-3640074D01*
X1964943Y-3642106D01*
X1854707Y-3641851D01*
X1852422Y-3625342D01*
G37*
G36*
X1845564Y-3754882D02*
G01*
X1845564Y-3798315D01*
X1852422Y-3798315D01*
X1854707Y-3779265D01*
X1888743Y-3790442D01*
X1888743Y-3792982D01*
X1896364Y-3792982D01*
X1956816Y-3812794D01*
X1896364Y-3833114D01*
X1896364Y-3792982D01*
X1888743Y-3792982D01*
X1888743Y-3835654D01*
X1854707Y-3846829D01*
X1852422Y-3827779D01*
X1845564Y-3827779D01*
X1845564Y-3880612D01*
X1852422Y-3880612D01*
X1854200Y-3865372D01*
X1976882Y-3823462D01*
X1976882Y-3812032D01*
X1854707Y-3770629D01*
X1852422Y-3754882D01*
G37*
G36*
X1898904Y-3890264D02*
G01*
X1890420Y-3890619D01*
X1882597Y-3891584D01*
X1875383Y-3893210D01*
X1868830Y-3895445D01*
X1862988Y-3898239D01*
X1857806Y-3901643D01*
X1853387Y-3905554D01*
X1849729Y-3909974D01*
X1846834Y-3914901D01*
X1844751Y-3920286D01*
X1843430Y-3926179D01*
X1843051Y-3932936D01*
X1850643Y-3932936D01*
X1850999Y-3929075D01*
X1852066Y-3925468D01*
X1853844Y-3922166D01*
X1856282Y-3919169D01*
X1859483Y-3916476D01*
X1863394Y-3914089D01*
X1867966Y-3912057D01*
X1873250Y-3910380D01*
X1879244Y-3909060D01*
X1885950Y-3908094D01*
X1893366Y-3907485D01*
X1905254Y-3907282D01*
X1909622Y-3913225D01*
X1912518Y-3919575D01*
X1914143Y-3926027D01*
X1914652Y-3932428D01*
X1914194Y-3937457D01*
X1912823Y-3941927D01*
X1910435Y-3945890D01*
X1907082Y-3949242D01*
X1902714Y-3951935D01*
X1897278Y-3953916D01*
X1890775Y-3955135D01*
X1883156Y-3955542D01*
X1875485Y-3955135D01*
X1868881Y-3953916D01*
X1863293Y-3951935D01*
X1858721Y-3949293D01*
X1855165Y-3945991D01*
X1852675Y-3942130D01*
X1851152Y-3937762D01*
X1850643Y-3932936D01*
X1843051Y-3932936D01*
X1843328Y-3938117D01*
X1844293Y-3943502D01*
X1845919Y-3948531D01*
X1848104Y-3953154D01*
X1850948Y-3957370D01*
X1854352Y-3961129D01*
X1858314Y-3964381D01*
X1862836Y-3967175D01*
X1867865Y-3969359D01*
X1873504Y-3970985D01*
X1879600Y-3971950D01*
X1886204Y-3972306D01*
X1891944Y-3972001D01*
X1897278Y-3971137D01*
X1902256Y-3969765D01*
X1906828Y-3967835D01*
X1910943Y-3965397D01*
X1914601Y-3962552D01*
X1917801Y-3959199D01*
X1920443Y-3955440D01*
X1922525Y-3951325D01*
X1924050Y-3946804D01*
X1925015Y-3941927D01*
X1925320Y-3936746D01*
X1924456Y-3929024D01*
X1921967Y-3921506D01*
X1917903Y-3914394D01*
X1912366Y-3907790D01*
X1918207Y-3908602D01*
X1923796Y-3909822D01*
X1929130Y-3911346D01*
X1934159Y-3913225D01*
X1938934Y-3915460D01*
X1943455Y-3918051D01*
X1947672Y-3921048D01*
X1951634Y-3924452D01*
X1955292Y-3928262D01*
X1958695Y-3932428D01*
X1961794Y-3937050D01*
X1964639Y-3942029D01*
X1967230Y-3947464D01*
X1969516Y-3953357D01*
X1971548Y-3959707D01*
X1973325Y-3966464D01*
X1978660Y-3965448D01*
X1977593Y-3958386D01*
X1976069Y-3951630D01*
X1974240Y-3945178D01*
X1971954Y-3939082D01*
X1969363Y-3933342D01*
X1966417Y-3927906D01*
X1963166Y-3922877D01*
X1959610Y-3918153D01*
X1955749Y-3913784D01*
X1951634Y-3909771D01*
X1947265Y-3906113D01*
X1942642Y-3902811D01*
X1937766Y-3899915D01*
X1932736Y-3897376D01*
X1927453Y-3895242D01*
X1922068Y-3893464D01*
X1916480Y-3892042D01*
X1910740Y-3891076D01*
X1904898Y-3890467D01*
G37*
G36*
X1911604Y-3988054D02*
G01*
X1902561Y-3988308D01*
X1894230Y-3988968D01*
X1886610Y-3990035D01*
X1879650Y-3991508D01*
X1873402Y-3993337D01*
X1867814Y-3995521D01*
X1862836Y-3997960D01*
X1858467Y-4000703D01*
X1854657Y-4003700D01*
X1851456Y-4006900D01*
X1848815Y-4010304D01*
X1846681Y-4013860D01*
X1845056Y-4017568D01*
X1843887Y-4021378D01*
X1843227Y-4025290D01*
X1843024Y-4029201D01*
X1850643Y-4029201D01*
X1850898Y-4026103D01*
X1851812Y-4023106D01*
X1853336Y-4020210D01*
X1855673Y-4017467D01*
X1858822Y-4014927D01*
X1862937Y-4012590D01*
X1868017Y-4010507D01*
X1874215Y-4008729D01*
X1881632Y-4007307D01*
X1890268Y-4006240D01*
X1900224Y-4005579D01*
X1911604Y-4005326D01*
X1922627Y-4005579D01*
X1932279Y-4006240D01*
X1940661Y-4007307D01*
X1947824Y-4008729D01*
X1953869Y-4010507D01*
X1958797Y-4012590D01*
X1962810Y-4014927D01*
X1965909Y-4017467D01*
X1968144Y-4020210D01*
X1969668Y-4023106D01*
X1970532Y-4026103D01*
X1970786Y-4029201D01*
X1970532Y-4032148D01*
X1969668Y-4035044D01*
X1968144Y-4037837D01*
X1965909Y-4040479D01*
X1962810Y-4042968D01*
X1958797Y-4045254D01*
X1953869Y-4047236D01*
X1947824Y-4048963D01*
X1940661Y-4050385D01*
X1932279Y-4051452D01*
X1922627Y-4052112D01*
X1911604Y-4052315D01*
X1900275Y-4052112D01*
X1890318Y-4051452D01*
X1881733Y-4050385D01*
X1874367Y-4048963D01*
X1868170Y-4047236D01*
X1863039Y-4045254D01*
X1858924Y-4042968D01*
X1855724Y-4040479D01*
X1853387Y-4037837D01*
X1851812Y-4035044D01*
X1850898Y-4032148D01*
X1850643Y-4029201D01*
X1843024Y-4029201D01*
X1843227Y-4033012D01*
X1843887Y-4036771D01*
X1845056Y-4040479D01*
X1846681Y-4044086D01*
X1848815Y-4047591D01*
X1851456Y-4050893D01*
X1854657Y-4054043D01*
X1858467Y-4056989D01*
X1862836Y-4059732D01*
X1867814Y-4062171D01*
X1873402Y-4064304D01*
X1879650Y-4066133D01*
X1886610Y-4067606D01*
X1894230Y-4068673D01*
X1902561Y-4069334D01*
X1911604Y-4069587D01*
X1920392Y-4069334D01*
X1928469Y-4068673D01*
X1935886Y-4067606D01*
X1942642Y-4066133D01*
X1948789Y-4064304D01*
X1954275Y-4062171D01*
X1959152Y-4059732D01*
X1963420Y-4056989D01*
X1967128Y-4054043D01*
X1970278Y-4050893D01*
X1972919Y-4047591D01*
X1975053Y-4044086D01*
X1976628Y-4040479D01*
X1977796Y-4036771D01*
X1978456Y-4033012D01*
X1978660Y-4029201D01*
X1978456Y-4025290D01*
X1977796Y-4021378D01*
X1976628Y-4017568D01*
X1975053Y-4013860D01*
X1972919Y-4010304D01*
X1970278Y-4006900D01*
X1967128Y-4003700D01*
X1963420Y-4000703D01*
X1959152Y-3997960D01*
X1954275Y-3995521D01*
X1948789Y-3993337D01*
X1942642Y-3991508D01*
X1935886Y-3990035D01*
X1928469Y-3988968D01*
X1920392Y-3988308D01*
G37*
G36*
X1870202Y-4086098D02*
G01*
X1863547Y-4087926D01*
X1857908Y-4090720D01*
X1853234Y-4094378D01*
X1849475Y-4098848D01*
X1846580Y-4104081D01*
X1844598Y-4109974D01*
X1843430Y-4116425D01*
X1843024Y-4123436D01*
X1843328Y-4129786D01*
X1844293Y-4135780D01*
X1845818Y-4141317D01*
X1847900Y-4146397D01*
X1850491Y-4151020D01*
X1853539Y-4155084D01*
X1857095Y-4158640D01*
X1861007Y-4161586D01*
X1865325Y-4163974D01*
X1869948Y-4165701D01*
X1874875Y-4166768D01*
X1880107Y-4167124D01*
X1886356Y-4166666D01*
X1892198Y-4165244D01*
X1897481Y-4162856D01*
X1902206Y-4159453D01*
X1906320Y-4155033D01*
X1909775Y-4149547D01*
X1912467Y-4142994D01*
X1914398Y-4135374D01*
X1916785Y-4141673D01*
X1919681Y-4147210D01*
X1923084Y-4151934D01*
X1926996Y-4155897D01*
X1931314Y-4158996D01*
X1936089Y-4161231D01*
X1941220Y-4162602D01*
X1946656Y-4163060D01*
X1953514Y-4162399D01*
X1959711Y-4160469D01*
X1965147Y-4157370D01*
X1969820Y-4153103D01*
X1973580Y-4147820D01*
X1976323Y-4141520D01*
X1978050Y-4134307D01*
X1978660Y-4126229D01*
X1978253Y-4119626D01*
X1977085Y-4113428D01*
X1975104Y-4107687D01*
X1972360Y-4102506D01*
X1968855Y-4098036D01*
X1964537Y-4094327D01*
X1959406Y-4091482D01*
X1953514Y-4089654D01*
X1950313Y-4091279D01*
X1948180Y-4093362D01*
X1947011Y-4095902D01*
X1946656Y-4098798D01*
X1947367Y-4102912D01*
X1949602Y-4105910D01*
X1953310Y-4108145D01*
X1958593Y-4109974D01*
X1969770Y-4113022D01*
X1970379Y-4115612D01*
X1970786Y-4120387D01*
X1970379Y-4127855D01*
X1969160Y-4132681D01*
X1967128Y-4136847D01*
X1964334Y-4140352D01*
X1960778Y-4143095D01*
X1956511Y-4145127D01*
X1951532Y-4146397D01*
X1945893Y-4146804D01*
X1939696Y-4146296D01*
X1934260Y-4144772D01*
X1929587Y-4142333D01*
X1925726Y-4139031D01*
X1922678Y-4134865D01*
X1920493Y-4129989D01*
X1919173Y-4124350D01*
X1918716Y-4118101D01*
X1918716Y-4110482D01*
X1909825Y-4110482D01*
X1909825Y-4119879D01*
X1909318Y-4126941D01*
X1907793Y-4133087D01*
X1905304Y-4138269D01*
X1901952Y-4142536D01*
X1897735Y-4145838D01*
X1892706Y-4148226D01*
X1886864Y-4149648D01*
X1880362Y-4150106D01*
X1874062Y-4149598D01*
X1868322Y-4148124D01*
X1863242Y-4145737D01*
X1858924Y-4142435D01*
X1855419Y-4138218D01*
X1852828Y-4133189D01*
X1851202Y-4127296D01*
X1850643Y-4120642D01*
X1850898Y-4115257D01*
X1851914Y-4109465D01*
X1863598Y-4106418D01*
X1869338Y-4104487D01*
X1873300Y-4102303D01*
X1875586Y-4099509D01*
X1876298Y-4095750D01*
X1875891Y-4092752D01*
X1874774Y-4090162D01*
X1872894Y-4087977D01*
G37*
G36*
X1949196Y-4183887D02*
G01*
X1946656Y-4185665D01*
X1944725Y-4187850D01*
X1943506Y-4190492D01*
X1943100Y-4193540D01*
X1943760Y-4196892D01*
X1945893Y-4199737D01*
X1949754Y-4202125D01*
X1955546Y-4204208D01*
X1969770Y-4208018D01*
X1970582Y-4213707D01*
X1970786Y-4218432D01*
X1970278Y-4223664D01*
X1968804Y-4228388D01*
X1966468Y-4232452D01*
X1963216Y-4235907D01*
X1959203Y-4238650D01*
X1954479Y-4240631D01*
X1949094Y-4241901D01*
X1943100Y-4242308D01*
X1937308Y-4241901D01*
X1931517Y-4240631D01*
X1925574Y-4238498D01*
X1919427Y-4235500D01*
X1913026Y-4231589D01*
X1906219Y-4226763D01*
X1898904Y-4221022D01*
X1879396Y-4204157D01*
X1857756Y-4184904D01*
X1845564Y-4184904D01*
X1845564Y-4264914D01*
X1860550Y-4264914D01*
X1860550Y-4197350D01*
X1898142Y-4233265D01*
X1909572Y-4243324D01*
X1914550Y-4247337D01*
X1919224Y-4250740D01*
X1923592Y-4253484D01*
X1927809Y-4255668D01*
X1931873Y-4257344D01*
X1935886Y-4258462D01*
X1939950Y-4259122D01*
X1944116Y-4259326D01*
X1949043Y-4259072D01*
X1953717Y-4258360D01*
X1958086Y-4257192D01*
X1962099Y-4255516D01*
X1965756Y-4253280D01*
X1969007Y-4250588D01*
X1971852Y-4247337D01*
X1974240Y-4243578D01*
X1976120Y-4239310D01*
X1977491Y-4234434D01*
X1978355Y-4228998D01*
X1978660Y-4223004D01*
X1978202Y-4215892D01*
X1976831Y-4209135D01*
X1974494Y-4202887D01*
X1971243Y-4197248D01*
X1967128Y-4192422D01*
X1962048Y-4188460D01*
X1956054Y-4185564D01*
G37*
G36*
X1898904Y-4280662D02*
G01*
X1890420Y-4281017D01*
X1882597Y-4281982D01*
X1875383Y-4283608D01*
X1868830Y-4285843D01*
X1862988Y-4288637D01*
X1857806Y-4292041D01*
X1853387Y-4295952D01*
X1849729Y-4300372D01*
X1846834Y-4305300D01*
X1844751Y-4310684D01*
X1843430Y-4316577D01*
X1843050Y-4323334D01*
X1850643Y-4323334D01*
X1850999Y-4319473D01*
X1852066Y-4315866D01*
X1853844Y-4312564D01*
X1856282Y-4309567D01*
X1859483Y-4306874D01*
X1863394Y-4304487D01*
X1867966Y-4302455D01*
X1873250Y-4300778D01*
X1879244Y-4299458D01*
X1885950Y-4298492D01*
X1893366Y-4297883D01*
X1905254Y-4297680D01*
X1909622Y-4303776D01*
X1912518Y-4310075D01*
X1914143Y-4316476D01*
X1914652Y-4322826D01*
X1914194Y-4327855D01*
X1912823Y-4332325D01*
X1910435Y-4336288D01*
X1907082Y-4339640D01*
X1902714Y-4342333D01*
X1897278Y-4344314D01*
X1890775Y-4345533D01*
X1883156Y-4345940D01*
X1875485Y-4345533D01*
X1868881Y-4344314D01*
X1863293Y-4342333D01*
X1858721Y-4339691D01*
X1855165Y-4336389D01*
X1852675Y-4332528D01*
X1851152Y-4328160D01*
X1850643Y-4323334D01*
X1843050Y-4323334D01*
X1843328Y-4328566D01*
X1844293Y-4334002D01*
X1845919Y-4339031D01*
X1848104Y-4343654D01*
X1850948Y-4347870D01*
X1854352Y-4351629D01*
X1858314Y-4354880D01*
X1862836Y-4357624D01*
X1867865Y-4359808D01*
X1873504Y-4361383D01*
X1879600Y-4362348D01*
X1886204Y-4362704D01*
X1891944Y-4362399D01*
X1897278Y-4361535D01*
X1902256Y-4360164D01*
X1906828Y-4358233D01*
X1910943Y-4355846D01*
X1914601Y-4352950D01*
X1917801Y-4349648D01*
X1920443Y-4345940D01*
X1922525Y-4341825D01*
X1924050Y-4337354D01*
X1925015Y-4332528D01*
X1925320Y-4327398D01*
X1924456Y-4319524D01*
X1921967Y-4311954D01*
X1917903Y-4304893D01*
X1912366Y-4298442D01*
X1918207Y-4299254D01*
X1923796Y-4300372D01*
X1929130Y-4301896D01*
X1934159Y-4303725D01*
X1938934Y-4305960D01*
X1943455Y-4308602D01*
X1947672Y-4311599D01*
X1951634Y-4315002D01*
X1955292Y-4318762D01*
X1958695Y-4322927D01*
X1961794Y-4327550D01*
X1964639Y-4332528D01*
X1967230Y-4337964D01*
X1969516Y-4343857D01*
X1971548Y-4350105D01*
X1973325Y-4356862D01*
X1978660Y-4355846D01*
X1977593Y-4348784D01*
X1976069Y-4342028D01*
X1974240Y-4335576D01*
X1971954Y-4329480D01*
X1969363Y-4323740D01*
X1966417Y-4318304D01*
X1963166Y-4313275D01*
X1959610Y-4308551D01*
X1955749Y-4304182D01*
X1951634Y-4300169D01*
X1947265Y-4296511D01*
X1942642Y-4293209D01*
X1937766Y-4290314D01*
X1932736Y-4287774D01*
X1927453Y-4285640D01*
X1922068Y-4283862D01*
X1916480Y-4282440D01*
X1910740Y-4281474D01*
X1904898Y-4280865D01*
G37*
G36*
X1911604Y-4378452D02*
G01*
X1902561Y-4378706D01*
X1894230Y-4379366D01*
X1886610Y-4380433D01*
X1879650Y-4381906D01*
X1873402Y-4383735D01*
X1867814Y-4385919D01*
X1862836Y-4388358D01*
X1858467Y-4391101D01*
X1854657Y-4394098D01*
X1851456Y-4397298D01*
X1848815Y-4400702D01*
X1846681Y-4404258D01*
X1845056Y-4407966D01*
X1843887Y-4411776D01*
X1843227Y-4415688D01*
X1843024Y-4419600D01*
X1850643Y-4419600D01*
X1850898Y-4416501D01*
X1851812Y-4413504D01*
X1853336Y-4410608D01*
X1855673Y-4407865D01*
X1858822Y-4405325D01*
X1862937Y-4402988D01*
X1868017Y-4400905D01*
X1874215Y-4399127D01*
X1881632Y-4397705D01*
X1890268Y-4396638D01*
X1900224Y-4395978D01*
X1911604Y-4395724D01*
X1922627Y-4395978D01*
X1932279Y-4396638D01*
X1940661Y-4397705D01*
X1947824Y-4399127D01*
X1953869Y-4400905D01*
X1958797Y-4402988D01*
X1962810Y-4405325D01*
X1965909Y-4407865D01*
X1968144Y-4410608D01*
X1969668Y-4413504D01*
X1970532Y-4416501D01*
X1970786Y-4419600D01*
X1970532Y-4422546D01*
X1969668Y-4425442D01*
X1968144Y-4428236D01*
X1965909Y-4430877D01*
X1962810Y-4433366D01*
X1958797Y-4435652D01*
X1953869Y-4437634D01*
X1947824Y-4439361D01*
X1940661Y-4440783D01*
X1932279Y-4441850D01*
X1922627Y-4442510D01*
X1911604Y-4442714D01*
X1900275Y-4442510D01*
X1890318Y-4441850D01*
X1881733Y-4440783D01*
X1874367Y-4439361D01*
X1868170Y-4437634D01*
X1863039Y-4435652D01*
X1858924Y-4433366D01*
X1855724Y-4430877D01*
X1853387Y-4428236D01*
X1851812Y-4425442D01*
X1850898Y-4422546D01*
X1850643Y-4419600D01*
X1843024Y-4419600D01*
X1843227Y-4423410D01*
X1843887Y-4427169D01*
X1845056Y-4430877D01*
X1846681Y-4434535D01*
X1848815Y-4438040D01*
X1851456Y-4441393D01*
X1854657Y-4444593D01*
X1858467Y-4447540D01*
X1862836Y-4450283D01*
X1867814Y-4452721D01*
X1873402Y-4454906D01*
X1879650Y-4456734D01*
X1886610Y-4458208D01*
X1894230Y-4459325D01*
X1902561Y-4459986D01*
X1911604Y-4460240D01*
X1920392Y-4459986D01*
X1928469Y-4459325D01*
X1935886Y-4458208D01*
X1942642Y-4456734D01*
X1948789Y-4454906D01*
X1954275Y-4452721D01*
X1959152Y-4450283D01*
X1963420Y-4447540D01*
X1967128Y-4444593D01*
X1970278Y-4441393D01*
X1972919Y-4438040D01*
X1975053Y-4434535D01*
X1976628Y-4430877D01*
X1977796Y-4427169D01*
X1978456Y-4423410D01*
X1978660Y-4419600D01*
X1978456Y-4415688D01*
X1977796Y-4411776D01*
X1976628Y-4407966D01*
X1975053Y-4404258D01*
X1972919Y-4400702D01*
X1970278Y-4397298D01*
X1967128Y-4394098D01*
X1963420Y-4391101D01*
X1959152Y-4388358D01*
X1954275Y-4385919D01*
X1948789Y-4383735D01*
X1942642Y-4381906D01*
X1935886Y-4380433D01*
X1928469Y-4379366D01*
X1920392Y-4378706D01*
G37*
G36*
X1845564Y-4482592D02*
G01*
X1845564Y-4554474D01*
X1851660Y-4554474D01*
X1855470Y-4527042D01*
X1886712Y-4526788D01*
X1947672Y-4526788D01*
X1975866Y-4527550D01*
X1977898Y-4524756D01*
X1967230Y-4484878D01*
X1960625Y-4484878D01*
X1963166Y-4510786D01*
X1855470Y-4510532D01*
X1851660Y-4482592D01*
G37*
G36*
X1845564Y-4620006D02*
G01*
X1845564Y-4674616D01*
X1852422Y-4674616D01*
X1854454Y-4656582D01*
X1886356Y-4656328D01*
X1968246Y-4656582D01*
X1968246Y-4673600D01*
X1967788Y-4680712D01*
X1966468Y-4686757D01*
X1964283Y-4691837D01*
X1961337Y-4695952D01*
X1957578Y-4699101D01*
X1953006Y-4701336D01*
X1947773Y-4702606D01*
X1941830Y-4703064D01*
X1936038Y-4702606D01*
X1930704Y-4701133D01*
X1925980Y-4698746D01*
X1921865Y-4695393D01*
X1918512Y-4691024D01*
X1916023Y-4685690D01*
X1914448Y-4679391D01*
X1913889Y-4672076D01*
X1913889Y-4656328D01*
X1906270Y-4656328D01*
X1906270Y-4666488D01*
X1906066Y-4672126D01*
X1905457Y-4676952D01*
X1904339Y-4681016D01*
X1902510Y-4684369D01*
X1899970Y-4687214D01*
X1896618Y-4689551D01*
X1892300Y-4691532D01*
X1886966Y-4693158D01*
X1855978Y-4701032D01*
X1850288Y-4703267D01*
X1846427Y-4707128D01*
X1844243Y-4712868D01*
X1843532Y-4720844D01*
X1843684Y-4725162D01*
X1844090Y-4729073D01*
X1844700Y-4732528D01*
X1845564Y-4735576D01*
X1852422Y-4735576D01*
X1853692Y-4720336D01*
X1884425Y-4711446D01*
X1894078Y-4707585D01*
X1901189Y-4702606D01*
X1906016Y-4696206D01*
X1908810Y-4688078D01*
X1910740Y-4695850D01*
X1913483Y-4702657D01*
X1916938Y-4708398D01*
X1921052Y-4713122D01*
X1925624Y-4716830D01*
X1930704Y-4719472D01*
X1936140Y-4721047D01*
X1941830Y-4721606D01*
X1946960Y-4721250D01*
X1951736Y-4720183D01*
X1956155Y-4718405D01*
X1960118Y-4715967D01*
X1963724Y-4712868D01*
X1966823Y-4709160D01*
X1969566Y-4704842D01*
X1971802Y-4699914D01*
X1973529Y-4694377D01*
X1974850Y-4688332D01*
X1975612Y-4681728D01*
X1975866Y-4674616D01*
X1975866Y-4620006D01*
X1969007Y-4620006D01*
X1967230Y-4638040D01*
X1947976Y-4638446D01*
X1892807Y-4638548D01*
X1867001Y-4638344D01*
X1854200Y-4638040D01*
X1852422Y-4620006D01*
G37*
G36*
X1891030Y-4744720D02*
G01*
X1883664Y-4745075D01*
X1876907Y-4746142D01*
X1870659Y-4747920D01*
X1865020Y-4750308D01*
X1859991Y-4753305D01*
X1855622Y-4756861D01*
X1851812Y-4761026D01*
X1848713Y-4765649D01*
X1846224Y-4770780D01*
X1844446Y-4776317D01*
X1843379Y-4782312D01*
X1843024Y-4788662D01*
X1843430Y-4794910D01*
X1844598Y-4800701D01*
X1846478Y-4806035D01*
X1849069Y-4810912D01*
X1852269Y-4815281D01*
X1856079Y-4819142D01*
X1860499Y-4822596D01*
X1865375Y-4825492D01*
X1867916Y-4821682D01*
X1862175Y-4816195D01*
X1857806Y-4810048D01*
X1854962Y-4802886D01*
X1853946Y-4794250D01*
X1854555Y-4787392D01*
X1856384Y-4781194D01*
X1859381Y-4775708D01*
X1863648Y-4771034D01*
X1869084Y-4767224D01*
X1875688Y-4764328D01*
X1883511Y-4762500D01*
X1892554Y-4761738D01*
X1892554Y-4799584D01*
X1899666Y-4799584D01*
X1899920Y-4761992D01*
X1907997Y-4763211D01*
X1914855Y-4765344D01*
X1920544Y-4768138D01*
X1925116Y-4771593D01*
X1928571Y-4775454D01*
X1931009Y-4779619D01*
X1932482Y-4783988D01*
X1932939Y-4788408D01*
X1932482Y-4792980D01*
X1931111Y-4797145D01*
X1928977Y-4800803D01*
X1926234Y-4803952D01*
X1922830Y-4806492D01*
X1919020Y-4808423D01*
X1914804Y-4809591D01*
X1910334Y-4809998D01*
X1905965Y-4809540D01*
X1902612Y-4807915D01*
X1900428Y-4804765D01*
X1899666Y-4799584D01*
X1892554Y-4799584D01*
X1892554Y-4824476D01*
X1897227Y-4825390D01*
X1903222Y-4825746D01*
X1908810Y-4825441D01*
X1913991Y-4824526D01*
X1918817Y-4823053D01*
X1923186Y-4821021D01*
X1927098Y-4818481D01*
X1930552Y-4815484D01*
X1933549Y-4812030D01*
X1936038Y-4808220D01*
X1937969Y-4804003D01*
X1939391Y-4799431D01*
X1940255Y-4794554D01*
X1940560Y-4789424D01*
X1940153Y-4783480D01*
X1938985Y-4777740D01*
X1937054Y-4772253D01*
X1934362Y-4767122D01*
X1931009Y-4762347D01*
X1927047Y-4758029D01*
X1922424Y-4754219D01*
X1917192Y-4750968D01*
X1911400Y-4748326D01*
X1905101Y-4746345D01*
X1898294Y-4745126D01*
G37*
G36*
X1799082Y-4839970D02*
G01*
X1799082Y-4889754D01*
X1804924Y-4889754D01*
X1807464Y-4871974D01*
X1855978Y-4871720D01*
X1849678Y-4878120D01*
X1845716Y-4884724D01*
X1843633Y-4891430D01*
X1843393Y-4894072D01*
X1852930Y-4894072D01*
X1853488Y-4888636D01*
X1855165Y-4883251D01*
X1858162Y-4877816D01*
X1862582Y-4872228D01*
X1919986Y-4872228D01*
X1925421Y-4879492D01*
X1928672Y-4885791D01*
X1930247Y-4891278D01*
X1930654Y-4896104D01*
X1929993Y-4901438D01*
X1928114Y-4906264D01*
X1924913Y-4910531D01*
X1920544Y-4914188D01*
X1914906Y-4917186D01*
X1908048Y-4919370D01*
X1900021Y-4920792D01*
X1890775Y-4921250D01*
X1881479Y-4920691D01*
X1873605Y-4919116D01*
X1867103Y-4916627D01*
X1861870Y-4913274D01*
X1857857Y-4909261D01*
X1855114Y-4904638D01*
X1853438Y-4899558D01*
X1852930Y-4894072D01*
X1843393Y-4894072D01*
X1843024Y-4898136D01*
X1843430Y-4903724D01*
X1844598Y-4909007D01*
X1846478Y-4914036D01*
X1849069Y-4918659D01*
X1852371Y-4922875D01*
X1856333Y-4926634D01*
X1860905Y-4929936D01*
X1866087Y-4932730D01*
X1871827Y-4935016D01*
X1878177Y-4936642D01*
X1884984Y-4937658D01*
X1892300Y-4938014D01*
X1899564Y-4937658D01*
X1906270Y-4936693D01*
X1912467Y-4935169D01*
X1918157Y-4933035D01*
X1923186Y-4930394D01*
X1927656Y-4927295D01*
X1931517Y-4923790D01*
X1934718Y-4919878D01*
X1937257Y-4915611D01*
X1939086Y-4911039D01*
X1940204Y-4906213D01*
X1940560Y-4901184D01*
X1939747Y-4893411D01*
X1937156Y-4885842D01*
X1932635Y-4878527D01*
X1926082Y-4871466D01*
X1938528Y-4870196D01*
X1940306Y-4867402D01*
X1929638Y-4839970D01*
X1923796Y-4839970D01*
X1922272Y-4855718D01*
X1896618Y-4856226D01*
X1807210Y-4855972D01*
X1804924Y-4839970D01*
G37*
G36*
X1923796Y-4953254D02*
G01*
X1922272Y-4968748D01*
X1910588Y-4969205D01*
X1853692Y-4969002D01*
X1851660Y-4954778D01*
X1845564Y-4954778D01*
X1845564Y-5002022D01*
X1851660Y-5002022D01*
X1853946Y-4985766D01*
X1901698Y-4985512D01*
X1909978Y-4988610D01*
X1916938Y-4992420D01*
X1922780Y-4996992D01*
X1927606Y-5002530D01*
X1925320Y-5004816D01*
X1923084Y-5007559D01*
X1921408Y-5010404D01*
X1920341Y-5013452D01*
X1919986Y-5016754D01*
X1920900Y-5021834D01*
X1923542Y-5025288D01*
X1927707Y-5027269D01*
X1933193Y-5027930D01*
X1936292Y-5025593D01*
X1938578Y-5022240D01*
X1940052Y-5018176D01*
X1940560Y-5013706D01*
X1940102Y-5009692D01*
X1938832Y-5005679D01*
X1936750Y-5001768D01*
X1933854Y-4997958D01*
X1930247Y-4994351D01*
X1925878Y-4990998D01*
X1920849Y-4987950D01*
X1915160Y-4985258D01*
X1938528Y-4983480D01*
X1940306Y-4980686D01*
X1929638Y-4953254D01*
G37*
G36*
X1891538Y-5035550D02*
G01*
X1883867Y-5036007D01*
X1876856Y-5037277D01*
X1870456Y-5039258D01*
X1864715Y-5042001D01*
X1859686Y-5045303D01*
X1855266Y-5049215D01*
X1851558Y-5053533D01*
X1848510Y-5058308D01*
X1846122Y-5063388D01*
X1844395Y-5068773D01*
X1843379Y-5074310D01*
X1843024Y-5080000D01*
X1850643Y-5080000D01*
X1851304Y-5073954D01*
X1853234Y-5068671D01*
X1856486Y-5064099D01*
X1861007Y-5060289D01*
X1866747Y-5057292D01*
X1873808Y-5055108D01*
X1882038Y-5053787D01*
X1891538Y-5053330D01*
X1901037Y-5053787D01*
X1909368Y-5055108D01*
X1916480Y-5057292D01*
X1922322Y-5060289D01*
X1926945Y-5064099D01*
X1930247Y-5068671D01*
X1932279Y-5073954D01*
X1932939Y-5080000D01*
X1932279Y-5086045D01*
X1930247Y-5091379D01*
X1926945Y-5096002D01*
X1922322Y-5099862D01*
X1916480Y-5102910D01*
X1909368Y-5105095D01*
X1901037Y-5106466D01*
X1891538Y-5106924D01*
X1882038Y-5106466D01*
X1873808Y-5105095D01*
X1866747Y-5102910D01*
X1861007Y-5099862D01*
X1856486Y-5096002D01*
X1853234Y-5091379D01*
X1851304Y-5086045D01*
X1850643Y-5080000D01*
X1843024Y-5080000D01*
X1843379Y-5085689D01*
X1844395Y-5091277D01*
X1846072Y-5096662D01*
X1848408Y-5101793D01*
X1851456Y-5106619D01*
X1855165Y-5111038D01*
X1859584Y-5115001D01*
X1864614Y-5118404D01*
X1870354Y-5121148D01*
X1876755Y-5123230D01*
X1883816Y-5124500D01*
X1891538Y-5124958D01*
X1899259Y-5124500D01*
X1906371Y-5123180D01*
X1912823Y-5121097D01*
X1918563Y-5118303D01*
X1923694Y-5114899D01*
X1928164Y-5110937D01*
X1931924Y-5106517D01*
X1935022Y-5101691D01*
X1937461Y-5096560D01*
X1939188Y-5091176D01*
X1940204Y-5085638D01*
X1940560Y-5080000D01*
X1940204Y-5074361D01*
X1939137Y-5068874D01*
X1937410Y-5063540D01*
X1934972Y-5058410D01*
X1931822Y-5053685D01*
X1928063Y-5049316D01*
X1923592Y-5045405D01*
X1918462Y-5042052D01*
X1912721Y-5039309D01*
X1906270Y-5037277D01*
X1899208Y-5036007D01*
G37*
G36*
X1888743Y-5186934D02*
G01*
X1888743Y-5232400D01*
X1900174Y-5232400D01*
X1900174Y-5186934D01*
G37*
G36*
X1911096Y-5337048D02*
G01*
X1904847Y-5337251D01*
X1898853Y-5337911D01*
X1893163Y-5339029D01*
X1887677Y-5340502D01*
X1882546Y-5342382D01*
X1877618Y-5344566D01*
X1873046Y-5347157D01*
X1868728Y-5350103D01*
X1864715Y-5353304D01*
X1861007Y-5356860D01*
X1857654Y-5360670D01*
X1854606Y-5364734D01*
X1851863Y-5369102D01*
X1849526Y-5373624D01*
X1847494Y-5378399D01*
X1845818Y-5383377D01*
X1844497Y-5388508D01*
X1843532Y-5393842D01*
X1842973Y-5399278D01*
X1842770Y-5404866D01*
X1849628Y-5404866D01*
X1849882Y-5398719D01*
X1850694Y-5392775D01*
X1852015Y-5387035D01*
X1853895Y-5381599D01*
X1856232Y-5376418D01*
X1859025Y-5371541D01*
X1862328Y-5366969D01*
X1866087Y-5362803D01*
X1870252Y-5358993D01*
X1874926Y-5355640D01*
X1879955Y-5352694D01*
X1885442Y-5350256D01*
X1891284Y-5348274D01*
X1897532Y-5346852D01*
X1904136Y-5345988D01*
X1911096Y-5345684D01*
X1918004Y-5345988D01*
X1924557Y-5346852D01*
X1930755Y-5348274D01*
X1936597Y-5350256D01*
X1941982Y-5352694D01*
X1947011Y-5355640D01*
X1951583Y-5358993D01*
X1955749Y-5362803D01*
X1959508Y-5366969D01*
X1962759Y-5371541D01*
X1965553Y-5376418D01*
X1967839Y-5381599D01*
X1969668Y-5387035D01*
X1970989Y-5392775D01*
X1971802Y-5398719D01*
X1972056Y-5404866D01*
X1971802Y-5410962D01*
X1970989Y-5416854D01*
X1969668Y-5422544D01*
X1967839Y-5427980D01*
X1965502Y-5433110D01*
X1962657Y-5437936D01*
X1959406Y-5442458D01*
X1955647Y-5446572D01*
X1951482Y-5450332D01*
X1946910Y-5453684D01*
X1941880Y-5456580D01*
X1936496Y-5459018D01*
X1930704Y-5460949D01*
X1924507Y-5462371D01*
X1917954Y-5463235D01*
X1911096Y-5463540D01*
X1904187Y-5463235D01*
X1897684Y-5462371D01*
X1891487Y-5460949D01*
X1885645Y-5459018D01*
X1880158Y-5456580D01*
X1875129Y-5453684D01*
X1870506Y-5450332D01*
X1866290Y-5446572D01*
X1862480Y-5442458D01*
X1859178Y-5437936D01*
X1856333Y-5433110D01*
X1853946Y-5427980D01*
X1852066Y-5422544D01*
X1850745Y-5416854D01*
X1849882Y-5410962D01*
X1849628Y-5404866D01*
X1842770Y-5404866D01*
X1842973Y-5410403D01*
X1843532Y-5415838D01*
X1844497Y-5421122D01*
X1845818Y-5426252D01*
X1847494Y-5431180D01*
X1849526Y-5435904D01*
X1851863Y-5440476D01*
X1854606Y-5444794D01*
X1857654Y-5448858D01*
X1861007Y-5452668D01*
X1864715Y-5456174D01*
X1868728Y-5459425D01*
X1873046Y-5462320D01*
X1877618Y-5464911D01*
X1882546Y-5467146D01*
X1887677Y-5468975D01*
X1893163Y-5470448D01*
X1898853Y-5471566D01*
X1904847Y-5472226D01*
X1911096Y-5472430D01*
X1917344Y-5472226D01*
X1923288Y-5471566D01*
X1929028Y-5470448D01*
X1934413Y-5468975D01*
X1939594Y-5467146D01*
X1944471Y-5464911D01*
X1949043Y-5462320D01*
X1953310Y-5459425D01*
X1957273Y-5456174D01*
X1960930Y-5452668D01*
X1964232Y-5448858D01*
X1967280Y-5444794D01*
X1969922Y-5440476D01*
X1972259Y-5435904D01*
X1974291Y-5431180D01*
X1975916Y-5426252D01*
X1977237Y-5421122D01*
X1978152Y-5415838D01*
X1978710Y-5410403D01*
X1978914Y-5404866D01*
X1978710Y-5399278D01*
X1978152Y-5393842D01*
X1977237Y-5388508D01*
X1975916Y-5383377D01*
X1974291Y-5378399D01*
X1972259Y-5373624D01*
X1969922Y-5369102D01*
X1967280Y-5364734D01*
X1964232Y-5360670D01*
X1960930Y-5356860D01*
X1957273Y-5353304D01*
X1953310Y-5350103D01*
X1949043Y-5347157D01*
X1944471Y-5344566D01*
X1939594Y-5342382D01*
X1934413Y-5340502D01*
X1929028Y-5339029D01*
X1923288Y-5337911D01*
X1917344Y-5337251D01*
G37*
G36*
X1911096Y-5369814D02*
G01*
X1905406Y-5370118D01*
X1900072Y-5371084D01*
X1895043Y-5372608D01*
X1890420Y-5374690D01*
X1886254Y-5377281D01*
X1882495Y-5380380D01*
X1879295Y-5383987D01*
X1876552Y-5388000D01*
X1874367Y-5392420D01*
X1872792Y-5397246D01*
X1871827Y-5402427D01*
X1871472Y-5407914D01*
X1871776Y-5414060D01*
X1872691Y-5419953D01*
X1874367Y-5425592D01*
X1876806Y-5431028D01*
X1895602Y-5431536D01*
X1895602Y-5423662D01*
X1880362Y-5420868D01*
X1879396Y-5417820D01*
X1878431Y-5411927D01*
X1878330Y-5409438D01*
X1878888Y-5403850D01*
X1880463Y-5398820D01*
X1883156Y-5394350D01*
X1886813Y-5390540D01*
X1891487Y-5387492D01*
X1897075Y-5385206D01*
X1903628Y-5383784D01*
X1911096Y-5383276D01*
X1918817Y-5383784D01*
X1925523Y-5385308D01*
X1931212Y-5387746D01*
X1935937Y-5390946D01*
X1939594Y-5394858D01*
X1942236Y-5399328D01*
X1943811Y-5404307D01*
X1944370Y-5409692D01*
X1943912Y-5414568D01*
X1943303Y-5417210D01*
X1942338Y-5419852D01*
X1926843Y-5422646D01*
X1926843Y-5430520D01*
X1945386Y-5429758D01*
X1948078Y-5424576D01*
X1949805Y-5419394D01*
X1950720Y-5413959D01*
X1950974Y-5407914D01*
X1950618Y-5402580D01*
X1949653Y-5397500D01*
X1948027Y-5392724D01*
X1945843Y-5388305D01*
X1943049Y-5384292D01*
X1939798Y-5380685D01*
X1936038Y-5377484D01*
X1931822Y-5374843D01*
X1927199Y-5372709D01*
X1922170Y-5371134D01*
X1916785Y-5370169D01*
G37*
G36*
X1845564Y-5532374D02*
G01*
X1845564Y-5581904D01*
X1853438Y-5581904D01*
X1853438Y-5569204D01*
X1873402Y-5568797D01*
X1942795Y-5568746D01*
X1968246Y-5569204D01*
X1968246Y-5582666D01*
X1967890Y-5589879D01*
X1966823Y-5596128D01*
X1964994Y-5601360D01*
X1962404Y-5605627D01*
X1959000Y-5608929D01*
X1954733Y-5611266D01*
X1949602Y-5612688D01*
X1943607Y-5613146D01*
X1937207Y-5612638D01*
X1931720Y-5611114D01*
X1927148Y-5608523D01*
X1923440Y-5604865D01*
X1920544Y-5600141D01*
X1918512Y-5594299D01*
X1917344Y-5587288D01*
X1916938Y-5579110D01*
X1916938Y-5568696D01*
X1909064Y-5568696D01*
X1909064Y-5579872D01*
X1908606Y-5589320D01*
X1907286Y-5597398D01*
X1905101Y-5604103D01*
X1902002Y-5609488D01*
X1898040Y-5613603D01*
X1893214Y-5616498D01*
X1887474Y-5618175D01*
X1880870Y-5618734D01*
X1874570Y-5618175D01*
X1869084Y-5616397D01*
X1864360Y-5613501D01*
X1860499Y-5609488D01*
X1857451Y-5604256D01*
X1855216Y-5597956D01*
X1853895Y-5590489D01*
X1853438Y-5581904D01*
X1845564Y-5581904D01*
X1845919Y-5594502D01*
X1846986Y-5602427D01*
X1848612Y-5609437D01*
X1850847Y-5615584D01*
X1853539Y-5620867D01*
X1856689Y-5625388D01*
X1860194Y-5629148D01*
X1864004Y-5632145D01*
X1868068Y-5634431D01*
X1872335Y-5636056D01*
X1876704Y-5636971D01*
X1881124Y-5637276D01*
X1886966Y-5636768D01*
X1892401Y-5635142D01*
X1897430Y-5632348D01*
X1901952Y-5628386D01*
X1905914Y-5623204D01*
X1909216Y-5616702D01*
X1911807Y-5608878D01*
X1913636Y-5599684D01*
X1915718Y-5607354D01*
X1918462Y-5613857D01*
X1921764Y-5619191D01*
X1925574Y-5623458D01*
X1929841Y-5626709D01*
X1934413Y-5628944D01*
X1939289Y-5630265D01*
X1944370Y-5630672D01*
X1948840Y-5630367D01*
X1953056Y-5629452D01*
X1957019Y-5627928D01*
X1960676Y-5625795D01*
X1963978Y-5623102D01*
X1966975Y-5619800D01*
X1969566Y-5615940D01*
X1971751Y-5611469D01*
X1973529Y-5606440D01*
X1974799Y-5600852D01*
X1975612Y-5594705D01*
X1975866Y-5588000D01*
X1975866Y-5532374D01*
X1969007Y-5532374D01*
X1967230Y-5550662D01*
X1941525Y-5550865D01*
X1873707Y-5550865D01*
X1854200Y-5550662D01*
X1852422Y-5532374D01*
G37*
G36*
X1910842Y-5653532D02*
G01*
X1904949Y-5653735D01*
X1899259Y-5654294D01*
X1893722Y-5655259D01*
X1888439Y-5656630D01*
X1883359Y-5658307D01*
X1878533Y-5660339D01*
X1873961Y-5662726D01*
X1869643Y-5665419D01*
X1865630Y-5668416D01*
X1861870Y-5671769D01*
X1858416Y-5675376D01*
X1855266Y-5679287D01*
X1852422Y-5683453D01*
X1849932Y-5687872D01*
X1847799Y-5692546D01*
X1846021Y-5697474D01*
X1844598Y-5702604D01*
X1843582Y-5707989D01*
X1842973Y-5713526D01*
X1842770Y-5719318D01*
X1842973Y-5725109D01*
X1843532Y-5730646D01*
X1844497Y-5736031D01*
X1845818Y-5741314D01*
X1847443Y-5746445D01*
X1851660Y-5756605D01*
X1854200Y-5761736D01*
X1881682Y-5761786D01*
X1899920Y-5762244D01*
X1900936Y-5773928D01*
X1907539Y-5773928D01*
X1907539Y-5723128D01*
X1900936Y-5723128D01*
X1899157Y-5743956D01*
X1855216Y-5744210D01*
X1853387Y-5738774D01*
X1852117Y-5733491D01*
X1851406Y-5728055D01*
X1851152Y-5722366D01*
X1851406Y-5716879D01*
X1852168Y-5711647D01*
X1853438Y-5706719D01*
X1855216Y-5702096D01*
X1857451Y-5697778D01*
X1860194Y-5693765D01*
X1863394Y-5690108D01*
X1867001Y-5686755D01*
X1871065Y-5683758D01*
X1875536Y-5681116D01*
X1880463Y-5678881D01*
X1885746Y-5677001D01*
X1891487Y-5675528D01*
X1897532Y-5674461D01*
X1904034Y-5673801D01*
X1910842Y-5673598D01*
X1917750Y-5673852D01*
X1924253Y-5674512D01*
X1930400Y-5675680D01*
X1936089Y-5677204D01*
X1941372Y-5679186D01*
X1946300Y-5681522D01*
X1950720Y-5684215D01*
X1954733Y-5687263D01*
X1958339Y-5690616D01*
X1961438Y-5694324D01*
X1964131Y-5698286D01*
X1966315Y-5702554D01*
X1968042Y-5707024D01*
X1969262Y-5711748D01*
X1970024Y-5716727D01*
X1970278Y-5721858D01*
X1969922Y-5727750D01*
X1968906Y-5733389D01*
X1967179Y-5738774D01*
X1964689Y-5743956D01*
X1940560Y-5748782D01*
X1940560Y-5759196D01*
X1969262Y-5758688D01*
X1971548Y-5754624D01*
X1973580Y-5750458D01*
X1975205Y-5746038D01*
X1976577Y-5741466D01*
X1977593Y-5736590D01*
X1978355Y-5731357D01*
X1978761Y-5725820D01*
X1978914Y-5719826D01*
X1978710Y-5714034D01*
X1978050Y-5708446D01*
X1977034Y-5703062D01*
X1975612Y-5697931D01*
X1973834Y-5692952D01*
X1971649Y-5688279D01*
X1969160Y-5683808D01*
X1966315Y-5679592D01*
X1963115Y-5675680D01*
X1959660Y-5672023D01*
X1955850Y-5668670D01*
X1951786Y-5665622D01*
X1947468Y-5662879D01*
X1942896Y-5660440D01*
X1938070Y-5658408D01*
X1933041Y-5656681D01*
X1927758Y-5655310D01*
X1922322Y-5654344D01*
X1916684Y-5653735D01*
G37*
G36*
X1910842Y-5788152D02*
G01*
X1902815Y-5788456D01*
X1895246Y-5789422D01*
X1888134Y-5790996D01*
X1881581Y-5793130D01*
X1875485Y-5795772D01*
X1869897Y-5798870D01*
X1864817Y-5802376D01*
X1860245Y-5806338D01*
X1856181Y-5810656D01*
X1852675Y-5815279D01*
X1849678Y-5820206D01*
X1847189Y-5825337D01*
X1845259Y-5830671D01*
X1843887Y-5836208D01*
X1843024Y-5841847D01*
X1842770Y-5847588D01*
X1851152Y-5847588D01*
X1851507Y-5842660D01*
X1852472Y-5838088D01*
X1854047Y-5833872D01*
X1856181Y-5829960D01*
X1858822Y-5826404D01*
X1861921Y-5823204D01*
X1865528Y-5820308D01*
X1869490Y-5817717D01*
X1873808Y-5815431D01*
X1878431Y-5813501D01*
X1883359Y-5811875D01*
X1888540Y-5810554D01*
X1893925Y-5809538D01*
X1899462Y-5808776D01*
X1905101Y-5808370D01*
X1910842Y-5808218D01*
X1916531Y-5808370D01*
X1922170Y-5808776D01*
X1927656Y-5809538D01*
X1932990Y-5810554D01*
X1938121Y-5811875D01*
X1943049Y-5813501D01*
X1947672Y-5815431D01*
X1951989Y-5817717D01*
X1955952Y-5820308D01*
X1959508Y-5823204D01*
X1962607Y-5826404D01*
X1965299Y-5829960D01*
X1967382Y-5833872D01*
X1968957Y-5838088D01*
X1969922Y-5842660D01*
X1970278Y-5847588D01*
X1969922Y-5852515D01*
X1968957Y-5857087D01*
X1967382Y-5861304D01*
X1965299Y-5865164D01*
X1962607Y-5868720D01*
X1959508Y-5871921D01*
X1955952Y-5874766D01*
X1951989Y-5877356D01*
X1947672Y-5879592D01*
X1943049Y-5881471D01*
X1938121Y-5883097D01*
X1932990Y-5884418D01*
X1927656Y-5885434D01*
X1922170Y-5886145D01*
X1916531Y-5886551D01*
X1910842Y-5886704D01*
X1905101Y-5886551D01*
X1899462Y-5886145D01*
X1893925Y-5885434D01*
X1888540Y-5884418D01*
X1883359Y-5883097D01*
X1878431Y-5881471D01*
X1873808Y-5879592D01*
X1869490Y-5877356D01*
X1865528Y-5874766D01*
X1861921Y-5871921D01*
X1858822Y-5868720D01*
X1856181Y-5865164D01*
X1854047Y-5861304D01*
X1852472Y-5857087D01*
X1851507Y-5852515D01*
X1851152Y-5847588D01*
X1842770Y-5847588D01*
X1843074Y-5853328D01*
X1843938Y-5858967D01*
X1845360Y-5864504D01*
X1847392Y-5869838D01*
X1849932Y-5874969D01*
X1852980Y-5879896D01*
X1856587Y-5884519D01*
X1860702Y-5888837D01*
X1865325Y-5892800D01*
X1870456Y-5896305D01*
X1876043Y-5899404D01*
X1882089Y-5902045D01*
X1888642Y-5904179D01*
X1895602Y-5905754D01*
X1903018Y-5906719D01*
X1910842Y-5907024D01*
X1918868Y-5906668D01*
X1926386Y-5905703D01*
X1933448Y-5904128D01*
X1940001Y-5901994D01*
X1946097Y-5899302D01*
X1951685Y-5896203D01*
X1956765Y-5892596D01*
X1961337Y-5888634D01*
X1965401Y-5884316D01*
X1968957Y-5879693D01*
X1971954Y-5874766D01*
X1974443Y-5869635D01*
X1976374Y-5864301D01*
X1977796Y-5858814D01*
X1978609Y-5853226D01*
X1978914Y-5847588D01*
X1978609Y-5841898D01*
X1977745Y-5836259D01*
X1976272Y-5830773D01*
X1974291Y-5825439D01*
X1971700Y-5820308D01*
X1968652Y-5815380D01*
X1964994Y-5810758D01*
X1960880Y-5806440D01*
X1956257Y-5802477D01*
X1951126Y-5798921D01*
X1945538Y-5795822D01*
X1939493Y-5793130D01*
X1932990Y-5791047D01*
X1926031Y-5789472D01*
X1918614Y-5788507D01*
G37*
G36*
X1845564Y-5920486D02*
G01*
X1845564Y-6017006D01*
X1882139Y-6018276D01*
X1882139Y-6008370D01*
X1853946Y-6001766D01*
X1853946Y-5957062D01*
X1879193Y-5956858D01*
X1947976Y-5956858D01*
X1967230Y-5957062D01*
X1969007Y-5975350D01*
X1975866Y-5975350D01*
X1975866Y-5920486D01*
X1969007Y-5920486D01*
X1967230Y-5938520D01*
X1947976Y-5938926D01*
X1892757Y-5939028D01*
X1867154Y-5938824D01*
X1854200Y-5938520D01*
X1852422Y-5920486D01*
G37*
G36*
X1845564Y-6032500D02*
G01*
X1845564Y-6129020D01*
X1882139Y-6130290D01*
X1882139Y-6120384D01*
X1853946Y-6113780D01*
X1853946Y-6069076D01*
X1879193Y-6068872D01*
X1947976Y-6068872D01*
X1967230Y-6069076D01*
X1969007Y-6087364D01*
X1975866Y-6087364D01*
X1975866Y-6032500D01*
X1969007Y-6032500D01*
X1967230Y-6050534D01*
X1947976Y-6050940D01*
X1892757Y-6051042D01*
X1867154Y-6050838D01*
X1854200Y-6050534D01*
X1852422Y-6032500D01*
G37*
G36*
X1845564Y-6144514D02*
G01*
X1845564Y-6199124D01*
X1852422Y-6199124D01*
X1854454Y-6181090D01*
X1886559Y-6180836D01*
X1967230Y-6181090D01*
X1969007Y-6199124D01*
X1975866Y-6199124D01*
X1975866Y-6144514D01*
X1969007Y-6144514D01*
X1967230Y-6162548D01*
X1947976Y-6162954D01*
X1892807Y-6163056D01*
X1867001Y-6162852D01*
X1854200Y-6162548D01*
X1852422Y-6144514D01*
G37*
G36*
X1845564Y-6216650D02*
G01*
X1845564Y-6316980D01*
X1880107Y-6317996D01*
X1880107Y-6308344D01*
X1854200Y-6303264D01*
X1854200Y-6253226D01*
X1908048Y-6252972D01*
X1908048Y-6282436D01*
X1889252Y-6284976D01*
X1889252Y-6293104D01*
X1934972Y-6293104D01*
X1934972Y-6284976D01*
X1915668Y-6282182D01*
X1915668Y-6252972D01*
X1967230Y-6253226D01*
X1967230Y-6299454D01*
X1941575Y-6304534D01*
X1941575Y-6314186D01*
X1975866Y-6313170D01*
X1975866Y-6216650D01*
X1969007Y-6216650D01*
X1967230Y-6234684D01*
X1947976Y-6235090D01*
X1892807Y-6235192D01*
X1867001Y-6234988D01*
X1854200Y-6234684D01*
X1852422Y-6216650D01*
G37*
G36*
X1949196Y-6379464D02*
G01*
X1946656Y-6381242D01*
X1944725Y-6383375D01*
X1943506Y-6385966D01*
X1943100Y-6388862D01*
X1943760Y-6392367D01*
X1945893Y-6395262D01*
X1949754Y-6397599D01*
X1955546Y-6399530D01*
X1969770Y-6403594D01*
X1970582Y-6409283D01*
X1970786Y-6414008D01*
X1970278Y-6419189D01*
X1968804Y-6423863D01*
X1966468Y-6427927D01*
X1963216Y-6431381D01*
X1959203Y-6434124D01*
X1954479Y-6436207D01*
X1949094Y-6437426D01*
X1943100Y-6437884D01*
X1937308Y-6437477D01*
X1931517Y-6436207D01*
X1925574Y-6434074D01*
X1919427Y-6431076D01*
X1913026Y-6427165D01*
X1906219Y-6422339D01*
X1898904Y-6416598D01*
X1857756Y-6380480D01*
X1845564Y-6380480D01*
X1845564Y-6460490D01*
X1860550Y-6460490D01*
X1860550Y-6392926D01*
X1898142Y-6428841D01*
X1909572Y-6438900D01*
X1914550Y-6442913D01*
X1919224Y-6446316D01*
X1923592Y-6449060D01*
X1927809Y-6451244D01*
X1931873Y-6452920D01*
X1935886Y-6454038D01*
X1939950Y-6454698D01*
X1944116Y-6454902D01*
X1949043Y-6454648D01*
X1953717Y-6453936D01*
X1958086Y-6452768D01*
X1962099Y-6451092D01*
X1965756Y-6448856D01*
X1969007Y-6446164D01*
X1971852Y-6442913D01*
X1974240Y-6439154D01*
X1976120Y-6434886D01*
X1977491Y-6430010D01*
X1978355Y-6424574D01*
X1978660Y-6418580D01*
X1978202Y-6411468D01*
X1976831Y-6404711D01*
X1974494Y-6398463D01*
X1971243Y-6392824D01*
X1967128Y-6387998D01*
X1962048Y-6384036D01*
X1956054Y-6381140D01*
G37*
G36*
X1911604Y-6476492D02*
G01*
X1902561Y-6476746D01*
X1894230Y-6477406D01*
X1886610Y-6478473D01*
X1879650Y-6479946D01*
X1873402Y-6481775D01*
X1867814Y-6483959D01*
X1862836Y-6486398D01*
X1858467Y-6489141D01*
X1854657Y-6492087D01*
X1851456Y-6495288D01*
X1848815Y-6498691D01*
X1846681Y-6502196D01*
X1845056Y-6505854D01*
X1843887Y-6509664D01*
X1843227Y-6513474D01*
X1843024Y-6517385D01*
X1850643Y-6517385D01*
X1850898Y-6514287D01*
X1851812Y-6511290D01*
X1853336Y-6508394D01*
X1855673Y-6505651D01*
X1858822Y-6503111D01*
X1862937Y-6500774D01*
X1868017Y-6498691D01*
X1874215Y-6496913D01*
X1881632Y-6495491D01*
X1890268Y-6494424D01*
X1900224Y-6493764D01*
X1911604Y-6493510D01*
X1922627Y-6493764D01*
X1932279Y-6494424D01*
X1940661Y-6495491D01*
X1947824Y-6496913D01*
X1953869Y-6498691D01*
X1958797Y-6500774D01*
X1962810Y-6503111D01*
X1965909Y-6505651D01*
X1968144Y-6508394D01*
X1969668Y-6511290D01*
X1970532Y-6514287D01*
X1970786Y-6517385D01*
X1970532Y-6520332D01*
X1969668Y-6523228D01*
X1968144Y-6526022D01*
X1965909Y-6528663D01*
X1962810Y-6531152D01*
X1958797Y-6533438D01*
X1953869Y-6535420D01*
X1947824Y-6537147D01*
X1940661Y-6538569D01*
X1932279Y-6539636D01*
X1922627Y-6540296D01*
X1911604Y-6540500D01*
X1900275Y-6540296D01*
X1890318Y-6539636D01*
X1881733Y-6538569D01*
X1874367Y-6537147D01*
X1868170Y-6535420D01*
X1863039Y-6533438D01*
X1858924Y-6531152D01*
X1855724Y-6528663D01*
X1853387Y-6526022D01*
X1851812Y-6523228D01*
X1850898Y-6520332D01*
X1850643Y-6517385D01*
X1843024Y-6517385D01*
X1843227Y-6521246D01*
X1843887Y-6525056D01*
X1845056Y-6528765D01*
X1846681Y-6532422D01*
X1848815Y-6535928D01*
X1851456Y-6539280D01*
X1854657Y-6542481D01*
X1858467Y-6545427D01*
X1862836Y-6548120D01*
X1867814Y-6550609D01*
X1873402Y-6552742D01*
X1879650Y-6554571D01*
X1886610Y-6556044D01*
X1894230Y-6557111D01*
X1902561Y-6557772D01*
X1911604Y-6558025D01*
X1920392Y-6557772D01*
X1928469Y-6557111D01*
X1935886Y-6556044D01*
X1942642Y-6554571D01*
X1948789Y-6552742D01*
X1954275Y-6550609D01*
X1959152Y-6548120D01*
X1963420Y-6545427D01*
X1967128Y-6542481D01*
X1970278Y-6539280D01*
X1972919Y-6535928D01*
X1975053Y-6532422D01*
X1976628Y-6528765D01*
X1977796Y-6525056D01*
X1978456Y-6521246D01*
X1978660Y-6517385D01*
X1978456Y-6513474D01*
X1977796Y-6509664D01*
X1976628Y-6505854D01*
X1975053Y-6502196D01*
X1972919Y-6498691D01*
X1970278Y-6495288D01*
X1967128Y-6492087D01*
X1963420Y-6489141D01*
X1959152Y-6486398D01*
X1954275Y-6483959D01*
X1948789Y-6481775D01*
X1942642Y-6479946D01*
X1935886Y-6478473D01*
X1928469Y-6477406D01*
X1920392Y-6476746D01*
G37*
G36*
X1845564Y-6580631D02*
G01*
X1845564Y-6652514D01*
X1851660Y-6652514D01*
X1855470Y-6625081D01*
X1886712Y-6624574D01*
X1947672Y-6624574D01*
X1975866Y-6625336D01*
X1977898Y-6622796D01*
X1967230Y-6582664D01*
X1960625Y-6582664D01*
X1963166Y-6608572D01*
X1871116Y-6608521D01*
X1855470Y-6608318D01*
X1851660Y-6580631D01*
G37*
G36*
X1937004Y-6669786D02*
G01*
X1931111Y-6670141D01*
X1925624Y-6671106D01*
X1920544Y-6672732D01*
X1915972Y-6674916D01*
X1911807Y-6677609D01*
X1908200Y-6680758D01*
X1905050Y-6684365D01*
X1902409Y-6688378D01*
X1900377Y-6692696D01*
X1898853Y-6697370D01*
X1897938Y-6702247D01*
X1897634Y-6707378D01*
X1898090Y-6712966D01*
X1908048Y-6712966D01*
X1908505Y-6707530D01*
X1909876Y-6702501D01*
X1912213Y-6697929D01*
X1915515Y-6694017D01*
X1919833Y-6690766D01*
X1925218Y-6688378D01*
X1931568Y-6686803D01*
X1939036Y-6686296D01*
X1946452Y-6686803D01*
X1952904Y-6688226D01*
X1958339Y-6690410D01*
X1962810Y-6693357D01*
X1966315Y-6696913D01*
X1968804Y-6700977D01*
X1970278Y-6705447D01*
X1970786Y-6710172D01*
X1970125Y-6715353D01*
X1968093Y-6720078D01*
X1964689Y-6724243D01*
X1959864Y-6727799D01*
X1953564Y-6730644D01*
X1945690Y-6732778D01*
X1936292Y-6734098D01*
X1922881Y-6734505D01*
X1915922Y-6734302D01*
X1912315Y-6729526D01*
X1909876Y-6724396D01*
X1908505Y-6718858D01*
X1908048Y-6712966D01*
X1898090Y-6712966D01*
X1898243Y-6714845D01*
X1900123Y-6721652D01*
X1903222Y-6727799D01*
X1907539Y-6733286D01*
X1902307Y-6732270D01*
X1897278Y-6731000D01*
X1892452Y-6729425D01*
X1887880Y-6727596D01*
X1883460Y-6725412D01*
X1879244Y-6722922D01*
X1875231Y-6720128D01*
X1871421Y-6716979D01*
X1867814Y-6713524D01*
X1864410Y-6709714D01*
X1861210Y-6705549D01*
X1858213Y-6701028D01*
X1855419Y-6696151D01*
X1852777Y-6690868D01*
X1850339Y-6685229D01*
X1848104Y-6679184D01*
X1842007Y-6680453D01*
X1843938Y-6687718D01*
X1846224Y-6694627D01*
X1848815Y-6701028D01*
X1851660Y-6707073D01*
X1854809Y-6712661D01*
X1858264Y-6717893D01*
X1861921Y-6722668D01*
X1865833Y-6727088D01*
X1869948Y-6731152D01*
X1874316Y-6734759D01*
X1878838Y-6738061D01*
X1883562Y-6740956D01*
X1888489Y-6743496D01*
X1893570Y-6745681D01*
X1898751Y-6747509D01*
X1904136Y-6748983D01*
X1909572Y-6750100D01*
X1915160Y-6750913D01*
X1920849Y-6751421D01*
X1926589Y-6751574D01*
X1934260Y-6751269D01*
X1941474Y-6750303D01*
X1948129Y-6748780D01*
X1954225Y-6746646D01*
X1959660Y-6743903D01*
X1964537Y-6740702D01*
X1968703Y-6736892D01*
X1972208Y-6732625D01*
X1975002Y-6727901D01*
X1976983Y-6722668D01*
X1978253Y-6717030D01*
X1978660Y-6710934D01*
X1978304Y-6705041D01*
X1977288Y-6699503D01*
X1975662Y-6694322D01*
X1973376Y-6689547D01*
X1970532Y-6685178D01*
X1967179Y-6681317D01*
X1963267Y-6677914D01*
X1958848Y-6675069D01*
X1954022Y-6672834D01*
X1948738Y-6671157D01*
X1943049Y-6670141D01*
G37*
G36*
X1866900Y-1790700D02*
G01*
X1866900Y-1842007D01*
X1871218Y-1842007D01*
X1874012Y-1822450D01*
X1885086Y-1822246D01*
X1939798Y-1822196D01*
X1959864Y-1822704D01*
X1961388Y-1820672D01*
X1953768Y-1792224D01*
X1948942Y-1792224D01*
X1950720Y-1810766D01*
X1890572Y-1810715D01*
X1874012Y-1810512D01*
X1871218Y-1790700D01*
G37*
G36*
X2682240Y-1778000D02*
G01*
X2682240Y-1825752D01*
X2688336Y-1825752D01*
X2690368Y-1810257D01*
X2723134Y-1809750D01*
X2797048Y-1809750D01*
X2824734Y-1810766D01*
X2826258Y-1807972D01*
X2818130Y-1778000D01*
X2812288Y-1778000D01*
X2810764Y-1793748D01*
X2706776Y-1793697D01*
X2690368Y-1793493D01*
X2688336Y-1778000D01*
G37*
G36*
X2708402Y-1840738D02*
G01*
X2687066Y-1840992D01*
X2683865Y-1848104D01*
X2681579Y-1855165D01*
X2680157Y-1862480D01*
X2679700Y-1870456D01*
X2680309Y-1879142D01*
X2681935Y-1886712D01*
X2684576Y-1893163D01*
X2688031Y-1898497D01*
X2692146Y-1902663D01*
X2696870Y-1905660D01*
X2701950Y-1907438D01*
X2707386Y-1908048D01*
X2711907Y-1907692D01*
X2716072Y-1906574D01*
X2719984Y-1904695D01*
X2723591Y-1901952D01*
X2726944Y-1898294D01*
X2730042Y-1893671D01*
X2732887Y-1888083D01*
X2741625Y-1866341D01*
X2745232Y-1860651D01*
X2749600Y-1857502D01*
X2755392Y-1856486D01*
X2761132Y-1857705D01*
X2765653Y-1861362D01*
X2768600Y-1867306D01*
X2769616Y-1875536D01*
X2769362Y-1879092D01*
X2768701Y-1882648D01*
X2767584Y-1886204D01*
X2766060Y-1889760D01*
X2749550Y-1893316D01*
X2749550Y-1902206D01*
X2769108Y-1902714D01*
X2772613Y-1896414D01*
X2775153Y-1889963D01*
X2776728Y-1883105D01*
X2777236Y-1875536D01*
X2776677Y-1867814D01*
X2775000Y-1861057D01*
X2772410Y-1855266D01*
X2769006Y-1850440D01*
X2764891Y-1846681D01*
X2760319Y-1843938D01*
X2755290Y-1842312D01*
X2750058Y-1841754D01*
X2745282Y-1842160D01*
X2741015Y-1843430D01*
X2737205Y-1845462D01*
X2733802Y-1848205D01*
X2730804Y-1851660D01*
X2728112Y-1855673D01*
X2725775Y-1860296D01*
X2723642Y-1865375D01*
X2720594Y-1874520D01*
X2716987Y-1882698D01*
X2713126Y-1888286D01*
X2708554Y-1891538D01*
X2702814Y-1892554D01*
X2696514Y-1891182D01*
X2691638Y-1887118D01*
X2688437Y-1880107D01*
X2687320Y-1870202D01*
X2687523Y-1865782D01*
X2688082Y-1861616D01*
X2689047Y-1857756D01*
X2690368Y-1854200D01*
X2708402Y-1850136D01*
G37*
G36*
X2785872Y-1924304D02*
G01*
X2783332Y-1926082D01*
X2781401Y-1928266D01*
X2780182Y-1930806D01*
X2779776Y-1933702D01*
X2780436Y-1937207D01*
X2782570Y-1940102D01*
X2786430Y-1942439D01*
X2792222Y-1944370D01*
X2806446Y-1948434D01*
X2807258Y-1954123D01*
X2807462Y-1958848D01*
X2806954Y-1964029D01*
X2805480Y-1968703D01*
X2803144Y-1972767D01*
X2799892Y-1976221D01*
X2795930Y-1978964D01*
X2791155Y-1981047D01*
X2785770Y-1982266D01*
X2779776Y-1982724D01*
X2773984Y-1982317D01*
X2768193Y-1981047D01*
X2762250Y-1978914D01*
X2756103Y-1975916D01*
X2749702Y-1972005D01*
X2742895Y-1967179D01*
X2735580Y-1961438D01*
X2694432Y-1925320D01*
X2682240Y-1925320D01*
X2682240Y-2005330D01*
X2697226Y-2005330D01*
X2697226Y-1937766D01*
X2734818Y-1973681D01*
X2746248Y-1983739D01*
X2751226Y-1987753D01*
X2755900Y-1991156D01*
X2760268Y-1993900D01*
X2764485Y-1996084D01*
X2768549Y-1997760D01*
X2772562Y-1998878D01*
X2776626Y-1999538D01*
X2780792Y-1999742D01*
X2785719Y-1999488D01*
X2790393Y-1998776D01*
X2794762Y-1997608D01*
X2798775Y-1995932D01*
X2802432Y-1993696D01*
X2805684Y-1991004D01*
X2808528Y-1987753D01*
X2810916Y-1983993D01*
X2812796Y-1979726D01*
X2814167Y-1974850D01*
X2815031Y-1969414D01*
X2815336Y-1963420D01*
X2814878Y-1956307D01*
X2813507Y-1949551D01*
X2811170Y-1943303D01*
X2807919Y-1937664D01*
X2803804Y-1932838D01*
X2798724Y-1928875D01*
X2792780Y-1925980D01*
G37*
G36*
X2797302Y-2023110D02*
G01*
X2797302Y-2091182D01*
X2684018Y-2039366D01*
X2682240Y-2041143D01*
X2682240Y-2056130D01*
X2802890Y-2102104D01*
X2812542Y-2102104D01*
X2812542Y-2023110D01*
G37*
G36*
X2706878Y-2119376D02*
G01*
X2700223Y-2121204D01*
X2694584Y-2123998D01*
X2689910Y-2127656D01*
X2686151Y-2132126D01*
X2683256Y-2137359D01*
X2681274Y-2143252D01*
X2680106Y-2149703D01*
X2679700Y-2156714D01*
X2680004Y-2163013D01*
X2680970Y-2168906D01*
X2682494Y-2174443D01*
X2684576Y-2179472D01*
X2687167Y-2184095D01*
X2690266Y-2188159D01*
X2693771Y-2191664D01*
X2697683Y-2194661D01*
X2702001Y-2196998D01*
X2706624Y-2198725D01*
X2711551Y-2199792D01*
X2716784Y-2200148D01*
X2723032Y-2199690D01*
X2728874Y-2198268D01*
X2734157Y-2195880D01*
X2738882Y-2192477D01*
X2742996Y-2188108D01*
X2746451Y-2182672D01*
X2749143Y-2176221D01*
X2751074Y-2168652D01*
X2753461Y-2174951D01*
X2756357Y-2180437D01*
X2759811Y-2185162D01*
X2763672Y-2189022D01*
X2767990Y-2192070D01*
X2772765Y-2194306D01*
X2777896Y-2195626D01*
X2783332Y-2196084D01*
X2790190Y-2195423D01*
X2796387Y-2193493D01*
X2801823Y-2190394D01*
X2806496Y-2186127D01*
X2810256Y-2180844D01*
X2812999Y-2174544D01*
X2814726Y-2167331D01*
X2815336Y-2159254D01*
X2814929Y-2152751D01*
X2813761Y-2146554D01*
X2811780Y-2140864D01*
X2809036Y-2135784D01*
X2805531Y-2131314D01*
X2801213Y-2127605D01*
X2796082Y-2124760D01*
X2790190Y-2122932D01*
X2786989Y-2124557D01*
X2784856Y-2126640D01*
X2783687Y-2129180D01*
X2783332Y-2132076D01*
X2784043Y-2136089D01*
X2786278Y-2139035D01*
X2789986Y-2141270D01*
X2806446Y-2146300D01*
X2807055Y-2148890D01*
X2807462Y-2153564D01*
X2807055Y-2161133D01*
X2805836Y-2165908D01*
X2803855Y-2170023D01*
X2801112Y-2173478D01*
X2797606Y-2176221D01*
X2793339Y-2178202D01*
X2788310Y-2179421D01*
X2782570Y-2179828D01*
X2776372Y-2179320D01*
X2770936Y-2177846D01*
X2766263Y-2175459D01*
X2762402Y-2172157D01*
X2759354Y-2168093D01*
X2757170Y-2163216D01*
X2755849Y-2157628D01*
X2755392Y-2151380D01*
X2755392Y-2143760D01*
X2746502Y-2143760D01*
X2746502Y-2152904D01*
X2745994Y-2159965D01*
X2744470Y-2166112D01*
X2741980Y-2171293D01*
X2738628Y-2175560D01*
X2734411Y-2178862D01*
X2729382Y-2181250D01*
X2723540Y-2182672D01*
X2717038Y-2183130D01*
X2710738Y-2182622D01*
X2704998Y-2181148D01*
X2699918Y-2178761D01*
X2695600Y-2175459D01*
X2692095Y-2171293D01*
X2689504Y-2166315D01*
X2687878Y-2160524D01*
X2687320Y-2153920D01*
X2687574Y-2148433D01*
X2688590Y-2142744D01*
X2706014Y-2137664D01*
X2709976Y-2135530D01*
X2712262Y-2132685D01*
X2712974Y-2128774D01*
X2712618Y-2125878D01*
X2711450Y-2123287D01*
X2709570Y-2121154D01*
G37*
G36*
X2667000Y-5402834D02*
G01*
X2667000Y-5450586D01*
X2673096Y-5450586D01*
X2675128Y-5435092D01*
X2707894Y-5434584D01*
X2781808Y-5434584D01*
X2809494Y-5435600D01*
X2811018Y-5432806D01*
X2802890Y-5402834D01*
X2797048Y-5402834D01*
X2795524Y-5418582D01*
X2691536Y-5418531D01*
X2675128Y-5418328D01*
X2673096Y-5402834D01*
G37*
G36*
X2693162Y-5465572D02*
G01*
X2671826Y-5465826D01*
X2668625Y-5472938D01*
X2666339Y-5479999D01*
X2664917Y-5487314D01*
X2664460Y-5495290D01*
X2665069Y-5503976D01*
X2666695Y-5511546D01*
X2669336Y-5517997D01*
X2672791Y-5523331D01*
X2676906Y-5527497D01*
X2681579Y-5530494D01*
X2686710Y-5532272D01*
X2692146Y-5532882D01*
X2696667Y-5532526D01*
X2700832Y-5531408D01*
X2704744Y-5529529D01*
X2708351Y-5526786D01*
X2711704Y-5523128D01*
X2714802Y-5518505D01*
X2717647Y-5512917D01*
X2726385Y-5491175D01*
X2729992Y-5485536D01*
X2734360Y-5482336D01*
X2740152Y-5481320D01*
X2745892Y-5482539D01*
X2750413Y-5486196D01*
X2753309Y-5492140D01*
X2754376Y-5500370D01*
X2754122Y-5503926D01*
X2753461Y-5507482D01*
X2752344Y-5511038D01*
X2750820Y-5514594D01*
X2734310Y-5518150D01*
X2734310Y-5527040D01*
X2753868Y-5527548D01*
X2757373Y-5521248D01*
X2759913Y-5514797D01*
X2761488Y-5507939D01*
X2761996Y-5500370D01*
X2761386Y-5492648D01*
X2759760Y-5485892D01*
X2757170Y-5480100D01*
X2753715Y-5475274D01*
X2749651Y-5471515D01*
X2745079Y-5468772D01*
X2740050Y-5467146D01*
X2734818Y-5466588D01*
X2730042Y-5466994D01*
X2725775Y-5468264D01*
X2721965Y-5470296D01*
X2718562Y-5473090D01*
X2715564Y-5476494D01*
X2712872Y-5480507D01*
X2710535Y-5485130D01*
X2708402Y-5490210D01*
X2705354Y-5499354D01*
X2701747Y-5507532D01*
X2697886Y-5513120D01*
X2693314Y-5516372D01*
X2687574Y-5517388D01*
X2681274Y-5516016D01*
X2676398Y-5511901D01*
X2673197Y-5504942D01*
X2672080Y-5495036D01*
X2672283Y-5490616D01*
X2672842Y-5486450D01*
X2673807Y-5482590D01*
X2675128Y-5479034D01*
X2693162Y-5474970D01*
G37*
G36*
X2770632Y-5549138D02*
G01*
X2768092Y-5550916D01*
X2766161Y-5553049D01*
X2764942Y-5555640D01*
X2764536Y-5558536D01*
X2765196Y-5562041D01*
X2767330Y-5564936D01*
X2771190Y-5567273D01*
X2776982Y-5569204D01*
X2791206Y-5573268D01*
X2792018Y-5578957D01*
X2792222Y-5583682D01*
X2791714Y-5588863D01*
X2790240Y-5593537D01*
X2787904Y-5597601D01*
X2784652Y-5601055D01*
X2780639Y-5603798D01*
X2775915Y-5605881D01*
X2770530Y-5607100D01*
X2764536Y-5607558D01*
X2758744Y-5607151D01*
X2752953Y-5605881D01*
X2747010Y-5603748D01*
X2740863Y-5600750D01*
X2734462Y-5596839D01*
X2727655Y-5592013D01*
X2720340Y-5586272D01*
X2679192Y-5550154D01*
X2667000Y-5550154D01*
X2667000Y-5630164D01*
X2681986Y-5630164D01*
X2681986Y-5562600D01*
X2719578Y-5598515D01*
X2731008Y-5608574D01*
X2735986Y-5612587D01*
X2740660Y-5615990D01*
X2745028Y-5618734D01*
X2749245Y-5620918D01*
X2753309Y-5622594D01*
X2757322Y-5623712D01*
X2761386Y-5624372D01*
X2765552Y-5624576D01*
X2770479Y-5624322D01*
X2775153Y-5623610D01*
X2779522Y-5622442D01*
X2783535Y-5620766D01*
X2787192Y-5618530D01*
X2790444Y-5615838D01*
X2793288Y-5612587D01*
X2795676Y-5608828D01*
X2797556Y-5604560D01*
X2798927Y-5599684D01*
X2799791Y-5594248D01*
X2800096Y-5588254D01*
X2799638Y-5581142D01*
X2798267Y-5574385D01*
X2795930Y-5568137D01*
X2792679Y-5562498D01*
X2788564Y-5557672D01*
X2783484Y-5553710D01*
X2777490Y-5550814D01*
G37*
G36*
X2782062Y-5647944D02*
G01*
X2782062Y-5716016D01*
X2668778Y-5664200D01*
X2667000Y-5665978D01*
X2667000Y-5680964D01*
X2787650Y-5726938D01*
X2797302Y-5726938D01*
X2797302Y-5647944D01*
G37*
G36*
X2691638Y-5744210D02*
G01*
X2684983Y-5746038D01*
X2679344Y-5748832D01*
X2674670Y-5752490D01*
X2670911Y-5756960D01*
X2668016Y-5762193D01*
X2666034Y-5768086D01*
X2664866Y-5774537D01*
X2664460Y-5781548D01*
X2664764Y-5787847D01*
X2665730Y-5793740D01*
X2667254Y-5799277D01*
X2669336Y-5804306D01*
X2671927Y-5808929D01*
X2674975Y-5812993D01*
X2678531Y-5816498D01*
X2682443Y-5819495D01*
X2686761Y-5821832D01*
X2691384Y-5823559D01*
X2696311Y-5824626D01*
X2701544Y-5824982D01*
X2707792Y-5824524D01*
X2713634Y-5823102D01*
X2718917Y-5820714D01*
X2723642Y-5817311D01*
X2727756Y-5812942D01*
X2731211Y-5807506D01*
X2733903Y-5801055D01*
X2735834Y-5793486D01*
X2738221Y-5799785D01*
X2741117Y-5805271D01*
X2744520Y-5809996D01*
X2748432Y-5813856D01*
X2752750Y-5816904D01*
X2757525Y-5819140D01*
X2762656Y-5820460D01*
X2768092Y-5820918D01*
X2774950Y-5820257D01*
X2781147Y-5818327D01*
X2786583Y-5815228D01*
X2791256Y-5810961D01*
X2795016Y-5805678D01*
X2797759Y-5799378D01*
X2799486Y-5792165D01*
X2800096Y-5784088D01*
X2799689Y-5777585D01*
X2798521Y-5771388D01*
X2796540Y-5765698D01*
X2793796Y-5760618D01*
X2790291Y-5756148D01*
X2785973Y-5752439D01*
X2780842Y-5749594D01*
X2774950Y-5747766D01*
X2771749Y-5749391D01*
X2769616Y-5751474D01*
X2768447Y-5754014D01*
X2768092Y-5756910D01*
X2768803Y-5760923D01*
X2770987Y-5763920D01*
X2774746Y-5766104D01*
X2791206Y-5771134D01*
X2791815Y-5773724D01*
X2792222Y-5778398D01*
X2791815Y-5785967D01*
X2790596Y-5790742D01*
X2788615Y-5794857D01*
X2785872Y-5798312D01*
X2782366Y-5801055D01*
X2778099Y-5803036D01*
X2773070Y-5804255D01*
X2767330Y-5804662D01*
X2761132Y-5804154D01*
X2755696Y-5802680D01*
X2751023Y-5800293D01*
X2747162Y-5796991D01*
X2744114Y-5792927D01*
X2741930Y-5788050D01*
X2740609Y-5782462D01*
X2740152Y-5776214D01*
X2740152Y-5768594D01*
X2731262Y-5768594D01*
X2731262Y-5777738D01*
X2730754Y-5784799D01*
X2729230Y-5790946D01*
X2726740Y-5796127D01*
X2723388Y-5800394D01*
X2719171Y-5803696D01*
X2714091Y-5806084D01*
X2708300Y-5807506D01*
X2701798Y-5807964D01*
X2695498Y-5807456D01*
X2689758Y-5805982D01*
X2684678Y-5803595D01*
X2680360Y-5800293D01*
X2676855Y-5796127D01*
X2674264Y-5791149D01*
X2672638Y-5785358D01*
X2672080Y-5778754D01*
X2672334Y-5773267D01*
X2673350Y-5767578D01*
X2690774Y-5762498D01*
X2694736Y-5760364D01*
X2697022Y-5757519D01*
X2697734Y-5753608D01*
X2697327Y-5750712D01*
X2696210Y-5748172D01*
X2694330Y-5745988D01*
G37*
G36*
X2667000Y-4424934D02*
G01*
X2667000Y-4472686D01*
X2673096Y-4472686D01*
X2675128Y-4457192D01*
X2707894Y-4456684D01*
X2781808Y-4456684D01*
X2809494Y-4457700D01*
X2811018Y-4454906D01*
X2802890Y-4424934D01*
X2797048Y-4424934D01*
X2795524Y-4440682D01*
X2691536Y-4440631D01*
X2675128Y-4440428D01*
X2673096Y-4424934D01*
G37*
G36*
X2693162Y-4487672D02*
G01*
X2671826Y-4487926D01*
X2668625Y-4495038D01*
X2666339Y-4502099D01*
X2664917Y-4509414D01*
X2664460Y-4517390D01*
X2665069Y-4526076D01*
X2666695Y-4533646D01*
X2669336Y-4540097D01*
X2672791Y-4545431D01*
X2676906Y-4549597D01*
X2681579Y-4552594D01*
X2686710Y-4554372D01*
X2692146Y-4554982D01*
X2696667Y-4554626D01*
X2700832Y-4553508D01*
X2704744Y-4551629D01*
X2708351Y-4548886D01*
X2711704Y-4545228D01*
X2714802Y-4540605D01*
X2717647Y-4535017D01*
X2726385Y-4513275D01*
X2729992Y-4507636D01*
X2734360Y-4504436D01*
X2740152Y-4503420D01*
X2745892Y-4504639D01*
X2750413Y-4508296D01*
X2753309Y-4514240D01*
X2754376Y-4522470D01*
X2754122Y-4526026D01*
X2753461Y-4529582D01*
X2752344Y-4533138D01*
X2750820Y-4536694D01*
X2734310Y-4540250D01*
X2734310Y-4549140D01*
X2753868Y-4549648D01*
X2757373Y-4543348D01*
X2759913Y-4536897D01*
X2761488Y-4530039D01*
X2761996Y-4522470D01*
X2761386Y-4514748D01*
X2759760Y-4507992D01*
X2757170Y-4502200D01*
X2753715Y-4497374D01*
X2749651Y-4493615D01*
X2745079Y-4490872D01*
X2740050Y-4489246D01*
X2734818Y-4488688D01*
X2730042Y-4489094D01*
X2725775Y-4490364D01*
X2721965Y-4492396D01*
X2718562Y-4495190D01*
X2715564Y-4498594D01*
X2712872Y-4502607D01*
X2710535Y-4507230D01*
X2708402Y-4512310D01*
X2705354Y-4521454D01*
X2701747Y-4529734D01*
X2697886Y-4535322D01*
X2693314Y-4538472D01*
X2687574Y-4539488D01*
X2681274Y-4538116D01*
X2676398Y-4534001D01*
X2673197Y-4527042D01*
X2672080Y-4517136D01*
X2672283Y-4512716D01*
X2672842Y-4508550D01*
X2673807Y-4504690D01*
X2675128Y-4501134D01*
X2693162Y-4497070D01*
G37*
G36*
X2733040Y-4570476D02*
G01*
X2723997Y-4570730D01*
X2715666Y-4571390D01*
X2708046Y-4572457D01*
X2701086Y-4573930D01*
X2694838Y-4575759D01*
X2689250Y-4577943D01*
X2684272Y-4580382D01*
X2679903Y-4583125D01*
X2676093Y-4586122D01*
X2672892Y-4589322D01*
X2670251Y-4592726D01*
X2668117Y-4596282D01*
X2666492Y-4599990D01*
X2665323Y-4603800D01*
X2664663Y-4607712D01*
X2664460Y-4611624D01*
X2672080Y-4611624D01*
X2672334Y-4608525D01*
X2673248Y-4605528D01*
X2674772Y-4602632D01*
X2677109Y-4599889D01*
X2680258Y-4597349D01*
X2684373Y-4595012D01*
X2689453Y-4592929D01*
X2695651Y-4591151D01*
X2703068Y-4589729D01*
X2711704Y-4588662D01*
X2721660Y-4588002D01*
X2733040Y-4587748D01*
X2744012Y-4588002D01*
X2753664Y-4588662D01*
X2761996Y-4589729D01*
X2769158Y-4591151D01*
X2775204Y-4592929D01*
X2780131Y-4595012D01*
X2784144Y-4597349D01*
X2787243Y-4599889D01*
X2789529Y-4602632D01*
X2791104Y-4605528D01*
X2791968Y-4608525D01*
X2792222Y-4611624D01*
X2791968Y-4614570D01*
X2791104Y-4617466D01*
X2789529Y-4620260D01*
X2787243Y-4622901D01*
X2784144Y-4625390D01*
X2780131Y-4627676D01*
X2775204Y-4629658D01*
X2769158Y-4631385D01*
X2761996Y-4632807D01*
X2753664Y-4633874D01*
X2744012Y-4634534D01*
X2733040Y-4634738D01*
X2721711Y-4634534D01*
X2711754Y-4633874D01*
X2703169Y-4632807D01*
X2695803Y-4631385D01*
X2689606Y-4629658D01*
X2684475Y-4627676D01*
X2680360Y-4625390D01*
X2677160Y-4622901D01*
X2674823Y-4620260D01*
X2673248Y-4617466D01*
X2672334Y-4614570D01*
X2672080Y-4611624D01*
X2664460Y-4611624D01*
X2664663Y-4615434D01*
X2665323Y-4619193D01*
X2666492Y-4622901D01*
X2668117Y-4626559D01*
X2670251Y-4630064D01*
X2672892Y-4633417D01*
X2676093Y-4636617D01*
X2679903Y-4639564D01*
X2684272Y-4642307D01*
X2689250Y-4644745D01*
X2694838Y-4646930D01*
X2701086Y-4648758D01*
X2708046Y-4650232D01*
X2715666Y-4651349D01*
X2723997Y-4652010D01*
X2733040Y-4652264D01*
X2741828Y-4652010D01*
X2749905Y-4651349D01*
X2757322Y-4650232D01*
X2764078Y-4648758D01*
X2770225Y-4646930D01*
X2775712Y-4644745D01*
X2780588Y-4642307D01*
X2784856Y-4639564D01*
X2788564Y-4636617D01*
X2791714Y-4633417D01*
X2794355Y-4630064D01*
X2796489Y-4626559D01*
X2798064Y-4622901D01*
X2799232Y-4619193D01*
X2799892Y-4615434D01*
X2800096Y-4611624D01*
X2799892Y-4607712D01*
X2799232Y-4603800D01*
X2798064Y-4599990D01*
X2796489Y-4596282D01*
X2794355Y-4592726D01*
X2791714Y-4589322D01*
X2788564Y-4586122D01*
X2784856Y-4583125D01*
X2780588Y-4580382D01*
X2775712Y-4577943D01*
X2770225Y-4575759D01*
X2764078Y-4573930D01*
X2757322Y-4572457D01*
X2749905Y-4571390D01*
X2741828Y-4570730D01*
G37*
G36*
X2770632Y-4668774D02*
G01*
X2768092Y-4670552D01*
X2766161Y-4672736D01*
X2764942Y-4675276D01*
X2764536Y-4678172D01*
X2765196Y-4681677D01*
X2767330Y-4684572D01*
X2771190Y-4686909D01*
X2776982Y-4688840D01*
X2791206Y-4692904D01*
X2792018Y-4698593D01*
X2792222Y-4703318D01*
X2791714Y-4708550D01*
X2790240Y-4713274D01*
X2787904Y-4717338D01*
X2784652Y-4720793D01*
X2780639Y-4723536D01*
X2775915Y-4725517D01*
X2770530Y-4726787D01*
X2764536Y-4727194D01*
X2758744Y-4726787D01*
X2752953Y-4725517D01*
X2747010Y-4723384D01*
X2740863Y-4720386D01*
X2734462Y-4716475D01*
X2727655Y-4711649D01*
X2720340Y-4705908D01*
X2679192Y-4669790D01*
X2667000Y-4669790D01*
X2667000Y-4749800D01*
X2681986Y-4749800D01*
X2681986Y-4682236D01*
X2719578Y-4718151D01*
X2731008Y-4728210D01*
X2735986Y-4732223D01*
X2740660Y-4735626D01*
X2745028Y-4738370D01*
X2749245Y-4740554D01*
X2753309Y-4742230D01*
X2757322Y-4743348D01*
X2761386Y-4744008D01*
X2765552Y-4744212D01*
X2770479Y-4743958D01*
X2775153Y-4743246D01*
X2779522Y-4742078D01*
X2783535Y-4740402D01*
X2787192Y-4738166D01*
X2790444Y-4735474D01*
X2793288Y-4732223D01*
X2795676Y-4728464D01*
X2797556Y-4724196D01*
X2798927Y-4719320D01*
X2799791Y-4713884D01*
X2800096Y-4707890D01*
X2799638Y-4700778D01*
X2798267Y-4694021D01*
X2795930Y-4687773D01*
X2792679Y-4682134D01*
X2788564Y-4677308D01*
X2783484Y-4673346D01*
X2777490Y-4670450D01*
G37*
G36*
X2656840Y-3390900D02*
G01*
X2656840Y-3438651D01*
X2662936Y-3438651D01*
X2664968Y-3423158D01*
X2697734Y-3422650D01*
X2771648Y-3422650D01*
X2799334Y-3423665D01*
X2800858Y-3420872D01*
X2792730Y-3390900D01*
X2786888Y-3390900D01*
X2785364Y-3406648D01*
X2681376Y-3406597D01*
X2664968Y-3406394D01*
X2662936Y-3390900D01*
G37*
G36*
X2683002Y-3453637D02*
G01*
X2661666Y-3453892D01*
X2658465Y-3461004D01*
X2656179Y-3468065D01*
X2654757Y-3475380D01*
X2654300Y-3483356D01*
X2654909Y-3492042D01*
X2656535Y-3499612D01*
X2659176Y-3506063D01*
X2662631Y-3511397D01*
X2666746Y-3515563D01*
X2671470Y-3518560D01*
X2676550Y-3520338D01*
X2681986Y-3520948D01*
X2686507Y-3520592D01*
X2690672Y-3519474D01*
X2694584Y-3517595D01*
X2698191Y-3514851D01*
X2701544Y-3511194D01*
X2704642Y-3506571D01*
X2707487Y-3500983D01*
X2716225Y-3479241D01*
X2719832Y-3473551D01*
X2724200Y-3470401D01*
X2729992Y-3469386D01*
X2735732Y-3470605D01*
X2740253Y-3474262D01*
X2743200Y-3480206D01*
X2744216Y-3488436D01*
X2743962Y-3491992D01*
X2743301Y-3495548D01*
X2742184Y-3499104D01*
X2740660Y-3502660D01*
X2724150Y-3506215D01*
X2724150Y-3515106D01*
X2743708Y-3515614D01*
X2747213Y-3509314D01*
X2749753Y-3502863D01*
X2751328Y-3496005D01*
X2751836Y-3488436D01*
X2751277Y-3480714D01*
X2749600Y-3473958D01*
X2747010Y-3468166D01*
X2743606Y-3463340D01*
X2739491Y-3459581D01*
X2734919Y-3456838D01*
X2729890Y-3455212D01*
X2724658Y-3454654D01*
X2719882Y-3455060D01*
X2715615Y-3456330D01*
X2711805Y-3458362D01*
X2708402Y-3461105D01*
X2705404Y-3464560D01*
X2702712Y-3468573D01*
X2700375Y-3473196D01*
X2698242Y-3478276D01*
X2695194Y-3487420D01*
X2691587Y-3495700D01*
X2687726Y-3501288D01*
X2683154Y-3504437D01*
X2677414Y-3505454D01*
X2671114Y-3504082D01*
X2666238Y-3500018D01*
X2663037Y-3493008D01*
X2661920Y-3483101D01*
X2662123Y-3478682D01*
X2662682Y-3474516D01*
X2663647Y-3470656D01*
X2664968Y-3467100D01*
X2683002Y-3463036D01*
G37*
G36*
X2771902Y-3538220D02*
G01*
X2771902Y-3606546D01*
X2658618Y-3554729D01*
X2656840Y-3556508D01*
X2656840Y-3571240D01*
X2777490Y-3617468D01*
X2787142Y-3617468D01*
X2787142Y-3538220D01*
G37*
G36*
X2697480Y-3631437D02*
G01*
X2697480Y-3641344D01*
X2708656Y-3641344D01*
X2770886Y-3684270D01*
X2708656Y-3684270D01*
X2708656Y-3641344D01*
X2697480Y-3641344D01*
X2697480Y-3684270D01*
X2656840Y-3684270D01*
X2656840Y-3700018D01*
X2697480Y-3700018D01*
X2697480Y-3720592D01*
X2708656Y-3720592D01*
X2708656Y-3700018D01*
X2789174Y-3700018D01*
X2789174Y-3689096D01*
X2706878Y-3631437D01*
G37*
G36*
X3711448Y-1505712D02*
G01*
X3707180Y-1506016D01*
X3703218Y-1507032D01*
X3699560Y-1508658D01*
X3696208Y-1510944D01*
X3693210Y-1513890D01*
X3690518Y-1517497D01*
X3688232Y-1521764D01*
X3686301Y-1526743D01*
X3684778Y-1532382D01*
X3683660Y-1538732D01*
X3683000Y-1545742D01*
X3682746Y-1553464D01*
X3692906Y-1553464D01*
X3693261Y-1543964D01*
X3694226Y-1535836D01*
X3695801Y-1529080D01*
X3697986Y-1523593D01*
X3700678Y-1519377D01*
X3703828Y-1516430D01*
X3707434Y-1514652D01*
X3711448Y-1514094D01*
X3715359Y-1514652D01*
X3718915Y-1516430D01*
X3722014Y-1519377D01*
X3724706Y-1523593D01*
X3726840Y-1529080D01*
X3728415Y-1535836D01*
X3729380Y-1543964D01*
X3729736Y-1553464D01*
X3729380Y-1563065D01*
X3728415Y-1571294D01*
X3726840Y-1578203D01*
X3724706Y-1583791D01*
X3722014Y-1588109D01*
X3718915Y-1591157D01*
X3715359Y-1592986D01*
X3711448Y-1593596D01*
X3707434Y-1592986D01*
X3703828Y-1591157D01*
X3700678Y-1588109D01*
X3697986Y-1583842D01*
X3695801Y-1578203D01*
X3694226Y-1571294D01*
X3693261Y-1563065D01*
X3692906Y-1553464D01*
X3682746Y-1553464D01*
X3683000Y-1561185D01*
X3683660Y-1568246D01*
X3684778Y-1574647D01*
X3686301Y-1580388D01*
X3688232Y-1585417D01*
X3690518Y-1589836D01*
X3693210Y-1593545D01*
X3696208Y-1596593D01*
X3699560Y-1598930D01*
X3703218Y-1600606D01*
X3707180Y-1601622D01*
X3711448Y-1601978D01*
X3715664Y-1601622D01*
X3719626Y-1600606D01*
X3723233Y-1598930D01*
X3726535Y-1596593D01*
X3729532Y-1593545D01*
X3732123Y-1589836D01*
X3734358Y-1585417D01*
X3736238Y-1580388D01*
X3737711Y-1574647D01*
X3738778Y-1568246D01*
X3739438Y-1561185D01*
X3739642Y-1553464D01*
X3739438Y-1545742D01*
X3738778Y-1538732D01*
X3737711Y-1532382D01*
X3736238Y-1526743D01*
X3734358Y-1521764D01*
X3732123Y-1517497D01*
X3729532Y-1513890D01*
X3726535Y-1510944D01*
X3723233Y-1508658D01*
X3719626Y-1507032D01*
X3715664Y-1506016D01*
G37*
G36*
X3641344Y-1507236D02*
G01*
X3637534Y-1509217D01*
X3633165Y-1510893D01*
X3628237Y-1512366D01*
X3622548Y-1513586D01*
X3622548Y-1520444D01*
X3639058Y-1520444D01*
X3639058Y-1591564D01*
X3617976Y-1591564D01*
X3617976Y-1600200D01*
X3668014Y-1600200D01*
X3668014Y-1591564D01*
X3649218Y-1591564D01*
X3649218Y-1507236D01*
G37*
G36*
X3788156Y-1507236D02*
G01*
X3749778Y-1566164D01*
X3759708Y-1566164D01*
X3782060Y-1532636D01*
X3785920Y-1526032D01*
X3789426Y-1519428D01*
X3790187Y-1519428D01*
X3789629Y-1527505D01*
X3789426Y-1535938D01*
X3789426Y-1566164D01*
X3749778Y-1566164D01*
X3748786Y-1567688D01*
X3748786Y-1574292D01*
X3789426Y-1574292D01*
X3789426Y-1600200D01*
X3799078Y-1600200D01*
X3799078Y-1574292D01*
X3811778Y-1574292D01*
X3811778Y-1566164D01*
X3799078Y-1566164D01*
X3799078Y-1507236D01*
G37*
G36*
X2900172Y-3136900D02*
G01*
X2895904Y-3137204D01*
X2891942Y-3138220D01*
X2888284Y-3139846D01*
X2884932Y-3142132D01*
X2881934Y-3145078D01*
X2879242Y-3148685D01*
X2876956Y-3152952D01*
X2875026Y-3157931D01*
X2873502Y-3163570D01*
X2872384Y-3169920D01*
X2871724Y-3176930D01*
X2871470Y-3184652D01*
X2881630Y-3184652D01*
X2881985Y-3175152D01*
X2882950Y-3167024D01*
X2884576Y-3160268D01*
X2886710Y-3154781D01*
X2889402Y-3150565D01*
X2892552Y-3147618D01*
X2896158Y-3145840D01*
X2900172Y-3145282D01*
X2904083Y-3145840D01*
X2907639Y-3147618D01*
X2910738Y-3150565D01*
X2913430Y-3154781D01*
X2915564Y-3160268D01*
X2917139Y-3167024D01*
X2918104Y-3175152D01*
X2918460Y-3184652D01*
X2918104Y-3194253D01*
X2917139Y-3202482D01*
X2915564Y-3209391D01*
X2913430Y-3215030D01*
X2910738Y-3219297D01*
X2907639Y-3222345D01*
X2904083Y-3224174D01*
X2900172Y-3224784D01*
X2896158Y-3224174D01*
X2892552Y-3222345D01*
X2889402Y-3219297D01*
X2886710Y-3215030D01*
X2884576Y-3209391D01*
X2882950Y-3202482D01*
X2881985Y-3194253D01*
X2881630Y-3184652D01*
X2871470Y-3184652D01*
X2871724Y-3192373D01*
X2872384Y-3199434D01*
X2873502Y-3205835D01*
X2875026Y-3211576D01*
X2876956Y-3216605D01*
X2879242Y-3221024D01*
X2881934Y-3224733D01*
X2884932Y-3227781D01*
X2888284Y-3230118D01*
X2891942Y-3231794D01*
X2895904Y-3232810D01*
X2900172Y-3233166D01*
X2904388Y-3232810D01*
X2908350Y-3231794D01*
X2911957Y-3230118D01*
X2915259Y-3227781D01*
X2918256Y-3224733D01*
X2920847Y-3221024D01*
X2923082Y-3216605D01*
X2924962Y-3211576D01*
X2926435Y-3205835D01*
X2927502Y-3199434D01*
X2928162Y-3192373D01*
X2928366Y-3184652D01*
X2928162Y-3176930D01*
X2927502Y-3169920D01*
X2926435Y-3163570D01*
X2924962Y-3157931D01*
X2923082Y-3152952D01*
X2920847Y-3148685D01*
X2918256Y-3145078D01*
X2915259Y-3142132D01*
X2911957Y-3139846D01*
X2908350Y-3138220D01*
X2904388Y-3137204D01*
G37*
G36*
X2830068Y-3138424D02*
G01*
X2826258Y-3140405D01*
X2821889Y-3142081D01*
X2816961Y-3143554D01*
X2811272Y-3144774D01*
X2811272Y-3151632D01*
X2827782Y-3151632D01*
X2827782Y-3222752D01*
X2806700Y-3222752D01*
X2806700Y-3231388D01*
X2856738Y-3231388D01*
X2856738Y-3222752D01*
X2837942Y-3222752D01*
X2837942Y-3138424D01*
G37*
G36*
X2976880Y-3138424D02*
G01*
X2938502Y-3197352D01*
X2948432Y-3197352D01*
X2970784Y-3163824D01*
X2974644Y-3157220D01*
X2978150Y-3150616D01*
X2978912Y-3150616D01*
X2978353Y-3158693D01*
X2978150Y-3167126D01*
X2978150Y-3197352D01*
X2938502Y-3197352D01*
X2937510Y-3198876D01*
X2937510Y-3205480D01*
X2978150Y-3205480D01*
X2978150Y-3231388D01*
X2987802Y-3231388D01*
X2987802Y-3205480D01*
X3000502Y-3205480D01*
X3000502Y-3197352D01*
X2987802Y-3197352D01*
X2987802Y-3138424D01*
G37*
G36*
X3254248Y-4985512D02*
G01*
X3249980Y-4985816D01*
X3246018Y-4986832D01*
X3242360Y-4988458D01*
X3239008Y-4990744D01*
X3236010Y-4993690D01*
X3233318Y-4997297D01*
X3231032Y-5001564D01*
X3229102Y-5006543D01*
X3227578Y-5012182D01*
X3226460Y-5018532D01*
X3225800Y-5025542D01*
X3225546Y-5033264D01*
X3235706Y-5033264D01*
X3236061Y-5023764D01*
X3237026Y-5015636D01*
X3238601Y-5008880D01*
X3240786Y-5003393D01*
X3243478Y-4999177D01*
X3246628Y-4996230D01*
X3250234Y-4994452D01*
X3254248Y-4993894D01*
X3258159Y-4994452D01*
X3261715Y-4996230D01*
X3264814Y-4999177D01*
X3267506Y-5003393D01*
X3269640Y-5008880D01*
X3271215Y-5015636D01*
X3272180Y-5023764D01*
X3272536Y-5033264D01*
X3272180Y-5042865D01*
X3271215Y-5051094D01*
X3269640Y-5058003D01*
X3267506Y-5063591D01*
X3264814Y-5067909D01*
X3261715Y-5070957D01*
X3258159Y-5072786D01*
X3254248Y-5073396D01*
X3250234Y-5072786D01*
X3246628Y-5070957D01*
X3243478Y-5067909D01*
X3240786Y-5063642D01*
X3238601Y-5058003D01*
X3237026Y-5051094D01*
X3236061Y-5042865D01*
X3235706Y-5033264D01*
X3225546Y-5033264D01*
X3225800Y-5040985D01*
X3226460Y-5048046D01*
X3227578Y-5054447D01*
X3229102Y-5060188D01*
X3231032Y-5065217D01*
X3233318Y-5069636D01*
X3236010Y-5073345D01*
X3239008Y-5076393D01*
X3242360Y-5078730D01*
X3246018Y-5080406D01*
X3249980Y-5081422D01*
X3254248Y-5081778D01*
X3258464Y-5081422D01*
X3262426Y-5080406D01*
X3266033Y-5078730D01*
X3269335Y-5076393D01*
X3272332Y-5073345D01*
X3274923Y-5069636D01*
X3277158Y-5065217D01*
X3279038Y-5060188D01*
X3280511Y-5054447D01*
X3281578Y-5048046D01*
X3282238Y-5040985D01*
X3282442Y-5033264D01*
X3282238Y-5025542D01*
X3281578Y-5018532D01*
X3280511Y-5012182D01*
X3279038Y-5006543D01*
X3277158Y-5001564D01*
X3274923Y-4997297D01*
X3272332Y-4993690D01*
X3269335Y-4990744D01*
X3266033Y-4988458D01*
X3262426Y-4986832D01*
X3258464Y-4985816D01*
G37*
G36*
X3184144Y-4987036D02*
G01*
X3180334Y-4989017D01*
X3175965Y-4990693D01*
X3171037Y-4992166D01*
X3165348Y-4993386D01*
X3165348Y-5000244D01*
X3181858Y-5000244D01*
X3181858Y-5071364D01*
X3160776Y-5071364D01*
X3160776Y-5080000D01*
X3210814Y-5080000D01*
X3210814Y-5071364D01*
X3192018Y-5071364D01*
X3192018Y-4987036D01*
G37*
G36*
X3330956Y-4987036D02*
G01*
X3292578Y-5045964D01*
X3302508Y-5045964D01*
X3324860Y-5012436D01*
X3328720Y-5005832D01*
X3332226Y-4999228D01*
X3332987Y-4999228D01*
X3332429Y-5007305D01*
X3332226Y-5015738D01*
X3332226Y-5045964D01*
X3292578Y-5045964D01*
X3291586Y-5047488D01*
X3291586Y-5054092D01*
X3332226Y-5054092D01*
X3332226Y-5080000D01*
X3341878Y-5080000D01*
X3341878Y-5054092D01*
X3354578Y-5054092D01*
X3354578Y-5045964D01*
X3341878Y-5045964D01*
X3341878Y-4987036D01*
G37*
D10*
X3261868Y-3011423D02*
G01*
X3256534Y-3001010D01*
X3246120Y-2990595D01*
X3235959Y-2985515D01*
X3215131Y-2985515D01*
X3204718Y-2990595D01*
X3194304Y-3001010D01*
X3188970Y-3011423D01*
X3183890Y-3027171D01*
X3183890Y-3053079D01*
X3188970Y-3068573D01*
X3194304Y-3078987D01*
X3204718Y-3089402D01*
X3215131Y-3094736D01*
X3235959Y-3094736D01*
X3246120Y-3089402D01*
X3256534Y-3078987D01*
X3261868Y-3068573D01*
X3296158Y-3006344D02*
G01*
X3306572Y-3001010D01*
X3322065Y-2985515D01*
X3322065Y-3094736D01*
X3387597Y-2985515D02*
G01*
X3371850Y-2990595D01*
X3361690Y-3006344D01*
X3356356Y-3032252D01*
X3356356Y-3047745D01*
X3361690Y-3073907D01*
X3371850Y-3089402D01*
X3387597Y-3094736D01*
X3398011Y-3094736D01*
X3413506Y-3089402D01*
X3423920Y-3073907D01*
X3429000Y-3047745D01*
X3429000Y-3032252D01*
X3423920Y-3006344D01*
X3413506Y-2990595D01*
X3398011Y-2985515D01*
X3387597Y-2985515D01*
X3087624Y-4688331D02*
G01*
X3077209Y-4693665D01*
X3066795Y-4704079D01*
X3061715Y-4714239D01*
X3061715Y-4735068D01*
X3066795Y-4745481D01*
X3077209Y-4755895D01*
X3087624Y-4761229D01*
X3103372Y-4766310D01*
X3129279Y-4766310D01*
X3144774Y-4761229D01*
X3155188Y-4755895D01*
X3165602Y-4745481D01*
X3170936Y-4735068D01*
X3170936Y-4714239D01*
X3165602Y-4704079D01*
X3155188Y-4693665D01*
X3144774Y-4688331D01*
X3061715Y-4628134D02*
G01*
X3066795Y-4643628D01*
X3077209Y-4648962D01*
X3087624Y-4648962D01*
X3098038Y-4643628D01*
X3103372Y-4633213D01*
X3108452Y-4612639D01*
X3113786Y-4596892D01*
X3123945Y-4586478D01*
X3134359Y-4581397D01*
X3150108Y-4581397D01*
X3160522Y-4586478D01*
X3165602Y-4591812D01*
X3170936Y-4607305D01*
X3170936Y-4628134D01*
X3165602Y-4643628D01*
X3160522Y-4648962D01*
X3150108Y-4654042D01*
X3134359Y-4654042D01*
X3123945Y-4648962D01*
X3113786Y-4638547D01*
X3108452Y-4622800D01*
X3103372Y-4602226D01*
X3098038Y-4591812D01*
X3087624Y-4586478D01*
X3077209Y-4586478D01*
X3066795Y-4591812D01*
X3061715Y-4607305D01*
X3061715Y-4628134D01*
D11*
X2833624Y-1651762D02*
G01*
X2315718Y-1651762D01*
X2315718Y-6755637D01*
X3551681Y-6755637D01*
X3551681Y-1651762D01*
X3033775Y-1651762D01*
X2032762Y-1651762D02*
G01*
X2032762Y-6755637D01*
X3834638Y-6755637D01*
X3834638Y-1651762D01*
X2032762Y-1651762D01*
D12*
X2633700Y-2999699D02*
G01*
X2633700Y-1724700D01*
X3233699Y-1724700D01*
X3233699Y-2999699D01*
X2633700Y-2999699D01*
X2621000Y-6631899D02*
G01*
X2621000Y-5356900D01*
X3220999Y-5356900D01*
X3220999Y-6631899D01*
X2621000Y-6631899D01*
X2590500Y-5157099D02*
G01*
X2870499Y-5157099D01*
X2870499Y-4317100D01*
X2590500Y-4317100D01*
X2590500Y-5157099D01*
X2590500Y-4166499D02*
G01*
X2870499Y-4166499D01*
X2870499Y-3326500D01*
X2590500Y-3326500D01*
X2590500Y-4166499D01*
D13*
X3367379Y-5152389D02*
G01*
X3477386Y-5152389D01*
X3477386Y-5312410D01*
X3367379Y-5312410D01*
X3287395Y-5152389D02*
G01*
X3177387Y-5152389D01*
X3177387Y-5252389D01*
X3177387Y-5312410D01*
X3287395Y-5312410D01*
X3376320Y-1629410D02*
G01*
X3266313Y-1629410D01*
X3266313Y-1469389D01*
X3376320Y-1469389D01*
X3456304Y-1629410D02*
G01*
X3566312Y-1629410D01*
X3566312Y-1529410D01*
X3566312Y-1469389D01*
X3456304Y-1469389D01*
X3227679Y-3094989D02*
G01*
X3337686Y-3094989D01*
X3337686Y-3255010D01*
X3227679Y-3255010D01*
X3147695Y-3094989D02*
G01*
X3037687Y-3094989D01*
X3037687Y-3194989D01*
X3037687Y-3255010D01*
X3147695Y-3255010D01*
X3171190Y-4722520D02*
G01*
X3171190Y-4612512D01*
X3331209Y-4612512D01*
X3331209Y-4722520D01*
X3171190Y-4802504D02*
G01*
X3171190Y-4912512D01*
X3271189Y-4912512D01*
X3331209Y-4912512D01*
X3331209Y-4802504D01*
D11*
G75*
G01*
X2833698Y-1651701D02*
G03*
X3033697Y-1651701I99999J0D01*
D14*
G75*
G01*
X3108706Y-2904744D02*
G03*
X3108706Y-2904236I29999J254D01*
D15*
G75*
G01*
X3408680Y-3017266D02*
G03*
X3408680Y-3017012I15001J127D01*
D14*
G75*
G01*
X3096006Y-6536944D02*
G03*
X3096006Y-6536436I29999J254D01*
D15*
G75*
G01*
X3395980Y-6649466D02*
G03*
X3395980Y-6649212I15001J127D01*
D16*
G75*
G01*
X2780538Y-5087112D02*
G03*
X2780538Y-5086858I20000J127D01*
D15*
G75*
G01*
X3012948Y-5197094D02*
G03*
X3012948Y-5196840I15001J127D01*
D16*
G75*
G01*
X2780538Y-4096512D02*
G03*
X2780538Y-4096258I20000J127D01*
D15*
G75*
G01*
X3012948Y-4206494D02*
G03*
X3012948Y-4206240I15001J127D01*
D11*
G75*
G01
X1993900Y-1816100D02*
G03X1993900Y-1816100I-76200J0D01*
M02*
