G04 Layer: TopLayer*
G04 EasyEDA v6.5.22, 2023-01-18 22:18:13*
G04 66d29df89567445d99ed279259f9073e,7be1179030e74d40a97a3c751b95adb4,10*
G04 Gerber Generator version 0.2*
G04 Scale: 100 percent, Rotated: No, Reflected: No *
G04 Dimensions in millimeters *
G04 leading zeros omitted , absolute positions ,4 integer and 5 decimal *
%FSLAX45Y45*%
%MOMM*%

%AMMACRO1*21,1,$1,$2,0,0,$3*%
%ADD10C,0.1000*%
%ADD11O,2.2999954X0.5999988*%
%ADD12O,1.7999964X0.5999988*%
%ADD13R,1.0000X1.1000*%
%ADD14R,1.1000X1.0000*%
%ADD15MACRO1,2.3978X1.6002X0.0000*%
%ADD16O,2.3999952X1.5999968*%
%ADD17C,0.4000*%
%ADD18C,0.0152*%

%LPD*%
D10*
X2478786Y-1917700D02*
G01*
X2440431Y-1917700D01*
X2306828Y-1784095D01*
X2306828Y-1698244D01*
X2304034Y-1695450D01*
X2044445Y-1695450D01*
X1921763Y-1818131D01*
X1921763Y-2469895D01*
X1889505Y-2502154D01*
X1889505Y-5511292D01*
X2113279Y-5734812D01*
X2226563Y-5734812D01*
X2350007Y-5858255D01*
X2560574Y-5858255D01*
X2598165Y-5820918D01*
X2598165Y-5786120D01*
X2488691Y-5676900D01*
X2466086Y-5676900D01*
X2990595Y-4127500D02*
G01*
X3151886Y-4288789D01*
X3151886Y-4956810D01*
X2990595Y-5118100D01*
X2478786Y-2552700D02*
G01*
X2519679Y-2552700D01*
X2611627Y-2460752D01*
X2611627Y-2146807D01*
X2589022Y-2124202D01*
X2346197Y-2124202D01*
X2171700Y-2298700D01*
X2171700Y-2044700D02*
G01*
X2230881Y-2103881D01*
X2611627Y-2103881D01*
X2637281Y-2129536D01*
X2637281Y-2545079D01*
X2502661Y-2679700D01*
X2478786Y-2679700D01*
X2478786Y-2044700D02*
G01*
X2425700Y-2044700D01*
X2266950Y-1885950D01*
X2171700Y-1885950D01*
X2171700Y-1790700D02*
G01*
X2171700Y-1885950D01*
X2466086Y-5803900D02*
G01*
X2437892Y-5803900D01*
X2333752Y-5699760D01*
X2333752Y-5634481D01*
X2336800Y-5631687D01*
X2545079Y-5631687D01*
X2600706Y-5576062D01*
X2600706Y-5528563D01*
X2564384Y-5492242D01*
X2374645Y-5492242D01*
X2327910Y-5445252D01*
X2327910Y-5286247D01*
X2235454Y-5193792D01*
X2084070Y-5193792D01*
X1930145Y-5039868D01*
X1930145Y-2833370D01*
X2101342Y-2662173D01*
X2246629Y-2662173D01*
X2316226Y-2592578D01*
X2316226Y-2439162D01*
X2456688Y-2298700D01*
X2478786Y-2298700D01*
X2478786Y-2425700D02*
G01*
X2447797Y-2425700D01*
X2336545Y-2536952D01*
X2336545Y-2600960D01*
X2253742Y-2683510D01*
X2110486Y-2683510D01*
X1950465Y-2843529D01*
X1950465Y-4827778D01*
X2089404Y-4966462D01*
X2234692Y-4966462D01*
X2311400Y-5043423D01*
X2311400Y-5146547D01*
X2522220Y-5357368D01*
X2550922Y-5357368D01*
X2648711Y-5455157D01*
X2648711Y-6045200D01*
X2509011Y-6184900D01*
X2466086Y-6184900D01*
X3375913Y-5676900D02*
G01*
X3348227Y-5676900D01*
X3244341Y-5780786D01*
X3244341Y-5838444D01*
X3273297Y-5867400D01*
X3474465Y-5867400D01*
X3516375Y-5909563D01*
X3516375Y-6105905D01*
X3614674Y-6203950D01*
X3783075Y-6203950D01*
X3853179Y-6133845D01*
X3853179Y-5075173D01*
X3743706Y-4965700D01*
X3629152Y-4965700D01*
X3560572Y-4897120D01*
X3560572Y-2733802D01*
X3574795Y-2719578D01*
X3574795Y-2690621D01*
X3560572Y-2676397D01*
X3560572Y-2408428D01*
X3450843Y-2298700D01*
X3388613Y-2298700D01*
X2990595Y-3873500D02*
G01*
X3531870Y-4414773D01*
X3531870Y-5436870D01*
X3695700Y-5600700D01*
X2466086Y-6311900D02*
G01*
X2500375Y-6311900D01*
X2683002Y-6129273D01*
X2683002Y-5459984D01*
X2490470Y-5267452D01*
X2462529Y-5267452D01*
X2341371Y-5146294D01*
X2341371Y-5044439D01*
X2240026Y-4943094D01*
X2094737Y-4943094D01*
X1970786Y-4819395D01*
X1970786Y-3085337D01*
X2115312Y-2940812D01*
X2223262Y-2940812D01*
X2357373Y-2806700D01*
X2478786Y-2806700D01*
X2478786Y-2171700D02*
G01*
X2438400Y-2171700D01*
X2330450Y-2279650D01*
X2330450Y-2393950D01*
X2171700Y-2552700D01*
X2990595Y-4483100D02*
G01*
X3096768Y-4589271D01*
X3096768Y-4673600D01*
X3096768Y-4673600D02*
G01*
X3096768Y-4757928D01*
X2990595Y-4864100D01*
X2470404Y-3492500D02*
G01*
X2451354Y-3473450D01*
X2091944Y-3473450D01*
X2034031Y-3531362D01*
X2034031Y-4381754D01*
X2079752Y-4427473D01*
X2253742Y-4427473D01*
X2359913Y-4321302D01*
X2359913Y-3975607D01*
X2385060Y-3950462D01*
X2560827Y-3950462D01*
X2776981Y-4166362D01*
X2776981Y-4532121D01*
X2918459Y-4673600D01*
X3096768Y-4673600D01*
X3375913Y-6311900D02*
G01*
X3327654Y-6311900D01*
X3173475Y-6157721D01*
X3173475Y-5921755D01*
X2498852Y-5247131D01*
X2470911Y-5247131D01*
X2362962Y-5139181D01*
X2362962Y-5029962D01*
X2171700Y-4838700D01*
X2171700Y-4838700D02*
G01*
X1991105Y-4658105D01*
X1991105Y-3305810D01*
X2137155Y-3160013D01*
X2251455Y-3160013D01*
X2309368Y-3102102D01*
X2309368Y-2945384D01*
X2370073Y-2884678D01*
X2591308Y-2884678D01*
X3253993Y-2222245D01*
X3500374Y-2222245D01*
X3527806Y-2194560D01*
X3527806Y-2018537D01*
X3426968Y-1917700D01*
X3388613Y-1917700D01*
X2171700Y-3060700D02*
G01*
X2171700Y-3031997D01*
X2346452Y-2857245D01*
X2589275Y-2857245D01*
X3274822Y-2171700D01*
X3388613Y-2171700D01*
X2171700Y-4330700D02*
G01*
X2339594Y-4162805D01*
X2339594Y-3877563D01*
X2403347Y-3813555D01*
X2533650Y-3813555D01*
X2585465Y-3761739D01*
X2585465Y-3675379D01*
X2625090Y-3636010D01*
X2625090Y-3494023D01*
X3312413Y-2806700D01*
X3388613Y-2806700D01*
X3388613Y-2679700D02*
G01*
X3360420Y-2679700D01*
X2604770Y-3435350D01*
X2604770Y-3627628D01*
X2563622Y-3668776D01*
X2271776Y-3668776D01*
X2171700Y-3568700D01*
X2804668Y-3886454D02*
G01*
X2483358Y-3886454D01*
X2470404Y-3873500D01*
X2804668Y-3886454D02*
G01*
X2804668Y-4424171D01*
X2990595Y-4610100D01*
X2804668Y-3886454D02*
G01*
X2804668Y-3776726D01*
X2961893Y-3619500D01*
X2990595Y-3619500D01*
X2171700Y-4584700D02*
G01*
X2011426Y-4424426D01*
X2011426Y-3525265D01*
X2099055Y-3437636D01*
X2225039Y-3437636D01*
X3236975Y-2425700D01*
X3388613Y-2425700D01*
X3388613Y-2044700D02*
G01*
X3275838Y-2044700D01*
X2577338Y-2743200D01*
X2235200Y-2743200D01*
X2171700Y-2806700D01*
X3388613Y-2552700D02*
G01*
X3427729Y-2552700D01*
X3535425Y-2445257D01*
X3535425Y-2411984D01*
X3485641Y-2362200D01*
X3250691Y-2362200D01*
X2298192Y-3314700D01*
X2171700Y-3314700D01*
X2990595Y-4737100D02*
G01*
X2877820Y-4849876D01*
X2877820Y-5141721D01*
X2915665Y-5179821D01*
X3052825Y-5179821D01*
X3158997Y-5073650D01*
X3158997Y-5064760D01*
X3347211Y-3948937D02*
G01*
X3518915Y-3777234D01*
X3518915Y-2908807D01*
X3493261Y-2883154D01*
X3287775Y-2883154D01*
X3208274Y-2962402D01*
X2171700Y-5092700D02*
G01*
X2362962Y-5283962D01*
X2362962Y-5360923D01*
X2470404Y-3746500D02*
G01*
X2441956Y-3746500D01*
X2171700Y-4016755D01*
X2171700Y-4076700D01*
X2517393Y-4064000D02*
G01*
X2546350Y-4064000D01*
X2756661Y-4274312D01*
X2756661Y-4676902D01*
X2813050Y-4733289D01*
X2813050Y-5075681D01*
X2756661Y-4993131D02*
G01*
X2694431Y-4930902D01*
X2694431Y-4292854D01*
X2596134Y-4194810D01*
X2945891Y-3685286D02*
G01*
X2924556Y-3685286D01*
X2843784Y-3766312D01*
X2843784Y-4395978D01*
X2478786Y-1790700D02*
G01*
X2509520Y-1790700D01*
X2663697Y-1944878D01*
X2663697Y-2572765D01*
X2651759Y-2584704D01*
X2466086Y-5422900D02*
G01*
X2537713Y-5422900D01*
X2624327Y-5509513D01*
X2624327Y-6019800D01*
X2611881Y-6031992D01*
X3375913Y-5549900D02*
G01*
X3400043Y-5549900D01*
X3506215Y-5656071D01*
X3506215Y-5701792D01*
X3467608Y-5740400D01*
X3405886Y-5740400D01*
X2466086Y-6438900D02*
G01*
X2529840Y-6375145D01*
X3465322Y-6375145D01*
X3598925Y-6241795D01*
X3774186Y-6241795D01*
X3880611Y-6135115D01*
X3880611Y-3302000D01*
X3856481Y-3277870D01*
X3856481Y-2530855D01*
X3783075Y-2457450D01*
X3677158Y-2457450D01*
X3543808Y-2324100D01*
X2466086Y-6057900D02*
G01*
X2389886Y-5981700D01*
X2116073Y-5981700D01*
X1869439Y-5735065D01*
X1869439Y-2434589D01*
X2466086Y-5930900D02*
G01*
X2329942Y-5930900D01*
X2320036Y-5940805D01*
X3539490Y-2705100D02*
G01*
X3539490Y-3987800D01*
X3406140Y-4121150D01*
X3375913Y-6438900D02*
G01*
X3430270Y-6438900D01*
X3601720Y-6267450D01*
X3788918Y-6267450D01*
X3900931Y-6155436D01*
X3900931Y-3272536D01*
X3891534Y-3263392D01*
X3388613Y-1708150D02*
G01*
X3346450Y-1665731D01*
X3346450Y-1549400D01*
X3251200Y-4692650D02*
G01*
X3251200Y-4757673D01*
X3257804Y-3175000D02*
G01*
X3192525Y-3175000D01*
X3695700Y-5092700D02*
G01*
X3832859Y-5229860D01*
X3832859Y-5971539D01*
X3695700Y-6108700D01*
X3251200Y-4757673D02*
G01*
X3316477Y-4757673D01*
X3397504Y-4838700D01*
X3397504Y-5232400D01*
X3397504Y-5232400D02*
G01*
X3397504Y-5422900D01*
X3375913Y-5422900D02*
G01*
X3397504Y-5422900D01*
X3397504Y-5422900D02*
G01*
X3407156Y-5422900D01*
X3540506Y-5556504D01*
X3540506Y-5953505D01*
X3695700Y-6108700D01*
X3388613Y-1708150D02*
G01*
X3388613Y-1790700D01*
X2990595Y-4356100D02*
G01*
X3120897Y-4486402D01*
X3120897Y-4860797D01*
X3110738Y-4870957D01*
X3110738Y-4870957D02*
G01*
X2990595Y-4991100D01*
X3129025Y-3488944D02*
G01*
X3129025Y-3427221D01*
X3067304Y-3365500D01*
X3192525Y-3175000D02*
G01*
X3192525Y-3240278D01*
X3067304Y-3365500D01*
X3067304Y-3365500D02*
G01*
X2990595Y-3365500D01*
X2626613Y-3848607D02*
G01*
X2626613Y-3729481D01*
X2990595Y-3365500D01*
X2466086Y-5549900D02*
G01*
X2403602Y-5549900D01*
X2307589Y-5453634D01*
X2307589Y-5294629D01*
X2236978Y-5224018D01*
X2085847Y-5224018D01*
X1909826Y-5048250D01*
X1909826Y-2621787D01*
X2098802Y-2432812D01*
X2220976Y-2432812D01*
X2306828Y-2346960D01*
X2306828Y-2217673D01*
X3486404Y-1549400D02*
G01*
X3551681Y-1549400D01*
X3257295Y-5232400D02*
G01*
X3217163Y-5192013D01*
X3251200Y-4897881D02*
G01*
X3251200Y-5157978D01*
X3217163Y-5192013D01*
X3251200Y-4832604D02*
G01*
X3251200Y-4865115D01*
X3251200Y-4865115D02*
G01*
X3251200Y-4897881D01*
X3217163Y-5192013D02*
G01*
X3203956Y-5204968D01*
X2557525Y-5204968D01*
X2470404Y-5118100D01*
X3251200Y-4865115D02*
G01*
X3181095Y-4795012D01*
X3181095Y-4191000D01*
X2990595Y-4000500D01*
X2990595Y-4000500D02*
G01*
X2882900Y-3892804D01*
X2882900Y-3854195D01*
X2990595Y-3746500D01*
X2470404Y-4127500D02*
G01*
X2576829Y-4233926D01*
X2576829Y-4803902D01*
X2576829Y-4803902D02*
G01*
X2576829Y-5011673D01*
X2470404Y-5118100D01*
X2576829Y-4803902D02*
G01*
X2534411Y-4803902D01*
X2470404Y-3619500D02*
G01*
X2584450Y-3505707D01*
X2584450Y-3445002D01*
X2568447Y-3429000D01*
X3257295Y-5232400D02*
G01*
X3257295Y-5302757D01*
X3257295Y-5302757D02*
G01*
X3214370Y-5345684D01*
X3214370Y-6145784D01*
X3229863Y-6161278D01*
X3107181Y-3556000D02*
G01*
X3107181Y-3629660D01*
X2990595Y-3746500D01*
X3107181Y-3556000D02*
G01*
X3035554Y-3556000D01*
X2365502Y-2992373D02*
G01*
X2424176Y-2933700D01*
X2478786Y-2933700D01*
X3551681Y-1549400D02*
G01*
X3551681Y-1646681D01*
X3695700Y-1790700D01*
X2478786Y-2933700D02*
G01*
X2578100Y-2933700D01*
X3265424Y-2246376D01*
X3525520Y-2246376D01*
X3552190Y-2219452D01*
X3552190Y-1934210D01*
X3695700Y-1790700D01*
X2470404Y-4127500D02*
G01*
X2470404Y-4000500D01*
X3117595Y-3175000D02*
G01*
X3254247Y-3038347D01*
X3254247Y-3026410D01*
X3313429Y-3026410D02*
G01*
X3330193Y-3043173D01*
X3330193Y-3351529D01*
X3125724Y-3556000D01*
X3107181Y-3556000D01*
X3254247Y-3026410D02*
G01*
X3313429Y-3026410D01*
X3313429Y-3026410D02*
G01*
X3388613Y-2950971D01*
X3388613Y-2933700D01*
X2901441Y-6410452D02*
G01*
X2901441Y-6565900D01*
X3375913Y-6565900D02*
G01*
X2901441Y-6565900D01*
X2609341Y-6565900D02*
G01*
X2609341Y-6509004D01*
X2901441Y-6565900D02*
G01*
X2609341Y-6565900D01*
X2609341Y-6565900D02*
G01*
X2466086Y-6565900D01*
D11*
G01*
X3388690Y-2933700D03*
G01*
X3388690Y-2806700D03*
G01*
X3388690Y-2679700D03*
G01*
X3388690Y-2552700D03*
G01*
X3388690Y-2425700D03*
G01*
X3388690Y-2298700D03*
G01*
X3388690Y-2171700D03*
G01*
X3388690Y-2044700D03*
G01*
X3388690Y-1917700D03*
G01*
X3388690Y-1790700D03*
G01*
X2478709Y-2933700D03*
G01*
X2478709Y-2806700D03*
G01*
X2478709Y-2679700D03*
G01*
X2478709Y-2552700D03*
G01*
X2478709Y-2425700D03*
G01*
X2478709Y-2298700D03*
G01*
X2478709Y-2171700D03*
G01*
X2478709Y-2044700D03*
G01*
X2478709Y-1917700D03*
G01*
X2478709Y-1790700D03*
G01*
X3375990Y-6565900D03*
G01*
X3375990Y-6438900D03*
G01*
X3375990Y-6311900D03*
G01*
X3375990Y-6184900D03*
G01*
X3375990Y-6057900D03*
G01*
X3375990Y-5930900D03*
G01*
X3375990Y-5803900D03*
G01*
X3375990Y-5676900D03*
G01*
X3375990Y-5549900D03*
G01*
X3375990Y-5422900D03*
G01*
X2466009Y-6565900D03*
G01*
X2466009Y-6438900D03*
G01*
X2466009Y-6311900D03*
G01*
X2466009Y-6184900D03*
G01*
X2466009Y-6057900D03*
G01*
X2466009Y-5930900D03*
G01*
X2466009Y-5803900D03*
G01*
X2466009Y-5676900D03*
G01*
X2466009Y-5549900D03*
G01*
X2466009Y-5422900D03*
D12*
G01*
X2470505Y-4356100D03*
G01*
X2470505Y-4483100D03*
G01*
X2470505Y-4610100D03*
G01*
X2470505Y-4737100D03*
G01*
X2470505Y-4864100D03*
G01*
X2470505Y-4991100D03*
G01*
X2470505Y-5118100D03*
G01*
X2990494Y-4356100D03*
G01*
X2990494Y-4483100D03*
G01*
X2990494Y-4610100D03*
G01*
X2990494Y-4737100D03*
G01*
X2990494Y-4864100D03*
G01*
X2990494Y-4991100D03*
G01*
X2990494Y-5118100D03*
G01*
X2470505Y-3365500D03*
G01*
X2470505Y-3492500D03*
G01*
X2470505Y-3619500D03*
G01*
X2470505Y-3746500D03*
G01*
X2470505Y-3873500D03*
G01*
X2470505Y-4000500D03*
G01*
X2470505Y-4127500D03*
G01*
X2990494Y-3365500D03*
G01*
X2990494Y-3492500D03*
G01*
X2990494Y-3619500D03*
G01*
X2990494Y-3746500D03*
G01*
X2990494Y-3873500D03*
G01*
X2990494Y-4000500D03*
G01*
X2990494Y-4127500D03*
D13*
G01*
X3257397Y-5232400D03*
G01*
X3397402Y-5232400D03*
G01*
X3486302Y-1549400D03*
G01*
X3346322Y-1549400D03*
G01*
X3117697Y-3175000D03*
G01*
X3257702Y-3175000D03*
D14*
G01*
X3251200Y-4832502D03*
G01*
X3251200Y-4692522D03*
D15*
G01*
X2171700Y-1790700D03*
D16*
G01*
X3695700Y-6616700D03*
G01*
X2171700Y-2044700D03*
G01*
X3695700Y-6362700D03*
G01*
X2171700Y-2298700D03*
G01*
X3695700Y-6108700D03*
G01*
X2171700Y-2552700D03*
G01*
X3695700Y-5854700D03*
G01*
X2171700Y-2806700D03*
G01*
X3695700Y-5600700D03*
G01*
X2171700Y-3060700D03*
G01*
X3695700Y-5346700D03*
G01*
X2171700Y-3314700D03*
G01*
X3695700Y-5092700D03*
G01*
X2171700Y-3568700D03*
G01*
X3695700Y-4838700D03*
G01*
X2171700Y-3822700D03*
G01*
X3695700Y-4584700D03*
G01*
X2171700Y-4076700D03*
G01*
X3695700Y-4330700D03*
G01*
X2171700Y-4330700D03*
G01*
X3695700Y-4076700D03*
G01*
X2171700Y-4584700D03*
G01*
X3695700Y-3822700D03*
G01*
X2171700Y-4838700D03*
G01*
X3695700Y-3568700D03*
G01*
X2171700Y-5092700D03*
G01*
X3695700Y-3314700D03*
G01*
X2171700Y-5346700D03*
G01*
X3695700Y-3060700D03*
G01*
X2171700Y-5600700D03*
G01*
X3695700Y-2806700D03*
G01*
X2171700Y-5854700D03*
G01*
X3695700Y-2552700D03*
G01*
X2171700Y-6108700D03*
G01*
X3695700Y-2298700D03*
G01*
X2171700Y-6362700D03*
G01*
X3695700Y-2044700D03*
G01*
X2171700Y-6616700D03*
G01*
X3695700Y-1790700D03*
D17*
G01*
X2609341Y-6509004D03*
G01*
X2901441Y-6410452D03*
G01*
X3254247Y-3026410D03*
G01*
X3035554Y-3556000D03*
G01*
X2365502Y-2992373D03*
G01*
X3229863Y-6161278D03*
G01*
X2568447Y-3429000D03*
G01*
X2534411Y-4803902D03*
G01*
X2306828Y-2217673D03*
G01*
X2626613Y-3848607D03*
G01*
X3129025Y-3488944D03*
G01*
X3110738Y-4870957D03*
G01*
X3388613Y-1708150D03*
G01*
X3891534Y-3263392D03*
G01*
X3539490Y-2705100D03*
G01*
X3406140Y-4121150D03*
G01*
X2320036Y-5940805D03*
G01*
X1869439Y-2434589D03*
G01*
X3543808Y-2324100D03*
G01*
X3405886Y-5740400D03*
G01*
X2611881Y-6031992D03*
G01*
X2651759Y-2584704D03*
G01*
X2843784Y-4395978D03*
G01*
X2945891Y-3685286D03*
G01*
X2756661Y-4993131D03*
G01*
X2596134Y-4194810D03*
G01*
X2813050Y-5075681D03*
G01*
X2517393Y-4064000D03*
G01*
X2362962Y-5360923D03*
G01*
X3208274Y-2962402D03*
G01*
X3347211Y-3948937D03*
G01*
X3158997Y-5064760D03*
M02*
