M48
INCH,LZ
;FILE_FORMAT=2:4
;TYPE=PLATED
;Layer: PTH_Through
;EasyEDA v6.5.22, 2023-01-18 22:18:13
;60aa5606712246c99b0a00d3d653f430,7be1179030e74d40a97a3c751b95adb4,10
;Gerber Generator version 0.2
;Holesize 1 = 0.0320 inch
T01C0.0320
;Holesize 2 = 0.0390 inch
T02C0.0390
%
G05
G90
T01
X015843Y027252
X016843Y027252
X019843Y027252
X020843Y027252
X017843Y027252
X018843Y027252
X021843Y027252
X021843Y030560
X020843Y030560
X019843Y030560
X018843Y030560
X017843Y030560
X016843Y030560
X015843Y030560
X015893Y022702
X016893Y022702
X019893Y022702
X020893Y022702
X017893Y022702
X018893Y022702
X021893Y022702
X021893Y026010
X020893Y026010
X019893Y026010
X018893Y026010
X017893Y026010
X016893Y026010
X015893Y026010
X015893Y018052
X016893Y018052
X019893Y018052
X020893Y018052
X017893Y018052
X018893Y018052
X021893Y018052
X021893Y021360
X020893Y021360
X019893Y021360
X018893Y021360
X017893Y021360
X016893Y021360
X015893Y021360
X015843Y013452
X016843Y013452
X019843Y013452
X020843Y013452
X017843Y013452
X018843Y013452
X021843Y013452
X021843Y016760
X020843Y016760
X019843Y016760
X018843Y016760
X017843Y016760
X016843Y016760
X015843Y016760
X015893Y008852
X016893Y008852
X019893Y008852
X020893Y008852
X017893Y008852
X018893Y008852
X021893Y008852
X021893Y012160
X020893Y012160
X019893Y012160
X018893Y012160
X017893Y012160
X016893Y012160
X015893Y012160
T02
X024056Y028800G85X024058Y028800
X030056Y009800G85X030058Y009800
X024056Y027800G85X024058Y027800
X030056Y010800G85X030058Y010800
X024056Y026800G85X024058Y026800
X030056Y011800G85X030058Y011800
X024056Y025800G85X024058Y025800
X030056Y012800G85X030058Y012800
X024056Y024800G85X024058Y024800
X030056Y013800G85X030058Y013800
X024056Y023800G85X024058Y023800
X030056Y014800G85X030058Y014800
X024056Y022800G85X024058Y022800
X030056Y015800G85X030058Y015800
X024056Y021800G85X024058Y021800
X030056Y016800G85X030058Y016800
X024056Y020800G85X024058Y020800
X030056Y017800G85X030058Y017800
X024056Y019800G85X024058Y019800
X030056Y018800G85X030058Y018800
X024056Y018800G85X024058Y018800
X030056Y019800G85X030058Y019800
X024056Y017800G85X024058Y017800
X030056Y020800G85X030058Y020800
X024056Y016800G85X024058Y016800
X030056Y021800G85X030058Y021800
X024056Y015800G85X024058Y015800
X030056Y022800G85X030058Y022800
X024056Y014800G85X024058Y014800
X030056Y023800G85X030058Y023800
X024056Y013800G85X024058Y013800
X030056Y024800G85X030058Y024800
X024056Y012800G85X024058Y012800
X030056Y025800G85X030058Y025800
X024056Y011800G85X024058Y011800
X030056Y026800G85X030058Y026800
X024056Y010800G85X024058Y010800
X030056Y027800G85X030058Y027800
X024056Y009800G85X024058Y009800
X030056Y028800G85X030058Y028800
X028500Y026566
X028500Y028534
X028500Y021716
X028500Y023684
X028600Y017384
X028600Y015416
X040750Y009816
X040750Y011784
X014293Y027872
X014293Y029840
X014193Y023372
X014193Y025340
X014293Y018672
X014293Y020640
X014193Y014072
X014193Y016040
X014193Y009372
X014193Y011340
X031600Y030350
X032600Y030350
X033600Y030350
X034600Y030350
X035600Y030350
X036600Y030350
X037600Y030350
X038600Y030350
X039600Y030350
X040600Y030350
X040600Y027350
X039600Y027350
X038600Y027350
X037600Y027350
X034600Y027350
X033600Y027350
X036600Y027350
X035600Y027350
X032600Y027350
X031600Y027350
X031700Y017950
X032700Y017950
X033700Y017950
X034700Y017950
X035700Y017950
X036700Y017950
X037700Y017950
X038700Y017950
X039700Y017950
X040700Y017950
X040700Y014950
X039700Y014950
X038700Y014950
X037700Y014950
X034700Y014950
X033700Y014950
X036700Y014950
X035700Y014950
X032700Y014950
X031700Y014950
X031600Y024250
X032600Y024250
X033600Y024250
X034600Y024250
X035600Y024250
X036600Y024250
X037600Y024250
X038600Y024250
X039600Y024250
X040600Y024250
X040600Y021250
X039600Y021250
X038600Y021250
X037600Y021250
X034600Y021250
X033600Y021250
X036600Y021250
X035600Y021250
X032600Y021250
X031600Y021250
X031700Y009165
X032700Y009165
X037700Y009165
X038700Y009165
X033700Y009165
X034700Y009165
X036700Y009165
X035700Y009165
X038700Y012235
X037700Y012235
X036700Y012235
X035700Y012235
X034700Y012235
X033700Y012235
X032700Y012235
X031700Y012235
M30
