G04 Layer: BottomLayer*
G04 EasyEDA v6.5.22, 2023-01-18 22:18:13*
G04 60aa5606712246c99b0a00d3d653f430,7be1179030e74d40a97a3c751b95adb4,10*
G04 Gerber Generator version 0.2*
G04 Scale: 100 percent, Rotated: No, Reflected: No *
G04 Dimensions in inches *
G04 leading zeros omitted , absolute positions ,3 integer and 6 decimal *
%FSLAX36Y36*%
%MOIN*%

%AMMACRO1*21,1,$1,$2,0,0,$3*%
%ADD10C,0.0100*%
%ADD11R,0.0630X0.0630*%
%ADD12C,0.0630*%
%ADD13MACRO1,0.0944X0.063X0.0000*%
%ADD14O,0.094488X0.06299199999999999*%
%ADD15C,0.0630*%
%ADD16C,0.0709*%
%ADD17R,0.0669X0.0669*%
%ADD18C,0.0669*%
%ADD19C,0.0240*%
%ADD20C,0.0155*%

%LPD*%
D10*
X1385699Y1867199D02*
G01*
X1385699Y2303600D01*
X1419300Y2337199D01*
X1419300Y1407199D02*
G01*
X1376700Y1449800D01*
X1376700Y1858099D01*
X1385699Y1867199D01*
X1429300Y1867199D02*
G01*
X1385699Y1867199D01*
X3005699Y1580000D02*
G01*
X2860000Y1725700D01*
X2860000Y1738400D01*
X3005699Y1180000D02*
G01*
X3068699Y1243000D01*
X3068699Y1516999D01*
X3005699Y1580000D01*
X1429300Y2787199D02*
G01*
X1466599Y2749899D01*
X1466599Y2384499D01*
X1419300Y2337199D01*
X2189300Y2270200D02*
G01*
X2144899Y2314600D01*
X2144899Y2685900D01*
X2184300Y2725200D01*
X2189300Y1805199D02*
G01*
X2137600Y1753600D01*
X2137600Y1391900D01*
X2184300Y1345199D01*
X2189300Y885199D02*
G01*
X2144899Y929600D01*
X2144899Y1305900D01*
X2184300Y1345199D01*
X2860000Y2171599D02*
G01*
X2850000Y2171599D01*
X2850000Y2656599D02*
G01*
X2898000Y2608600D01*
X2898000Y2209499D01*
X2860000Y2171599D01*
X2860000Y2171599D02*
G01*
X2860000Y1738400D01*
X3870000Y916500D02*
G01*
X3823599Y870000D01*
X3752500Y870000D01*
X3720000Y902600D01*
X3720000Y933400D01*
X3528000Y1125399D01*
X3368100Y1125399D01*
X3270000Y1223499D01*
X1419300Y937199D02*
G01*
X1375600Y980900D01*
X1375600Y1363499D01*
X1419300Y1407199D01*
X4060000Y2735000D02*
G01*
X4112500Y2682500D01*
X4112500Y2177500D01*
X4060000Y2125000D01*
X4070000Y1495000D02*
G01*
X4122700Y1442300D01*
X4122700Y1029299D01*
X4075000Y981599D01*
X4060000Y2125000D02*
G01*
X4019099Y2084099D01*
X4019099Y1545900D01*
X4070000Y1495000D01*
X2405699Y2080000D02*
G01*
X2284799Y2200900D01*
X2284799Y2855500D01*
X2084300Y3055900D01*
X1984300Y3055900D02*
G01*
X1739499Y2811199D01*
X1739499Y1588499D01*
X1936700Y1391399D01*
X1936700Y1268499D01*
X1989300Y1215900D01*
X2860000Y1541599D02*
G01*
X2743599Y1657899D01*
X2743599Y1723200D01*
X1589300Y2600900D02*
G01*
X1546199Y2557800D01*
X1546199Y2179099D01*
X1589300Y2135900D01*
X1589300Y2600900D02*
G01*
X1517899Y2672300D01*
X1517899Y2895399D01*
X1429300Y2984000D01*
X1429300Y2064000D02*
G01*
X1546700Y1946599D01*
X1546700Y1713499D01*
X1584300Y1675900D01*
X1684300Y1345199D02*
G01*
X1684300Y1675900D01*
X1884300Y1345199D02*
G01*
X1841499Y1302500D01*
X1727100Y1302500D01*
X1684300Y1345199D01*
X1589300Y1215900D02*
G01*
X1589300Y1250199D01*
X1684300Y1345199D01*
X2850000Y2853400D02*
G01*
X2807299Y2810700D01*
X2807299Y2411199D01*
X2850000Y2368400D01*
X3160000Y2880000D02*
G01*
X3160000Y3035000D01*
X3160000Y2735000D02*
G01*
X3160000Y2880000D01*
X3160000Y2880000D02*
G01*
X3005699Y2880000D01*
X3160000Y2425000D02*
G01*
X3160000Y2735000D01*
X3170000Y1795000D02*
G01*
X3160000Y1805000D01*
X3160000Y2125000D01*
X3170000Y1495000D02*
G01*
X3170000Y1795000D01*
X3170000Y1223499D02*
G01*
X3170000Y1495000D01*
X3160000Y2125000D02*
G01*
X3160000Y2425000D01*
X1589300Y2270200D02*
G01*
X1589300Y2227700D01*
X1584300Y1345199D02*
G01*
X1584300Y1387800D01*
X1584300Y1387800D02*
G01*
X1631899Y1435399D01*
X1631899Y2185100D01*
X1589300Y2227700D01*
X1839300Y1730900D02*
G01*
X1839300Y2150799D01*
X1958800Y2270200D01*
X1989300Y2270200D01*
X1784300Y1675900D02*
G01*
X1839300Y1730900D01*
X1984300Y1345199D02*
G01*
X2028900Y1389899D01*
X2028900Y1694299D01*
X1992200Y1730900D01*
X1839300Y1730900D01*
X2084300Y1675900D02*
G01*
X2039300Y1720900D01*
X2039300Y1980199D01*
X1941700Y2077800D01*
X1941700Y2155200D01*
X2056700Y2270200D01*
X2089300Y2270200D01*
X1889300Y2270200D02*
G01*
X1933000Y2314000D01*
X2105799Y2314000D01*
X2143699Y2276100D01*
X2143699Y2249400D01*
X2176000Y2216999D01*
X2194700Y2216999D01*
X2344700Y2066999D01*
X2344700Y2057800D01*
X2372500Y2030000D01*
X2469499Y2030000D01*
X3005699Y1493800D01*
X3005699Y1480000D01*
X3170000Y916399D02*
G01*
X2845200Y916399D01*
X2431700Y1330000D01*
X2378999Y1330000D01*
X2275000Y1433899D01*
X2275000Y2050199D01*
X2189300Y2135900D01*
X2405699Y1480000D02*
G01*
X2360000Y1480000D01*
X2300000Y1540000D01*
X2300000Y2089000D01*
X2210000Y2178899D01*
X2032299Y2178899D01*
X1989300Y2135900D01*
X2470699Y1760199D02*
G01*
X2440500Y1730000D01*
X2379200Y1730000D01*
X2336499Y1687300D01*
X2336499Y1575799D01*
X2405699Y1980000D02*
G01*
X2470699Y1915000D01*
X2470699Y1760199D01*
X3005699Y1280000D02*
G01*
X2525500Y1760199D01*
X2470699Y1760199D01*
X3760000Y3035000D02*
G01*
X3695600Y3099400D01*
X2925100Y3099400D01*
X2405699Y2580000D01*
X3260000Y2735000D02*
G01*
X3210000Y2685000D01*
X3210000Y2251100D01*
X3183199Y2224299D01*
X2945799Y1811300D02*
G01*
X2945799Y2097300D01*
X2978500Y2130000D01*
X3031899Y2130000D01*
X3102500Y2200599D01*
X3102500Y2840300D01*
X3960000Y2735000D02*
G01*
X3910000Y2685000D01*
X3910000Y1832199D01*
X3920000Y1822199D01*
X3920000Y1652500D01*
X3849399Y1581900D01*
X2405699Y1380000D02*
G01*
X2755699Y1030000D01*
X3156499Y1030000D01*
X3270000Y916500D01*
X3260000Y3035000D02*
G01*
X3310000Y2985000D01*
X3310000Y2405799D01*
X3325900Y2390000D01*
X3325900Y2342800D01*
X3310000Y2326900D01*
X3310000Y1976100D01*
X3320600Y1965500D01*
X3320600Y1871300D01*
X3370000Y1821900D01*
X3370000Y1795000D01*
X3560000Y3035000D02*
G01*
X3411899Y2886900D01*
X3411899Y1875799D01*
X3470000Y1817800D01*
X3470000Y1795000D01*
X3660000Y3035000D02*
G01*
X3610000Y2985000D01*
X3610000Y2020799D01*
X3686099Y1944699D01*
X3686099Y1878899D01*
X3770000Y1795000D01*
X3870000Y1795000D02*
G01*
X3812299Y1852699D01*
X3812299Y2887300D01*
X3960000Y3035000D01*
X3660000Y2735000D02*
G01*
X3710000Y2685000D01*
X3710000Y1932199D01*
X3820000Y1822199D01*
X3820000Y1545000D01*
X3870000Y1495000D01*
X3270000Y1795000D02*
G01*
X3211400Y1853600D01*
X3211400Y2182600D01*
X3272700Y2244000D01*
X3272700Y2323000D01*
X3302799Y2353000D01*
X3760000Y2425000D02*
G01*
X3788699Y2396300D01*
X3788699Y2180700D01*
X3670000Y1795000D02*
G01*
X3670000Y1937800D01*
X3510000Y2097800D01*
X3510000Y2375000D01*
X3460000Y2425000D01*
X3131300Y2347100D02*
G01*
X3131300Y2168400D01*
X3108999Y2146100D01*
X3108999Y1581500D01*
X3470000Y916500D02*
G01*
X3225399Y1160999D01*
X3225399Y1340799D01*
X3316700Y1432199D01*
X3316700Y1848299D01*
X3297500Y1867500D01*
X3297500Y1955900D01*
X3770000Y916500D02*
G01*
X3520000Y1166500D01*
X3520000Y2065000D01*
X3460000Y2125000D01*
X3870000Y1223499D02*
G01*
X3870000Y1252300D01*
X3809700Y1312600D01*
X3360000Y2125000D02*
G01*
X3360000Y1893600D01*
X3423500Y1830100D01*
X3423500Y1359699D01*
X3470600Y1312600D01*
D11*
G01*
X1584300Y2725250D03*
D12*
G01*
X1684300Y2725250D03*
G01*
X1984300Y2725250D03*
G01*
X2084300Y2725250D03*
G01*
X1784300Y2725250D03*
G01*
X1884300Y2725250D03*
G01*
X2184300Y2725250D03*
G01*
X2184300Y3055949D03*
G01*
X2084300Y3055949D03*
G01*
X1984300Y3055949D03*
G01*
X1884300Y3055949D03*
G01*
X1784300Y3055949D03*
G01*
X1684300Y3055949D03*
G01*
X1584300Y3055949D03*
D11*
G01*
X1589300Y2270250D03*
D12*
G01*
X1689300Y2270250D03*
G01*
X1989300Y2270250D03*
G01*
X2089300Y2270250D03*
G01*
X1789300Y2270250D03*
G01*
X1889300Y2270250D03*
G01*
X2189300Y2270250D03*
G01*
X2189300Y2600949D03*
G01*
X2089300Y2600949D03*
G01*
X1989300Y2600949D03*
G01*
X1889300Y2600949D03*
G01*
X1789300Y2600949D03*
G01*
X1689300Y2600949D03*
G01*
X1589300Y2600949D03*
D11*
G01*
X1589300Y1805250D03*
D12*
G01*
X1689300Y1805250D03*
G01*
X1989300Y1805250D03*
G01*
X2089300Y1805250D03*
G01*
X1789300Y1805250D03*
G01*
X1889300Y1805250D03*
G01*
X2189300Y1805250D03*
G01*
X2189300Y2135949D03*
G01*
X2089300Y2135949D03*
G01*
X1989300Y2135949D03*
G01*
X1889300Y2135949D03*
G01*
X1789300Y2135949D03*
G01*
X1689300Y2135949D03*
G01*
X1589300Y2135949D03*
D11*
G01*
X1584300Y1345250D03*
D12*
G01*
X1684300Y1345250D03*
G01*
X1984300Y1345250D03*
G01*
X2084300Y1345250D03*
G01*
X1784300Y1345250D03*
G01*
X1884300Y1345250D03*
G01*
X2184300Y1345250D03*
G01*
X2184300Y1675949D03*
G01*
X2084300Y1675949D03*
G01*
X1984300Y1675949D03*
G01*
X1884300Y1675949D03*
G01*
X1784300Y1675949D03*
G01*
X1684300Y1675949D03*
G01*
X1584300Y1675949D03*
D13*
G01*
X2405700Y2880000D03*
D14*
G01*
X3005699Y980000D03*
G01*
X2405699Y2780000D03*
G01*
X3005699Y1080000D03*
G01*
X2405699Y2680000D03*
G01*
X3005699Y1180000D03*
G01*
X2405699Y2580000D03*
G01*
X3005699Y1280000D03*
G01*
X2405699Y2480000D03*
G01*
X3005699Y1380000D03*
G01*
X2405699Y2380000D03*
G01*
X3005699Y1480000D03*
G01*
X2405699Y2280000D03*
G01*
X3005699Y1580000D03*
G01*
X2405699Y2180000D03*
G01*
X3005699Y1680000D03*
G01*
X2405699Y2080000D03*
G01*
X3005699Y1780000D03*
G01*
X2405699Y1980000D03*
G01*
X3005699Y1880000D03*
G01*
X2405699Y1880000D03*
G01*
X3005699Y1980000D03*
G01*
X2405699Y1780000D03*
G01*
X3005699Y2080000D03*
G01*
X2405699Y1680000D03*
G01*
X3005699Y2180000D03*
G01*
X2405699Y1580000D03*
G01*
X3005699Y2280000D03*
G01*
X2405699Y1480000D03*
G01*
X3005699Y2380000D03*
G01*
X2405699Y1380000D03*
G01*
X3005699Y2480000D03*
G01*
X2405699Y1280000D03*
G01*
X3005699Y2580000D03*
G01*
X2405699Y1180000D03*
G01*
X3005699Y2680000D03*
G01*
X2405699Y1080000D03*
G01*
X3005699Y2780000D03*
G01*
X2405699Y980000D03*
G01*
X3005699Y2880000D03*
D11*
G01*
X1589300Y885250D03*
D12*
G01*
X1689300Y885250D03*
G01*
X1989300Y885250D03*
G01*
X2089300Y885250D03*
G01*
X1789300Y885250D03*
G01*
X1889300Y885250D03*
G01*
X2189300Y885250D03*
G01*
X2189300Y1215949D03*
G01*
X2089300Y1215949D03*
G01*
X1989300Y1215949D03*
G01*
X1889300Y1215949D03*
G01*
X1789300Y1215949D03*
G01*
X1689300Y1215949D03*
G01*
X1589300Y1215949D03*
D15*
G01*
X2850000Y2656570D03*
G01*
X2850000Y2853420D03*
G01*
X2850000Y2171570D03*
G01*
X2850000Y2368420D03*
G01*
X2860000Y1738420D03*
G01*
X2860000Y1541570D03*
G01*
X4075000Y981570D03*
G01*
X4075000Y1178420D03*
G01*
X1429300Y2787170D03*
G01*
X1429300Y2984020D03*
G01*
X1419300Y2337170D03*
G01*
X1419300Y2534020D03*
G01*
X1429300Y1867170D03*
G01*
X1429300Y2064020D03*
G01*
X1419300Y1407170D03*
G01*
X1419300Y1604020D03*
G01*
X1419300Y937170D03*
G01*
X1419300Y1134020D03*
D16*
G01*
X3160000Y3035000D03*
G01*
X3260000Y3035000D03*
G01*
X3360000Y3035000D03*
G01*
X3460000Y3035000D03*
G01*
X3560000Y3035000D03*
G01*
X3660000Y3035000D03*
G01*
X3760000Y3035000D03*
G01*
X3860000Y3035000D03*
G01*
X3960000Y3035000D03*
G01*
X4060000Y3035000D03*
G01*
X4060000Y2735000D03*
G01*
X3960000Y2735000D03*
G01*
X3860000Y2735000D03*
G01*
X3760000Y2735000D03*
G01*
X3460000Y2735000D03*
G01*
X3360000Y2735000D03*
G01*
X3660000Y2735000D03*
G01*
X3560000Y2735000D03*
G01*
X3260000Y2735000D03*
G01*
X3160000Y2735000D03*
G01*
X3170000Y1795000D03*
G01*
X3270000Y1795000D03*
G01*
X3370000Y1795000D03*
G01*
X3470000Y1795000D03*
G01*
X3570000Y1795000D03*
G01*
X3670000Y1795000D03*
G01*
X3770000Y1795000D03*
G01*
X3870000Y1795000D03*
G01*
X3970000Y1795000D03*
G01*
X4070000Y1795000D03*
G01*
X4070000Y1495000D03*
G01*
X3970000Y1495000D03*
G01*
X3870000Y1495000D03*
G01*
X3770000Y1495000D03*
G01*
X3470000Y1495000D03*
G01*
X3370000Y1495000D03*
G01*
X3670000Y1495000D03*
G01*
X3570000Y1495000D03*
G01*
X3270000Y1495000D03*
G01*
X3170000Y1495000D03*
G01*
X3160000Y2425000D03*
G01*
X3260000Y2425000D03*
G01*
X3360000Y2425000D03*
G01*
X3460000Y2425000D03*
G01*
X3560000Y2425000D03*
G01*
X3660000Y2425000D03*
G01*
X3760000Y2425000D03*
G01*
X3860000Y2425000D03*
G01*
X3960000Y2425000D03*
G01*
X4060000Y2425000D03*
G01*
X4060000Y2125000D03*
G01*
X3960000Y2125000D03*
G01*
X3860000Y2125000D03*
G01*
X3760000Y2125000D03*
G01*
X3460000Y2125000D03*
G01*
X3360000Y2125000D03*
G01*
X3660000Y2125000D03*
G01*
X3560000Y2125000D03*
G01*
X3260000Y2125000D03*
G01*
X3160000Y2125000D03*
D17*
G01*
X3170000Y916460D03*
D18*
G01*
X3270000Y916460D03*
G01*
X3770000Y916460D03*
G01*
X3870000Y916460D03*
G01*
X3370000Y916460D03*
G01*
X3470000Y916460D03*
G01*
X3670000Y916460D03*
G01*
X3570000Y916460D03*
G01*
X3870000Y1223539D03*
G01*
X3770000Y1223539D03*
G01*
X3670000Y1223539D03*
G01*
X3570000Y1223539D03*
G01*
X3470000Y1223539D03*
G01*
X3370000Y1223539D03*
G01*
X3270000Y1223539D03*
G01*
X3170000Y1223539D03*
D19*
G01*
X3809700Y1312600D03*
G01*
X3470600Y1312600D03*
G01*
X3297500Y1955900D03*
G01*
X3131300Y2347100D03*
G01*
X3108999Y1581500D03*
G01*
X3788699Y2180700D03*
G01*
X3302799Y2353000D03*
G01*
X3849399Y1581900D03*
G01*
X3102500Y2840300D03*
G01*
X2945799Y1811300D03*
G01*
X3183199Y2224299D03*
G01*
X2336499Y1575799D03*
G01*
X2743599Y1723200D03*
M02*
