G04 Layer: TopSilkscreenLayer*
G04 EasyEDA v6.5.22, 2023-01-18 22:18:13*
G04 60aa5606712246c99b0a00d3d653f430,7be1179030e74d40a97a3c751b95adb4,10*
G04 Gerber Generator version 0.2*
G04 Scale: 100 percent, Rotated: No, Reflected: No *
G04 Dimensions in inches *
G04 leading zeros omitted , absolute positions ,3 integer and 6 decimal *
%FSLAX36Y36*%
%MOIN*%

%ADD10C,0.0060*%
%ADD11C,0.0100*%
%ADD12C,0.0047*%
%ADD13C,0.0300*%
%ADD14C,0.0197*%
%ADD15C,0.0194*%

%LPD*%
G36*
X2770620Y2921700D02*
G01*
X2768720Y2921560D01*
X2766840Y2921200D01*
X2765020Y2920620D01*
X2763279Y2919800D01*
X2761640Y2918800D01*
X2760100Y2917559D01*
X2758700Y2916100D01*
X2757460Y2914440D01*
X2751660Y2905580D01*
X2687840Y2907900D01*
X2673020Y2908220D01*
X2667100Y2908159D01*
X2662100Y2907919D01*
X2657900Y2907500D01*
X2654440Y2906840D01*
X2652960Y2906420D01*
X2651640Y2905920D01*
X2650460Y2905360D01*
X2649400Y2904720D01*
X2648480Y2904020D01*
X2647660Y2903220D01*
X2646940Y2902340D01*
X2646320Y2901380D01*
X2645299Y2899180D01*
X2644540Y2896600D01*
X2643940Y2893600D01*
X2642900Y2886200D01*
X2642520Y2882480D01*
X2642360Y2879180D01*
X2642400Y2877700D01*
X2642760Y2875040D01*
X2643080Y2873840D01*
X2643519Y2872740D01*
X2644060Y2871720D01*
X2644760Y2870779D01*
X2645580Y2869920D01*
X2646540Y2869140D01*
X2647660Y2868420D01*
X2648940Y2867780D01*
X2650400Y2867180D01*
X2653860Y2866180D01*
X2658120Y2865380D01*
X2663220Y2864760D01*
X2669260Y2864260D01*
X2676300Y2863880D01*
X2693620Y2863320D01*
X2715200Y2862760D01*
X2723980Y2862420D01*
X2731160Y2862020D01*
X2736900Y2861540D01*
X2741380Y2860960D01*
X2744800Y2860240D01*
X2746139Y2859820D01*
X2747280Y2859360D01*
X2748240Y2858860D01*
X2749040Y2858320D01*
X2749700Y2857740D01*
X2750240Y2857080D01*
X2750680Y2856380D01*
X2752280Y2853180D01*
X2753240Y2850600D01*
X2753540Y2848600D01*
X2753159Y2847180D01*
X2752080Y2846300D01*
X2750299Y2845920D01*
X2747760Y2846019D01*
X2743580Y2846740D01*
X2737540Y2847440D01*
X2728240Y2848220D01*
X2716580Y2849000D01*
X2703380Y2849700D01*
X2688380Y2850340D01*
X2672460Y2850779D01*
X2665940Y2850800D01*
X2660320Y2850640D01*
X2655520Y2850260D01*
X2653399Y2850000D01*
X2649700Y2849280D01*
X2648100Y2848820D01*
X2646660Y2848279D01*
X2645360Y2847679D01*
X2644200Y2846980D01*
X2643180Y2846220D01*
X2642280Y2845360D01*
X2641500Y2844420D01*
X2640820Y2843399D01*
X2640220Y2842280D01*
X2639320Y2839720D01*
X2638720Y2836760D01*
X2638360Y2833340D01*
X2638000Y2825059D01*
X2637620Y2820120D01*
X2637000Y2814860D01*
X2636180Y2809540D01*
X2635200Y2804440D01*
X2634120Y2799880D01*
X2632559Y2794400D01*
X2631780Y2791220D01*
X2631240Y2788320D01*
X2630899Y2785640D01*
X2630779Y2783180D01*
X2630860Y2780920D01*
X2631160Y2778800D01*
X2632200Y2774840D01*
X2632520Y2772919D01*
X2632600Y2771040D01*
X2632440Y2769160D01*
X2632060Y2767220D01*
X2631420Y2765200D01*
X2630539Y2763020D01*
X2628860Y2759540D01*
X2627820Y2756540D01*
X2626800Y2752640D01*
X2625800Y2748060D01*
X2624860Y2742880D01*
X2623980Y2737280D01*
X2623180Y2731400D01*
X2622500Y2725400D01*
X2621920Y2719380D01*
X2621480Y2713540D01*
X2621200Y2708000D01*
X2621080Y2702880D01*
X2621160Y2698380D01*
X2621420Y2694600D01*
X2622060Y2690840D01*
X2622600Y2688800D01*
X2623240Y2686920D01*
X2623960Y2685200D01*
X2624760Y2683639D01*
X2625640Y2682240D01*
X2626580Y2680980D01*
X2627600Y2679900D01*
X2628660Y2678960D01*
X2629800Y2678159D01*
X2630960Y2677520D01*
X2632180Y2677020D01*
X2633440Y2676680D01*
X2634720Y2676460D01*
X2636040Y2676400D01*
X2637360Y2676460D01*
X2638700Y2676680D01*
X2640040Y2677020D01*
X2641400Y2677500D01*
X2642740Y2678120D01*
X2644080Y2678860D01*
X2645400Y2679740D01*
X2646680Y2680720D01*
X2647960Y2681860D01*
X2649200Y2683100D01*
X2650400Y2684460D01*
X2652640Y2687559D01*
X2653700Y2689280D01*
X2654680Y2691120D01*
X2656420Y2695140D01*
X2657200Y2697300D01*
X2658460Y2701960D01*
X2659440Y2706940D01*
X2660080Y2709200D01*
X2660820Y2711220D01*
X2661660Y2713020D01*
X2662600Y2714560D01*
X2663600Y2715880D01*
X2664660Y2716940D01*
X2665800Y2717780D01*
X2666980Y2718360D01*
X2668180Y2718680D01*
X2669420Y2718780D01*
X2670659Y2718620D01*
X2671920Y2718200D01*
X2673159Y2717520D01*
X2674380Y2716600D01*
X2675580Y2715419D01*
X2676740Y2713980D01*
X2677840Y2712280D01*
X2678900Y2710299D01*
X2680860Y2705960D01*
X2682020Y2704080D01*
X2683380Y2702380D01*
X2684880Y2700899D01*
X2686520Y2699620D01*
X2688279Y2698560D01*
X2690120Y2697700D01*
X2692060Y2697040D01*
X2694040Y2696620D01*
X2696040Y2696400D01*
X2698080Y2696400D01*
X2700100Y2696600D01*
X2702100Y2697040D01*
X2704040Y2697679D01*
X2705920Y2698540D01*
X2707720Y2699640D01*
X2709420Y2700940D01*
X2710980Y2702480D01*
X2712400Y2704240D01*
X2714960Y2708360D01*
X2716320Y2710179D01*
X2717760Y2711680D01*
X2719280Y2712900D01*
X2720899Y2713840D01*
X2722660Y2714480D01*
X2724520Y2714860D01*
X2726560Y2715000D01*
X2734580Y2715000D01*
X2733340Y2699320D01*
X2733200Y2696700D01*
X2733240Y2694160D01*
X2733440Y2691700D01*
X2733780Y2689340D01*
X2734280Y2687080D01*
X2734900Y2684940D01*
X2735659Y2682900D01*
X2736520Y2680980D01*
X2737500Y2679180D01*
X2738580Y2677520D01*
X2739760Y2676000D01*
X2741019Y2674600D01*
X2742360Y2673360D01*
X2743780Y2672280D01*
X2745260Y2671340D01*
X2746780Y2670580D01*
X2748360Y2669980D01*
X2749980Y2669540D01*
X2751620Y2669300D01*
X2753300Y2669240D01*
X2755000Y2669360D01*
X2756680Y2669680D01*
X2758380Y2670220D01*
X2760080Y2670940D01*
X2761740Y2671880D01*
X2763399Y2673039D01*
X2765000Y2674440D01*
X2766580Y2676060D01*
X2767360Y2677040D01*
X2768100Y2678240D01*
X2768820Y2679620D01*
X2769520Y2681200D01*
X2770800Y2684880D01*
X2771960Y2689140D01*
X2772980Y2693880D01*
X2773840Y2699040D01*
X2774560Y2704480D01*
X2775100Y2710100D01*
X2775480Y2715840D01*
X2775680Y2721560D01*
X2775700Y2727200D01*
X2775520Y2732620D01*
X2775140Y2737760D01*
X2774540Y2742480D01*
X2773720Y2746700D01*
X2772679Y2750340D01*
X2771540Y2753680D01*
X2770740Y2756360D01*
X2770299Y2758560D01*
X2770220Y2760440D01*
X2770520Y2762160D01*
X2771200Y2763860D01*
X2772260Y2765700D01*
X2775080Y2769860D01*
X2776180Y2771720D01*
X2777040Y2773500D01*
X2777700Y2775260D01*
X2778100Y2777020D01*
X2778300Y2778860D01*
X2778260Y2780800D01*
X2778000Y2782880D01*
X2777520Y2785160D01*
X2776840Y2787700D01*
X2773660Y2796860D01*
X2772880Y2799380D01*
X2772440Y2801400D01*
X2772380Y2803060D01*
X2772700Y2804480D01*
X2773399Y2805820D01*
X2774520Y2807220D01*
X2776060Y2808800D01*
X2777320Y2810260D01*
X2778399Y2811880D01*
X2779300Y2813639D01*
X2780000Y2815580D01*
X2780500Y2817620D01*
X2780820Y2819800D01*
X2780940Y2822080D01*
X2780860Y2824440D01*
X2780580Y2826880D01*
X2780120Y2829380D01*
X2779440Y2831920D01*
X2777960Y2836380D01*
X2777620Y2838140D01*
X2777580Y2839840D01*
X2777840Y2841560D01*
X2778420Y2843360D01*
X2779340Y2845299D01*
X2780620Y2847460D01*
X2783060Y2851180D01*
X2783780Y2852700D01*
X2784480Y2854460D01*
X2785120Y2856420D01*
X2786280Y2860940D01*
X2787240Y2866060D01*
X2788000Y2871620D01*
X2788560Y2877480D01*
X2788920Y2883460D01*
X2789060Y2889420D01*
X2788980Y2895140D01*
X2788680Y2900520D01*
X2788120Y2905340D01*
X2787340Y2909480D01*
X2786840Y2911240D01*
X2786300Y2912760D01*
X2785680Y2914020D01*
X2785000Y2915000D01*
X2783480Y2916600D01*
X2781840Y2918000D01*
X2780100Y2919160D01*
X2778279Y2920120D01*
X2776400Y2920840D01*
X2774480Y2921340D01*
X2772559Y2921640D01*
G37*
G36*
X2647760Y2580160D02*
G01*
X2645100Y2580040D01*
X2642580Y2579780D01*
X2640179Y2579400D01*
X2637940Y2578880D01*
X2635920Y2578220D01*
X2634120Y2577420D01*
X2629240Y2574320D01*
X2625740Y2572559D01*
X2622460Y2571380D01*
X2619840Y2570940D01*
X2618320Y2570820D01*
X2616840Y2570460D01*
X2615419Y2569880D01*
X2614060Y2569060D01*
X2612760Y2568020D01*
X2611520Y2566780D01*
X2610360Y2565320D01*
X2609260Y2563660D01*
X2608220Y2561820D01*
X2607280Y2559780D01*
X2606400Y2557560D01*
X2605600Y2555160D01*
X2604900Y2552600D01*
X2604280Y2549880D01*
X2603740Y2547000D01*
X2602940Y2540780D01*
X2602540Y2534020D01*
X2644200Y2534020D01*
X2644400Y2534560D01*
X2645820Y2534940D01*
X2648360Y2535120D01*
X2651019Y2535040D01*
X2652720Y2534700D01*
X2653360Y2534180D01*
X2652760Y2533500D01*
X2651220Y2532960D01*
X2649320Y2532740D01*
X2647260Y2532880D01*
X2645320Y2533380D01*
X2644200Y2534020D01*
X2602540Y2534020D01*
X2602500Y2526360D01*
X2602700Y2519420D01*
X2602900Y2516480D01*
X2603180Y2513880D01*
X2603560Y2511600D01*
X2604040Y2509560D01*
X2604620Y2507780D01*
X2605340Y2506220D01*
X2606200Y2504840D01*
X2607220Y2503640D01*
X2608380Y2502540D01*
X2609720Y2501560D01*
X2611240Y2500640D01*
X2612960Y2499780D01*
X2614880Y2498940D01*
X2617580Y2497560D01*
X2620360Y2495740D01*
X2622880Y2493720D01*
X2625820Y2490760D01*
X2627220Y2489840D01*
X2628940Y2489020D01*
X2630940Y2488260D01*
X2633200Y2487600D01*
X2635680Y2487020D01*
X2641120Y2486100D01*
X2644000Y2485780D01*
X2646940Y2485560D01*
X2652860Y2485400D01*
X2655740Y2485460D01*
X2658519Y2485640D01*
X2661180Y2485920D01*
X2663660Y2486300D01*
X2665920Y2486780D01*
X2667940Y2487400D01*
X2669660Y2488100D01*
X2674600Y2491260D01*
X2677160Y2492020D01*
X2679320Y2491220D01*
X2682559Y2487900D01*
X2683800Y2487000D01*
X2685340Y2486140D01*
X2687140Y2485360D01*
X2689140Y2484620D01*
X2691360Y2483940D01*
X2693740Y2483320D01*
X2698880Y2482280D01*
X2704360Y2481520D01*
X2709960Y2481040D01*
X2715440Y2480900D01*
X2720580Y2481060D01*
X2725179Y2481580D01*
X2727180Y2481980D01*
X2728960Y2482480D01*
X2730500Y2483060D01*
X2731760Y2483760D01*
X2735120Y2486640D01*
X2738080Y2488360D01*
X2741180Y2489560D01*
X2745480Y2490180D01*
X2746880Y2490620D01*
X2748240Y2491300D01*
X2749540Y2492220D01*
X2750820Y2493380D01*
X2752020Y2494720D01*
X2753200Y2496280D01*
X2754300Y2498000D01*
X2755340Y2499880D01*
X2756340Y2501920D01*
X2757260Y2504100D01*
X2758120Y2506400D01*
X2759620Y2511280D01*
X2760820Y2516460D01*
X2761680Y2521840D01*
X2762200Y2527280D01*
X2762340Y2532640D01*
X2762280Y2535280D01*
X2762100Y2537860D01*
X2761820Y2540360D01*
X2761440Y2542780D01*
X2760940Y2545080D01*
X2760320Y2547280D01*
X2759600Y2549340D01*
X2758740Y2551260D01*
X2757780Y2553020D01*
X2756680Y2554580D01*
X2754620Y2556840D01*
X2752360Y2558700D01*
X2750179Y2559940D01*
X2746380Y2560920D01*
X2743900Y2562340D01*
X2741200Y2564440D01*
X2737140Y2568480D01*
X2735500Y2569860D01*
X2733720Y2571120D01*
X2731820Y2572240D01*
X2729820Y2573260D01*
X2727700Y2574140D01*
X2725480Y2574900D01*
X2723200Y2575520D01*
X2720860Y2576000D01*
X2718440Y2576380D01*
X2716000Y2576600D01*
X2713540Y2576700D01*
X2711060Y2576640D01*
X2708560Y2576460D01*
X2706080Y2576139D01*
X2703639Y2575680D01*
X2701220Y2575080D01*
X2698840Y2574320D01*
X2696540Y2573420D01*
X2690539Y2570520D01*
X2687540Y2569160D01*
X2685160Y2568320D01*
X2683260Y2568000D01*
X2681700Y2568159D01*
X2680340Y2568840D01*
X2679000Y2570000D01*
X2677600Y2571640D01*
X2676400Y2572880D01*
X2674920Y2574040D01*
X2673159Y2575100D01*
X2671180Y2576080D01*
X2668980Y2576960D01*
X2666600Y2577740D01*
X2664080Y2578420D01*
X2658759Y2579460D01*
X2656000Y2579800D01*
X2653220Y2580040D01*
X2650460Y2580160D01*
G37*
G36*
X2613740Y2377100D02*
G01*
X2609280Y2377000D01*
X2605299Y2376700D01*
X2601780Y2376180D01*
X2598639Y2375440D01*
X2595899Y2374440D01*
X2594660Y2373840D01*
X2592440Y2372420D01*
X2590520Y2370680D01*
X2588880Y2368640D01*
X2588159Y2367500D01*
X2586880Y2364940D01*
X2585800Y2362000D01*
X2584900Y2358680D01*
X2584140Y2354960D01*
X2583500Y2350800D01*
X2582420Y2341160D01*
X2581440Y2329560D01*
X2581193Y2325240D01*
X2622320Y2325240D01*
X2622520Y2327000D01*
X2623100Y2328420D01*
X2624100Y2329480D01*
X2625500Y2330200D01*
X2627340Y2330580D01*
X2629620Y2330600D01*
X2632380Y2330320D01*
X2635580Y2329680D01*
X2638800Y2328780D01*
X2641320Y2327760D01*
X2643120Y2326640D01*
X2644180Y2325420D01*
X2644500Y2324140D01*
X2644080Y2322840D01*
X2642880Y2321520D01*
X2640899Y2320200D01*
X2639438Y2319740D01*
X2684340Y2319740D01*
X2684880Y2322160D01*
X2686600Y2323800D01*
X2689680Y2324720D01*
X2694260Y2325000D01*
X2698820Y2324720D01*
X2701900Y2323800D01*
X2703620Y2322160D01*
X2704180Y2319740D01*
X2703620Y2317300D01*
X2701900Y2315680D01*
X2698820Y2314760D01*
X2694260Y2314460D01*
X2689680Y2314760D01*
X2686600Y2315680D01*
X2684880Y2317300D01*
X2684340Y2319740D01*
X2639438Y2319740D01*
X2638740Y2319520D01*
X2636000Y2319360D01*
X2632960Y2319660D01*
X2629840Y2320320D01*
X2626960Y2321280D01*
X2624560Y2322460D01*
X2622940Y2323820D01*
X2622320Y2325240D01*
X2581193Y2325240D01*
X2581120Y2322800D01*
X2581139Y2319600D01*
X2581280Y2316500D01*
X2581520Y2313560D01*
X2581860Y2310740D01*
X2582320Y2308060D01*
X2582860Y2305540D01*
X2583519Y2303180D01*
X2584280Y2301000D01*
X2585120Y2298980D01*
X2586060Y2297140D01*
X2587080Y2295500D01*
X2588200Y2294040D01*
X2589400Y2292800D01*
X2590659Y2291760D01*
X2592020Y2290940D01*
X2593440Y2290360D01*
X2594940Y2290000D01*
X2596520Y2289860D01*
X2598380Y2289380D01*
X2600380Y2288080D01*
X2602280Y2286160D01*
X2604640Y2282580D01*
X2605760Y2281420D01*
X2607160Y2280360D01*
X2608820Y2279380D01*
X2610720Y2278460D01*
X2612799Y2277660D01*
X2615059Y2276920D01*
X2617480Y2276280D01*
X2622660Y2275280D01*
X2625360Y2274920D01*
X2628120Y2274660D01*
X2633660Y2274440D01*
X2636400Y2274480D01*
X2639080Y2274640D01*
X2641680Y2274900D01*
X2644160Y2275260D01*
X2646520Y2275740D01*
X2648700Y2276340D01*
X2650700Y2277040D01*
X2652480Y2277860D01*
X2654020Y2278800D01*
X2655299Y2279880D01*
X2657580Y2282140D01*
X2659360Y2283740D01*
X2660740Y2284700D01*
X2661880Y2284980D01*
X2662880Y2284600D01*
X2663900Y2283560D01*
X2665040Y2281820D01*
X2666460Y2279420D01*
X2667340Y2278180D01*
X2668540Y2277000D01*
X2670040Y2275900D01*
X2671780Y2274860D01*
X2673759Y2273880D01*
X2675940Y2272980D01*
X2678279Y2272160D01*
X2680760Y2271420D01*
X2683360Y2270760D01*
X2688800Y2269720D01*
X2694360Y2269060D01*
X2697120Y2268860D01*
X2699820Y2268780D01*
X2702420Y2268820D01*
X2704920Y2268960D01*
X2707300Y2269200D01*
X2709480Y2269580D01*
X2711480Y2270080D01*
X2713260Y2270680D01*
X2714780Y2271440D01*
X2716019Y2272320D01*
X2719100Y2275540D01*
X2722080Y2277540D01*
X2725500Y2279080D01*
X2731860Y2280580D01*
X2733200Y2281080D01*
X2734460Y2281680D01*
X2735659Y2282420D01*
X2736780Y2283280D01*
X2737840Y2284260D01*
X2738860Y2285380D01*
X2739800Y2286660D01*
X2740680Y2288060D01*
X2741500Y2289620D01*
X2742280Y2291340D01*
X2743000Y2293200D01*
X2744280Y2297440D01*
X2745380Y2302340D01*
X2746300Y2307980D01*
X2747040Y2314360D01*
X2747660Y2321520D01*
X2748500Y2336820D01*
X2748639Y2342520D01*
X2748540Y2347000D01*
X2748200Y2350540D01*
X2747559Y2353360D01*
X2746600Y2355780D01*
X2745320Y2358020D01*
X2743340Y2360780D01*
X2742480Y2361740D01*
X2741500Y2362620D01*
X2740360Y2363420D01*
X2738960Y2364160D01*
X2737260Y2364860D01*
X2735179Y2365520D01*
X2732679Y2366140D01*
X2729680Y2366740D01*
X2721920Y2367940D01*
X2711400Y2369180D01*
X2697620Y2370560D01*
X2640400Y2375640D01*
X2627120Y2376620D01*
X2621360Y2376920D01*
G37*
G36*
X2593600Y2255260D02*
G01*
X2591640Y2255100D01*
X2589740Y2254780D01*
X2587880Y2254280D01*
X2586080Y2253620D01*
X2584400Y2252800D01*
X2582820Y2251800D01*
X2581380Y2250640D01*
X2580100Y2249300D01*
X2578980Y2247800D01*
X2578220Y2246420D01*
X2577520Y2244720D01*
X2576840Y2242720D01*
X2576220Y2240480D01*
X2575140Y2235340D01*
X2574240Y2229540D01*
X2573560Y2223320D01*
X2573120Y2216920D01*
X2572900Y2210600D01*
X2572940Y2204600D01*
X2573260Y2199140D01*
X2573840Y2194500D01*
X2574260Y2192560D01*
X2574720Y2190900D01*
X2575280Y2189580D01*
X2575920Y2188600D01*
X2577320Y2187160D01*
X2578900Y2185900D01*
X2580640Y2184820D01*
X2582500Y2183920D01*
X2584480Y2183220D01*
X2586520Y2182720D01*
X2588620Y2182380D01*
X2590740Y2182240D01*
X2592860Y2182300D01*
X2594960Y2182540D01*
X2597020Y2182960D01*
X2598980Y2183580D01*
X2600860Y2184400D01*
X2602620Y2185400D01*
X2604220Y2186600D01*
X2606420Y2188700D01*
X2607400Y2189380D01*
X2608560Y2189980D01*
X2609900Y2190540D01*
X2613080Y2191480D01*
X2616880Y2192240D01*
X2621200Y2192780D01*
X2625960Y2193120D01*
X2631100Y2193300D01*
X2636520Y2193280D01*
X2642180Y2193100D01*
X2647980Y2192760D01*
X2653840Y2192260D01*
X2659700Y2191620D01*
X2665460Y2190840D01*
X2671080Y2189920D01*
X2676440Y2188880D01*
X2681500Y2187720D01*
X2686160Y2186440D01*
X2690360Y2185060D01*
X2694020Y2183600D01*
X2697060Y2182040D01*
X2698320Y2181240D01*
X2699380Y2180400D01*
X2700280Y2179560D01*
X2702240Y2177000D01*
X2703780Y2175500D01*
X2705520Y2174160D01*
X2707440Y2173020D01*
X2709480Y2172060D01*
X2711640Y2171280D01*
X2713880Y2170720D01*
X2716180Y2170340D01*
X2718480Y2170160D01*
X2720760Y2170180D01*
X2723000Y2170420D01*
X2725160Y2170880D01*
X2727200Y2171540D01*
X2729100Y2172440D01*
X2730840Y2173560D01*
X2732360Y2174900D01*
X2733360Y2176080D01*
X2734320Y2177480D01*
X2735220Y2179040D01*
X2736040Y2180780D01*
X2737500Y2184740D01*
X2738140Y2186900D01*
X2739220Y2191580D01*
X2740020Y2196560D01*
X2740560Y2201780D01*
X2740820Y2207080D01*
X2740779Y2212340D01*
X2740460Y2217480D01*
X2739860Y2222340D01*
X2739440Y2224640D01*
X2738940Y2226820D01*
X2737720Y2230800D01*
X2736980Y2232560D01*
X2736180Y2234160D01*
X2735280Y2235560D01*
X2733800Y2237460D01*
X2732220Y2239120D01*
X2730539Y2240540D01*
X2728759Y2241720D01*
X2726920Y2242680D01*
X2725020Y2243380D01*
X2723080Y2243860D01*
X2721120Y2244080D01*
X2719140Y2244080D01*
X2717160Y2243840D01*
X2715179Y2243340D01*
X2713240Y2242600D01*
X2711340Y2241620D01*
X2709500Y2240400D01*
X2707720Y2238940D01*
X2705240Y2236500D01*
X2704260Y2235840D01*
X2703100Y2235220D01*
X2701740Y2234660D01*
X2698540Y2233700D01*
X2694720Y2232940D01*
X2690380Y2232400D01*
X2685600Y2232040D01*
X2680440Y2231860D01*
X2674980Y2231860D01*
X2669320Y2232040D01*
X2663500Y2232360D01*
X2657640Y2232860D01*
X2651800Y2233500D01*
X2646040Y2234260D01*
X2640480Y2235180D01*
X2635160Y2236200D01*
X2630160Y2237360D01*
X2625600Y2238620D01*
X2621500Y2239980D01*
X2617980Y2241440D01*
X2615100Y2242980D01*
X2613920Y2243780D01*
X2612940Y2244600D01*
X2612160Y2245440D01*
X2610580Y2247900D01*
X2609380Y2249360D01*
X2608020Y2250660D01*
X2606520Y2251780D01*
X2604880Y2252760D01*
X2603159Y2253580D01*
X2601340Y2254240D01*
X2599440Y2254740D01*
X2597520Y2255080D01*
X2595560Y2255240D01*
G37*
G36*
X2715360Y2142300D02*
G01*
X2713580Y2142280D01*
X2711780Y2142140D01*
X2710000Y2141840D01*
X2708240Y2141420D01*
X2706500Y2140840D01*
X2704800Y2140160D01*
X2703159Y2139340D01*
X2701580Y2138400D01*
X2700080Y2137340D01*
X2698660Y2136180D01*
X2697340Y2134900D01*
X2696120Y2133520D01*
X2695040Y2132040D01*
X2694100Y2130460D01*
X2693279Y2128800D01*
X2692640Y2127060D01*
X2692160Y2125220D01*
X2691880Y2123320D01*
X2691780Y2121340D01*
X2691660Y2120460D01*
X2691280Y2119720D01*
X2690620Y2119120D01*
X2689620Y2118640D01*
X2688260Y2118280D01*
X2686480Y2118040D01*
X2684260Y2117920D01*
X2678320Y2118020D01*
X2670140Y2118560D01*
X2631300Y2121780D01*
X2615920Y2122900D01*
X2603120Y2123680D01*
X2592700Y2124100D01*
X2584440Y2124180D01*
X2581080Y2124100D01*
X2575680Y2123680D01*
X2573600Y2123340D01*
X2571920Y2122920D01*
X2570580Y2122420D01*
X2569580Y2121840D01*
X2568880Y2121160D01*
X2567360Y2118360D01*
X2566300Y2115940D01*
X2565440Y2113520D01*
X2564780Y2111100D01*
X2564360Y2108720D01*
X2564120Y2106380D01*
X2564120Y2104060D01*
X2564300Y2101780D01*
X2564720Y2099540D01*
X2565340Y2097360D01*
X2566180Y2095260D01*
X2567220Y2093200D01*
X2568600Y2090820D01*
X2569940Y2088920D01*
X2570680Y2088100D01*
X2571520Y2087380D01*
X2572480Y2086720D01*
X2573620Y2086140D01*
X2574960Y2085600D01*
X2576560Y2085120D01*
X2580600Y2084259D01*
X2586040Y2083460D01*
X2593159Y2082640D01*
X2629140Y2079199D01*
X2649960Y2077060D01*
X2661320Y2076420D01*
X2686019Y2075540D01*
X2689700Y2058260D01*
X2690340Y2055540D01*
X2691019Y2053260D01*
X2691780Y2051360D01*
X2692720Y2049780D01*
X2693880Y2048480D01*
X2695360Y2047340D01*
X2697240Y2046339D01*
X2699560Y2045380D01*
X2702420Y2044420D01*
X2710020Y2042200D01*
X2713100Y2041519D01*
X2714520Y2041380D01*
X2715880Y2041380D01*
X2717180Y2041519D01*
X2718399Y2041800D01*
X2719540Y2042240D01*
X2720640Y2042840D01*
X2721680Y2043600D01*
X2722640Y2044540D01*
X2723560Y2045640D01*
X2724420Y2046920D01*
X2725240Y2048380D01*
X2726000Y2050020D01*
X2727380Y2053899D01*
X2728580Y2058580D01*
X2729620Y2064100D01*
X2730520Y2070520D01*
X2731300Y2077880D01*
X2731960Y2086180D01*
X2732540Y2095500D01*
X2733039Y2105480D01*
X2733340Y2113300D01*
X2733420Y2119320D01*
X2733220Y2123920D01*
X2733020Y2125780D01*
X2732360Y2128880D01*
X2731900Y2130220D01*
X2731360Y2131440D01*
X2729980Y2133800D01*
X2729140Y2135040D01*
X2727960Y2136540D01*
X2726660Y2137860D01*
X2725240Y2139000D01*
X2723759Y2139960D01*
X2722180Y2140760D01*
X2720539Y2141380D01*
X2718860Y2141840D01*
X2717120Y2142140D01*
G37*
G36*
X2563440Y1920260D02*
G01*
X2561040Y1920180D01*
X2558960Y1919820D01*
X2557140Y1919180D01*
X2555520Y1918240D01*
X2554060Y1917000D01*
X2552660Y1915420D01*
X2551660Y1913899D01*
X2550760Y1912140D01*
X2549980Y1910160D01*
X2549340Y1908000D01*
X2548820Y1905720D01*
X2548420Y1903340D01*
X2548160Y1900900D01*
X2548020Y1898420D01*
X2548020Y1895960D01*
X2548140Y1893560D01*
X2548400Y1891240D01*
X2548780Y1889040D01*
X2549300Y1887000D01*
X2549960Y1885180D01*
X2550760Y1883580D01*
X2551700Y1882240D01*
X2553200Y1880580D01*
X2553980Y1879880D01*
X2554840Y1879280D01*
X2555840Y1878740D01*
X2557040Y1878240D01*
X2558500Y1877800D01*
X2560280Y1877380D01*
X2565000Y1876600D01*
X2571640Y1875820D01*
X2602720Y1872900D01*
X2611000Y1872020D01*
X2617559Y1871140D01*
X2622600Y1870200D01*
X2626320Y1869100D01*
X2627720Y1868460D01*
X2628880Y1867780D01*
X2629800Y1867000D01*
X2630520Y1866160D01*
X2631040Y1865220D01*
X2631400Y1864180D01*
X2631600Y1863020D01*
X2631700Y1861759D01*
X2631640Y1858820D01*
X2631420Y1855980D01*
X2631080Y1853860D01*
X2630460Y1852360D01*
X2629440Y1851440D01*
X2627900Y1851000D01*
X2625659Y1850980D01*
X2622640Y1851300D01*
X2604600Y1854100D01*
X2596240Y1855260D01*
X2588660Y1856180D01*
X2581800Y1856879D01*
X2575640Y1857320D01*
X2570140Y1857500D01*
X2565240Y1857440D01*
X2560940Y1857100D01*
X2558980Y1856840D01*
X2555480Y1856100D01*
X2553900Y1855620D01*
X2552460Y1855080D01*
X2551120Y1854460D01*
X2549880Y1853760D01*
X2548740Y1853000D01*
X2547720Y1852160D01*
X2545920Y1850260D01*
X2544460Y1848060D01*
X2543840Y1846840D01*
X2542820Y1844160D01*
X2542020Y1841160D01*
X2541140Y1836000D01*
X2540900Y1833839D01*
X2540820Y1831840D01*
X2540900Y1829960D01*
X2541200Y1828240D01*
X2541720Y1826620D01*
X2542520Y1825120D01*
X2543620Y1823720D01*
X2545040Y1822420D01*
X2546820Y1821200D01*
X2548980Y1820040D01*
X2551560Y1818959D01*
X2554580Y1817920D01*
X2558080Y1816920D01*
X2562080Y1815940D01*
X2566620Y1814980D01*
X2577440Y1813100D01*
X2590740Y1811180D01*
X2606780Y1809120D01*
X2691660Y1799180D01*
X2694200Y1799019D01*
X2696560Y1798980D01*
X2698759Y1799079D01*
X2700779Y1799300D01*
X2702640Y1799660D01*
X2704340Y1800160D01*
X2705899Y1800800D01*
X2707300Y1801579D01*
X2708560Y1802520D01*
X2709660Y1803620D01*
X2710640Y1804880D01*
X2711480Y1806300D01*
X2712200Y1807900D01*
X2712799Y1809660D01*
X2713279Y1811579D01*
X2713639Y1813700D01*
X2713900Y1816000D01*
X2714100Y1821160D01*
X2713940Y1824160D01*
X2713540Y1827040D01*
X2712880Y1829780D01*
X2711980Y1832380D01*
X2710860Y1834780D01*
X2709560Y1836940D01*
X2708100Y1838880D01*
X2706480Y1840520D01*
X2704740Y1841840D01*
X2702880Y1842840D01*
X2700940Y1843440D01*
X2698920Y1843660D01*
X2697360Y1844060D01*
X2695899Y1845140D01*
X2694600Y1846759D01*
X2693540Y1848779D01*
X2692780Y1851020D01*
X2692380Y1853320D01*
X2692420Y1855560D01*
X2692940Y1857560D01*
X2694200Y1858800D01*
X2696700Y1860160D01*
X2700100Y1861459D01*
X2706120Y1863120D01*
X2708060Y1863880D01*
X2709840Y1864780D01*
X2711480Y1865860D01*
X2712960Y1867080D01*
X2714300Y1868420D01*
X2715460Y1869900D01*
X2716480Y1871480D01*
X2717320Y1873180D01*
X2717980Y1874960D01*
X2718480Y1876840D01*
X2718800Y1878779D01*
X2718960Y1880800D01*
X2718920Y1882880D01*
X2718700Y1885000D01*
X2718279Y1887140D01*
X2717679Y1889319D01*
X2716900Y1891519D01*
X2715899Y1893720D01*
X2714720Y1895920D01*
X2713680Y1897340D01*
X2712320Y1898680D01*
X2711520Y1899340D01*
X2709600Y1900560D01*
X2707280Y1901720D01*
X2704540Y1902820D01*
X2701340Y1903860D01*
X2697679Y1904860D01*
X2693500Y1905800D01*
X2688780Y1906720D01*
X2683519Y1907600D01*
X2671200Y1909280D01*
X2656340Y1910900D01*
X2623639Y1913880D01*
X2598580Y1916279D01*
X2580480Y1918240D01*
X2566200Y1920100D01*
G37*
G36*
X2559560Y1794400D02*
G01*
X2555680Y1794259D01*
X2552320Y1793980D01*
X2549440Y1793540D01*
X2547020Y1792940D01*
X2544980Y1792180D01*
X2543280Y1791240D01*
X2541900Y1790140D01*
X2540740Y1788880D01*
X2539800Y1787440D01*
X2538200Y1784120D01*
X2537240Y1781660D01*
X2536460Y1779280D01*
X2535880Y1776980D01*
X2535500Y1774740D01*
X2535300Y1772620D01*
X2535280Y1770560D01*
X2535460Y1768600D01*
X2535820Y1766740D01*
X2536380Y1764980D01*
X2537100Y1763320D01*
X2538000Y1761759D01*
X2539080Y1760320D01*
X2540340Y1758980D01*
X2541780Y1757760D01*
X2543380Y1756639D01*
X2545140Y1755640D01*
X2547080Y1754780D01*
X2549180Y1754040D01*
X2551440Y1753420D01*
X2553860Y1752940D01*
X2556440Y1752580D01*
X2559180Y1752380D01*
X2562080Y1752300D01*
X2577620Y1752300D01*
X2576340Y1730060D01*
X2555180Y1730980D01*
X2552380Y1730980D01*
X2549780Y1730880D01*
X2547360Y1730660D01*
X2545140Y1730340D01*
X2542334Y1729700D01*
X2617460Y1729700D01*
X2617600Y1731639D01*
X2618440Y1736800D01*
X2619020Y1739800D01*
X2619640Y1742060D01*
X2620480Y1743640D01*
X2621660Y1744620D01*
X2623340Y1745060D01*
X2625700Y1745060D01*
X2628860Y1744700D01*
X2635800Y1743580D01*
X2642000Y1742800D01*
X2648340Y1742200D01*
X2654040Y1741840D01*
X2659860Y1741759D01*
X2662460Y1741560D01*
X2664340Y1741080D01*
X2665600Y1740160D01*
X2666380Y1738680D01*
X2666780Y1736480D01*
X2666940Y1733440D01*
X2666940Y1725740D01*
X2666800Y1722900D01*
X2666500Y1720800D01*
X2666040Y1719379D01*
X2665340Y1718560D01*
X2664360Y1718220D01*
X2663060Y1718300D01*
X2659900Y1719100D01*
X2655100Y1720000D01*
X2648600Y1721020D01*
X2641139Y1722000D01*
X2632400Y1722980D01*
X2625020Y1723959D01*
X2622400Y1724480D01*
X2620419Y1725120D01*
X2619020Y1725900D01*
X2618100Y1726879D01*
X2617600Y1728140D01*
X2617460Y1729700D01*
X2542334Y1729700D01*
X2541220Y1729379D01*
X2539520Y1728700D01*
X2537980Y1727900D01*
X2536620Y1726980D01*
X2535400Y1725940D01*
X2534320Y1724740D01*
X2533400Y1723420D01*
X2532620Y1721940D01*
X2531960Y1720320D01*
X2531440Y1718540D01*
X2531060Y1716620D01*
X2530780Y1714520D01*
X2530620Y1712280D01*
X2530580Y1707960D01*
X2530700Y1704500D01*
X2531000Y1701420D01*
X2531240Y1700040D01*
X2531980Y1697500D01*
X2532480Y1696360D01*
X2533080Y1695280D01*
X2533780Y1694280D01*
X2534620Y1693340D01*
X2535560Y1692480D01*
X2536660Y1691660D01*
X2537900Y1690900D01*
X2539300Y1690180D01*
X2542600Y1688880D01*
X2546620Y1687740D01*
X2551440Y1686699D01*
X2557140Y1685740D01*
X2563780Y1684820D01*
X2571440Y1683899D01*
X2603360Y1680680D01*
X2626139Y1678240D01*
X2634000Y1677300D01*
X2645080Y1675580D01*
X2651300Y1674800D01*
X2657020Y1674340D01*
X2662240Y1674180D01*
X2666900Y1674340D01*
X2670980Y1674780D01*
X2672780Y1675120D01*
X2674420Y1675540D01*
X2675880Y1676020D01*
X2677180Y1676579D01*
X2678300Y1677220D01*
X2679240Y1677920D01*
X2679980Y1678700D01*
X2682360Y1681940D01*
X2684960Y1683839D01*
X2688080Y1685100D01*
X2691420Y1685560D01*
X2693500Y1685680D01*
X2695440Y1686040D01*
X2697280Y1686660D01*
X2698980Y1687500D01*
X2700560Y1688600D01*
X2702020Y1689920D01*
X2703340Y1691459D01*
X2704540Y1693240D01*
X2705600Y1695220D01*
X2706520Y1697440D01*
X2707320Y1699880D01*
X2707960Y1702520D01*
X2708480Y1705360D01*
X2708840Y1708420D01*
X2709060Y1711680D01*
X2709300Y1724600D01*
X2709560Y1730060D01*
X2709920Y1734079D01*
X2710380Y1737840D01*
X2710320Y1741180D01*
X2709980Y1744960D01*
X2709400Y1748700D01*
X2708860Y1750820D01*
X2708060Y1752840D01*
X2707020Y1754720D01*
X2705740Y1756519D01*
X2704220Y1758180D01*
X2702440Y1759740D01*
X2700419Y1761200D01*
X2696100Y1763740D01*
X2693960Y1765200D01*
X2691820Y1766819D01*
X2689700Y1768580D01*
X2687679Y1770400D01*
X2685820Y1772260D01*
X2684180Y1774079D01*
X2682840Y1775820D01*
X2680160Y1778980D01*
X2677120Y1781579D01*
X2674080Y1783340D01*
X2671420Y1784019D01*
X2667340Y1784319D01*
X2648500Y1786200D01*
X2601259Y1791420D01*
X2585000Y1793020D01*
X2571960Y1794019D01*
X2566520Y1794280D01*
G37*
G36*
X2542380Y1666960D02*
G01*
X2540300Y1666780D01*
X2538380Y1666459D01*
X2536640Y1665940D01*
X2535040Y1665240D01*
X2533600Y1664360D01*
X2532300Y1663300D01*
X2531160Y1662020D01*
X2530140Y1660560D01*
X2529240Y1658880D01*
X2528460Y1657000D01*
X2527800Y1654900D01*
X2527240Y1652580D01*
X2526780Y1650040D01*
X2526240Y1645460D01*
X2526120Y1643380D01*
X2526140Y1641440D01*
X2526300Y1639620D01*
X2526580Y1637920D01*
X2527020Y1636339D01*
X2527600Y1634880D01*
X2528360Y1633520D01*
X2529280Y1632260D01*
X2530400Y1631080D01*
X2531680Y1630000D01*
X2533180Y1628980D01*
X2534880Y1628040D01*
X2536780Y1627180D01*
X2538920Y1626380D01*
X2541280Y1625620D01*
X2546720Y1624259D01*
X2549800Y1623620D01*
X2556800Y1622460D01*
X2570440Y1620600D01*
X2575539Y1619760D01*
X2580160Y1618860D01*
X2584220Y1617940D01*
X2587700Y1617000D01*
X2590500Y1616100D01*
X2592620Y1615220D01*
X2593399Y1614820D01*
X2594360Y1614060D01*
X2594540Y1613720D01*
X2594500Y1613400D01*
X2594240Y1613140D01*
X2593020Y1612680D01*
X2590840Y1612420D01*
X2587660Y1612340D01*
X2581080Y1612480D01*
X2579000Y1612280D01*
X2577140Y1611800D01*
X2575460Y1611080D01*
X2573940Y1610060D01*
X2572540Y1608740D01*
X2571220Y1607120D01*
X2569000Y1603500D01*
X2568060Y1602120D01*
X2567080Y1600980D01*
X2566040Y1600080D01*
X2564840Y1599400D01*
X2563440Y1598940D01*
X2561780Y1598660D01*
X2559800Y1598580D01*
X2557440Y1598640D01*
X2551320Y1599220D01*
X2544560Y1600040D01*
X2539440Y1600420D01*
X2537200Y1600460D01*
X2535140Y1600360D01*
X2533260Y1600160D01*
X2531560Y1599800D01*
X2530000Y1599319D01*
X2528600Y1598680D01*
X2527320Y1597880D01*
X2526180Y1596940D01*
X2525140Y1595800D01*
X2524220Y1594500D01*
X2523380Y1593000D01*
X2522640Y1591300D01*
X2521960Y1589400D01*
X2521340Y1587300D01*
X2520240Y1582420D01*
X2519540Y1578360D01*
X2519200Y1575900D01*
X2519000Y1573620D01*
X2518940Y1571480D01*
X2519060Y1569480D01*
X2519360Y1567600D01*
X2519900Y1565840D01*
X2520680Y1564199D01*
X2521720Y1562660D01*
X2523060Y1561200D01*
X2524700Y1559860D01*
X2526700Y1558580D01*
X2529060Y1557380D01*
X2531800Y1556220D01*
X2534940Y1555140D01*
X2538540Y1554100D01*
X2542580Y1553100D01*
X2547100Y1552120D01*
X2557700Y1550240D01*
X2570520Y1548380D01*
X2585740Y1546480D01*
X2603560Y1544460D01*
X2638720Y1540740D01*
X2661100Y1538160D01*
X2669980Y1537020D01*
X2679500Y1535640D01*
X2681600Y1535500D01*
X2683600Y1535560D01*
X2685480Y1535780D01*
X2687240Y1536180D01*
X2688900Y1536740D01*
X2690440Y1537480D01*
X2691840Y1538360D01*
X2693140Y1539400D01*
X2694280Y1540600D01*
X2695320Y1541960D01*
X2696220Y1543460D01*
X2696980Y1545100D01*
X2697600Y1546879D01*
X2698060Y1548779D01*
X2698399Y1550840D01*
X2698580Y1553020D01*
X2698620Y1555340D01*
X2698500Y1557760D01*
X2698220Y1560320D01*
X2697760Y1563180D01*
X2697160Y1565840D01*
X2696440Y1568320D01*
X2695580Y1570620D01*
X2694580Y1572720D01*
X2693440Y1574640D01*
X2692180Y1576380D01*
X2690760Y1577940D01*
X2689200Y1579300D01*
X2687500Y1580500D01*
X2685659Y1581540D01*
X2683660Y1582380D01*
X2681500Y1583060D01*
X2679200Y1583580D01*
X2676740Y1583920D01*
X2664840Y1584660D01*
X2661440Y1585040D01*
X2658759Y1585620D01*
X2655920Y1586040D01*
X2651720Y1586500D01*
X2637100Y1587600D01*
X2635160Y1587880D01*
X2634220Y1588200D01*
X2634200Y1588600D01*
X2635040Y1589120D01*
X2641000Y1591339D01*
X2642840Y1592260D01*
X2644740Y1593380D01*
X2646620Y1594620D01*
X2648440Y1595980D01*
X2650120Y1597400D01*
X2651620Y1598860D01*
X2654020Y1601660D01*
X2655140Y1602820D01*
X2656320Y1603800D01*
X2657580Y1604580D01*
X2658980Y1605200D01*
X2660560Y1605660D01*
X2662340Y1605960D01*
X2664420Y1606120D01*
X2669540Y1606060D01*
X2682200Y1605140D01*
X2687160Y1605120D01*
X2689300Y1605260D01*
X2691220Y1605520D01*
X2692940Y1605900D01*
X2694480Y1606420D01*
X2695840Y1607100D01*
X2697020Y1607920D01*
X2698039Y1608880D01*
X2698920Y1610020D01*
X2699660Y1611339D01*
X2700260Y1612840D01*
X2700740Y1614540D01*
X2701100Y1616440D01*
X2701380Y1618540D01*
X2701660Y1623400D01*
X2701700Y1626180D01*
X2701620Y1629740D01*
X2701420Y1632860D01*
X2701040Y1635540D01*
X2700480Y1637860D01*
X2699720Y1639880D01*
X2698759Y1641660D01*
X2697559Y1643240D01*
X2696120Y1644700D01*
X2695160Y1645400D01*
X2693840Y1646120D01*
X2692180Y1646840D01*
X2688039Y1648240D01*
X2685620Y1648940D01*
X2680220Y1650200D01*
X2674320Y1651260D01*
X2668200Y1652080D01*
X2655940Y1653440D01*
X2645260Y1654740D01*
X2632820Y1656500D01*
X2610360Y1659240D01*
X2584740Y1662160D01*
X2563440Y1664680D01*
X2547100Y1666780D01*
X2544660Y1666940D01*
G37*
G36*
X2557260Y1529800D02*
G01*
X2555220Y1529720D01*
X2553200Y1529480D01*
X2551200Y1529040D01*
X2549280Y1528420D01*
X2547420Y1527600D01*
X2545640Y1526600D01*
X2544000Y1525400D01*
X2540980Y1522560D01*
X2539340Y1521240D01*
X2537600Y1520040D01*
X2535820Y1518980D01*
X2534040Y1518120D01*
X2532320Y1517460D01*
X2530740Y1517060D01*
X2527660Y1516800D01*
X2526080Y1516500D01*
X2524560Y1516000D01*
X2523120Y1515280D01*
X2521740Y1514360D01*
X2520440Y1513260D01*
X2519200Y1511940D01*
X2518040Y1510400D01*
X2516940Y1508680D01*
X2515900Y1506759D01*
X2514940Y1504640D01*
X2514040Y1502300D01*
X2513220Y1499760D01*
X2512460Y1497040D01*
X2511780Y1494100D01*
X2510600Y1487620D01*
X2510120Y1484079D01*
X2509380Y1476399D01*
X2508820Y1467680D01*
X2508580Y1460160D01*
X2508580Y1456800D01*
X2508860Y1450880D01*
X2509140Y1448260D01*
X2509520Y1445880D01*
X2510000Y1443720D01*
X2510580Y1441740D01*
X2511280Y1439960D01*
X2512080Y1438340D01*
X2512980Y1436900D01*
X2514020Y1435600D01*
X2515160Y1434440D01*
X2516440Y1433400D01*
X2517840Y1432480D01*
X2519360Y1431660D01*
X2522920Y1430040D01*
X2524880Y1428880D01*
X2526840Y1427520D01*
X2528740Y1425980D01*
X2530540Y1424340D01*
X2532160Y1422620D01*
X2533540Y1420880D01*
X2535540Y1417880D01*
X2536680Y1416680D01*
X2538040Y1415520D01*
X2539600Y1414460D01*
X2541360Y1413460D01*
X2543300Y1412540D01*
X2547620Y1410920D01*
X2549960Y1410240D01*
X2552400Y1409640D01*
X2557520Y1408700D01*
X2562799Y1408100D01*
X2568120Y1407860D01*
X2570740Y1407880D01*
X2575820Y1408200D01*
X2578240Y1408500D01*
X2580560Y1408899D01*
X2582740Y1409420D01*
X2584800Y1410020D01*
X2586700Y1410720D01*
X2588420Y1411540D01*
X2589940Y1412460D01*
X2591240Y1413480D01*
X2593660Y1416100D01*
X2595160Y1417500D01*
X2596800Y1418760D01*
X2598500Y1419860D01*
X2600220Y1420780D01*
X2601900Y1421459D01*
X2603500Y1421900D01*
X2606640Y1422160D01*
X2608240Y1422520D01*
X2609760Y1423120D01*
X2611200Y1423959D01*
X2612559Y1425040D01*
X2613820Y1426360D01*
X2615020Y1427900D01*
X2616120Y1429700D01*
X2617140Y1431720D01*
X2618080Y1433980D01*
X2618920Y1436480D01*
X2619700Y1439199D01*
X2620380Y1442160D01*
X2621480Y1448800D01*
X2622440Y1457300D01*
X2623000Y1461200D01*
X2623620Y1464240D01*
X2624360Y1466560D01*
X2625280Y1468240D01*
X2626380Y1469400D01*
X2627760Y1470160D01*
X2629420Y1470640D01*
X2632240Y1471100D01*
X2634820Y1471240D01*
X2637160Y1471120D01*
X2639240Y1470700D01*
X2641080Y1469980D01*
X2642679Y1468980D01*
X2644040Y1467680D01*
X2645160Y1466100D01*
X2646019Y1464240D01*
X2646640Y1462080D01*
X2647000Y1459640D01*
X2647120Y1456900D01*
X2646940Y1452600D01*
X2646420Y1449700D01*
X2645600Y1448300D01*
X2644500Y1448520D01*
X2643140Y1449480D01*
X2641680Y1450000D01*
X2640200Y1450160D01*
X2638680Y1449940D01*
X2637140Y1449360D01*
X2635600Y1448500D01*
X2634100Y1447340D01*
X2632620Y1445920D01*
X2631200Y1444259D01*
X2629860Y1442380D01*
X2628600Y1440340D01*
X2627460Y1438120D01*
X2626420Y1435800D01*
X2625539Y1433340D01*
X2624820Y1430820D01*
X2624280Y1428260D01*
X2623920Y1425660D01*
X2623780Y1423040D01*
X2623860Y1420480D01*
X2624200Y1417940D01*
X2624740Y1415620D01*
X2625520Y1413400D01*
X2626500Y1411320D01*
X2627660Y1409340D01*
X2628980Y1407480D01*
X2630460Y1405780D01*
X2632080Y1404199D01*
X2633800Y1402760D01*
X2635640Y1401480D01*
X2637540Y1400360D01*
X2639520Y1399400D01*
X2641540Y1398620D01*
X2643600Y1398000D01*
X2645659Y1397560D01*
X2647720Y1397320D01*
X2649760Y1397260D01*
X2651760Y1397400D01*
X2653700Y1397760D01*
X2655580Y1398320D01*
X2657360Y1399079D01*
X2659040Y1400080D01*
X2660580Y1401320D01*
X2662000Y1402780D01*
X2664360Y1406000D01*
X2665659Y1407360D01*
X2667100Y1408560D01*
X2668680Y1409580D01*
X2670340Y1410400D01*
X2672080Y1411000D01*
X2673860Y1411380D01*
X2677200Y1411560D01*
X2678680Y1411720D01*
X2680059Y1411980D01*
X2681360Y1412380D01*
X2682580Y1412880D01*
X2683720Y1413540D01*
X2684780Y1414319D01*
X2685760Y1415260D01*
X2686680Y1416339D01*
X2687540Y1417580D01*
X2688320Y1418980D01*
X2689040Y1420540D01*
X2689700Y1422300D01*
X2690860Y1426339D01*
X2691800Y1431180D01*
X2692559Y1436840D01*
X2693140Y1443380D01*
X2693580Y1450840D01*
X2694180Y1468280D01*
X2694220Y1474600D01*
X2694160Y1477140D01*
X2694000Y1479340D01*
X2693759Y1481240D01*
X2693440Y1482880D01*
X2693020Y1484340D01*
X2692500Y1485660D01*
X2691860Y1486860D01*
X2691100Y1488020D01*
X2689180Y1490420D01*
X2688000Y1491740D01*
X2685059Y1494680D01*
X2682040Y1497100D01*
X2679360Y1498740D01*
X2677320Y1499340D01*
X2675299Y1500040D01*
X2672660Y1501940D01*
X2669760Y1504740D01*
X2665840Y1509480D01*
X2664520Y1510720D01*
X2663000Y1511900D01*
X2661300Y1513000D01*
X2659420Y1514040D01*
X2657400Y1515020D01*
X2655260Y1515920D01*
X2652980Y1516759D01*
X2648180Y1518180D01*
X2645659Y1518779D01*
X2640500Y1519720D01*
X2635299Y1520320D01*
X2630179Y1520560D01*
X2627679Y1520540D01*
X2625280Y1520420D01*
X2620720Y1519900D01*
X2618639Y1519480D01*
X2616680Y1518959D01*
X2614880Y1518340D01*
X2613260Y1517620D01*
X2611840Y1516780D01*
X2610620Y1515820D01*
X2607160Y1512300D01*
X2604260Y1510440D01*
X2601280Y1509360D01*
X2598580Y1509259D01*
X2597200Y1509400D01*
X2595820Y1509300D01*
X2594460Y1508959D01*
X2593140Y1508400D01*
X2591840Y1507620D01*
X2590560Y1506639D01*
X2589340Y1505440D01*
X2588140Y1504060D01*
X2587000Y1502480D01*
X2585899Y1500740D01*
X2584860Y1498820D01*
X2583880Y1496720D01*
X2582120Y1492100D01*
X2580659Y1486900D01*
X2580040Y1484120D01*
X2579500Y1481200D01*
X2579060Y1478200D01*
X2578380Y1471680D01*
X2577700Y1466100D01*
X2577300Y1463899D01*
X2576820Y1462040D01*
X2576259Y1460500D01*
X2575580Y1459300D01*
X2574760Y1458380D01*
X2573780Y1457740D01*
X2572620Y1457360D01*
X2571259Y1457220D01*
X2569680Y1457280D01*
X2567840Y1457560D01*
X2563340Y1458620D01*
X2560640Y1459379D01*
X2558580Y1460160D01*
X2556800Y1461279D01*
X2555300Y1462640D01*
X2554060Y1464220D01*
X2553120Y1465960D01*
X2552440Y1467800D01*
X2552040Y1469700D01*
X2551900Y1471600D01*
X2552040Y1473460D01*
X2552460Y1475240D01*
X2553160Y1476860D01*
X2554120Y1478280D01*
X2555360Y1479460D01*
X2556880Y1480340D01*
X2558660Y1480860D01*
X2562660Y1481040D01*
X2564480Y1481360D01*
X2566220Y1481900D01*
X2567840Y1482700D01*
X2569340Y1483700D01*
X2570720Y1484940D01*
X2572000Y1486360D01*
X2573140Y1487960D01*
X2574160Y1489760D01*
X2575040Y1491720D01*
X2575760Y1493820D01*
X2576360Y1496080D01*
X2576800Y1498460D01*
X2577100Y1500980D01*
X2577240Y1503600D01*
X2577220Y1506300D01*
X2577020Y1509100D01*
X2576660Y1511980D01*
X2576120Y1514920D01*
X2575400Y1517920D01*
X2574780Y1519720D01*
X2573920Y1521380D01*
X2572860Y1522920D01*
X2571620Y1524300D01*
X2570200Y1525540D01*
X2568639Y1526620D01*
X2566940Y1527560D01*
X2565140Y1528340D01*
X2563240Y1528959D01*
X2561300Y1529400D01*
X2559280Y1529680D01*
G37*
G36*
X2522320Y1392740D02*
G01*
X2519780Y1392660D01*
X2517480Y1392460D01*
X2515400Y1392100D01*
X2513560Y1391600D01*
X2511900Y1390940D01*
X2510420Y1390140D01*
X2509120Y1389160D01*
X2507940Y1388020D01*
X2506920Y1386699D01*
X2505980Y1385220D01*
X2505160Y1383520D01*
X2504400Y1381660D01*
X2503700Y1379580D01*
X2502400Y1374700D01*
X2501440Y1369840D01*
X2501140Y1367560D01*
X2500960Y1365400D01*
X2500900Y1363340D01*
X2500980Y1361380D01*
X2501180Y1359540D01*
X2501500Y1357760D01*
X2501960Y1356100D01*
X2502560Y1354520D01*
X2503300Y1353040D01*
X2504160Y1351639D01*
X2505180Y1350320D01*
X2506340Y1349100D01*
X2507640Y1347940D01*
X2509080Y1346860D01*
X2510680Y1345860D01*
X2512420Y1344920D01*
X2516380Y1343280D01*
X2518580Y1342560D01*
X2523500Y1341279D01*
X2529040Y1340260D01*
X2544060Y1338340D01*
X2551220Y1337120D01*
X2554220Y1336440D01*
X2556880Y1335700D01*
X2559180Y1334920D01*
X2561180Y1334040D01*
X2562860Y1333080D01*
X2564280Y1332020D01*
X2565419Y1330880D01*
X2566300Y1329620D01*
X2566980Y1328240D01*
X2567420Y1326720D01*
X2567679Y1325080D01*
X2567740Y1321560D01*
X2567620Y1320140D01*
X2567280Y1318980D01*
X2566680Y1318100D01*
X2565720Y1317440D01*
X2564280Y1317020D01*
X2562300Y1316819D01*
X2559680Y1316819D01*
X2556340Y1316980D01*
X2547140Y1317800D01*
X2529400Y1319540D01*
X2522920Y1320040D01*
X2517420Y1320280D01*
X2512820Y1320220D01*
X2509000Y1319820D01*
X2507360Y1319480D01*
X2505900Y1319060D01*
X2504580Y1318500D01*
X2503420Y1317860D01*
X2502400Y1317080D01*
X2501480Y1316200D01*
X2500700Y1315180D01*
X2500000Y1314040D01*
X2499420Y1312740D01*
X2498900Y1311320D01*
X2498440Y1309740D01*
X2497720Y1306140D01*
X2497160Y1301879D01*
X2496660Y1296920D01*
X2496420Y1293540D01*
X2496340Y1290420D01*
X2496500Y1287520D01*
X2496880Y1284820D01*
X2497520Y1282340D01*
X2498480Y1280060D01*
X2499060Y1278980D01*
X2500500Y1276960D01*
X2502300Y1275080D01*
X2504500Y1273360D01*
X2507120Y1271760D01*
X2510180Y1270280D01*
X2513720Y1268920D01*
X2517760Y1267620D01*
X2522340Y1266420D01*
X2527480Y1265260D01*
X2533200Y1264160D01*
X2539540Y1263100D01*
X2554180Y1261020D01*
X2571620Y1258940D01*
X2622080Y1253140D01*
X2662840Y1248180D01*
X2664800Y1248120D01*
X2666640Y1248240D01*
X2668380Y1248520D01*
X2670020Y1248980D01*
X2671540Y1249600D01*
X2672960Y1250400D01*
X2674260Y1251380D01*
X2675460Y1252520D01*
X2676560Y1253840D01*
X2677559Y1255340D01*
X2678440Y1257000D01*
X2679220Y1258840D01*
X2679900Y1260860D01*
X2680480Y1263060D01*
X2680940Y1265440D01*
X2681320Y1267980D01*
X2681760Y1273640D01*
X2681780Y1279040D01*
X2681620Y1281220D01*
X2681320Y1283240D01*
X2680899Y1285140D01*
X2680340Y1286900D01*
X2679640Y1288560D01*
X2678780Y1290080D01*
X2677740Y1291500D01*
X2676540Y1292820D01*
X2675160Y1294060D01*
X2673580Y1295180D01*
X2671820Y1296240D01*
X2669840Y1297220D01*
X2667660Y1298120D01*
X2665240Y1298959D01*
X2659740Y1300480D01*
X2653240Y1301800D01*
X2635680Y1304720D01*
X2628660Y1306000D01*
X2623200Y1307200D01*
X2621019Y1307800D01*
X2619140Y1308420D01*
X2617559Y1309040D01*
X2616240Y1309720D01*
X2615160Y1310440D01*
X2614320Y1311200D01*
X2613660Y1312040D01*
X2613180Y1312960D01*
X2612840Y1313980D01*
X2612600Y1315100D01*
X2612420Y1317680D01*
X2612400Y1322420D01*
X2612559Y1324079D01*
X2612780Y1324760D01*
X2613100Y1325340D01*
X2613580Y1325840D01*
X2614200Y1326220D01*
X2615020Y1326519D01*
X2616060Y1326720D01*
X2617320Y1326840D01*
X2620659Y1326800D01*
X2625220Y1326420D01*
X2631200Y1325680D01*
X2659520Y1321519D01*
X2661700Y1321279D01*
X2663820Y1321200D01*
X2665860Y1321300D01*
X2667840Y1321540D01*
X2669760Y1321940D01*
X2671580Y1322500D01*
X2673340Y1323180D01*
X2675000Y1323980D01*
X2676580Y1324920D01*
X2678080Y1325980D01*
X2679480Y1327140D01*
X2680779Y1328420D01*
X2681980Y1329780D01*
X2683080Y1331220D01*
X2684060Y1332760D01*
X2684940Y1334379D01*
X2685700Y1336060D01*
X2686360Y1337800D01*
X2686880Y1339600D01*
X2687300Y1341440D01*
X2687559Y1343320D01*
X2687720Y1345240D01*
X2687720Y1347200D01*
X2687600Y1349160D01*
X2687340Y1351160D01*
X2686920Y1353140D01*
X2686360Y1355140D01*
X2685659Y1357120D01*
X2684780Y1359100D01*
X2683759Y1361060D01*
X2682580Y1362980D01*
X2681240Y1364880D01*
X2679720Y1366600D01*
X2677940Y1368160D01*
X2675899Y1369560D01*
X2673600Y1370800D01*
X2671060Y1371879D01*
X2668279Y1372780D01*
X2665260Y1373500D01*
X2539460Y1391300D01*
X2531660Y1392220D01*
X2528260Y1392520D01*
G37*
G36*
X2506580Y1249100D02*
G01*
X2503820Y1248920D01*
X2501500Y1248540D01*
X2499580Y1247980D01*
X2498080Y1247200D01*
X2496960Y1246240D01*
X2495880Y1244680D01*
X2494820Y1242620D01*
X2493780Y1240060D01*
X2492780Y1237020D01*
X2491820Y1233520D01*
X2490880Y1229600D01*
X2490000Y1225240D01*
X2489160Y1220520D01*
X2487600Y1209940D01*
X2486280Y1198060D01*
X2485200Y1185020D01*
X2484400Y1170980D01*
X2484040Y1161860D01*
X2483880Y1153840D01*
X2483940Y1146820D01*
X2484220Y1140780D01*
X2484780Y1135660D01*
X2485640Y1131380D01*
X2486180Y1129540D01*
X2486820Y1127880D01*
X2487520Y1126420D01*
X2488320Y1125120D01*
X2489220Y1124000D01*
X2490200Y1123040D01*
X2491280Y1122240D01*
X2492480Y1121580D01*
X2493760Y1121060D01*
X2495160Y1120660D01*
X2496660Y1120400D01*
X2498280Y1120260D01*
X2500020Y1120220D01*
X2503860Y1120460D01*
X2507980Y1121000D01*
X2511580Y1121680D01*
X2513180Y1122080D01*
X2516020Y1123100D01*
X2517260Y1123740D01*
X2518400Y1124480D01*
X2519440Y1125340D01*
X2520380Y1126320D01*
X2521260Y1127440D01*
X2522040Y1128700D01*
X2522760Y1130140D01*
X2523420Y1131760D01*
X2524580Y1135560D01*
X2525560Y1140240D01*
X2526440Y1145880D01*
X2527260Y1152580D01*
X2529000Y1169280D01*
X2529860Y1176340D01*
X2530300Y1179240D01*
X2530780Y1181760D01*
X2531300Y1183920D01*
X2531900Y1185740D01*
X2532560Y1187220D01*
X2533340Y1188400D01*
X2534240Y1189300D01*
X2535260Y1189940D01*
X2536420Y1190340D01*
X2537760Y1190500D01*
X2539260Y1190480D01*
X2540980Y1190260D01*
X2545040Y1189360D01*
X2550100Y1187960D01*
X2552180Y1187280D01*
X2553880Y1186500D01*
X2555240Y1185580D01*
X2556260Y1184480D01*
X2557000Y1183140D01*
X2557500Y1181520D01*
X2557760Y1179560D01*
X2557900Y1174820D01*
X2558060Y1172480D01*
X2558320Y1170240D01*
X2558680Y1168080D01*
X2559680Y1164060D01*
X2560299Y1162200D01*
X2561800Y1158760D01*
X2562640Y1157180D01*
X2563560Y1155700D01*
X2564540Y1154320D01*
X2566660Y1151880D01*
X2567799Y1150800D01*
X2568980Y1149840D01*
X2570200Y1148980D01*
X2572740Y1147560D01*
X2574040Y1147020D01*
X2575360Y1146580D01*
X2576720Y1146240D01*
X2579420Y1145920D01*
X2580800Y1145920D01*
X2582160Y1146040D01*
X2583519Y1146280D01*
X2584860Y1146620D01*
X2586180Y1147080D01*
X2587500Y1147660D01*
X2588780Y1148360D01*
X2590020Y1149160D01*
X2591240Y1150100D01*
X2592440Y1151160D01*
X2593560Y1152320D01*
X2594660Y1153620D01*
X2595700Y1155040D01*
X2596680Y1156580D01*
X2597600Y1158240D01*
X2598460Y1160040D01*
X2599960Y1164000D01*
X2601139Y1168480D01*
X2601880Y1171640D01*
X2602640Y1174160D01*
X2603480Y1176100D01*
X2604460Y1177540D01*
X2605659Y1178540D01*
X2607120Y1179160D01*
X2608900Y1179480D01*
X2611060Y1179560D01*
X2615980Y1179480D01*
X2619940Y1179140D01*
X2621600Y1178820D01*
X2623080Y1178360D01*
X2624340Y1177760D01*
X2625460Y1176980D01*
X2626400Y1176000D01*
X2627200Y1174820D01*
X2627860Y1173380D01*
X2628380Y1171660D01*
X2628820Y1169680D01*
X2629140Y1167360D01*
X2629560Y1161720D01*
X2629740Y1154540D01*
X2629800Y1136660D01*
X2629940Y1129500D01*
X2630240Y1123860D01*
X2630740Y1119440D01*
X2631520Y1115900D01*
X2632000Y1114360D01*
X2632580Y1112920D01*
X2634020Y1110220D01*
X2635860Y1107440D01*
X2637440Y1105480D01*
X2639220Y1103740D01*
X2641160Y1102260D01*
X2643260Y1101020D01*
X2645460Y1100020D01*
X2647740Y1099260D01*
X2650059Y1098740D01*
X2652400Y1098480D01*
X2654740Y1098460D01*
X2657020Y1098700D01*
X2659220Y1099180D01*
X2661300Y1099920D01*
X2663260Y1100920D01*
X2665040Y1102180D01*
X2666620Y1103700D01*
X2667980Y1105480D01*
X2669020Y1107520D01*
X2670000Y1110300D01*
X2670940Y1113760D01*
X2671820Y1117800D01*
X2672640Y1122380D01*
X2673399Y1127420D01*
X2674740Y1138620D01*
X2675779Y1150840D01*
X2676200Y1157180D01*
X2676520Y1163560D01*
X2676860Y1173080D01*
X2677000Y1185340D01*
X2676940Y1191120D01*
X2676780Y1196580D01*
X2676520Y1201660D01*
X2676139Y1206280D01*
X2675680Y1210360D01*
X2675100Y1213860D01*
X2674400Y1216700D01*
X2673580Y1218800D01*
X2673140Y1219560D01*
X2672180Y1220660D01*
X2670860Y1221760D01*
X2669240Y1222820D01*
X2667400Y1223840D01*
X2665380Y1224740D01*
X2663260Y1225540D01*
X2661060Y1226180D01*
X2615059Y1234220D01*
X2603240Y1236220D01*
X2578460Y1240120D01*
X2555440Y1243460D01*
X2540080Y1245560D01*
X2524880Y1247520D01*
X2513360Y1248840D01*
X2509740Y1249060D01*
G37*
G36*
X2496720Y1103260D02*
G01*
X2494680Y1103140D01*
X2492820Y1102860D01*
X2491120Y1102440D01*
X2489560Y1101860D01*
X2488160Y1101120D01*
X2486880Y1100200D01*
X2485740Y1099100D01*
X2484680Y1097820D01*
X2483740Y1096340D01*
X2482860Y1094660D01*
X2482080Y1092760D01*
X2481340Y1090660D01*
X2480660Y1088340D01*
X2479400Y1083000D01*
X2478220Y1076680D01*
X2477060Y1069440D01*
X2476080Y1062380D01*
X2475300Y1055520D01*
X2474720Y1048900D01*
X2474340Y1042520D01*
X2474120Y1034940D01*
X2519320Y1034940D01*
X2519500Y1036500D01*
X2520000Y1038180D01*
X2520820Y1039960D01*
X2521880Y1041880D01*
X2522220Y1041979D01*
X2524260Y1041960D01*
X2527920Y1041680D01*
X2532900Y1041160D01*
X2545840Y1039479D01*
X2586600Y1033660D01*
X2600580Y1031740D01*
X2607380Y1030660D01*
X2612620Y1029520D01*
X2614720Y1028920D01*
X2616500Y1028240D01*
X2617980Y1027500D01*
X2619200Y1026660D01*
X2620179Y1025740D01*
X2620940Y1024700D01*
X2621500Y1023520D01*
X2621900Y1022220D01*
X2622160Y1020740D01*
X2622320Y1017280D01*
X2622260Y1015020D01*
X2621940Y1013300D01*
X2621259Y1012099D01*
X2620020Y1011380D01*
X2618120Y1011060D01*
X2615380Y1011120D01*
X2611660Y1011480D01*
X2590800Y1014400D01*
X2572400Y1017120D01*
X2557180Y1019620D01*
X2550700Y1020800D01*
X2544920Y1021960D01*
X2539820Y1023100D01*
X2535360Y1024220D01*
X2531520Y1025340D01*
X2528260Y1026480D01*
X2525580Y1027640D01*
X2523400Y1028840D01*
X2521720Y1030080D01*
X2520500Y1031380D01*
X2519720Y1032740D01*
X2519360Y1034180D01*
X2519320Y1034940D01*
X2474120Y1034940D01*
X2474120Y1030560D01*
X2474300Y1025040D01*
X2474640Y1019840D01*
X2475160Y1014980D01*
X2475880Y1010480D01*
X2476740Y1006380D01*
X2477800Y1002680D01*
X2479000Y999400D01*
X2480380Y996580D01*
X2481920Y994220D01*
X2483620Y992360D01*
X2484520Y991620D01*
X2485480Y991000D01*
X2486460Y990520D01*
X2487480Y990180D01*
X2488540Y989960D01*
X2489640Y989900D01*
X2490820Y989680D01*
X2492120Y989100D01*
X2493500Y988160D01*
X2494920Y986919D01*
X2496360Y985400D01*
X2497740Y983660D01*
X2499060Y981740D01*
X2501420Y977500D01*
X2502540Y975639D01*
X2503680Y974080D01*
X2504880Y972740D01*
X2506240Y971620D01*
X2507800Y970680D01*
X2509620Y969900D01*
X2511780Y969220D01*
X2514320Y968640D01*
X2520820Y967600D01*
X2537860Y965340D01*
X2558920Y962200D01*
X2600140Y955620D01*
X2607880Y954479D01*
X2614060Y953700D01*
X2618880Y953280D01*
X2622600Y953240D01*
X2624120Y953340D01*
X2625460Y953540D01*
X2626640Y953840D01*
X2627700Y954220D01*
X2628660Y954700D01*
X2630400Y955900D01*
X2633600Y958720D01*
X2635360Y959960D01*
X2637340Y961160D01*
X2639480Y962260D01*
X2641700Y963280D01*
X2643940Y964140D01*
X2646139Y964820D01*
X2649780Y965620D01*
X2652640Y966540D01*
X2653960Y967140D01*
X2655200Y967860D01*
X2656380Y968680D01*
X2657500Y969620D01*
X2658540Y970680D01*
X2659520Y971880D01*
X2660440Y973199D01*
X2661320Y974659D01*
X2662880Y978020D01*
X2664240Y982020D01*
X2664840Y984260D01*
X2665899Y989280D01*
X2666780Y995040D01*
X2667520Y1001580D01*
X2668100Y1008960D01*
X2668580Y1017200D01*
X2669220Y1036840D01*
X2669340Y1045240D01*
X2669300Y1051920D01*
X2669040Y1057140D01*
X2668540Y1061260D01*
X2668200Y1062980D01*
X2667300Y1066000D01*
X2666120Y1068680D01*
X2665400Y1069980D01*
X2664080Y1072040D01*
X2662580Y1073820D01*
X2660899Y1075320D01*
X2659000Y1076600D01*
X2656840Y1077640D01*
X2654360Y1078500D01*
X2651560Y1079180D01*
X2639740Y1080900D01*
X2628300Y1082680D01*
X2598100Y1087580D01*
X2539560Y1096840D01*
X2522640Y1099660D01*
X2513320Y1101380D01*
X2506880Y1102460D01*
X2501380Y1103100D01*
X2498960Y1103240D01*
G37*
G36*
X2527600Y3064600D02*
G01*
X2525920Y3064540D01*
X2524280Y3064340D01*
X2522660Y3064000D01*
X2521080Y3063519D01*
X2519540Y3062900D01*
X2518040Y3062120D01*
X2516600Y3061180D01*
X2515220Y3060080D01*
X2513920Y3058820D01*
X2512700Y3057400D01*
X2511560Y3055800D01*
X2510500Y3054020D01*
X2509560Y3052060D01*
X2508700Y3049900D01*
X2507960Y3047559D01*
X2507360Y3045020D01*
X2506860Y3042280D01*
X2506500Y3039320D01*
X2506280Y3036180D01*
X2506200Y3032799D01*
X2506362Y3028600D01*
X2512500Y3028600D01*
X2514020Y3030539D01*
X2515600Y3032180D01*
X2517200Y3033519D01*
X2518800Y3034600D01*
X2520380Y3035400D01*
X2521920Y3035960D01*
X2523400Y3036300D01*
X2524800Y3036400D01*
X2527460Y3036160D01*
X2529740Y3035419D01*
X2531660Y3034260D01*
X2533200Y3032679D01*
X2534400Y3030740D01*
X2535240Y3028420D01*
X2535740Y3025800D01*
X2535900Y3022900D01*
X2535700Y3019980D01*
X2535100Y3017340D01*
X2534180Y3015000D01*
X2532920Y3013020D01*
X2531400Y3011400D01*
X2529660Y3010200D01*
X2527700Y3009460D01*
X2525600Y3009200D01*
X2523720Y3009340D01*
X2521980Y3009780D01*
X2520380Y3010480D01*
X2518920Y3011480D01*
X2517600Y3012740D01*
X2516420Y3014260D01*
X2515400Y3016019D01*
X2514520Y3018060D01*
X2513780Y3020340D01*
X2513200Y3022860D01*
X2512780Y3025620D01*
X2512500Y3028600D01*
X2506362Y3028600D01*
X2506580Y3026080D01*
X2507020Y3023039D01*
X2507640Y3020240D01*
X2508420Y3017660D01*
X2509360Y3015299D01*
X2510440Y3013159D01*
X2511660Y3011240D01*
X2513020Y3009540D01*
X2514500Y3008080D01*
X2516100Y3006840D01*
X2517800Y3005820D01*
X2519620Y3005020D01*
X2521520Y3004460D01*
X2523520Y3004120D01*
X2525600Y3004000D01*
X2527780Y3004160D01*
X2529880Y3004620D01*
X2531880Y3005360D01*
X2533760Y3006380D01*
X2535520Y3007679D01*
X2537100Y3009220D01*
X2538500Y3010980D01*
X2539700Y3012980D01*
X2540680Y3015179D01*
X2541400Y3017580D01*
X2541840Y3020160D01*
X2542000Y3022900D01*
X2541880Y3025820D01*
X2541500Y3028500D01*
X2540880Y3030899D01*
X2540020Y3033060D01*
X2538960Y3034980D01*
X2537660Y3036620D01*
X2536160Y3038020D01*
X2534480Y3039160D01*
X2532600Y3040059D01*
X2530540Y3040700D01*
X2528300Y3041080D01*
X2525900Y3041200D01*
X2524120Y3041080D01*
X2522320Y3040700D01*
X2520520Y3040120D01*
X2518740Y3039300D01*
X2517020Y3038279D01*
X2515360Y3037060D01*
X2513820Y3035659D01*
X2512400Y3034100D01*
X2512540Y3037460D01*
X2512820Y3040539D01*
X2513240Y3043360D01*
X2513780Y3045920D01*
X2514460Y3048200D01*
X2515240Y3050260D01*
X2516140Y3052080D01*
X2517160Y3053660D01*
X2518240Y3055040D01*
X2519420Y3056180D01*
X2520680Y3057140D01*
X2522020Y3057900D01*
X2523420Y3058480D01*
X2524860Y3058880D01*
X2526360Y3059120D01*
X2527900Y3059200D01*
X2530500Y3058900D01*
X2533020Y3058000D01*
X2535320Y3056580D01*
X2537300Y3054700D01*
X2541000Y3058800D01*
X2539760Y3060000D01*
X2538400Y3061100D01*
X2536940Y3062080D01*
X2535340Y3062940D01*
X2533640Y3063639D01*
X2531780Y3064160D01*
X2529760Y3064480D01*
G37*
G36*
X2567600Y3064600D02*
G01*
X2565560Y3064480D01*
X2563639Y3064140D01*
X2561820Y3063560D01*
X2560100Y3062760D01*
X2558500Y3061700D01*
X2557020Y3060419D01*
X2555660Y3058920D01*
X2554440Y3057160D01*
X2553340Y3055179D01*
X2552360Y3052940D01*
X2551540Y3050480D01*
X2550860Y3047760D01*
X2550300Y3044820D01*
X2549920Y3041620D01*
X2549680Y3038180D01*
X2549600Y3034500D01*
X2555900Y3034500D01*
X2556000Y3038580D01*
X2556280Y3042280D01*
X2556740Y3045580D01*
X2557380Y3048519D01*
X2558180Y3051100D01*
X2559120Y3053320D01*
X2560220Y3055160D01*
X2561460Y3056680D01*
X2562820Y3057820D01*
X2564300Y3058660D01*
X2565899Y3059140D01*
X2567600Y3059300D01*
X2569260Y3059140D01*
X2570820Y3058660D01*
X2572260Y3057820D01*
X2573600Y3056680D01*
X2574820Y3055160D01*
X2575899Y3053320D01*
X2576840Y3051100D01*
X2577620Y3048519D01*
X2578260Y3045580D01*
X2578720Y3042280D01*
X2579000Y3038580D01*
X2579100Y3034500D01*
X2579000Y3030340D01*
X2578720Y3026580D01*
X2578260Y3023200D01*
X2577620Y3020200D01*
X2576840Y3017580D01*
X2575899Y3015320D01*
X2574820Y3013440D01*
X2573600Y3011900D01*
X2572260Y3010700D01*
X2570820Y3009860D01*
X2569260Y3009360D01*
X2567600Y3009200D01*
X2565899Y3009360D01*
X2564300Y3009860D01*
X2562820Y3010700D01*
X2561460Y3011900D01*
X2560220Y3013440D01*
X2559120Y3015320D01*
X2558180Y3017580D01*
X2557380Y3020200D01*
X2556740Y3023200D01*
X2556280Y3026580D01*
X2556000Y3030340D01*
X2555900Y3034500D01*
X2549600Y3034500D01*
X2549680Y3030779D01*
X2549920Y3027300D01*
X2550300Y3024080D01*
X2550860Y3021080D01*
X2551540Y3018340D01*
X2552360Y3015840D01*
X2553340Y3013580D01*
X2554440Y3011560D01*
X2555660Y3009780D01*
X2557020Y3008240D01*
X2558500Y3006940D01*
X2560100Y3005880D01*
X2561820Y3005059D01*
X2563639Y3004460D01*
X2565560Y3004120D01*
X2567600Y3004000D01*
X2569600Y3004120D01*
X2571500Y3004460D01*
X2573300Y3005059D01*
X2574980Y3005880D01*
X2576560Y3006940D01*
X2578020Y3008240D01*
X2579360Y3009780D01*
X2580580Y3011560D01*
X2581680Y3013580D01*
X2582640Y3015840D01*
X2583460Y3018340D01*
X2584160Y3021080D01*
X2584700Y3024080D01*
X2585080Y3027300D01*
X2585320Y3030779D01*
X2585400Y3034500D01*
X2585320Y3038180D01*
X2585080Y3041620D01*
X2584700Y3044820D01*
X2584160Y3047760D01*
X2583460Y3050480D01*
X2582640Y3052940D01*
X2581680Y3055179D01*
X2580580Y3057160D01*
X2579360Y3058920D01*
X2578020Y3060419D01*
X2576560Y3061700D01*
X2574980Y3062760D01*
X2573300Y3063560D01*
X2571500Y3064140D01*
X2569600Y3064480D01*
G37*
G36*
X2610200Y3064600D02*
G01*
X2607760Y3064460D01*
X2605460Y3064080D01*
X2603300Y3063440D01*
X2601240Y3062620D01*
X2599300Y3061600D01*
X2597440Y3060419D01*
X2595680Y3059120D01*
X2594000Y3057700D01*
X2597600Y3053500D01*
X2600260Y3055779D01*
X2603240Y3057600D01*
X2606500Y3058820D01*
X2610000Y3059300D01*
X2612240Y3059100D01*
X2614260Y3058560D01*
X2616000Y3057720D01*
X2617460Y3056580D01*
X2618639Y3055200D01*
X2619500Y3053540D01*
X2620020Y3051680D01*
X2620200Y3049600D01*
X2620120Y3048000D01*
X2619840Y3046480D01*
X2619360Y3045040D01*
X2618660Y3043700D01*
X2617740Y3042480D01*
X2616560Y3041360D01*
X2615140Y3040380D01*
X2613440Y3039560D01*
X2611460Y3038900D01*
X2609200Y3038399D01*
X2606600Y3038100D01*
X2603700Y3038000D01*
X2603700Y3032900D01*
X2606920Y3032799D01*
X2609800Y3032500D01*
X2612340Y3032020D01*
X2614560Y3031360D01*
X2616480Y3030539D01*
X2618100Y3029540D01*
X2619440Y3028420D01*
X2620500Y3027140D01*
X2621300Y3025720D01*
X2621860Y3024200D01*
X2622200Y3022559D01*
X2622300Y3020800D01*
X2622060Y3018300D01*
X2621400Y3016060D01*
X2620299Y3014120D01*
X2618860Y3012480D01*
X2617060Y3011160D01*
X2614960Y3010200D01*
X2612600Y3009600D01*
X2610000Y3009400D01*
X2607520Y3009540D01*
X2605260Y3009980D01*
X2603200Y3010620D01*
X2601320Y3011480D01*
X2599600Y3012520D01*
X2598020Y3013660D01*
X2596560Y3014900D01*
X2595200Y3016200D01*
X2591900Y3012000D01*
X2593380Y3010480D01*
X2595080Y3009020D01*
X2596980Y3007660D01*
X2599120Y3006460D01*
X2601520Y3005460D01*
X2604200Y3004680D01*
X2607140Y3004180D01*
X2610400Y3004000D01*
X2612919Y3004120D01*
X2615340Y3004500D01*
X2617620Y3005140D01*
X2619740Y3006000D01*
X2621700Y3007080D01*
X2623460Y3008399D01*
X2625000Y3009940D01*
X2626320Y3011680D01*
X2627380Y3013620D01*
X2628159Y3015760D01*
X2628639Y3018080D01*
X2628800Y3020600D01*
X2628540Y3023500D01*
X2627820Y3026139D01*
X2626660Y3028480D01*
X2625160Y3030539D01*
X2623320Y3032280D01*
X2621200Y3033720D01*
X2618880Y3034820D01*
X2616400Y3035600D01*
X2616400Y3035899D01*
X2618620Y3036840D01*
X2620640Y3038020D01*
X2622420Y3039440D01*
X2623920Y3041080D01*
X2625140Y3042980D01*
X2626040Y3045120D01*
X2626600Y3047480D01*
X2626800Y3050100D01*
X2626660Y3052320D01*
X2626240Y3054360D01*
X2625560Y3056240D01*
X2624620Y3057940D01*
X2623480Y3059460D01*
X2622100Y3060800D01*
X2620520Y3061940D01*
X2618780Y3062880D01*
X2616840Y3063620D01*
X2614760Y3064160D01*
X2612540Y3064500D01*
G37*
G36*
X2653600Y3064600D02*
G01*
X2651000Y3064440D01*
X2648560Y3063980D01*
X2646300Y3063240D01*
X2644160Y3062240D01*
X2642140Y3061000D01*
X2640220Y3059540D01*
X2638380Y3057860D01*
X2636600Y3056000D01*
X2640400Y3052400D01*
X2641720Y3053820D01*
X2643100Y3055120D01*
X2644560Y3056300D01*
X2646080Y3057320D01*
X2647679Y3058140D01*
X2649360Y3058780D01*
X2651100Y3059160D01*
X2652900Y3059300D01*
X2655560Y3059060D01*
X2657840Y3058380D01*
X2659760Y3057300D01*
X2661300Y3055840D01*
X2662500Y3054060D01*
X2663340Y3052000D01*
X2663840Y3049700D01*
X2664000Y3047200D01*
X2663940Y3045680D01*
X2663440Y3042520D01*
X2662420Y3039240D01*
X2660860Y3035820D01*
X2659880Y3034040D01*
X2657520Y3030380D01*
X2654580Y3026520D01*
X2651080Y3022460D01*
X2646980Y3018180D01*
X2642300Y3013660D01*
X2637000Y3008900D01*
X2637000Y3005000D01*
X2673200Y3005000D01*
X2673200Y3010600D01*
X2654120Y3010560D01*
X2646800Y3010100D01*
X2650960Y3014100D01*
X2654780Y3018039D01*
X2658240Y3021880D01*
X2661320Y3025659D01*
X2664000Y3029400D01*
X2665179Y3031240D01*
X2667200Y3034900D01*
X2668740Y3038540D01*
X2669800Y3042140D01*
X2670120Y3043920D01*
X2670340Y3045720D01*
X2670400Y3047500D01*
X2670260Y3050020D01*
X2669880Y3052380D01*
X2669240Y3054560D01*
X2668360Y3056560D01*
X2667240Y3058360D01*
X2665899Y3059940D01*
X2664340Y3061320D01*
X2662580Y3062480D01*
X2660620Y3063399D01*
X2658460Y3064060D01*
X2656120Y3064460D01*
G37*
G36*
X2703300Y3064600D02*
G01*
X2701620Y3064540D01*
X2699980Y3064340D01*
X2698360Y3064000D01*
X2696780Y3063519D01*
X2695240Y3062900D01*
X2693740Y3062120D01*
X2692300Y3061180D01*
X2690920Y3060080D01*
X2689620Y3058820D01*
X2688399Y3057400D01*
X2687260Y3055800D01*
X2686200Y3054020D01*
X2685260Y3052060D01*
X2684400Y3049900D01*
X2683660Y3047559D01*
X2683060Y3045020D01*
X2682559Y3042280D01*
X2682200Y3039320D01*
X2681980Y3036180D01*
X2681900Y3032799D01*
X2682057Y3028600D01*
X2688200Y3028600D01*
X2689720Y3030539D01*
X2691280Y3032180D01*
X2692880Y3033519D01*
X2694460Y3034600D01*
X2696040Y3035400D01*
X2697580Y3035960D01*
X2699080Y3036300D01*
X2700500Y3036400D01*
X2703140Y3036160D01*
X2705400Y3035419D01*
X2707300Y3034260D01*
X2708860Y3032679D01*
X2710059Y3030740D01*
X2710920Y3028420D01*
X2711440Y3025800D01*
X2711600Y3022900D01*
X2711400Y3019980D01*
X2710800Y3017340D01*
X2709860Y3015000D01*
X2708620Y3013020D01*
X2707080Y3011400D01*
X2705320Y3010200D01*
X2703340Y3009460D01*
X2701200Y3009200D01*
X2699340Y3009340D01*
X2697620Y3009780D01*
X2696040Y3010480D01*
X2694580Y3011480D01*
X2693279Y3012740D01*
X2692120Y3014260D01*
X2691100Y3016019D01*
X2690220Y3018060D01*
X2689480Y3020340D01*
X2688900Y3022860D01*
X2688480Y3025620D01*
X2688200Y3028600D01*
X2682057Y3028600D01*
X2682260Y3026080D01*
X2682720Y3023039D01*
X2683340Y3020240D01*
X2684120Y3017660D01*
X2685059Y3015299D01*
X2686139Y3013159D01*
X2687340Y3011240D01*
X2688700Y3009540D01*
X2690179Y3008080D01*
X2691760Y3006840D01*
X2693460Y3005820D01*
X2695260Y3005020D01*
X2697160Y3004460D01*
X2699140Y3004120D01*
X2701200Y3004000D01*
X2703399Y3004160D01*
X2705520Y3004620D01*
X2707540Y3005360D01*
X2709440Y3006380D01*
X2711200Y3007679D01*
X2712780Y3009220D01*
X2714200Y3010980D01*
X2715400Y3012980D01*
X2716380Y3015179D01*
X2717100Y3017580D01*
X2717540Y3020160D01*
X2717700Y3022900D01*
X2717580Y3025820D01*
X2717200Y3028500D01*
X2716580Y3030899D01*
X2715720Y3033060D01*
X2714660Y3034980D01*
X2713360Y3036620D01*
X2711860Y3038020D01*
X2710179Y3039160D01*
X2708300Y3040059D01*
X2706240Y3040700D01*
X2704000Y3041080D01*
X2701600Y3041200D01*
X2699780Y3041080D01*
X2697980Y3040700D01*
X2696160Y3040120D01*
X2694380Y3039300D01*
X2692660Y3038279D01*
X2691019Y3037060D01*
X2689440Y3035659D01*
X2688000Y3034100D01*
X2688140Y3037460D01*
X2688440Y3040539D01*
X2688880Y3043360D01*
X2689440Y3045920D01*
X2690120Y3048200D01*
X2690920Y3050260D01*
X2691840Y3052080D01*
X2692840Y3053660D01*
X2693940Y3055040D01*
X2695120Y3056180D01*
X2696380Y3057140D01*
X2697720Y3057900D01*
X2699120Y3058480D01*
X2700560Y3058880D01*
X2702060Y3059120D01*
X2703600Y3059200D01*
X2706200Y3058900D01*
X2708720Y3058000D01*
X2711019Y3056580D01*
X2713000Y3054700D01*
X2716700Y3058800D01*
X2715440Y3060000D01*
X2714080Y3061100D01*
X2712600Y3062080D01*
X2711019Y3062940D01*
X2709280Y3063639D01*
X2707440Y3064160D01*
X2705440Y3064480D01*
G37*
G36*
X2743200Y3064600D02*
G01*
X2741180Y3064480D01*
X2739260Y3064140D01*
X2737460Y3063560D01*
X2735740Y3062760D01*
X2734160Y3061700D01*
X2732679Y3060419D01*
X2731320Y3058920D01*
X2730080Y3057160D01*
X2728960Y3055179D01*
X2728000Y3052940D01*
X2727160Y3050480D01*
X2726460Y3047760D01*
X2725920Y3044820D01*
X2725520Y3041620D01*
X2725280Y3038180D01*
X2725200Y3034500D01*
X2731600Y3034500D01*
X2731700Y3038580D01*
X2731980Y3042280D01*
X2732440Y3045580D01*
X2733080Y3048519D01*
X2733860Y3051100D01*
X2734820Y3053320D01*
X2735899Y3055160D01*
X2737120Y3056680D01*
X2738480Y3057820D01*
X2739940Y3058660D01*
X2741520Y3059140D01*
X2743200Y3059300D01*
X2744880Y3059140D01*
X2746460Y3058660D01*
X2747919Y3057820D01*
X2749280Y3056680D01*
X2750500Y3055160D01*
X2751580Y3053320D01*
X2752540Y3051100D01*
X2753320Y3048519D01*
X2753960Y3045580D01*
X2754420Y3042280D01*
X2754700Y3038580D01*
X2754800Y3034500D01*
X2754700Y3030340D01*
X2754420Y3026580D01*
X2753960Y3023200D01*
X2753320Y3020200D01*
X2752540Y3017580D01*
X2751580Y3015320D01*
X2750500Y3013440D01*
X2749280Y3011900D01*
X2747919Y3010700D01*
X2746460Y3009860D01*
X2744880Y3009360D01*
X2743200Y3009200D01*
X2741520Y3009360D01*
X2739940Y3009860D01*
X2738480Y3010700D01*
X2737120Y3011900D01*
X2735899Y3013440D01*
X2734820Y3015320D01*
X2733860Y3017580D01*
X2733080Y3020200D01*
X2732440Y3023200D01*
X2731980Y3026580D01*
X2731700Y3030340D01*
X2731600Y3034500D01*
X2725200Y3034500D01*
X2725280Y3030779D01*
X2725520Y3027300D01*
X2725920Y3024080D01*
X2726460Y3021080D01*
X2727160Y3018340D01*
X2728000Y3015840D01*
X2728960Y3013580D01*
X2730080Y3011560D01*
X2731320Y3009780D01*
X2732679Y3008240D01*
X2734160Y3006940D01*
X2735740Y3005880D01*
X2737460Y3005059D01*
X2739260Y3004460D01*
X2741180Y3004120D01*
X2743200Y3004000D01*
X2745220Y3004120D01*
X2747120Y3004460D01*
X2748940Y3005059D01*
X2750640Y3005880D01*
X2752220Y3006940D01*
X2753700Y3008240D01*
X2755040Y3009780D01*
X2756280Y3011560D01*
X2757380Y3013580D01*
X2758340Y3015840D01*
X2759160Y3018340D01*
X2759840Y3021080D01*
X2760400Y3024080D01*
X2760779Y3027300D01*
X2761019Y3030779D01*
X2761100Y3034500D01*
X2761019Y3038180D01*
X2760779Y3041620D01*
X2760400Y3044820D01*
X2759840Y3047760D01*
X2759160Y3050480D01*
X2758340Y3052940D01*
X2757380Y3055179D01*
X2756280Y3057160D01*
X2755040Y3058920D01*
X2753700Y3060419D01*
X2752220Y3061700D01*
X2750640Y3062760D01*
X2748940Y3063560D01*
X2747120Y3064140D01*
X2745220Y3064480D01*
G37*
G36*
X2353200Y3063600D02*
G01*
X2353200Y3005000D01*
X2359800Y3005000D01*
X2359800Y3023900D01*
X2370300Y3036300D01*
X2388300Y3005000D01*
X2395600Y3005000D01*
X2374500Y3041400D01*
X2392900Y3063600D01*
X2385300Y3063600D01*
X2360000Y3033399D01*
X2359800Y3033399D01*
X2359800Y3063600D01*
G37*
G36*
X2404300Y3063600D02*
G01*
X2404300Y3005000D01*
X2410500Y3005000D01*
X2410480Y3039380D01*
X2410220Y3046120D01*
X2409700Y3054900D01*
X2410100Y3054900D01*
X2416500Y3042900D01*
X2438500Y3005000D01*
X2445400Y3005000D01*
X2445400Y3063600D01*
X2439100Y3063600D01*
X2439120Y3029640D01*
X2439540Y3020400D01*
X2440000Y3013600D01*
X2439600Y3013600D01*
X2433200Y3025600D01*
X2411100Y3063600D01*
G37*
G36*
X2474000Y3063600D02*
G01*
X2462088Y3028700D01*
X2468300Y3028700D01*
X2474420Y3047980D01*
X2477300Y3058000D01*
X2477600Y3058000D01*
X2480580Y3048020D01*
X2486800Y3028700D01*
X2462088Y3028700D01*
X2454000Y3005000D01*
X2460600Y3005000D01*
X2466600Y3023500D01*
X2488400Y3023500D01*
X2494300Y3005000D01*
X2501300Y3005000D01*
X2481200Y3063600D01*
G37*
G36*
X2786900Y3063600D02*
G01*
X2784500Y3062280D01*
X2781760Y3061180D01*
X2778639Y3060299D01*
X2775100Y3059600D01*
X2775100Y3055299D01*
X2785400Y3055299D01*
X2785400Y3010400D01*
X2772300Y3010400D01*
X2772300Y3005000D01*
X2803800Y3005000D01*
X2803800Y3010400D01*
X2791900Y3010400D01*
X2791900Y3063600D01*
G37*
G36*
X2852900Y3049300D02*
G01*
X2851080Y3049140D01*
X2849340Y3048660D01*
X2847660Y3047880D01*
X2846040Y3046820D01*
X2844540Y3045520D01*
X2843140Y3043980D01*
X2841860Y3042240D01*
X2840700Y3040299D01*
X2840400Y3040299D01*
X2839800Y3048200D01*
X2834500Y3048200D01*
X2834500Y3005000D01*
X2841000Y3005000D01*
X2841000Y3033200D01*
X2842180Y3035800D01*
X2843480Y3037960D01*
X2844860Y3039720D01*
X2846280Y3041120D01*
X2847760Y3042160D01*
X2849220Y3042860D01*
X2850680Y3043260D01*
X2852100Y3043399D01*
X2854260Y3043240D01*
X2856200Y3042700D01*
X2857500Y3048399D01*
X2856420Y3048840D01*
X2855340Y3049120D01*
X2854200Y3049260D01*
G37*
G36*
X2879900Y3049300D02*
G01*
X2878060Y3049200D01*
X2876220Y3048900D01*
X2874440Y3048399D01*
X2872700Y3047720D01*
X2871040Y3046860D01*
X2869440Y3045800D01*
X2867940Y3044580D01*
X2866540Y3043200D01*
X2865260Y3041640D01*
X2864100Y3039940D01*
X2863080Y3038060D01*
X2862220Y3036060D01*
X2861540Y3033900D01*
X2861019Y3031600D01*
X2860810Y3030000D01*
X2867000Y3030000D01*
X2867559Y3033120D01*
X2868519Y3035899D01*
X2869820Y3038300D01*
X2871440Y3040299D01*
X2873320Y3041900D01*
X2875400Y3043060D01*
X2877640Y3043759D01*
X2880000Y3044000D01*
X2882500Y3043780D01*
X2884700Y3043100D01*
X2886620Y3042000D01*
X2888220Y3040460D01*
X2889500Y3038480D01*
X2890440Y3036060D01*
X2891000Y3033240D01*
X2891200Y3030000D01*
X2860810Y3030000D01*
X2860700Y3029160D01*
X2860600Y3026600D01*
X2860700Y3024000D01*
X2861019Y3021560D01*
X2861520Y3019240D01*
X2862200Y3017080D01*
X2863060Y3015059D01*
X2864080Y3013200D01*
X2865260Y3011520D01*
X2866580Y3009980D01*
X2868020Y3008600D01*
X2869600Y3007400D01*
X2871300Y3006380D01*
X2873080Y3005539D01*
X2874980Y3004860D01*
X2876940Y3004380D01*
X2879000Y3004100D01*
X2881100Y3004000D01*
X2883279Y3004100D01*
X2885320Y3004340D01*
X2887220Y3004760D01*
X2889020Y3005299D01*
X2890700Y3005960D01*
X2892280Y3006700D01*
X2895200Y3008399D01*
X2892799Y3012700D01*
X2890340Y3011220D01*
X2887720Y3010120D01*
X2884920Y3009440D01*
X2881900Y3009200D01*
X2879780Y3009340D01*
X2877820Y3009720D01*
X2875980Y3010340D01*
X2874280Y3011220D01*
X2872760Y3012300D01*
X2871380Y3013600D01*
X2870200Y3015100D01*
X2869180Y3016780D01*
X2868360Y3018639D01*
X2867740Y3020680D01*
X2867300Y3022860D01*
X2867100Y3025200D01*
X2896600Y3025200D01*
X2896820Y3026960D01*
X2896900Y3029100D01*
X2896780Y3032120D01*
X2896400Y3034940D01*
X2895760Y3037520D01*
X2894900Y3039900D01*
X2893780Y3042020D01*
X2892440Y3043880D01*
X2890880Y3045500D01*
X2889100Y3046840D01*
X2887120Y3047900D01*
X2884900Y3048680D01*
X2882500Y3049140D01*
G37*
G36*
X2928000Y3049300D02*
G01*
X2926100Y3049160D01*
X2924220Y3048800D01*
X2922380Y3048220D01*
X2920580Y3047440D01*
X2918840Y3046540D01*
X2915539Y3044380D01*
X2914000Y3043200D01*
X2913800Y3043200D01*
X2913200Y3048200D01*
X2907900Y3048200D01*
X2907900Y3014200D01*
X2914400Y3014200D01*
X2914400Y3037600D01*
X2917620Y3040260D01*
X2920659Y3042200D01*
X2923580Y3043399D01*
X2926400Y3043800D01*
X2928460Y3043660D01*
X2930299Y3043260D01*
X2931940Y3042580D01*
X2933380Y3041680D01*
X2934620Y3040539D01*
X2935659Y3039180D01*
X2936520Y3037620D01*
X2937220Y3035860D01*
X2937740Y3033920D01*
X2938120Y3031840D01*
X2938340Y3029580D01*
X2938399Y3027200D01*
X2938279Y3024560D01*
X2937960Y3022100D01*
X2937420Y3019840D01*
X2936700Y3017760D01*
X2935779Y3015899D01*
X2934720Y3014260D01*
X2933480Y3012840D01*
X2932100Y3011660D01*
X2930600Y3010740D01*
X2928960Y3010059D01*
X2927240Y3009640D01*
X2925400Y3009500D01*
X2922980Y3009740D01*
X2920280Y3010539D01*
X2917380Y3011980D01*
X2914400Y3014200D01*
X2907900Y3014200D01*
X2907900Y2986400D01*
X2914400Y2986400D01*
X2914400Y3001400D01*
X2914200Y3009000D01*
X2917280Y3006860D01*
X2920340Y3005299D01*
X2923380Y3004340D01*
X2926400Y3004000D01*
X2928260Y3004100D01*
X2930080Y3004400D01*
X2931840Y3004880D01*
X2933560Y3005560D01*
X2935200Y3006420D01*
X2936740Y3007460D01*
X2938200Y3008700D01*
X2939540Y3010100D01*
X2940779Y3011680D01*
X2941880Y3013420D01*
X2942860Y3015340D01*
X2943660Y3017420D01*
X2944320Y3019660D01*
X2944800Y3022040D01*
X2945100Y3024600D01*
X2945200Y3027300D01*
X2945120Y3029740D01*
X2944920Y3032060D01*
X2944580Y3034260D01*
X2944080Y3036340D01*
X2943460Y3038300D01*
X2942720Y3040100D01*
X2941820Y3041780D01*
X2940800Y3043279D01*
X2939640Y3044640D01*
X2938360Y3045840D01*
X2936960Y3046880D01*
X2935419Y3047740D01*
X2933740Y3048399D01*
X2931960Y3048900D01*
X2930040Y3049200D01*
G37*
G36*
X2975500Y3049300D02*
G01*
X2973680Y3049140D01*
X2971940Y3048660D01*
X2970240Y3047880D01*
X2968639Y3046820D01*
X2967120Y3045520D01*
X2965700Y3043980D01*
X2964380Y3042240D01*
X2963200Y3040299D01*
X2963000Y3040299D01*
X2962400Y3048200D01*
X2957100Y3048200D01*
X2957100Y3005000D01*
X2963600Y3005000D01*
X2963600Y3033200D01*
X2964760Y3035800D01*
X2966040Y3037960D01*
X2967420Y3039720D01*
X2968860Y3041120D01*
X2970320Y3042160D01*
X2971820Y3042860D01*
X2973279Y3043260D01*
X2974700Y3043399D01*
X2976820Y3043240D01*
X2978800Y3042700D01*
X2980000Y3048399D01*
X2978960Y3048840D01*
X2977900Y3049120D01*
X2976760Y3049260D01*
G37*
G36*
X3003000Y3049300D02*
G01*
X3001040Y3049200D01*
X2999100Y3048920D01*
X2997240Y3048440D01*
X2995440Y3047780D01*
X2993720Y3046940D01*
X2992080Y3045920D01*
X2990539Y3044720D01*
X2989120Y3043340D01*
X2987820Y3041820D01*
X2986660Y3040120D01*
X2985659Y3038240D01*
X2984800Y3036220D01*
X2984120Y3034040D01*
X2983620Y3031700D01*
X2983300Y3029220D01*
X2983200Y3026600D01*
X2989900Y3026600D01*
X2990000Y3029080D01*
X2990320Y3031420D01*
X2990860Y3033600D01*
X2991560Y3035600D01*
X2992460Y3037400D01*
X2993519Y3039020D01*
X2994760Y3040419D01*
X2996139Y3041600D01*
X2997660Y3042540D01*
X2999320Y3043240D01*
X3001100Y3043660D01*
X3003000Y3043800D01*
X3004900Y3043660D01*
X3006680Y3043240D01*
X3008360Y3042540D01*
X3009880Y3041600D01*
X3011280Y3040419D01*
X3012520Y3039020D01*
X3013600Y3037400D01*
X3014520Y3035600D01*
X3015240Y3033600D01*
X3015760Y3031420D01*
X3016080Y3029080D01*
X3016200Y3026600D01*
X3016080Y3024100D01*
X3015760Y3021740D01*
X3015240Y3019560D01*
X3014520Y3017559D01*
X3013600Y3015740D01*
X3012520Y3014140D01*
X3011280Y3012740D01*
X3009880Y3011580D01*
X3008360Y3010640D01*
X3006680Y3009960D01*
X3004900Y3009540D01*
X3003000Y3009400D01*
X3001100Y3009540D01*
X2999320Y3009960D01*
X2997660Y3010640D01*
X2996139Y3011580D01*
X2994760Y3012740D01*
X2993519Y3014140D01*
X2992460Y3015740D01*
X2991560Y3017559D01*
X2990860Y3019560D01*
X2990320Y3021740D01*
X2990000Y3024100D01*
X2989900Y3026600D01*
X2983200Y3026600D01*
X2983300Y3023980D01*
X2983620Y3021520D01*
X2984120Y3019200D01*
X2984800Y3017040D01*
X2985659Y3015020D01*
X2986660Y3013159D01*
X2987820Y3011460D01*
X2989120Y3009940D01*
X2990539Y3008580D01*
X2992080Y3007380D01*
X2993720Y3006360D01*
X2995440Y3005520D01*
X2997240Y3004860D01*
X2999100Y3004380D01*
X3001040Y3004100D01*
X3003000Y3004000D01*
X3004980Y3004100D01*
X3006900Y3004380D01*
X3008780Y3004860D01*
X3010580Y3005520D01*
X3012320Y3006360D01*
X3013960Y3007380D01*
X3015500Y3008580D01*
X3016920Y3009940D01*
X3018220Y3011460D01*
X3019400Y3013159D01*
X3020419Y3015020D01*
X3021280Y3017040D01*
X3021980Y3019200D01*
X3022480Y3021520D01*
X3022799Y3023980D01*
X3022900Y3026600D01*
X3022799Y3029220D01*
X3022480Y3031700D01*
X3021980Y3034040D01*
X3021280Y3036220D01*
X3020419Y3038240D01*
X3019400Y3040120D01*
X3018220Y3041820D01*
X3016920Y3043360D01*
X3015500Y3044720D01*
X3013960Y3045920D01*
X3012320Y3046940D01*
X3010580Y3047780D01*
X3008780Y3048440D01*
X3006900Y3048920D01*
X3004980Y3049200D01*
G37*
G36*
X2532600Y904599D02*
G01*
X2530920Y904539D01*
X2529280Y904340D01*
X2527660Y904000D01*
X2526080Y903520D01*
X2524540Y902900D01*
X2523040Y902120D01*
X2521600Y901180D01*
X2520220Y900080D01*
X2518920Y898820D01*
X2517700Y897400D01*
X2516560Y895800D01*
X2515500Y894020D01*
X2514560Y892060D01*
X2513700Y889900D01*
X2512960Y887560D01*
X2512360Y885020D01*
X2511860Y882280D01*
X2511500Y879320D01*
X2511280Y876180D01*
X2511200Y872800D01*
X2511362Y868600D01*
X2517500Y868600D01*
X2519020Y870540D01*
X2520600Y872180D01*
X2522200Y873520D01*
X2523800Y874599D01*
X2525380Y875400D01*
X2526920Y875960D01*
X2528400Y876300D01*
X2529800Y876400D01*
X2532460Y876160D01*
X2534740Y875420D01*
X2536660Y874260D01*
X2538200Y872680D01*
X2539400Y870740D01*
X2540240Y868420D01*
X2540740Y865800D01*
X2540900Y862900D01*
X2540700Y859980D01*
X2540100Y857340D01*
X2539180Y855000D01*
X2537920Y853020D01*
X2536400Y851400D01*
X2534660Y850200D01*
X2532700Y849460D01*
X2530600Y849200D01*
X2528720Y849340D01*
X2526980Y849780D01*
X2525380Y850480D01*
X2523920Y851480D01*
X2522600Y852740D01*
X2521420Y854260D01*
X2520400Y856020D01*
X2519520Y858060D01*
X2518780Y860340D01*
X2518200Y862860D01*
X2517780Y865620D01*
X2517500Y868600D01*
X2511362Y868600D01*
X2511580Y866080D01*
X2512020Y863040D01*
X2512640Y860240D01*
X2513420Y857660D01*
X2514360Y855300D01*
X2515440Y853160D01*
X2516660Y851240D01*
X2518020Y849539D01*
X2519500Y848080D01*
X2521100Y846840D01*
X2522800Y845819D01*
X2524620Y845020D01*
X2526520Y844460D01*
X2528520Y844120D01*
X2530600Y844000D01*
X2532780Y844160D01*
X2534880Y844620D01*
X2536880Y845360D01*
X2538760Y846380D01*
X2540520Y847680D01*
X2542100Y849220D01*
X2543500Y850980D01*
X2544700Y852980D01*
X2545680Y855180D01*
X2546400Y857580D01*
X2546840Y860160D01*
X2547000Y862900D01*
X2546880Y865819D01*
X2546500Y868500D01*
X2545880Y870900D01*
X2545020Y873060D01*
X2543960Y874980D01*
X2542660Y876620D01*
X2541160Y878020D01*
X2539480Y879160D01*
X2537600Y880060D01*
X2535540Y880699D01*
X2533300Y881080D01*
X2530900Y881200D01*
X2529120Y881080D01*
X2527320Y880699D01*
X2525520Y880120D01*
X2523740Y879300D01*
X2522020Y878280D01*
X2520360Y877060D01*
X2518820Y875660D01*
X2517400Y874100D01*
X2517540Y877460D01*
X2517820Y880540D01*
X2518240Y883360D01*
X2518780Y885920D01*
X2519460Y888199D01*
X2520240Y890260D01*
X2521140Y892080D01*
X2522160Y893660D01*
X2523240Y895040D01*
X2524420Y896180D01*
X2525680Y897140D01*
X2527020Y897900D01*
X2528420Y898480D01*
X2529860Y898880D01*
X2531360Y899120D01*
X2532900Y899200D01*
X2535500Y898900D01*
X2538020Y898000D01*
X2540320Y896580D01*
X2542300Y894700D01*
X2546000Y898800D01*
X2544760Y900000D01*
X2543400Y901100D01*
X2541940Y902080D01*
X2540340Y902940D01*
X2538640Y903640D01*
X2536780Y904160D01*
X2534760Y904479D01*
G37*
G36*
X2572600Y904599D02*
G01*
X2570560Y904479D01*
X2568639Y904140D01*
X2566820Y903560D01*
X2565100Y902760D01*
X2563500Y901700D01*
X2562020Y900420D01*
X2560659Y898920D01*
X2559440Y897159D01*
X2558340Y895180D01*
X2557360Y892940D01*
X2556540Y890480D01*
X2555860Y887760D01*
X2555300Y884820D01*
X2554920Y881620D01*
X2554680Y878180D01*
X2554600Y874500D01*
X2560899Y874500D01*
X2561000Y878580D01*
X2561280Y882280D01*
X2561740Y885580D01*
X2562380Y888520D01*
X2563180Y891100D01*
X2564120Y893319D01*
X2565220Y895160D01*
X2566460Y896680D01*
X2567820Y897820D01*
X2569300Y898660D01*
X2570899Y899140D01*
X2572600Y899300D01*
X2574260Y899140D01*
X2575820Y898660D01*
X2577260Y897820D01*
X2578600Y896680D01*
X2579820Y895160D01*
X2580899Y893319D01*
X2581840Y891100D01*
X2582620Y888520D01*
X2583260Y885580D01*
X2583720Y882280D01*
X2584000Y878580D01*
X2584100Y874500D01*
X2584000Y870340D01*
X2583720Y866580D01*
X2583260Y863199D01*
X2582620Y860200D01*
X2581840Y857580D01*
X2580899Y855320D01*
X2579820Y853439D01*
X2578600Y851900D01*
X2577260Y850699D01*
X2575820Y849860D01*
X2574260Y849360D01*
X2572600Y849200D01*
X2570899Y849360D01*
X2569300Y849860D01*
X2567820Y850699D01*
X2566460Y851900D01*
X2565220Y853439D01*
X2564120Y855320D01*
X2563180Y857580D01*
X2562380Y860200D01*
X2561740Y863199D01*
X2561280Y866580D01*
X2561000Y870340D01*
X2560899Y874500D01*
X2554600Y874500D01*
X2554680Y870780D01*
X2554920Y867300D01*
X2555300Y864080D01*
X2555860Y861080D01*
X2556540Y858340D01*
X2557360Y855840D01*
X2558340Y853580D01*
X2559440Y851560D01*
X2560659Y849780D01*
X2562020Y848240D01*
X2563500Y846940D01*
X2565100Y845879D01*
X2566820Y845060D01*
X2568639Y844460D01*
X2570560Y844120D01*
X2572600Y844000D01*
X2574600Y844120D01*
X2576500Y844460D01*
X2578300Y845060D01*
X2579980Y845879D01*
X2581560Y846940D01*
X2583020Y848240D01*
X2584360Y849780D01*
X2585580Y851560D01*
X2586680Y853580D01*
X2587640Y855840D01*
X2588460Y858340D01*
X2589160Y861080D01*
X2589700Y864080D01*
X2590080Y867300D01*
X2590320Y870780D01*
X2590400Y874500D01*
X2590320Y878180D01*
X2590080Y881620D01*
X2589700Y884820D01*
X2589160Y887760D01*
X2588460Y890480D01*
X2587640Y892940D01*
X2586680Y895180D01*
X2585580Y897159D01*
X2584360Y898920D01*
X2583020Y900420D01*
X2581560Y901700D01*
X2579980Y902760D01*
X2578300Y903560D01*
X2576500Y904140D01*
X2574600Y904479D01*
G37*
G36*
X2615200Y904599D02*
G01*
X2612760Y904460D01*
X2610460Y904080D01*
X2608300Y903439D01*
X2606240Y902620D01*
X2604300Y901600D01*
X2602440Y900420D01*
X2600680Y899120D01*
X2599000Y897700D01*
X2602600Y893500D01*
X2605260Y895780D01*
X2608240Y897600D01*
X2611500Y898820D01*
X2615000Y899300D01*
X2617240Y899100D01*
X2619260Y898560D01*
X2621000Y897720D01*
X2622460Y896580D01*
X2623639Y895200D01*
X2624500Y893540D01*
X2625020Y891680D01*
X2625200Y889599D01*
X2625120Y888000D01*
X2624840Y886480D01*
X2624360Y885040D01*
X2623660Y883700D01*
X2622740Y882480D01*
X2621560Y881360D01*
X2620140Y880380D01*
X2618440Y879560D01*
X2616460Y878900D01*
X2614200Y878400D01*
X2611600Y878100D01*
X2608700Y878000D01*
X2608700Y872900D01*
X2611920Y872800D01*
X2614800Y872500D01*
X2617340Y872020D01*
X2619560Y871360D01*
X2621480Y870540D01*
X2623100Y869539D01*
X2624440Y868420D01*
X2625500Y867140D01*
X2626300Y865720D01*
X2626860Y864200D01*
X2627200Y862560D01*
X2627300Y860800D01*
X2627060Y858300D01*
X2626400Y856060D01*
X2625299Y854120D01*
X2623860Y852480D01*
X2622060Y851160D01*
X2619960Y850200D01*
X2617600Y849599D01*
X2615000Y849400D01*
X2612520Y849539D01*
X2610260Y849980D01*
X2608200Y850620D01*
X2606320Y851480D01*
X2604600Y852520D01*
X2603020Y853660D01*
X2601560Y854900D01*
X2600200Y856200D01*
X2596900Y852000D01*
X2598380Y850480D01*
X2600080Y849020D01*
X2601980Y847660D01*
X2604120Y846460D01*
X2606520Y845460D01*
X2609200Y844680D01*
X2612140Y844180D01*
X2615400Y844000D01*
X2617919Y844120D01*
X2620340Y844500D01*
X2622620Y845140D01*
X2624740Y846000D01*
X2626700Y847080D01*
X2628460Y848400D01*
X2630000Y849940D01*
X2631320Y851680D01*
X2632380Y853620D01*
X2633159Y855759D01*
X2633639Y858080D01*
X2633800Y860600D01*
X2633540Y863500D01*
X2632820Y866140D01*
X2631660Y868480D01*
X2630160Y870540D01*
X2628320Y872280D01*
X2626200Y873720D01*
X2623880Y874820D01*
X2621400Y875600D01*
X2621400Y875900D01*
X2623620Y876840D01*
X2625640Y878020D01*
X2627420Y879440D01*
X2628920Y881080D01*
X2630140Y882980D01*
X2631040Y885120D01*
X2631600Y887480D01*
X2631800Y890100D01*
X2631660Y892320D01*
X2631240Y894360D01*
X2630560Y896240D01*
X2629620Y897940D01*
X2628480Y899460D01*
X2627100Y900800D01*
X2625520Y901940D01*
X2623780Y902880D01*
X2621840Y903620D01*
X2619760Y904160D01*
X2617540Y904500D01*
G37*
G36*
X2658600Y904599D02*
G01*
X2656000Y904440D01*
X2653560Y903980D01*
X2651300Y903240D01*
X2649160Y902240D01*
X2647140Y901000D01*
X2645220Y899539D01*
X2643380Y897860D01*
X2641600Y896000D01*
X2645400Y892400D01*
X2646720Y893820D01*
X2648100Y895120D01*
X2649560Y896300D01*
X2651080Y897320D01*
X2652679Y898139D01*
X2654360Y898780D01*
X2656100Y899160D01*
X2657900Y899300D01*
X2660560Y899060D01*
X2662840Y898379D01*
X2664760Y897300D01*
X2666300Y895840D01*
X2667500Y894060D01*
X2668340Y892000D01*
X2668840Y889700D01*
X2669000Y887200D01*
X2668940Y885680D01*
X2668440Y882520D01*
X2667420Y879240D01*
X2665860Y875819D01*
X2664880Y874040D01*
X2662520Y870380D01*
X2659580Y866520D01*
X2656080Y862460D01*
X2651980Y858180D01*
X2647300Y853660D01*
X2642000Y848900D01*
X2642000Y845000D01*
X2678200Y845000D01*
X2678200Y850600D01*
X2659120Y850560D01*
X2651800Y850100D01*
X2655960Y854100D01*
X2659780Y858040D01*
X2663240Y861880D01*
X2666320Y865660D01*
X2669000Y869400D01*
X2670179Y871240D01*
X2672200Y874900D01*
X2673740Y878540D01*
X2674800Y882140D01*
X2675120Y883920D01*
X2675340Y885720D01*
X2675400Y887500D01*
X2675260Y890020D01*
X2674880Y892380D01*
X2674240Y894560D01*
X2673360Y896560D01*
X2672240Y898360D01*
X2670899Y899940D01*
X2669340Y901320D01*
X2667580Y902480D01*
X2665620Y903400D01*
X2663460Y904060D01*
X2661120Y904460D01*
G37*
G36*
X2708300Y904599D02*
G01*
X2706620Y904539D01*
X2704980Y904340D01*
X2703360Y904000D01*
X2701780Y903520D01*
X2700240Y902900D01*
X2698740Y902120D01*
X2697300Y901180D01*
X2695920Y900080D01*
X2694620Y898820D01*
X2693399Y897400D01*
X2692260Y895800D01*
X2691200Y894020D01*
X2690260Y892060D01*
X2689400Y889900D01*
X2688660Y887560D01*
X2688060Y885020D01*
X2687559Y882280D01*
X2687200Y879320D01*
X2686980Y876180D01*
X2686900Y872800D01*
X2687057Y868600D01*
X2693200Y868600D01*
X2694720Y870540D01*
X2696280Y872180D01*
X2697880Y873520D01*
X2699460Y874599D01*
X2701040Y875400D01*
X2702580Y875960D01*
X2704080Y876300D01*
X2705500Y876400D01*
X2708140Y876160D01*
X2710400Y875420D01*
X2712300Y874260D01*
X2713860Y872680D01*
X2715059Y870740D01*
X2715920Y868420D01*
X2716440Y865800D01*
X2716600Y862900D01*
X2716400Y859980D01*
X2715800Y857340D01*
X2714860Y855000D01*
X2713620Y853020D01*
X2712080Y851400D01*
X2710320Y850200D01*
X2708340Y849460D01*
X2706200Y849200D01*
X2704340Y849340D01*
X2702620Y849780D01*
X2701040Y850480D01*
X2699580Y851480D01*
X2698279Y852740D01*
X2697120Y854260D01*
X2696100Y856020D01*
X2695220Y858060D01*
X2694480Y860340D01*
X2693900Y862860D01*
X2693480Y865620D01*
X2693200Y868600D01*
X2687057Y868600D01*
X2687260Y866080D01*
X2687720Y863040D01*
X2688340Y860240D01*
X2689120Y857660D01*
X2690059Y855300D01*
X2691139Y853160D01*
X2692340Y851240D01*
X2693700Y849539D01*
X2695179Y848080D01*
X2696760Y846840D01*
X2698460Y845819D01*
X2700260Y845020D01*
X2702160Y844460D01*
X2704140Y844120D01*
X2706200Y844000D01*
X2708399Y844160D01*
X2710520Y844620D01*
X2712540Y845360D01*
X2714440Y846380D01*
X2716200Y847680D01*
X2717780Y849220D01*
X2719200Y850980D01*
X2720400Y852980D01*
X2721380Y855180D01*
X2722100Y857580D01*
X2722540Y860160D01*
X2722700Y862900D01*
X2722580Y865819D01*
X2722200Y868500D01*
X2721580Y870900D01*
X2720720Y873060D01*
X2719660Y874980D01*
X2718360Y876620D01*
X2716860Y878020D01*
X2715179Y879160D01*
X2713300Y880060D01*
X2711240Y880699D01*
X2709000Y881080D01*
X2706600Y881200D01*
X2704780Y881080D01*
X2702980Y880699D01*
X2701160Y880120D01*
X2699380Y879300D01*
X2697660Y878280D01*
X2696019Y877060D01*
X2694440Y875660D01*
X2693000Y874100D01*
X2693140Y877460D01*
X2693440Y880540D01*
X2693880Y883360D01*
X2694440Y885920D01*
X2695120Y888199D01*
X2695920Y890260D01*
X2696840Y892080D01*
X2697840Y893660D01*
X2698940Y895040D01*
X2700120Y896180D01*
X2701380Y897140D01*
X2702720Y897900D01*
X2704120Y898480D01*
X2705560Y898880D01*
X2707060Y899120D01*
X2708600Y899200D01*
X2711200Y898900D01*
X2713720Y898000D01*
X2716019Y896580D01*
X2718000Y894700D01*
X2721700Y898800D01*
X2720440Y900000D01*
X2719080Y901100D01*
X2717600Y902080D01*
X2716019Y902940D01*
X2714280Y903640D01*
X2712440Y904160D01*
X2710440Y904479D01*
G37*
G36*
X2748200Y904599D02*
G01*
X2746180Y904479D01*
X2744260Y904140D01*
X2742460Y903560D01*
X2740740Y902760D01*
X2739160Y901700D01*
X2737679Y900420D01*
X2736320Y898920D01*
X2735080Y897159D01*
X2733960Y895180D01*
X2733000Y892940D01*
X2732160Y890480D01*
X2731460Y887760D01*
X2730920Y884820D01*
X2730520Y881620D01*
X2730280Y878180D01*
X2730200Y874500D01*
X2736600Y874500D01*
X2736700Y878580D01*
X2736980Y882280D01*
X2737440Y885580D01*
X2738080Y888520D01*
X2738860Y891100D01*
X2739820Y893319D01*
X2740899Y895160D01*
X2742120Y896680D01*
X2743480Y897820D01*
X2744940Y898660D01*
X2746520Y899140D01*
X2748200Y899300D01*
X2749880Y899140D01*
X2751460Y898660D01*
X2752919Y897820D01*
X2754280Y896680D01*
X2755500Y895160D01*
X2756580Y893319D01*
X2757540Y891100D01*
X2758320Y888520D01*
X2758960Y885580D01*
X2759420Y882280D01*
X2759700Y878580D01*
X2759800Y874500D01*
X2759700Y870340D01*
X2759420Y866580D01*
X2758960Y863199D01*
X2758320Y860200D01*
X2757540Y857580D01*
X2756580Y855320D01*
X2755500Y853439D01*
X2754280Y851900D01*
X2752919Y850699D01*
X2751460Y849860D01*
X2749880Y849360D01*
X2748200Y849200D01*
X2746520Y849360D01*
X2744940Y849860D01*
X2743480Y850699D01*
X2742120Y851900D01*
X2740899Y853439D01*
X2739820Y855320D01*
X2738860Y857580D01*
X2738080Y860200D01*
X2737440Y863199D01*
X2736980Y866580D01*
X2736700Y870340D01*
X2736600Y874500D01*
X2730200Y874500D01*
X2730280Y870780D01*
X2730520Y867300D01*
X2730920Y864080D01*
X2731460Y861080D01*
X2732160Y858340D01*
X2733000Y855840D01*
X2733960Y853580D01*
X2735080Y851560D01*
X2736320Y849780D01*
X2737679Y848240D01*
X2739160Y846940D01*
X2740740Y845879D01*
X2742460Y845060D01*
X2744260Y844460D01*
X2746180Y844120D01*
X2748200Y844000D01*
X2750220Y844120D01*
X2752120Y844460D01*
X2753940Y845060D01*
X2755640Y845879D01*
X2757220Y846940D01*
X2758700Y848240D01*
X2760040Y849780D01*
X2761280Y851560D01*
X2762380Y853580D01*
X2763340Y855840D01*
X2764160Y858340D01*
X2764840Y861080D01*
X2765400Y864080D01*
X2765779Y867300D01*
X2766019Y870780D01*
X2766100Y874500D01*
X2766019Y878180D01*
X2765779Y881620D01*
X2765400Y884820D01*
X2764840Y887760D01*
X2764160Y890480D01*
X2763340Y892940D01*
X2762380Y895180D01*
X2761280Y897159D01*
X2760040Y898920D01*
X2758700Y900420D01*
X2757220Y901700D01*
X2755640Y902760D01*
X2753940Y903560D01*
X2752120Y904140D01*
X2750220Y904479D01*
G37*
G36*
X2358200Y903600D02*
G01*
X2358200Y845000D01*
X2364800Y845000D01*
X2364800Y863900D01*
X2375300Y876300D01*
X2393300Y845000D01*
X2400600Y845000D01*
X2379500Y881400D01*
X2397900Y903600D01*
X2390300Y903600D01*
X2365000Y873400D01*
X2364800Y873400D01*
X2364800Y903600D01*
G37*
G36*
X2409300Y903600D02*
G01*
X2409300Y845000D01*
X2415500Y845000D01*
X2415480Y879380D01*
X2415220Y886120D01*
X2414700Y894900D01*
X2415100Y894900D01*
X2421500Y882900D01*
X2443500Y845000D01*
X2450400Y845000D01*
X2450400Y903600D01*
X2444100Y903600D01*
X2444120Y869640D01*
X2444540Y860400D01*
X2445000Y853600D01*
X2444600Y853600D01*
X2438200Y865600D01*
X2416100Y903600D01*
G37*
G36*
X2479000Y903600D02*
G01*
X2467088Y868700D01*
X2473300Y868700D01*
X2479420Y887980D01*
X2482300Y898000D01*
X2482600Y898000D01*
X2485580Y888020D01*
X2491800Y868700D01*
X2467088Y868700D01*
X2459000Y845000D01*
X2465600Y845000D01*
X2471600Y863500D01*
X2493400Y863500D01*
X2499300Y845000D01*
X2506300Y845000D01*
X2486200Y903600D01*
G37*
G36*
X2791900Y903600D02*
G01*
X2789500Y902280D01*
X2786760Y901180D01*
X2783639Y900300D01*
X2780100Y899599D01*
X2780100Y895300D01*
X2790400Y895300D01*
X2790400Y850400D01*
X2777300Y850400D01*
X2777300Y845000D01*
X2808800Y845000D01*
X2808800Y850400D01*
X2796900Y850400D01*
X2796900Y903600D01*
G37*
G36*
X2857900Y889300D02*
G01*
X2856080Y889140D01*
X2854340Y888660D01*
X2852660Y887880D01*
X2851040Y886820D01*
X2849540Y885520D01*
X2848140Y883980D01*
X2846860Y882240D01*
X2845700Y880300D01*
X2845400Y880300D01*
X2844800Y888199D01*
X2839500Y888199D01*
X2839500Y845000D01*
X2846000Y845000D01*
X2846000Y873199D01*
X2847180Y875800D01*
X2848480Y877960D01*
X2849860Y879720D01*
X2851280Y881120D01*
X2852760Y882159D01*
X2854220Y882860D01*
X2855680Y883259D01*
X2857100Y883400D01*
X2859260Y883240D01*
X2861200Y882700D01*
X2862500Y888400D01*
X2861420Y888840D01*
X2860340Y889120D01*
X2859200Y889260D01*
G37*
G36*
X2884900Y889300D02*
G01*
X2883060Y889200D01*
X2881220Y888900D01*
X2879440Y888400D01*
X2877700Y887720D01*
X2876040Y886860D01*
X2874440Y885800D01*
X2872940Y884580D01*
X2871540Y883199D01*
X2870260Y881640D01*
X2869100Y879940D01*
X2868080Y878060D01*
X2867220Y876060D01*
X2866540Y873900D01*
X2866019Y871600D01*
X2865810Y870000D01*
X2872000Y870000D01*
X2872559Y873120D01*
X2873519Y875900D01*
X2874820Y878300D01*
X2876440Y880300D01*
X2878320Y881900D01*
X2880400Y883060D01*
X2882640Y883760D01*
X2885000Y884000D01*
X2887500Y883780D01*
X2889700Y883100D01*
X2891620Y882000D01*
X2893220Y880460D01*
X2894500Y878480D01*
X2895440Y876060D01*
X2896000Y873240D01*
X2896200Y870000D01*
X2865810Y870000D01*
X2865700Y869160D01*
X2865600Y866600D01*
X2865700Y864000D01*
X2866019Y861560D01*
X2866520Y859240D01*
X2867200Y857080D01*
X2868060Y855060D01*
X2869080Y853199D01*
X2870260Y851520D01*
X2871580Y849980D01*
X2873020Y848600D01*
X2874600Y847400D01*
X2876300Y846380D01*
X2878080Y845540D01*
X2879980Y844860D01*
X2881940Y844380D01*
X2884000Y844100D01*
X2886100Y844000D01*
X2888279Y844100D01*
X2890320Y844340D01*
X2892220Y844760D01*
X2894020Y845300D01*
X2895700Y845960D01*
X2897280Y846700D01*
X2900200Y848400D01*
X2897799Y852700D01*
X2895340Y851220D01*
X2892720Y850120D01*
X2889920Y849440D01*
X2886900Y849200D01*
X2884780Y849340D01*
X2882820Y849720D01*
X2880980Y850340D01*
X2879280Y851220D01*
X2877760Y852300D01*
X2876380Y853600D01*
X2875200Y855100D01*
X2874180Y856780D01*
X2873360Y858640D01*
X2872740Y860680D01*
X2872300Y862860D01*
X2872100Y865200D01*
X2901600Y865200D01*
X2901820Y866960D01*
X2901900Y869100D01*
X2901780Y872120D01*
X2901400Y874940D01*
X2900760Y877520D01*
X2899900Y879900D01*
X2898780Y882020D01*
X2897440Y883880D01*
X2895880Y885500D01*
X2894100Y886840D01*
X2892120Y887900D01*
X2889900Y888680D01*
X2887500Y889140D01*
G37*
G36*
X2933000Y889300D02*
G01*
X2931100Y889160D01*
X2929220Y888800D01*
X2927380Y888220D01*
X2925580Y887440D01*
X2923840Y886540D01*
X2920539Y884380D01*
X2919000Y883199D01*
X2918800Y883199D01*
X2918200Y888199D01*
X2912900Y888199D01*
X2912900Y854200D01*
X2919400Y854200D01*
X2919400Y877600D01*
X2922620Y880260D01*
X2925659Y882200D01*
X2928580Y883400D01*
X2931400Y883800D01*
X2933460Y883660D01*
X2935299Y883259D01*
X2936940Y882580D01*
X2938380Y881680D01*
X2939620Y880540D01*
X2940659Y879180D01*
X2941520Y877620D01*
X2942220Y875860D01*
X2942740Y873920D01*
X2943120Y871840D01*
X2943340Y869580D01*
X2943399Y867200D01*
X2943279Y864560D01*
X2942960Y862099D01*
X2942420Y859840D01*
X2941700Y857760D01*
X2940779Y855900D01*
X2939720Y854260D01*
X2938480Y852840D01*
X2937100Y851660D01*
X2935600Y850740D01*
X2933960Y850060D01*
X2932240Y849640D01*
X2930400Y849500D01*
X2927980Y849740D01*
X2925280Y850540D01*
X2922380Y851979D01*
X2919400Y854200D01*
X2912900Y854200D01*
X2912900Y826400D01*
X2919400Y826400D01*
X2919400Y841400D01*
X2919200Y849000D01*
X2922280Y846860D01*
X2925340Y845300D01*
X2928380Y844340D01*
X2931400Y844000D01*
X2933260Y844100D01*
X2935080Y844400D01*
X2936840Y844880D01*
X2938560Y845560D01*
X2940200Y846420D01*
X2941740Y847460D01*
X2943200Y848700D01*
X2944540Y850100D01*
X2945779Y851680D01*
X2946880Y853420D01*
X2947860Y855340D01*
X2948660Y857420D01*
X2949320Y859659D01*
X2949800Y862039D01*
X2950100Y864599D01*
X2950200Y867300D01*
X2950120Y869740D01*
X2949920Y872060D01*
X2949580Y874260D01*
X2949080Y876340D01*
X2948460Y878300D01*
X2947720Y880100D01*
X2946820Y881780D01*
X2945800Y883280D01*
X2944640Y884640D01*
X2943360Y885840D01*
X2941960Y886880D01*
X2940419Y887740D01*
X2938740Y888400D01*
X2936960Y888900D01*
X2935040Y889200D01*
G37*
G36*
X2980500Y889300D02*
G01*
X2978680Y889140D01*
X2976940Y888660D01*
X2975240Y887880D01*
X2973639Y886820D01*
X2972120Y885520D01*
X2970700Y883980D01*
X2969380Y882240D01*
X2968200Y880300D01*
X2968000Y880300D01*
X2967400Y888199D01*
X2962100Y888199D01*
X2962100Y845000D01*
X2968600Y845000D01*
X2968600Y873199D01*
X2969760Y875800D01*
X2971040Y877960D01*
X2972420Y879720D01*
X2973860Y881120D01*
X2975320Y882159D01*
X2976820Y882860D01*
X2978279Y883259D01*
X2979700Y883400D01*
X2981820Y883240D01*
X2983800Y882700D01*
X2985000Y888400D01*
X2983960Y888840D01*
X2982900Y889120D01*
X2981760Y889260D01*
G37*
G36*
X3008000Y889300D02*
G01*
X3006040Y889200D01*
X3004100Y888920D01*
X3002240Y888439D01*
X3000440Y887780D01*
X2998720Y886940D01*
X2997080Y885920D01*
X2995539Y884720D01*
X2994120Y883340D01*
X2992820Y881820D01*
X2991660Y880120D01*
X2990659Y878240D01*
X2989800Y876220D01*
X2989120Y874040D01*
X2988620Y871700D01*
X2988300Y869220D01*
X2988200Y866600D01*
X2994900Y866600D01*
X2995000Y869080D01*
X2995320Y871420D01*
X2995860Y873600D01*
X2996560Y875600D01*
X2997460Y877400D01*
X2998519Y879020D01*
X2999760Y880420D01*
X3001139Y881600D01*
X3002660Y882540D01*
X3004320Y883240D01*
X3006100Y883660D01*
X3008000Y883800D01*
X3009900Y883660D01*
X3011680Y883240D01*
X3013360Y882540D01*
X3014880Y881600D01*
X3016280Y880420D01*
X3017520Y879020D01*
X3018600Y877400D01*
X3019520Y875600D01*
X3020240Y873600D01*
X3020760Y871420D01*
X3021080Y869080D01*
X3021200Y866600D01*
X3021080Y864100D01*
X3020760Y861740D01*
X3020240Y859560D01*
X3019520Y857560D01*
X3018600Y855740D01*
X3017520Y854140D01*
X3016280Y852740D01*
X3014880Y851580D01*
X3013360Y850639D01*
X3011680Y849960D01*
X3009900Y849539D01*
X3008000Y849400D01*
X3006100Y849539D01*
X3004320Y849960D01*
X3002660Y850639D01*
X3001139Y851580D01*
X2999760Y852740D01*
X2998519Y854140D01*
X2997460Y855740D01*
X2996560Y857560D01*
X2995860Y859560D01*
X2995320Y861740D01*
X2995000Y864100D01*
X2994900Y866600D01*
X2988200Y866600D01*
X2988300Y863980D01*
X2988620Y861520D01*
X2989120Y859200D01*
X2989800Y857039D01*
X2990659Y855020D01*
X2991660Y853160D01*
X2992820Y851460D01*
X2994120Y849940D01*
X2995539Y848580D01*
X2997080Y847380D01*
X2998720Y846360D01*
X3000440Y845520D01*
X3002240Y844860D01*
X3004100Y844380D01*
X3006040Y844100D01*
X3008000Y844000D01*
X3009980Y844100D01*
X3011900Y844380D01*
X3013780Y844860D01*
X3015580Y845520D01*
X3017320Y846360D01*
X3018960Y847380D01*
X3020500Y848580D01*
X3021920Y849940D01*
X3023220Y851460D01*
X3024400Y853160D01*
X3025419Y855020D01*
X3026280Y857039D01*
X3026980Y859200D01*
X3027480Y861520D01*
X3027799Y863980D01*
X3027900Y866600D01*
X3027799Y869220D01*
X3027480Y871700D01*
X3026980Y874040D01*
X3026280Y876220D01*
X3025419Y878240D01*
X3024400Y880120D01*
X3023220Y881820D01*
X3021920Y883360D01*
X3020500Y884720D01*
X3018960Y885920D01*
X3017320Y886940D01*
X3015580Y887780D01*
X3013780Y888439D01*
X3011900Y888920D01*
X3009980Y889200D01*
G37*
G36*
X3147600Y2973700D02*
G01*
X3147600Y2917900D01*
X3148000Y2914100D01*
X3149260Y2911320D01*
X3151440Y2909580D01*
X3154600Y2909000D01*
X3156900Y2909140D01*
X3158600Y2909500D01*
X3157600Y2914600D01*
X3156700Y2914420D01*
X3156100Y2914400D01*
X3155320Y2914580D01*
X3154680Y2915120D01*
X3154260Y2916040D01*
X3154100Y2917400D01*
X3154100Y2973700D01*
G37*
G36*
X3219600Y2969600D02*
G01*
X3216960Y2969440D01*
X3214520Y2968980D01*
X3212260Y2968240D01*
X3210120Y2967240D01*
X3208120Y2966000D01*
X3206220Y2964540D01*
X3204380Y2962860D01*
X3202600Y2961000D01*
X3206400Y2957400D01*
X3207720Y2958820D01*
X3209100Y2960120D01*
X3210560Y2961300D01*
X3212080Y2962320D01*
X3213680Y2963140D01*
X3215360Y2963780D01*
X3217100Y2964160D01*
X3218900Y2964300D01*
X3221560Y2964060D01*
X3223840Y2963380D01*
X3225760Y2962300D01*
X3227300Y2960840D01*
X3228500Y2959060D01*
X3229340Y2957000D01*
X3229840Y2954700D01*
X3230000Y2952200D01*
X3229940Y2950680D01*
X3229440Y2947520D01*
X3228420Y2944240D01*
X3226860Y2940820D01*
X3225880Y2939040D01*
X3223519Y2935380D01*
X3220580Y2931520D01*
X3217080Y2927460D01*
X3212980Y2923180D01*
X3208300Y2918660D01*
X3203000Y2913900D01*
X3203000Y2910000D01*
X3239200Y2910000D01*
X3239200Y2915600D01*
X3220080Y2915560D01*
X3212799Y2915100D01*
X3216940Y2919100D01*
X3220740Y2923039D01*
X3224200Y2926880D01*
X3227280Y2930659D01*
X3229960Y2934400D01*
X3232220Y2938080D01*
X3234000Y2941720D01*
X3234720Y2943540D01*
X3235320Y2945340D01*
X3235779Y2947140D01*
X3236120Y2948920D01*
X3236340Y2950720D01*
X3236400Y2952500D01*
X3236259Y2955020D01*
X3235880Y2957380D01*
X3235240Y2959560D01*
X3234360Y2961560D01*
X3233240Y2963360D01*
X3231900Y2964940D01*
X3230340Y2966320D01*
X3228580Y2967480D01*
X3226620Y2968399D01*
X3224460Y2969060D01*
X3222120Y2969460D01*
G37*
G36*
X3307900Y2969600D02*
G01*
X3305460Y2969460D01*
X3303159Y2969080D01*
X3301000Y2968440D01*
X3298960Y2967620D01*
X3297020Y2966600D01*
X3295179Y2965419D01*
X3293460Y2964120D01*
X3291800Y2962700D01*
X3295400Y2958500D01*
X3298000Y2960779D01*
X3300940Y2962600D01*
X3304200Y2963820D01*
X3307700Y2964300D01*
X3309940Y2964100D01*
X3311960Y2963560D01*
X3313700Y2962720D01*
X3315160Y2961580D01*
X3316340Y2960200D01*
X3317200Y2958540D01*
X3317720Y2956680D01*
X3317900Y2954600D01*
X3317820Y2953000D01*
X3317540Y2951480D01*
X3317060Y2950040D01*
X3316360Y2948700D01*
X3315440Y2947480D01*
X3314260Y2946360D01*
X3312840Y2945380D01*
X3311139Y2944560D01*
X3309160Y2943900D01*
X3306900Y2943399D01*
X3304300Y2943100D01*
X3301400Y2943000D01*
X3301400Y2937900D01*
X3304620Y2937799D01*
X3307500Y2937500D01*
X3310040Y2937020D01*
X3312260Y2936360D01*
X3314180Y2935539D01*
X3315800Y2934540D01*
X3317140Y2933420D01*
X3318200Y2932140D01*
X3319000Y2930720D01*
X3319560Y2929200D01*
X3319900Y2927559D01*
X3320000Y2925800D01*
X3319760Y2923300D01*
X3319100Y2921060D01*
X3318020Y2919120D01*
X3316560Y2917480D01*
X3314780Y2916160D01*
X3312700Y2915200D01*
X3310360Y2914600D01*
X3307799Y2914400D01*
X3305299Y2914540D01*
X3303020Y2914980D01*
X3300940Y2915620D01*
X3299060Y2916480D01*
X3297340Y2917520D01*
X3295760Y2918660D01*
X3294320Y2919900D01*
X3293000Y2921200D01*
X3289600Y2917000D01*
X3291120Y2915480D01*
X3292820Y2914020D01*
X3294720Y2912660D01*
X3296880Y2911460D01*
X3299280Y2910460D01*
X3301940Y2909680D01*
X3304920Y2909180D01*
X3308200Y2909000D01*
X3310700Y2909120D01*
X3313100Y2909500D01*
X3315380Y2910140D01*
X3317500Y2911000D01*
X3319460Y2912080D01*
X3321220Y2913399D01*
X3322780Y2914940D01*
X3324100Y2916680D01*
X3325160Y2918620D01*
X3325940Y2920760D01*
X3326440Y2923080D01*
X3326600Y2925600D01*
X3326340Y2928500D01*
X3325620Y2931139D01*
X3324460Y2933480D01*
X3322940Y2935539D01*
X3321080Y2937280D01*
X3318960Y2938720D01*
X3316620Y2939820D01*
X3314100Y2940600D01*
X3314100Y2940899D01*
X3316340Y2941840D01*
X3318360Y2943020D01*
X3320140Y2944440D01*
X3321680Y2946080D01*
X3322919Y2947980D01*
X3323840Y2950120D01*
X3324400Y2952480D01*
X3324600Y2955100D01*
X3324460Y2957320D01*
X3324020Y2959360D01*
X3323340Y2961240D01*
X3322400Y2962940D01*
X3321240Y2964460D01*
X3319840Y2965800D01*
X3318260Y2966940D01*
X3316500Y2967880D01*
X3314560Y2968620D01*
X3312480Y2969160D01*
X3310240Y2969500D01*
G37*
G36*
X3247200Y2968600D02*
G01*
X3247200Y2963000D01*
X3275899Y2963000D01*
X3273180Y2959020D01*
X3270740Y2955080D01*
X3268580Y2951139D01*
X3266680Y2947180D01*
X3265040Y2943120D01*
X3263620Y2938980D01*
X3262440Y2934680D01*
X3261440Y2930220D01*
X3260659Y2925560D01*
X3260040Y2920659D01*
X3259600Y2915480D01*
X3259300Y2910000D01*
X3266100Y2910000D01*
X3266360Y2915539D01*
X3266740Y2920760D01*
X3267240Y2925700D01*
X3267919Y2930400D01*
X3268800Y2934900D01*
X3269920Y2939240D01*
X3270560Y2941380D01*
X3272100Y2945580D01*
X3273940Y2949740D01*
X3276139Y2953900D01*
X3278740Y2958120D01*
X3281740Y2962400D01*
X3283399Y2964600D01*
X3283399Y2968600D01*
G37*
G36*
X3182000Y2954300D02*
G01*
X3178660Y2954060D01*
X3175740Y2953360D01*
X3173220Y2952260D01*
X3171120Y2950800D01*
X3169480Y2949020D01*
X3168279Y2946960D01*
X3167540Y2944680D01*
X3167300Y2942200D01*
X3167600Y2939660D01*
X3168420Y2937500D01*
X3169720Y2935640D01*
X3171380Y2934080D01*
X3173320Y2932760D01*
X3175480Y2931640D01*
X3177760Y2930659D01*
X3183740Y2928360D01*
X3185440Y2927540D01*
X3186980Y2926600D01*
X3188300Y2925539D01*
X3189320Y2924320D01*
X3189960Y2922919D01*
X3190200Y2921300D01*
X3189640Y2918480D01*
X3187960Y2916200D01*
X3185140Y2914660D01*
X3181200Y2914100D01*
X3177420Y2914480D01*
X3174060Y2915539D01*
X3171040Y2917180D01*
X3168200Y2919300D01*
X3164900Y2914900D01*
X3166520Y2913680D01*
X3168279Y2912540D01*
X3170160Y2911540D01*
X3172160Y2910680D01*
X3174260Y2909980D01*
X3176440Y2909440D01*
X3178700Y2909120D01*
X3181000Y2909000D01*
X3184540Y2909260D01*
X3187620Y2910000D01*
X3190260Y2911160D01*
X3192460Y2912720D01*
X3194160Y2914580D01*
X3195400Y2916720D01*
X3196139Y2919080D01*
X3196400Y2921600D01*
X3196080Y2924420D01*
X3195200Y2926780D01*
X3193840Y2928720D01*
X3192100Y2930340D01*
X3190059Y2931680D01*
X3187799Y2932840D01*
X3179460Y2936160D01*
X3176460Y2937720D01*
X3174380Y2939780D01*
X3173600Y2942600D01*
X3174100Y2945100D01*
X3175620Y2947160D01*
X3178240Y2948580D01*
X3182000Y2949100D01*
X3184780Y2948800D01*
X3187320Y2947980D01*
X3189680Y2946780D01*
X3191900Y2945299D01*
X3195100Y2949500D01*
X3192400Y2951380D01*
X3189260Y2952919D01*
X3185779Y2953920D01*
G37*
G36*
X3157600Y2348700D02*
G01*
X3157600Y2292900D01*
X3158000Y2289100D01*
X3159260Y2286320D01*
X3161440Y2284580D01*
X3164600Y2284000D01*
X3166900Y2284140D01*
X3168600Y2284500D01*
X3167600Y2289600D01*
X3166700Y2289420D01*
X3166100Y2289400D01*
X3165320Y2289580D01*
X3164680Y2290120D01*
X3164260Y2291040D01*
X3164100Y2292400D01*
X3164100Y2348700D01*
G37*
G36*
X3229600Y2344600D02*
G01*
X3226960Y2344440D01*
X3224520Y2343980D01*
X3222260Y2343240D01*
X3220120Y2342240D01*
X3218120Y2341000D01*
X3216220Y2339540D01*
X3214380Y2337860D01*
X3212600Y2336000D01*
X3216400Y2332400D01*
X3217720Y2333820D01*
X3219100Y2335120D01*
X3220560Y2336300D01*
X3222080Y2337320D01*
X3223680Y2338140D01*
X3225360Y2338780D01*
X3227100Y2339160D01*
X3228900Y2339300D01*
X3231560Y2339060D01*
X3233840Y2338380D01*
X3235760Y2337300D01*
X3237300Y2335840D01*
X3238500Y2334060D01*
X3239340Y2332000D01*
X3239840Y2329700D01*
X3240000Y2327200D01*
X3239940Y2325680D01*
X3239440Y2322520D01*
X3238420Y2319240D01*
X3236860Y2315820D01*
X3235880Y2314040D01*
X3233519Y2310380D01*
X3230580Y2306520D01*
X3227080Y2302460D01*
X3222980Y2298180D01*
X3218300Y2293660D01*
X3213000Y2288900D01*
X3213000Y2285000D01*
X3249200Y2285000D01*
X3249200Y2290600D01*
X3230080Y2290560D01*
X3222799Y2290100D01*
X3226940Y2294100D01*
X3230740Y2298040D01*
X3234200Y2301880D01*
X3237280Y2305660D01*
X3239960Y2309400D01*
X3242220Y2313080D01*
X3244000Y2316720D01*
X3244720Y2318540D01*
X3245320Y2320340D01*
X3245779Y2322140D01*
X3246120Y2323920D01*
X3246340Y2325720D01*
X3246400Y2327500D01*
X3246259Y2330020D01*
X3245880Y2332380D01*
X3245240Y2334560D01*
X3244360Y2336560D01*
X3243240Y2338360D01*
X3241900Y2339940D01*
X3240340Y2341320D01*
X3238580Y2342480D01*
X3236620Y2343400D01*
X3234460Y2344060D01*
X3232120Y2344460D01*
G37*
G36*
X3317900Y2344600D02*
G01*
X3315460Y2344460D01*
X3313159Y2344080D01*
X3311000Y2343440D01*
X3308960Y2342620D01*
X3307020Y2341600D01*
X3305179Y2340420D01*
X3303460Y2339120D01*
X3301800Y2337700D01*
X3305400Y2333500D01*
X3308000Y2335780D01*
X3310940Y2337600D01*
X3314200Y2338820D01*
X3317700Y2339300D01*
X3319940Y2339100D01*
X3321960Y2338560D01*
X3323700Y2337720D01*
X3325160Y2336580D01*
X3326340Y2335200D01*
X3327200Y2333540D01*
X3327720Y2331680D01*
X3327900Y2329600D01*
X3327820Y2328000D01*
X3327540Y2326480D01*
X3327060Y2325040D01*
X3326360Y2323700D01*
X3325440Y2322480D01*
X3324260Y2321360D01*
X3322840Y2320380D01*
X3321139Y2319560D01*
X3319160Y2318900D01*
X3316900Y2318400D01*
X3314300Y2318100D01*
X3311400Y2318000D01*
X3311400Y2312900D01*
X3314620Y2312800D01*
X3317500Y2312500D01*
X3320040Y2312020D01*
X3322260Y2311360D01*
X3324180Y2310540D01*
X3325800Y2309540D01*
X3327140Y2308420D01*
X3328200Y2307140D01*
X3329000Y2305720D01*
X3329560Y2304200D01*
X3329900Y2302560D01*
X3330000Y2300800D01*
X3329760Y2298300D01*
X3329100Y2296060D01*
X3328020Y2294120D01*
X3326560Y2292480D01*
X3324780Y2291160D01*
X3322700Y2290200D01*
X3320360Y2289600D01*
X3317799Y2289400D01*
X3315299Y2289540D01*
X3313020Y2289980D01*
X3310940Y2290620D01*
X3309060Y2291480D01*
X3307340Y2292520D01*
X3305760Y2293660D01*
X3304320Y2294900D01*
X3303000Y2296200D01*
X3299600Y2292000D01*
X3301120Y2290480D01*
X3302820Y2289020D01*
X3304720Y2287660D01*
X3306880Y2286460D01*
X3309280Y2285460D01*
X3311940Y2284680D01*
X3314920Y2284180D01*
X3318200Y2284000D01*
X3320700Y2284120D01*
X3323100Y2284500D01*
X3325380Y2285140D01*
X3327500Y2286000D01*
X3329460Y2287080D01*
X3331220Y2288400D01*
X3332780Y2289940D01*
X3334100Y2291680D01*
X3335160Y2293620D01*
X3335940Y2295760D01*
X3336440Y2298080D01*
X3336600Y2300600D01*
X3336340Y2303500D01*
X3335620Y2306140D01*
X3334460Y2308480D01*
X3332940Y2310540D01*
X3331080Y2312280D01*
X3328960Y2313720D01*
X3326620Y2314820D01*
X3324100Y2315600D01*
X3324100Y2315900D01*
X3326340Y2316840D01*
X3328360Y2318020D01*
X3330140Y2319440D01*
X3331680Y2321080D01*
X3332919Y2322980D01*
X3333840Y2325120D01*
X3334400Y2327480D01*
X3334600Y2330100D01*
X3334460Y2332320D01*
X3334020Y2334360D01*
X3333340Y2336240D01*
X3332400Y2337940D01*
X3331240Y2339460D01*
X3329840Y2340800D01*
X3328260Y2341940D01*
X3326500Y2342880D01*
X3324560Y2343620D01*
X3322480Y2344160D01*
X3320240Y2344500D01*
G37*
G36*
X3257200Y2343600D02*
G01*
X3257200Y2338000D01*
X3285899Y2338000D01*
X3283180Y2334020D01*
X3280740Y2330080D01*
X3278580Y2326140D01*
X3276680Y2322180D01*
X3275040Y2318120D01*
X3273620Y2313980D01*
X3272440Y2309680D01*
X3271440Y2305220D01*
X3270659Y2300560D01*
X3270040Y2295660D01*
X3269600Y2290480D01*
X3269300Y2285000D01*
X3276100Y2285000D01*
X3276360Y2290540D01*
X3276740Y2295760D01*
X3277240Y2300700D01*
X3277919Y2305400D01*
X3278800Y2309900D01*
X3279920Y2314240D01*
X3280560Y2316380D01*
X3282100Y2320580D01*
X3283940Y2324740D01*
X3286139Y2328900D01*
X3288740Y2333120D01*
X3291740Y2337400D01*
X3293399Y2339600D01*
X3293399Y2343600D01*
G37*
G36*
X3192000Y2329300D02*
G01*
X3188660Y2329060D01*
X3185740Y2328360D01*
X3183220Y2327260D01*
X3181120Y2325800D01*
X3179480Y2324020D01*
X3178279Y2321960D01*
X3177540Y2319680D01*
X3177300Y2317200D01*
X3177600Y2314660D01*
X3178420Y2312500D01*
X3179720Y2310640D01*
X3181380Y2309080D01*
X3183320Y2307760D01*
X3185480Y2306640D01*
X3187760Y2305660D01*
X3193740Y2303360D01*
X3195440Y2302540D01*
X3196980Y2301600D01*
X3198300Y2300540D01*
X3199320Y2299320D01*
X3199960Y2297920D01*
X3200200Y2296300D01*
X3199640Y2293480D01*
X3197960Y2291200D01*
X3195140Y2289660D01*
X3191200Y2289100D01*
X3187420Y2289480D01*
X3184060Y2290540D01*
X3181040Y2292180D01*
X3178200Y2294300D01*
X3174900Y2289900D01*
X3176520Y2288680D01*
X3178279Y2287540D01*
X3180160Y2286540D01*
X3182160Y2285680D01*
X3184260Y2284980D01*
X3186440Y2284440D01*
X3188700Y2284120D01*
X3191000Y2284000D01*
X3194540Y2284260D01*
X3197620Y2285000D01*
X3200260Y2286160D01*
X3202460Y2287720D01*
X3204160Y2289580D01*
X3205400Y2291720D01*
X3206139Y2294080D01*
X3206400Y2296600D01*
X3206080Y2299420D01*
X3205200Y2301780D01*
X3203840Y2303720D01*
X3202100Y2305340D01*
X3200059Y2306680D01*
X3197799Y2307840D01*
X3189460Y2311160D01*
X3186460Y2312720D01*
X3184380Y2314780D01*
X3183600Y2317600D01*
X3184100Y2320100D01*
X3185620Y2322160D01*
X3188240Y2323580D01*
X3192000Y2324100D01*
X3194780Y2323800D01*
X3197320Y2322980D01*
X3199680Y2321780D01*
X3201900Y2320300D01*
X3205100Y2324500D01*
X3202400Y2326380D01*
X3199260Y2327920D01*
X3195779Y2328920D01*
G37*
G36*
X3167600Y1723700D02*
G01*
X3167600Y1667900D01*
X3168000Y1664100D01*
X3169260Y1661320D01*
X3171440Y1659580D01*
X3174600Y1659000D01*
X3176900Y1659139D01*
X3178600Y1659500D01*
X3177600Y1664600D01*
X3176700Y1664420D01*
X3176100Y1664400D01*
X3175320Y1664580D01*
X3174680Y1665120D01*
X3174260Y1666040D01*
X3174100Y1667400D01*
X3174100Y1723700D01*
G37*
G36*
X3239600Y1719600D02*
G01*
X3236960Y1719440D01*
X3234520Y1718980D01*
X3232260Y1718240D01*
X3230120Y1717240D01*
X3228120Y1716000D01*
X3226220Y1714540D01*
X3224380Y1712860D01*
X3222600Y1711000D01*
X3226400Y1707400D01*
X3227720Y1708820D01*
X3229100Y1710120D01*
X3230560Y1711300D01*
X3232080Y1712320D01*
X3233680Y1713140D01*
X3235360Y1713779D01*
X3237100Y1714160D01*
X3238900Y1714300D01*
X3241560Y1714060D01*
X3243840Y1713380D01*
X3245760Y1712300D01*
X3247300Y1710840D01*
X3248500Y1709060D01*
X3249340Y1707000D01*
X3249840Y1704700D01*
X3250000Y1702200D01*
X3249940Y1700680D01*
X3249440Y1697520D01*
X3248420Y1694240D01*
X3246860Y1690820D01*
X3245880Y1689040D01*
X3243519Y1685380D01*
X3240580Y1681519D01*
X3237080Y1677460D01*
X3232980Y1673180D01*
X3228300Y1668660D01*
X3223000Y1663899D01*
X3223000Y1660000D01*
X3259200Y1660000D01*
X3259200Y1665600D01*
X3240080Y1665560D01*
X3232799Y1665100D01*
X3236940Y1669100D01*
X3240740Y1673040D01*
X3244200Y1676879D01*
X3247280Y1680660D01*
X3249960Y1684400D01*
X3252220Y1688080D01*
X3254000Y1691720D01*
X3254720Y1693540D01*
X3255320Y1695340D01*
X3255779Y1697140D01*
X3256120Y1698920D01*
X3256340Y1700720D01*
X3256400Y1702500D01*
X3256259Y1705020D01*
X3255880Y1707380D01*
X3255240Y1709560D01*
X3254360Y1711560D01*
X3253240Y1713360D01*
X3251900Y1714940D01*
X3250340Y1716320D01*
X3248580Y1717480D01*
X3246620Y1718400D01*
X3244460Y1719060D01*
X3242120Y1719460D01*
G37*
G36*
X3327900Y1719600D02*
G01*
X3325460Y1719460D01*
X3323159Y1719079D01*
X3321000Y1718440D01*
X3318960Y1717620D01*
X3317020Y1716600D01*
X3315179Y1715420D01*
X3313460Y1714120D01*
X3311800Y1712700D01*
X3315400Y1708500D01*
X3318000Y1710780D01*
X3320940Y1712600D01*
X3324200Y1713820D01*
X3327700Y1714300D01*
X3329940Y1714100D01*
X3331960Y1713560D01*
X3333700Y1712720D01*
X3335160Y1711579D01*
X3336340Y1710200D01*
X3337200Y1708540D01*
X3337720Y1706680D01*
X3337900Y1704600D01*
X3337820Y1703000D01*
X3337540Y1701480D01*
X3337060Y1700040D01*
X3336360Y1698700D01*
X3335440Y1697480D01*
X3334260Y1696360D01*
X3332840Y1695380D01*
X3331139Y1694560D01*
X3329160Y1693899D01*
X3326900Y1693400D01*
X3324300Y1693100D01*
X3321400Y1693000D01*
X3321400Y1687900D01*
X3324620Y1687800D01*
X3327500Y1687500D01*
X3330040Y1687020D01*
X3332260Y1686360D01*
X3334180Y1685540D01*
X3335800Y1684540D01*
X3337140Y1683420D01*
X3338200Y1682140D01*
X3339000Y1680720D01*
X3339560Y1679199D01*
X3339900Y1677560D01*
X3340000Y1675800D01*
X3339760Y1673300D01*
X3339100Y1671060D01*
X3338020Y1669120D01*
X3336560Y1667480D01*
X3334780Y1666160D01*
X3332700Y1665200D01*
X3330360Y1664600D01*
X3327799Y1664400D01*
X3325299Y1664540D01*
X3323020Y1664980D01*
X3320940Y1665620D01*
X3319060Y1666480D01*
X3317340Y1667520D01*
X3315760Y1668660D01*
X3314320Y1669900D01*
X3313000Y1671200D01*
X3309600Y1667000D01*
X3311120Y1665480D01*
X3312820Y1664019D01*
X3314720Y1662660D01*
X3316880Y1661459D01*
X3319280Y1660460D01*
X3321940Y1659680D01*
X3324920Y1659180D01*
X3328200Y1659000D01*
X3330700Y1659120D01*
X3333100Y1659500D01*
X3335380Y1660140D01*
X3337500Y1661000D01*
X3339460Y1662080D01*
X3341220Y1663400D01*
X3342780Y1664940D01*
X3344100Y1666680D01*
X3345160Y1668620D01*
X3345940Y1670760D01*
X3346440Y1673080D01*
X3346600Y1675600D01*
X3346340Y1678500D01*
X3345620Y1681140D01*
X3344460Y1683480D01*
X3342940Y1685540D01*
X3341080Y1687280D01*
X3338960Y1688720D01*
X3336620Y1689820D01*
X3334100Y1690600D01*
X3334100Y1690900D01*
X3336340Y1691840D01*
X3338360Y1693020D01*
X3340140Y1694440D01*
X3341680Y1696080D01*
X3342919Y1697980D01*
X3343840Y1700120D01*
X3344400Y1702480D01*
X3344600Y1705100D01*
X3344460Y1707320D01*
X3344020Y1709360D01*
X3343340Y1711240D01*
X3342400Y1712940D01*
X3341240Y1714460D01*
X3339840Y1715800D01*
X3338260Y1716940D01*
X3336500Y1717880D01*
X3334560Y1718620D01*
X3332480Y1719160D01*
X3330240Y1719500D01*
G37*
G36*
X3267200Y1718600D02*
G01*
X3267200Y1713000D01*
X3295899Y1713000D01*
X3293180Y1709019D01*
X3290740Y1705080D01*
X3288580Y1701140D01*
X3286680Y1697180D01*
X3285040Y1693120D01*
X3283620Y1688980D01*
X3282440Y1684680D01*
X3281440Y1680220D01*
X3280659Y1675560D01*
X3280040Y1670660D01*
X3279600Y1665480D01*
X3279300Y1660000D01*
X3286100Y1660000D01*
X3286360Y1665540D01*
X3286740Y1670760D01*
X3287240Y1675700D01*
X3287919Y1680400D01*
X3288800Y1684900D01*
X3289920Y1689240D01*
X3290560Y1691380D01*
X3292100Y1695580D01*
X3293940Y1699740D01*
X3296139Y1703899D01*
X3298740Y1708120D01*
X3301740Y1712400D01*
X3303399Y1714600D01*
X3303399Y1718600D01*
G37*
G36*
X3202000Y1704300D02*
G01*
X3198660Y1704060D01*
X3195740Y1703360D01*
X3193220Y1702260D01*
X3191120Y1700800D01*
X3189480Y1699019D01*
X3188279Y1696960D01*
X3187540Y1694680D01*
X3187300Y1692200D01*
X3187600Y1689660D01*
X3188420Y1687500D01*
X3189720Y1685640D01*
X3191380Y1684079D01*
X3193320Y1682760D01*
X3195480Y1681639D01*
X3197760Y1680660D01*
X3203740Y1678360D01*
X3205440Y1677540D01*
X3206980Y1676600D01*
X3208300Y1675540D01*
X3209320Y1674319D01*
X3209960Y1672920D01*
X3210200Y1671300D01*
X3209640Y1668480D01*
X3207960Y1666200D01*
X3205140Y1664660D01*
X3201200Y1664100D01*
X3197420Y1664480D01*
X3194060Y1665540D01*
X3191040Y1667180D01*
X3188200Y1669300D01*
X3184900Y1664900D01*
X3186520Y1663680D01*
X3188279Y1662540D01*
X3190160Y1661540D01*
X3192160Y1660680D01*
X3194260Y1659980D01*
X3196440Y1659440D01*
X3198700Y1659120D01*
X3201000Y1659000D01*
X3204540Y1659259D01*
X3207620Y1660000D01*
X3210260Y1661160D01*
X3212460Y1662720D01*
X3214160Y1664580D01*
X3215400Y1666720D01*
X3216139Y1669079D01*
X3216400Y1671600D01*
X3216080Y1674420D01*
X3215200Y1676780D01*
X3213840Y1678720D01*
X3212100Y1680340D01*
X3210059Y1681680D01*
X3207799Y1682840D01*
X3199460Y1686160D01*
X3196460Y1687720D01*
X3194380Y1689780D01*
X3193600Y1692600D01*
X3194100Y1695100D01*
X3195620Y1697160D01*
X3198240Y1698580D01*
X3202000Y1699100D01*
X3204780Y1698800D01*
X3207320Y1697980D01*
X3209680Y1696780D01*
X3211900Y1695300D01*
X3215100Y1699500D01*
X3212400Y1701380D01*
X3209260Y1702920D01*
X3205779Y1703920D01*
G37*
G36*
X1557600Y2998700D02*
G01*
X1557600Y2942900D01*
X1558000Y2939100D01*
X1559259Y2936320D01*
X1561440Y2934580D01*
X1564600Y2934000D01*
X1566900Y2934140D01*
X1568600Y2934500D01*
X1567600Y2939600D01*
X1566699Y2939420D01*
X1566100Y2939400D01*
X1565320Y2939580D01*
X1564680Y2940120D01*
X1564259Y2941040D01*
X1564100Y2942400D01*
X1564100Y2998700D01*
G37*
G36*
X1631399Y2994600D02*
G01*
X1629360Y2994480D01*
X1627440Y2994140D01*
X1625620Y2993560D01*
X1623899Y2992760D01*
X1622300Y2991700D01*
X1620820Y2990419D01*
X1619460Y2988920D01*
X1618240Y2987160D01*
X1617140Y2985179D01*
X1616160Y2982940D01*
X1615340Y2980480D01*
X1614660Y2977760D01*
X1614100Y2974820D01*
X1613720Y2971620D01*
X1613480Y2968180D01*
X1613400Y2964500D01*
X1619700Y2964500D01*
X1619800Y2968580D01*
X1620080Y2972280D01*
X1620540Y2975580D01*
X1621180Y2978519D01*
X1621980Y2981100D01*
X1622920Y2983320D01*
X1624019Y2985160D01*
X1625260Y2986680D01*
X1626620Y2987820D01*
X1628100Y2988660D01*
X1629700Y2989140D01*
X1631399Y2989300D01*
X1633060Y2989140D01*
X1634620Y2988660D01*
X1636060Y2987820D01*
X1637400Y2986680D01*
X1638620Y2985160D01*
X1639700Y2983320D01*
X1640640Y2981100D01*
X1641420Y2978519D01*
X1642060Y2975580D01*
X1642520Y2972280D01*
X1642800Y2968580D01*
X1642900Y2964500D01*
X1642800Y2960340D01*
X1642520Y2956580D01*
X1642060Y2953200D01*
X1641420Y2950200D01*
X1640640Y2947580D01*
X1639700Y2945320D01*
X1638620Y2943440D01*
X1637400Y2941900D01*
X1636060Y2940700D01*
X1634620Y2939860D01*
X1633060Y2939360D01*
X1631399Y2939200D01*
X1629700Y2939360D01*
X1628100Y2939860D01*
X1626620Y2940700D01*
X1625260Y2941900D01*
X1624019Y2943440D01*
X1622920Y2945320D01*
X1621980Y2947580D01*
X1621180Y2950200D01*
X1620540Y2953200D01*
X1620080Y2956580D01*
X1619800Y2960340D01*
X1619700Y2964500D01*
X1613400Y2964500D01*
X1613480Y2960779D01*
X1613720Y2957300D01*
X1614100Y2954080D01*
X1614660Y2951080D01*
X1615340Y2948340D01*
X1616160Y2945840D01*
X1617140Y2943580D01*
X1618240Y2941560D01*
X1619460Y2939780D01*
X1620820Y2938240D01*
X1622300Y2936940D01*
X1623899Y2935880D01*
X1625620Y2935059D01*
X1627440Y2934460D01*
X1629360Y2934120D01*
X1631399Y2934000D01*
X1633400Y2934120D01*
X1635300Y2934460D01*
X1637100Y2935059D01*
X1638779Y2935880D01*
X1640360Y2936940D01*
X1641819Y2938240D01*
X1643160Y2939780D01*
X1644379Y2941560D01*
X1645480Y2943580D01*
X1646440Y2945840D01*
X1647260Y2948340D01*
X1647960Y2951080D01*
X1648500Y2954080D01*
X1648880Y2957300D01*
X1649120Y2960779D01*
X1649199Y2964500D01*
X1649120Y2968180D01*
X1648880Y2971620D01*
X1648500Y2974820D01*
X1647960Y2977760D01*
X1647260Y2980480D01*
X1646440Y2982940D01*
X1645480Y2985179D01*
X1644379Y2987160D01*
X1643160Y2988920D01*
X1641819Y2990419D01*
X1640360Y2991700D01*
X1638779Y2992760D01*
X1637100Y2993560D01*
X1635300Y2994140D01*
X1633400Y2994480D01*
G37*
G36*
X1675300Y2994600D02*
G01*
X1673260Y2994480D01*
X1671339Y2994140D01*
X1669520Y2993560D01*
X1667800Y2992760D01*
X1666200Y2991700D01*
X1664720Y2990419D01*
X1663360Y2988920D01*
X1662140Y2987160D01*
X1661040Y2985179D01*
X1660060Y2982940D01*
X1659240Y2980480D01*
X1658560Y2977760D01*
X1658000Y2974820D01*
X1657620Y2971620D01*
X1657380Y2968180D01*
X1657300Y2964500D01*
X1663600Y2964500D01*
X1663700Y2968580D01*
X1663980Y2972280D01*
X1664440Y2975580D01*
X1665080Y2978519D01*
X1665880Y2981100D01*
X1666819Y2983320D01*
X1667920Y2985160D01*
X1669160Y2986680D01*
X1670520Y2987820D01*
X1672000Y2988660D01*
X1673600Y2989140D01*
X1675300Y2989300D01*
X1676980Y2989140D01*
X1678540Y2988660D01*
X1680000Y2987820D01*
X1681339Y2986680D01*
X1682560Y2985160D01*
X1683640Y2983320D01*
X1684580Y2981100D01*
X1685360Y2978519D01*
X1685980Y2975580D01*
X1686420Y2972280D01*
X1686699Y2968580D01*
X1686800Y2964500D01*
X1686699Y2960340D01*
X1686420Y2956580D01*
X1685980Y2953200D01*
X1685360Y2950200D01*
X1684580Y2947580D01*
X1683640Y2945320D01*
X1682560Y2943440D01*
X1681339Y2941900D01*
X1680000Y2940700D01*
X1678540Y2939860D01*
X1676980Y2939360D01*
X1675300Y2939200D01*
X1673600Y2939360D01*
X1672000Y2939860D01*
X1670520Y2940700D01*
X1669160Y2941900D01*
X1667920Y2943440D01*
X1666819Y2945320D01*
X1665880Y2947580D01*
X1665080Y2950200D01*
X1664440Y2953200D01*
X1663980Y2956580D01*
X1663700Y2960340D01*
X1663600Y2964500D01*
X1657300Y2964500D01*
X1657380Y2960779D01*
X1657620Y2957300D01*
X1658000Y2954080D01*
X1658560Y2951080D01*
X1659240Y2948340D01*
X1660060Y2945840D01*
X1661040Y2943580D01*
X1662140Y2941560D01*
X1663360Y2939780D01*
X1664720Y2938240D01*
X1666200Y2936940D01*
X1667800Y2935880D01*
X1669520Y2935059D01*
X1671339Y2934460D01*
X1673260Y2934120D01*
X1675300Y2934000D01*
X1677300Y2934120D01*
X1679199Y2934460D01*
X1681000Y2935059D01*
X1682680Y2935880D01*
X1684259Y2936940D01*
X1685720Y2938240D01*
X1687060Y2939780D01*
X1688280Y2941560D01*
X1689379Y2943580D01*
X1690340Y2945840D01*
X1691160Y2948340D01*
X1691860Y2951080D01*
X1692400Y2954080D01*
X1692780Y2957300D01*
X1693020Y2960779D01*
X1693100Y2964500D01*
X1693020Y2968180D01*
X1692780Y2971620D01*
X1692400Y2974820D01*
X1691860Y2977760D01*
X1691160Y2980480D01*
X1690340Y2982940D01*
X1689379Y2985179D01*
X1688280Y2987160D01*
X1687060Y2988920D01*
X1685720Y2990419D01*
X1684259Y2991700D01*
X1682680Y2992760D01*
X1681000Y2993560D01*
X1679199Y2994140D01*
X1677300Y2994480D01*
G37*
G36*
X1592000Y2979300D02*
G01*
X1588660Y2979060D01*
X1585740Y2978360D01*
X1583220Y2977260D01*
X1581120Y2975800D01*
X1579480Y2974020D01*
X1578280Y2971960D01*
X1577540Y2969680D01*
X1577300Y2967200D01*
X1577600Y2964660D01*
X1578420Y2962500D01*
X1579720Y2960640D01*
X1581380Y2959080D01*
X1583320Y2957760D01*
X1585480Y2956640D01*
X1587760Y2955659D01*
X1593740Y2953360D01*
X1595440Y2952540D01*
X1596980Y2951600D01*
X1598300Y2950539D01*
X1599319Y2949320D01*
X1599960Y2947919D01*
X1600200Y2946300D01*
X1599640Y2943480D01*
X1597960Y2941200D01*
X1595140Y2939660D01*
X1591200Y2939100D01*
X1587420Y2939480D01*
X1584060Y2940539D01*
X1581040Y2942180D01*
X1578200Y2944300D01*
X1574900Y2939900D01*
X1576519Y2938680D01*
X1578280Y2937540D01*
X1580160Y2936540D01*
X1582160Y2935680D01*
X1584259Y2934980D01*
X1586440Y2934440D01*
X1588700Y2934120D01*
X1591000Y2934000D01*
X1594540Y2934260D01*
X1597620Y2935000D01*
X1600260Y2936160D01*
X1602460Y2937720D01*
X1604160Y2939580D01*
X1605400Y2941720D01*
X1606140Y2944080D01*
X1606399Y2946600D01*
X1606080Y2949420D01*
X1605200Y2951780D01*
X1603839Y2953720D01*
X1602100Y2955340D01*
X1600060Y2956680D01*
X1597800Y2957840D01*
X1589460Y2961160D01*
X1586459Y2962720D01*
X1584379Y2964780D01*
X1583600Y2967600D01*
X1584100Y2970100D01*
X1585620Y2972160D01*
X1588240Y2973580D01*
X1592000Y2974100D01*
X1594780Y2973800D01*
X1597320Y2972980D01*
X1599680Y2971780D01*
X1601900Y2970299D01*
X1605100Y2974500D01*
X1602400Y2976380D01*
X1599259Y2977919D01*
X1595780Y2978920D01*
G37*
G36*
X1557600Y2548700D02*
G01*
X1557600Y2492900D01*
X1558000Y2489100D01*
X1559259Y2486320D01*
X1561440Y2484580D01*
X1564600Y2484000D01*
X1566900Y2484140D01*
X1568600Y2484500D01*
X1567600Y2489600D01*
X1566699Y2489420D01*
X1566100Y2489400D01*
X1565320Y2489580D01*
X1564680Y2490120D01*
X1564259Y2491040D01*
X1564100Y2492400D01*
X1564100Y2548700D01*
G37*
G36*
X1631399Y2544600D02*
G01*
X1629360Y2544480D01*
X1627440Y2544140D01*
X1625620Y2543560D01*
X1623899Y2542760D01*
X1622300Y2541700D01*
X1620820Y2540420D01*
X1619460Y2538920D01*
X1618240Y2537160D01*
X1617140Y2535180D01*
X1616160Y2532940D01*
X1615340Y2530480D01*
X1614660Y2527760D01*
X1614100Y2524820D01*
X1613720Y2521620D01*
X1613480Y2518180D01*
X1613400Y2514500D01*
X1619700Y2514500D01*
X1619800Y2518580D01*
X1620080Y2522280D01*
X1620540Y2525580D01*
X1621180Y2528520D01*
X1621980Y2531100D01*
X1622920Y2533320D01*
X1624019Y2535160D01*
X1625260Y2536680D01*
X1626620Y2537820D01*
X1628100Y2538660D01*
X1629700Y2539140D01*
X1631399Y2539300D01*
X1633060Y2539140D01*
X1634620Y2538660D01*
X1636060Y2537820D01*
X1637400Y2536680D01*
X1638620Y2535160D01*
X1639700Y2533320D01*
X1640640Y2531100D01*
X1641420Y2528520D01*
X1642060Y2525580D01*
X1642520Y2522280D01*
X1642800Y2518580D01*
X1642900Y2514500D01*
X1642800Y2510340D01*
X1642520Y2506580D01*
X1642060Y2503200D01*
X1641420Y2500200D01*
X1640640Y2497580D01*
X1639700Y2495320D01*
X1638620Y2493440D01*
X1637400Y2491900D01*
X1636060Y2490700D01*
X1634620Y2489860D01*
X1633060Y2489360D01*
X1631399Y2489200D01*
X1629700Y2489360D01*
X1628100Y2489860D01*
X1626620Y2490700D01*
X1625260Y2491900D01*
X1624019Y2493440D01*
X1622920Y2495320D01*
X1621980Y2497580D01*
X1621180Y2500200D01*
X1620540Y2503200D01*
X1620080Y2506580D01*
X1619800Y2510340D01*
X1619700Y2514500D01*
X1613400Y2514500D01*
X1613480Y2510780D01*
X1613720Y2507300D01*
X1614100Y2504080D01*
X1614660Y2501080D01*
X1615340Y2498340D01*
X1616160Y2495840D01*
X1617140Y2493580D01*
X1618240Y2491560D01*
X1619460Y2489780D01*
X1620820Y2488240D01*
X1622300Y2486940D01*
X1623899Y2485880D01*
X1625620Y2485060D01*
X1627440Y2484460D01*
X1629360Y2484120D01*
X1631399Y2484000D01*
X1633400Y2484120D01*
X1635300Y2484460D01*
X1637100Y2485060D01*
X1638779Y2485880D01*
X1640360Y2486940D01*
X1641819Y2488240D01*
X1643160Y2489780D01*
X1644379Y2491560D01*
X1645480Y2493580D01*
X1646440Y2495840D01*
X1647260Y2498340D01*
X1647960Y2501080D01*
X1648500Y2504080D01*
X1648880Y2507300D01*
X1649120Y2510780D01*
X1649199Y2514500D01*
X1649120Y2518180D01*
X1648880Y2521620D01*
X1648500Y2524820D01*
X1647960Y2527760D01*
X1647260Y2530480D01*
X1646440Y2532940D01*
X1645480Y2535180D01*
X1644379Y2537160D01*
X1643160Y2538920D01*
X1641819Y2540420D01*
X1640360Y2541700D01*
X1638779Y2542760D01*
X1637100Y2543560D01*
X1635300Y2544140D01*
X1633400Y2544480D01*
G37*
G36*
X1673500Y2544600D02*
G01*
X1670860Y2544440D01*
X1668420Y2543980D01*
X1666160Y2543240D01*
X1664019Y2542240D01*
X1662020Y2541000D01*
X1660120Y2539540D01*
X1658280Y2537860D01*
X1656500Y2536000D01*
X1660300Y2532400D01*
X1661620Y2533820D01*
X1663000Y2535120D01*
X1664460Y2536300D01*
X1665980Y2537320D01*
X1667580Y2538140D01*
X1669259Y2538780D01*
X1671000Y2539160D01*
X1672800Y2539300D01*
X1675460Y2539060D01*
X1677740Y2538380D01*
X1679660Y2537300D01*
X1681200Y2535840D01*
X1682400Y2534060D01*
X1683240Y2532000D01*
X1683740Y2529700D01*
X1683899Y2527200D01*
X1683839Y2525680D01*
X1683340Y2522520D01*
X1682320Y2519240D01*
X1680760Y2515820D01*
X1679780Y2514040D01*
X1677420Y2510380D01*
X1674480Y2506520D01*
X1670980Y2502460D01*
X1666879Y2498180D01*
X1662200Y2493660D01*
X1656900Y2488900D01*
X1656900Y2485000D01*
X1693100Y2485000D01*
X1693100Y2490600D01*
X1674019Y2490560D01*
X1666699Y2490100D01*
X1670840Y2494100D01*
X1674640Y2498040D01*
X1678100Y2501880D01*
X1681180Y2505660D01*
X1683860Y2509400D01*
X1686120Y2513080D01*
X1687900Y2516720D01*
X1688620Y2518540D01*
X1689220Y2520340D01*
X1689680Y2522140D01*
X1690020Y2523920D01*
X1690240Y2525720D01*
X1690300Y2527500D01*
X1690160Y2530020D01*
X1689780Y2532380D01*
X1689139Y2534560D01*
X1688260Y2536560D01*
X1687140Y2538360D01*
X1685800Y2539940D01*
X1684240Y2541320D01*
X1682480Y2542480D01*
X1680520Y2543400D01*
X1678360Y2544060D01*
X1676020Y2544460D01*
G37*
G36*
X1592000Y2529300D02*
G01*
X1588660Y2529060D01*
X1585740Y2528360D01*
X1583220Y2527260D01*
X1581120Y2525800D01*
X1579480Y2524020D01*
X1578280Y2521960D01*
X1577540Y2519680D01*
X1577300Y2517200D01*
X1577600Y2514660D01*
X1578420Y2512500D01*
X1579720Y2510640D01*
X1581380Y2509080D01*
X1583320Y2507760D01*
X1585480Y2506640D01*
X1587760Y2505660D01*
X1593740Y2503360D01*
X1595440Y2502540D01*
X1596980Y2501600D01*
X1598300Y2500540D01*
X1599319Y2499320D01*
X1599960Y2497920D01*
X1600200Y2496300D01*
X1599640Y2493480D01*
X1597960Y2491200D01*
X1595140Y2489660D01*
X1591200Y2489100D01*
X1587420Y2489480D01*
X1584060Y2490540D01*
X1581040Y2492180D01*
X1578200Y2494300D01*
X1574900Y2489900D01*
X1576519Y2488680D01*
X1578280Y2487540D01*
X1580160Y2486540D01*
X1582160Y2485680D01*
X1584259Y2484980D01*
X1586440Y2484440D01*
X1588700Y2484120D01*
X1591000Y2484000D01*
X1594540Y2484260D01*
X1597620Y2485000D01*
X1600260Y2486160D01*
X1602460Y2487720D01*
X1604160Y2489580D01*
X1605400Y2491720D01*
X1606140Y2494080D01*
X1606399Y2496600D01*
X1606080Y2499420D01*
X1605200Y2501780D01*
X1603839Y2503720D01*
X1602100Y2505340D01*
X1600060Y2506680D01*
X1597800Y2507840D01*
X1589460Y2511160D01*
X1586459Y2512720D01*
X1584379Y2514780D01*
X1583600Y2517600D01*
X1584100Y2520100D01*
X1585620Y2522160D01*
X1588240Y2523580D01*
X1592000Y2524100D01*
X1594780Y2523800D01*
X1597320Y2522980D01*
X1599680Y2521780D01*
X1601900Y2520300D01*
X1605100Y2524500D01*
X1602400Y2526380D01*
X1599259Y2527920D01*
X1595780Y2528920D01*
G37*
G36*
X1567600Y2078700D02*
G01*
X1567600Y2022900D01*
X1568000Y2019100D01*
X1569259Y2016320D01*
X1571440Y2014580D01*
X1574600Y2014000D01*
X1576900Y2014139D01*
X1578600Y2014500D01*
X1577600Y2019600D01*
X1576699Y2019420D01*
X1576100Y2019400D01*
X1575320Y2019580D01*
X1574680Y2020120D01*
X1574259Y2021040D01*
X1574100Y2022400D01*
X1574100Y2078700D01*
G37*
G36*
X1689300Y2074600D02*
G01*
X1687620Y2074540D01*
X1685980Y2074340D01*
X1684360Y2074000D01*
X1682760Y2073520D01*
X1681220Y2072900D01*
X1679720Y2072120D01*
X1678280Y2071180D01*
X1676900Y2070080D01*
X1675580Y2068820D01*
X1674360Y2067400D01*
X1673200Y2065800D01*
X1672140Y2064019D01*
X1671180Y2062060D01*
X1670320Y2059900D01*
X1669580Y2057560D01*
X1668959Y2055020D01*
X1668460Y2052280D01*
X1668100Y2049319D01*
X1667880Y2046180D01*
X1667800Y2042800D01*
X1667962Y2038600D01*
X1674199Y2038600D01*
X1675720Y2040540D01*
X1677280Y2042180D01*
X1678880Y2043520D01*
X1680460Y2044600D01*
X1682040Y2045400D01*
X1683580Y2045960D01*
X1685080Y2046300D01*
X1686500Y2046399D01*
X1689120Y2046160D01*
X1691380Y2045420D01*
X1693280Y2044259D01*
X1694820Y2042680D01*
X1696000Y2040740D01*
X1696840Y2038420D01*
X1697340Y2035800D01*
X1697500Y2032900D01*
X1697300Y2029980D01*
X1696699Y2027340D01*
X1695780Y2025000D01*
X1694520Y2023020D01*
X1693000Y2021399D01*
X1691260Y2020200D01*
X1689300Y2019460D01*
X1687200Y2019199D01*
X1685320Y2019340D01*
X1683580Y2019780D01*
X1682000Y2020480D01*
X1680540Y2021480D01*
X1679240Y2022740D01*
X1678080Y2024259D01*
X1677060Y2026020D01*
X1676200Y2028060D01*
X1675480Y2030340D01*
X1674900Y2032860D01*
X1674480Y2035620D01*
X1674199Y2038600D01*
X1667962Y2038600D01*
X1668180Y2036080D01*
X1668620Y2033040D01*
X1669240Y2030240D01*
X1670020Y2027660D01*
X1670960Y2025300D01*
X1672040Y2023160D01*
X1673260Y2021240D01*
X1674620Y2019540D01*
X1676100Y2018080D01*
X1677700Y2016840D01*
X1679400Y2015820D01*
X1681220Y2015020D01*
X1683120Y2014460D01*
X1685120Y2014120D01*
X1687200Y2014000D01*
X1689400Y2014160D01*
X1691519Y2014620D01*
X1693540Y2015360D01*
X1695440Y2016380D01*
X1697200Y2017680D01*
X1698779Y2019220D01*
X1700200Y2020980D01*
X1701399Y2022980D01*
X1702380Y2025180D01*
X1703100Y2027580D01*
X1703540Y2030160D01*
X1703700Y2032900D01*
X1703580Y2035820D01*
X1703180Y2038500D01*
X1702560Y2040900D01*
X1701699Y2043060D01*
X1700620Y2044980D01*
X1699319Y2046620D01*
X1697800Y2048020D01*
X1696100Y2049160D01*
X1694199Y2050060D01*
X1692140Y2050700D01*
X1689900Y2051080D01*
X1687500Y2051200D01*
X1685720Y2051080D01*
X1683920Y2050700D01*
X1682140Y2050120D01*
X1680380Y2049300D01*
X1678660Y2048280D01*
X1677000Y2047060D01*
X1675440Y2045660D01*
X1674000Y2044100D01*
X1674139Y2047460D01*
X1674420Y2050540D01*
X1674840Y2053360D01*
X1675400Y2055920D01*
X1676080Y2058200D01*
X1676879Y2060260D01*
X1677780Y2062080D01*
X1678779Y2063660D01*
X1679880Y2065040D01*
X1681080Y2066180D01*
X1682340Y2067140D01*
X1683660Y2067900D01*
X1685060Y2068480D01*
X1686500Y2068880D01*
X1687980Y2069120D01*
X1689500Y2069199D01*
X1692120Y2068899D01*
X1694660Y2068000D01*
X1697000Y2066579D01*
X1699000Y2064700D01*
X1702600Y2068800D01*
X1701360Y2070000D01*
X1700000Y2071100D01*
X1698540Y2072080D01*
X1696960Y2072940D01*
X1695260Y2073640D01*
X1693420Y2074160D01*
X1691440Y2074480D01*
G37*
G36*
X1641699Y2074400D02*
G01*
X1639500Y2074280D01*
X1637400Y2073920D01*
X1635440Y2073320D01*
X1633600Y2072520D01*
X1631920Y2071500D01*
X1630420Y2070300D01*
X1629100Y2068920D01*
X1628000Y2067340D01*
X1627100Y2065620D01*
X1626440Y2063760D01*
X1626040Y2061740D01*
X1625900Y2059600D01*
X1631900Y2059600D01*
X1632080Y2061720D01*
X1632620Y2063640D01*
X1633500Y2065320D01*
X1634660Y2066759D01*
X1636060Y2067920D01*
X1637720Y2068779D01*
X1639580Y2069319D01*
X1641600Y2069500D01*
X1643940Y2069280D01*
X1646000Y2068640D01*
X1647760Y2067640D01*
X1649220Y2066320D01*
X1650380Y2064700D01*
X1651220Y2062880D01*
X1651720Y2060860D01*
X1651900Y2058700D01*
X1651500Y2055380D01*
X1650280Y2052220D01*
X1648280Y2049259D01*
X1645500Y2046500D01*
X1642940Y2047540D01*
X1640460Y2048680D01*
X1638160Y2049940D01*
X1636120Y2051360D01*
X1634379Y2053000D01*
X1633060Y2054900D01*
X1632200Y2057080D01*
X1631900Y2059600D01*
X1625900Y2059600D01*
X1626060Y2057400D01*
X1626540Y2055340D01*
X1627300Y2053440D01*
X1628280Y2051699D01*
X1629460Y2050100D01*
X1630800Y2048660D01*
X1632260Y2047360D01*
X1633800Y2046200D01*
X1633800Y2045900D01*
X1631819Y2044700D01*
X1629880Y2043240D01*
X1628060Y2041560D01*
X1626420Y2039620D01*
X1625020Y2037460D01*
X1623940Y2035080D01*
X1623240Y2032440D01*
X1623033Y2030000D01*
X1628899Y2030000D01*
X1629060Y2032160D01*
X1629520Y2034199D01*
X1630280Y2036140D01*
X1631279Y2037960D01*
X1632520Y2039620D01*
X1633959Y2041160D01*
X1635600Y2042560D01*
X1637400Y2043800D01*
X1641500Y2042100D01*
X1645280Y2040300D01*
X1647000Y2039319D01*
X1648540Y2038260D01*
X1649940Y2037100D01*
X1651120Y2035820D01*
X1652080Y2034420D01*
X1652800Y2032860D01*
X1653240Y2031120D01*
X1653400Y2029199D01*
X1653180Y2027040D01*
X1652540Y2025040D01*
X1651519Y2023280D01*
X1650120Y2021759D01*
X1648400Y2020500D01*
X1646399Y2019580D01*
X1644120Y2019000D01*
X1641600Y2018800D01*
X1638959Y2019019D01*
X1636540Y2019660D01*
X1634379Y2020660D01*
X1632520Y2022000D01*
X1631000Y2023640D01*
X1629860Y2025560D01*
X1629139Y2027680D01*
X1628899Y2030000D01*
X1623033Y2030000D01*
X1623000Y2029600D01*
X1623160Y2027380D01*
X1623620Y2025280D01*
X1624379Y2023320D01*
X1625420Y2021519D01*
X1626699Y2019860D01*
X1628240Y2018380D01*
X1629980Y2017100D01*
X1631940Y2016020D01*
X1634100Y2015160D01*
X1636420Y2014520D01*
X1638880Y2014139D01*
X1641500Y2014000D01*
X1644120Y2014139D01*
X1646600Y2014520D01*
X1648880Y2015160D01*
X1651000Y2016020D01*
X1652900Y2017100D01*
X1654600Y2018360D01*
X1656080Y2019780D01*
X1657300Y2021380D01*
X1658300Y2023120D01*
X1659000Y2024980D01*
X1659460Y2026940D01*
X1659600Y2029000D01*
X1659379Y2031840D01*
X1658779Y2034360D01*
X1657820Y2036600D01*
X1656560Y2038580D01*
X1655080Y2040320D01*
X1653400Y2041860D01*
X1651579Y2043200D01*
X1649700Y2044400D01*
X1649700Y2044800D01*
X1651020Y2045940D01*
X1652360Y2047280D01*
X1653700Y2048839D01*
X1654920Y2050580D01*
X1656000Y2052500D01*
X1656840Y2054540D01*
X1657400Y2056720D01*
X1657600Y2059000D01*
X1657480Y2061200D01*
X1657100Y2063260D01*
X1656500Y2065200D01*
X1655680Y2067000D01*
X1654620Y2068620D01*
X1653360Y2070080D01*
X1651900Y2071339D01*
X1650220Y2072400D01*
X1648360Y2073260D01*
X1646320Y2073880D01*
X1644100Y2074259D01*
G37*
G36*
X1602000Y2059300D02*
G01*
X1598660Y2059060D01*
X1595740Y2058360D01*
X1593220Y2057260D01*
X1591120Y2055800D01*
X1589480Y2054019D01*
X1588280Y2051960D01*
X1587540Y2049680D01*
X1587300Y2047200D01*
X1587600Y2044660D01*
X1588420Y2042500D01*
X1589720Y2040640D01*
X1591380Y2039079D01*
X1593320Y2037760D01*
X1595480Y2036639D01*
X1597760Y2035660D01*
X1603740Y2033360D01*
X1605440Y2032540D01*
X1606980Y2031600D01*
X1608300Y2030540D01*
X1609319Y2029319D01*
X1609960Y2027920D01*
X1610200Y2026300D01*
X1609640Y2023480D01*
X1607960Y2021200D01*
X1605140Y2019660D01*
X1601200Y2019100D01*
X1597420Y2019480D01*
X1594060Y2020540D01*
X1591040Y2022180D01*
X1588200Y2024300D01*
X1584900Y2019900D01*
X1586519Y2018680D01*
X1588280Y2017540D01*
X1590160Y2016540D01*
X1592160Y2015680D01*
X1594259Y2014980D01*
X1596440Y2014440D01*
X1598700Y2014120D01*
X1601000Y2014000D01*
X1604540Y2014259D01*
X1607620Y2015000D01*
X1610260Y2016160D01*
X1612460Y2017720D01*
X1614160Y2019580D01*
X1615400Y2021720D01*
X1616140Y2024079D01*
X1616399Y2026600D01*
X1616080Y2029420D01*
X1615200Y2031780D01*
X1613839Y2033720D01*
X1612100Y2035340D01*
X1610060Y2036680D01*
X1607800Y2037840D01*
X1599460Y2041160D01*
X1596459Y2042720D01*
X1594379Y2044780D01*
X1593600Y2047600D01*
X1594100Y2050100D01*
X1595620Y2052160D01*
X1598240Y2053580D01*
X1602000Y2054100D01*
X1604780Y2053800D01*
X1607320Y2052980D01*
X1609680Y2051780D01*
X1611900Y2050300D01*
X1615100Y2054500D01*
X1612400Y2056380D01*
X1609259Y2057920D01*
X1605780Y2058920D01*
G37*
G36*
X1577600Y1618700D02*
G01*
X1577600Y1562900D01*
X1578000Y1559100D01*
X1579259Y1556320D01*
X1581440Y1554580D01*
X1584600Y1554000D01*
X1586900Y1554139D01*
X1588600Y1554500D01*
X1587600Y1559600D01*
X1586699Y1559420D01*
X1586100Y1559400D01*
X1585320Y1559580D01*
X1584680Y1560120D01*
X1584259Y1561040D01*
X1584100Y1562400D01*
X1584100Y1618700D01*
G37*
G36*
X1633300Y1613600D02*
G01*
X1633300Y1608000D01*
X1662000Y1608000D01*
X1659280Y1604019D01*
X1656840Y1600080D01*
X1654680Y1596140D01*
X1652780Y1592180D01*
X1651140Y1588120D01*
X1649720Y1583980D01*
X1648540Y1579680D01*
X1647540Y1575220D01*
X1646759Y1570560D01*
X1646140Y1565660D01*
X1645700Y1560480D01*
X1645400Y1555000D01*
X1652200Y1555000D01*
X1652460Y1560540D01*
X1652840Y1565760D01*
X1653340Y1570700D01*
X1654019Y1575400D01*
X1654900Y1579900D01*
X1656020Y1584240D01*
X1656660Y1586380D01*
X1658200Y1590580D01*
X1660040Y1594740D01*
X1662240Y1598899D01*
X1664840Y1603120D01*
X1667840Y1607400D01*
X1669500Y1609600D01*
X1669500Y1613600D01*
G37*
G36*
X1699700Y1613600D02*
G01*
X1675389Y1576500D01*
X1681800Y1576500D01*
X1695900Y1597500D01*
X1700600Y1606000D01*
X1701000Y1606000D01*
X1700640Y1600760D01*
X1700500Y1595600D01*
X1700500Y1576500D01*
X1675389Y1576500D01*
X1674800Y1575600D01*
X1674800Y1571300D01*
X1700500Y1571300D01*
X1700500Y1555000D01*
X1706600Y1555000D01*
X1706600Y1571300D01*
X1714600Y1571300D01*
X1714600Y1576500D01*
X1706600Y1576500D01*
X1706600Y1613600D01*
G37*
G36*
X1612000Y1599300D02*
G01*
X1608660Y1599060D01*
X1605740Y1598360D01*
X1603220Y1597260D01*
X1601120Y1595800D01*
X1599480Y1594019D01*
X1598280Y1591960D01*
X1597540Y1589680D01*
X1597300Y1587200D01*
X1597600Y1584660D01*
X1598420Y1582500D01*
X1599720Y1580640D01*
X1601380Y1579079D01*
X1603320Y1577760D01*
X1605480Y1576639D01*
X1607760Y1575660D01*
X1613740Y1573360D01*
X1615440Y1572540D01*
X1616980Y1571600D01*
X1618300Y1570540D01*
X1619319Y1569319D01*
X1619960Y1567920D01*
X1620200Y1566300D01*
X1619640Y1563480D01*
X1617960Y1561200D01*
X1615140Y1559660D01*
X1611200Y1559100D01*
X1607420Y1559480D01*
X1604060Y1560540D01*
X1601040Y1562180D01*
X1598200Y1564300D01*
X1594900Y1559900D01*
X1596519Y1558680D01*
X1598280Y1557540D01*
X1600160Y1556540D01*
X1602160Y1555680D01*
X1604259Y1554980D01*
X1606440Y1554440D01*
X1608700Y1554120D01*
X1611000Y1554000D01*
X1614540Y1554259D01*
X1617620Y1555000D01*
X1620260Y1556160D01*
X1622460Y1557720D01*
X1624160Y1559580D01*
X1625400Y1561720D01*
X1626140Y1564079D01*
X1626399Y1566600D01*
X1626080Y1569420D01*
X1625200Y1571780D01*
X1623839Y1573720D01*
X1622100Y1575340D01*
X1620060Y1576680D01*
X1617800Y1577840D01*
X1609460Y1581160D01*
X1606459Y1582720D01*
X1604379Y1584780D01*
X1603600Y1587600D01*
X1604100Y1590100D01*
X1605620Y1592160D01*
X1608240Y1593580D01*
X1612000Y1594100D01*
X1614780Y1593800D01*
X1617320Y1592980D01*
X1619680Y1591780D01*
X1621900Y1590300D01*
X1625100Y1594500D01*
X1622400Y1596380D01*
X1619259Y1597920D01*
X1615780Y1598920D01*
G37*
G36*
X1587600Y1138700D02*
G01*
X1587600Y1082900D01*
X1588000Y1079100D01*
X1589259Y1076320D01*
X1591440Y1074580D01*
X1594600Y1074000D01*
X1596900Y1074140D01*
X1598600Y1074500D01*
X1597600Y1079600D01*
X1596699Y1079420D01*
X1596100Y1079400D01*
X1595320Y1079580D01*
X1594680Y1080120D01*
X1594259Y1081040D01*
X1594100Y1082400D01*
X1594100Y1138700D01*
G37*
G36*
X1661399Y1134600D02*
G01*
X1659360Y1134480D01*
X1657440Y1134140D01*
X1655620Y1133560D01*
X1653899Y1132760D01*
X1652300Y1131700D01*
X1650820Y1130420D01*
X1649460Y1128920D01*
X1648240Y1127160D01*
X1647140Y1125180D01*
X1646160Y1122940D01*
X1645340Y1120480D01*
X1644660Y1117760D01*
X1644100Y1114820D01*
X1643720Y1111620D01*
X1643480Y1108180D01*
X1643400Y1104500D01*
X1649700Y1104500D01*
X1649800Y1108580D01*
X1650080Y1112280D01*
X1650540Y1115580D01*
X1651180Y1118520D01*
X1651980Y1121100D01*
X1652920Y1123320D01*
X1654019Y1125160D01*
X1655260Y1126680D01*
X1656620Y1127820D01*
X1658100Y1128660D01*
X1659700Y1129140D01*
X1661399Y1129300D01*
X1663060Y1129140D01*
X1664620Y1128660D01*
X1666060Y1127820D01*
X1667400Y1126680D01*
X1668620Y1125160D01*
X1669700Y1123320D01*
X1670640Y1121100D01*
X1671420Y1118520D01*
X1672060Y1115580D01*
X1672520Y1112280D01*
X1672800Y1108580D01*
X1672900Y1104500D01*
X1672800Y1100340D01*
X1672520Y1096580D01*
X1672060Y1093200D01*
X1671420Y1090200D01*
X1670640Y1087580D01*
X1669700Y1085320D01*
X1668620Y1083440D01*
X1667400Y1081900D01*
X1666060Y1080700D01*
X1664620Y1079860D01*
X1663060Y1079360D01*
X1661399Y1079200D01*
X1659700Y1079360D01*
X1658100Y1079860D01*
X1656620Y1080700D01*
X1655260Y1081900D01*
X1654019Y1083440D01*
X1652920Y1085320D01*
X1651980Y1087580D01*
X1651180Y1090200D01*
X1650540Y1093200D01*
X1650080Y1096580D01*
X1649800Y1100340D01*
X1649700Y1104500D01*
X1643400Y1104500D01*
X1643480Y1100780D01*
X1643720Y1097300D01*
X1644100Y1094080D01*
X1644660Y1091080D01*
X1645340Y1088340D01*
X1646160Y1085840D01*
X1647140Y1083580D01*
X1648240Y1081560D01*
X1649460Y1079780D01*
X1650820Y1078240D01*
X1652300Y1076940D01*
X1653899Y1075880D01*
X1655620Y1075060D01*
X1657440Y1074460D01*
X1659360Y1074120D01*
X1661399Y1074000D01*
X1663400Y1074120D01*
X1665300Y1074460D01*
X1667100Y1075060D01*
X1668779Y1075880D01*
X1670360Y1076940D01*
X1671819Y1078240D01*
X1673160Y1079780D01*
X1674379Y1081560D01*
X1675480Y1083580D01*
X1676440Y1085840D01*
X1677260Y1088340D01*
X1677960Y1091080D01*
X1678500Y1094080D01*
X1678880Y1097300D01*
X1679120Y1100780D01*
X1679199Y1104500D01*
X1679120Y1108180D01*
X1678880Y1111620D01*
X1678500Y1114820D01*
X1677960Y1117760D01*
X1677260Y1120480D01*
X1676440Y1122940D01*
X1675480Y1125180D01*
X1674379Y1127160D01*
X1673160Y1128920D01*
X1671819Y1130420D01*
X1670360Y1131700D01*
X1668779Y1132760D01*
X1667100Y1133560D01*
X1665300Y1134140D01*
X1663400Y1134480D01*
G37*
G36*
X1709700Y1133600D02*
G01*
X1685389Y1096500D01*
X1691800Y1096500D01*
X1705900Y1117500D01*
X1710600Y1126000D01*
X1711000Y1126000D01*
X1710640Y1120760D01*
X1710500Y1115600D01*
X1710500Y1096500D01*
X1685389Y1096500D01*
X1684800Y1095600D01*
X1684800Y1091300D01*
X1710500Y1091300D01*
X1710500Y1075000D01*
X1716600Y1075000D01*
X1716600Y1091300D01*
X1724600Y1091300D01*
X1724600Y1096500D01*
X1716600Y1096500D01*
X1716600Y1133600D01*
G37*
G36*
X1622000Y1119300D02*
G01*
X1618660Y1119060D01*
X1615740Y1118360D01*
X1613220Y1117260D01*
X1611120Y1115800D01*
X1609480Y1114020D01*
X1608280Y1111960D01*
X1607540Y1109680D01*
X1607300Y1107200D01*
X1607600Y1104660D01*
X1608420Y1102500D01*
X1609720Y1100640D01*
X1611380Y1099080D01*
X1613320Y1097760D01*
X1615480Y1096640D01*
X1617760Y1095660D01*
X1623740Y1093360D01*
X1625440Y1092540D01*
X1626980Y1091600D01*
X1628300Y1090540D01*
X1629319Y1089320D01*
X1629960Y1087920D01*
X1630200Y1086300D01*
X1629640Y1083480D01*
X1627960Y1081200D01*
X1625140Y1079660D01*
X1621200Y1079100D01*
X1617420Y1079480D01*
X1614060Y1080540D01*
X1611040Y1082180D01*
X1608200Y1084300D01*
X1604900Y1079900D01*
X1606519Y1078680D01*
X1608280Y1077540D01*
X1610160Y1076540D01*
X1612160Y1075680D01*
X1614259Y1074980D01*
X1616440Y1074440D01*
X1618700Y1074120D01*
X1621000Y1074000D01*
X1624540Y1074260D01*
X1627620Y1075000D01*
X1630260Y1076160D01*
X1632460Y1077720D01*
X1634160Y1079580D01*
X1635400Y1081720D01*
X1636140Y1084080D01*
X1636399Y1086600D01*
X1636080Y1089420D01*
X1635200Y1091780D01*
X1633839Y1093720D01*
X1632100Y1095340D01*
X1630060Y1096680D01*
X1627800Y1097840D01*
X1619460Y1101160D01*
X1616459Y1102720D01*
X1614379Y1104780D01*
X1613600Y1107600D01*
X1614100Y1110100D01*
X1615620Y1112160D01*
X1618240Y1113580D01*
X1622000Y1114100D01*
X1624780Y1113800D01*
X1627320Y1112980D01*
X1629680Y1111780D01*
X1631900Y1110300D01*
X1635100Y1114500D01*
X1632400Y1116380D01*
X1629259Y1117920D01*
X1625780Y1118920D01*
G37*
G36*
X3187600Y1158700D02*
G01*
X3187600Y1102900D01*
X3188000Y1099100D01*
X3189260Y1096320D01*
X3191440Y1094580D01*
X3194600Y1094000D01*
X3196900Y1094140D01*
X3198600Y1094500D01*
X3197600Y1099600D01*
X3196700Y1099420D01*
X3196100Y1099400D01*
X3195320Y1099580D01*
X3194680Y1100120D01*
X3194260Y1101040D01*
X3194100Y1102400D01*
X3194100Y1158700D01*
G37*
G36*
X3261100Y1153600D02*
G01*
X3258700Y1152280D01*
X3255960Y1151180D01*
X3252840Y1150300D01*
X3249300Y1149600D01*
X3249300Y1145300D01*
X3259600Y1145300D01*
X3259600Y1100400D01*
X3246500Y1100400D01*
X3246500Y1095000D01*
X3278000Y1095000D01*
X3278000Y1100400D01*
X3266100Y1100400D01*
X3266100Y1153600D01*
G37*
G36*
X3292100Y1153600D02*
G01*
X3290200Y1126400D01*
X3293800Y1124100D01*
X3296240Y1125620D01*
X3298580Y1126720D01*
X3301019Y1127380D01*
X3303800Y1127600D01*
X3306520Y1127360D01*
X3308960Y1126660D01*
X3311100Y1125500D01*
X3312900Y1123920D01*
X3314340Y1121940D01*
X3315419Y1119580D01*
X3316080Y1116860D01*
X3316300Y1113800D01*
X3316040Y1110660D01*
X3315280Y1107840D01*
X3314100Y1105380D01*
X3312520Y1103300D01*
X3310600Y1101640D01*
X3308420Y1100420D01*
X3306000Y1099660D01*
X3303399Y1099400D01*
X3300940Y1099540D01*
X3298680Y1099960D01*
X3296640Y1100600D01*
X3294780Y1101420D01*
X3293100Y1102420D01*
X3291540Y1103540D01*
X3290120Y1104740D01*
X3288800Y1106000D01*
X3285500Y1101700D01*
X3287040Y1100240D01*
X3288759Y1098860D01*
X3290659Y1097540D01*
X3292799Y1096380D01*
X3295179Y1095400D01*
X3297820Y1094660D01*
X3300760Y1094180D01*
X3304000Y1094000D01*
X3306400Y1094140D01*
X3308759Y1094600D01*
X3311040Y1095320D01*
X3313220Y1096340D01*
X3315240Y1097640D01*
X3317080Y1099200D01*
X3318740Y1101040D01*
X3320160Y1103120D01*
X3321320Y1105480D01*
X3322180Y1108080D01*
X3322720Y1110920D01*
X3322900Y1114000D01*
X3322740Y1117080D01*
X3322280Y1119860D01*
X3321520Y1122360D01*
X3320500Y1124580D01*
X3319240Y1126520D01*
X3317740Y1128180D01*
X3316060Y1129580D01*
X3314200Y1130720D01*
X3312180Y1131600D01*
X3310020Y1132220D01*
X3307760Y1132580D01*
X3305400Y1132700D01*
X3302799Y1132520D01*
X3300460Y1132020D01*
X3298300Y1131220D01*
X3296200Y1130200D01*
X3297799Y1148000D01*
X3320100Y1148000D01*
X3320100Y1153600D01*
G37*
G36*
X3331100Y1153600D02*
G01*
X3331100Y1148000D01*
X3359800Y1148000D01*
X3357080Y1144020D01*
X3354640Y1140080D01*
X3352500Y1136140D01*
X3350600Y1132180D01*
X3348960Y1128120D01*
X3347559Y1123980D01*
X3346380Y1119680D01*
X3345400Y1115220D01*
X3344600Y1110560D01*
X3343980Y1105660D01*
X3343519Y1100480D01*
X3343200Y1095000D01*
X3350000Y1095000D01*
X3350280Y1100540D01*
X3350680Y1105760D01*
X3351180Y1110700D01*
X3351860Y1115400D01*
X3352740Y1119900D01*
X3353860Y1124240D01*
X3355240Y1128500D01*
X3356940Y1132660D01*
X3358960Y1136820D01*
X3361360Y1141000D01*
X3362700Y1143120D01*
X3365720Y1147400D01*
X3367400Y1149600D01*
X3367400Y1153600D01*
G37*
G36*
X3222000Y1139300D02*
G01*
X3218660Y1139060D01*
X3215740Y1138360D01*
X3213220Y1137260D01*
X3211120Y1135800D01*
X3209480Y1134020D01*
X3208279Y1131960D01*
X3207540Y1129680D01*
X3207300Y1127200D01*
X3207600Y1124660D01*
X3208420Y1122500D01*
X3209720Y1120640D01*
X3211380Y1119080D01*
X3213320Y1117760D01*
X3215480Y1116640D01*
X3217760Y1115660D01*
X3223740Y1113360D01*
X3225440Y1112540D01*
X3226980Y1111600D01*
X3228300Y1110540D01*
X3229320Y1109320D01*
X3229960Y1107920D01*
X3230200Y1106300D01*
X3229640Y1103480D01*
X3227960Y1101200D01*
X3225140Y1099660D01*
X3221200Y1099100D01*
X3217420Y1099480D01*
X3214060Y1100540D01*
X3211040Y1102180D01*
X3208200Y1104300D01*
X3204900Y1099900D01*
X3206520Y1098680D01*
X3208279Y1097540D01*
X3210160Y1096540D01*
X3212160Y1095680D01*
X3214260Y1094980D01*
X3216440Y1094440D01*
X3218700Y1094120D01*
X3221000Y1094000D01*
X3224540Y1094260D01*
X3227620Y1095000D01*
X3230260Y1096160D01*
X3232460Y1097720D01*
X3234160Y1099580D01*
X3235400Y1101720D01*
X3236139Y1104080D01*
X3236400Y1106600D01*
X3236080Y1109420D01*
X3235200Y1111780D01*
X3233840Y1113720D01*
X3232100Y1115340D01*
X3230059Y1116680D01*
X3227799Y1117840D01*
X3219460Y1121160D01*
X3216460Y1122720D01*
X3214380Y1124780D01*
X3213600Y1127600D01*
X3214100Y1130100D01*
X3215620Y1132160D01*
X3218240Y1133580D01*
X3222000Y1134100D01*
X3224780Y1133800D01*
X3227320Y1132980D01*
X3229680Y1131780D01*
X3231900Y1130300D01*
X3235100Y1134500D01*
X3232400Y1136380D01*
X3229260Y1137920D01*
X3225779Y1138920D01*
G37*
D10*
X2190500Y2825399D02*
G01*
X2170000Y2796799D01*
X2200699Y2796799D01*
X2190500Y2825399D02*
G01*
X2190500Y2782500D01*
X2214200Y2825399D02*
G01*
X2214200Y2782500D01*
X2214200Y2825399D02*
G01*
X2232600Y2825399D01*
X2238699Y2823400D01*
X2240799Y2821300D01*
X2242799Y2817199D01*
X2242799Y2813099D01*
X2240799Y2809000D01*
X2238699Y2806999D01*
X2232600Y2805000D01*
X2214200Y2805000D02*
G01*
X2232600Y2805000D01*
X2238699Y2802899D01*
X2240799Y2800900D01*
X2242799Y2796799D01*
X2242799Y2790599D01*
X2240799Y2786500D01*
X2238699Y2784499D01*
X2232600Y2782500D01*
X2214200Y2782500D01*
X2194499Y2365399D02*
G01*
X2174099Y2365399D01*
X2171999Y2346999D01*
X2174099Y2349000D01*
X2180200Y2351100D01*
X2186400Y2351100D01*
X2192500Y2349000D01*
X2196599Y2345000D01*
X2198599Y2338800D01*
X2198599Y2334699D01*
X2196599Y2328600D01*
X2192500Y2324499D01*
X2186400Y2322500D01*
X2180200Y2322500D01*
X2174099Y2324499D01*
X2171999Y2326500D01*
X2170000Y2330599D01*
X2212100Y2365399D02*
G01*
X2212100Y2322500D01*
X2212100Y2365399D02*
G01*
X2230500Y2365399D01*
X2236700Y2363400D01*
X2238699Y2361300D01*
X2240799Y2357199D01*
X2240799Y2353099D01*
X2238699Y2349000D01*
X2236700Y2346999D01*
X2230500Y2345000D01*
X2212100Y2345000D02*
G01*
X2230500Y2345000D01*
X2236700Y2342899D01*
X2238699Y2340900D01*
X2240799Y2336799D01*
X2240799Y2330599D01*
X2238699Y2326500D01*
X2236700Y2324499D01*
X2230500Y2322500D01*
X2212100Y2322500D01*
X2195500Y1905399D02*
G01*
X2175000Y1876799D01*
X2205699Y1876799D01*
X2195500Y1905399D02*
G01*
X2195500Y1862500D01*
X2249899Y1895199D02*
G01*
X2247799Y1899299D01*
X2243699Y1903400D01*
X2239600Y1905399D01*
X2231499Y1905399D01*
X2227399Y1903400D01*
X2223299Y1899299D01*
X2221199Y1895199D01*
X2219200Y1889000D01*
X2219200Y1878800D01*
X2221199Y1872699D01*
X2223299Y1868600D01*
X2227399Y1864499D01*
X2231499Y1862500D01*
X2239600Y1862500D01*
X2243699Y1864499D01*
X2247799Y1868600D01*
X2249899Y1872699D01*
X2194499Y1450399D02*
G01*
X2174099Y1450399D01*
X2171999Y1431999D01*
X2174099Y1434000D01*
X2180200Y1436100D01*
X2186400Y1436100D01*
X2192500Y1434000D01*
X2196599Y1430000D01*
X2198599Y1423800D01*
X2198599Y1419699D01*
X2196599Y1413600D01*
X2192500Y1409499D01*
X2186400Y1407500D01*
X2180200Y1407500D01*
X2174099Y1409499D01*
X2171999Y1411500D01*
X2170000Y1415599D01*
X2242799Y1440199D02*
G01*
X2240799Y1444299D01*
X2236700Y1448400D01*
X2232600Y1450399D01*
X2224399Y1450399D01*
X2220299Y1448400D01*
X2216199Y1444299D01*
X2214200Y1440199D01*
X2212100Y1434000D01*
X2212100Y1423800D01*
X2214200Y1417699D01*
X2216199Y1413600D01*
X2220299Y1409499D01*
X2224399Y1407500D01*
X2232600Y1407500D01*
X2236700Y1409499D01*
X2240799Y1413600D01*
X2242799Y1417699D01*
X2164099Y990399D02*
G01*
X2186599Y990399D01*
X2174300Y974000D01*
X2180500Y974000D01*
X2184499Y971999D01*
X2186599Y970000D01*
X2188599Y963800D01*
X2188599Y959699D01*
X2186599Y953600D01*
X2182500Y949499D01*
X2176400Y947500D01*
X2170200Y947500D01*
X2164099Y949499D01*
X2161999Y951500D01*
X2160000Y955599D01*
X2202100Y990399D02*
G01*
X2202100Y947500D01*
X2202100Y990399D02*
G01*
X2220500Y990399D01*
X2226700Y988400D01*
X2228699Y986300D01*
X2230799Y982199D01*
X2230799Y978099D01*
X2228699Y974000D01*
X2226700Y971999D01*
X2220500Y970000D01*
X2202100Y970000D02*
G01*
X2220500Y970000D01*
X2226700Y967899D01*
X2228699Y965900D01*
X2230799Y961799D01*
X2230799Y955599D01*
X2228699Y951500D01*
X2226700Y949499D01*
X2220500Y947500D01*
X2202100Y947500D01*
X2860200Y2564299D02*
G01*
X2864300Y2566399D01*
X2868400Y2570500D01*
X2870399Y2574499D01*
X2870399Y2582700D01*
X2868400Y2586799D01*
X2864300Y2590900D01*
X2860200Y2593000D01*
X2853999Y2595000D01*
X2843800Y2595000D01*
X2837700Y2593000D01*
X2833599Y2590900D01*
X2829499Y2586799D01*
X2827500Y2582700D01*
X2827500Y2574499D01*
X2829499Y2570500D01*
X2833599Y2566399D01*
X2837700Y2564299D01*
X2862200Y2550799D02*
G01*
X2864300Y2546700D01*
X2870399Y2540599D01*
X2827500Y2540599D01*
X2865200Y2089299D02*
G01*
X2869300Y2091399D01*
X2873400Y2095500D01*
X2875399Y2099499D01*
X2875399Y2107700D01*
X2873400Y2111799D01*
X2869300Y2115900D01*
X2865200Y2118000D01*
X2858999Y2120000D01*
X2848800Y2120000D01*
X2842700Y2118000D01*
X2838599Y2115900D01*
X2834499Y2111799D01*
X2832500Y2107700D01*
X2832500Y2099499D01*
X2834499Y2095500D01*
X2838599Y2091399D01*
X2842700Y2089299D01*
X2865200Y2073800D02*
G01*
X2867200Y2073800D01*
X2871300Y2071700D01*
X2873400Y2069699D01*
X2875399Y2065599D01*
X2875399Y2057399D01*
X2873400Y2053299D01*
X2871300Y2051300D01*
X2867200Y2049200D01*
X2863100Y2049200D01*
X2858999Y2051300D01*
X2852899Y2055399D01*
X2832500Y2075799D01*
X2832500Y2047199D01*
X2870200Y1459299D02*
G01*
X2874300Y1461399D01*
X2878400Y1465500D01*
X2880399Y1469499D01*
X2880399Y1477699D01*
X2878400Y1481799D01*
X2874300Y1485900D01*
X2870200Y1488000D01*
X2863999Y1490000D01*
X2853800Y1490000D01*
X2847700Y1488000D01*
X2843599Y1485900D01*
X2839499Y1481799D01*
X2837500Y1477699D01*
X2837500Y1469499D01*
X2839499Y1465500D01*
X2843599Y1461399D01*
X2847700Y1459299D01*
X2880399Y1441700D02*
G01*
X2880399Y1419200D01*
X2863999Y1431500D01*
X2863999Y1425399D01*
X2861999Y1421300D01*
X2860000Y1419200D01*
X2853800Y1417199D01*
X2849700Y1417199D01*
X2843599Y1419200D01*
X2839499Y1423299D01*
X2837500Y1429499D01*
X2837500Y1435599D01*
X2839499Y1441700D01*
X2841499Y1443800D01*
X2845600Y1445799D01*
X4080200Y894299D02*
G01*
X4084300Y896399D01*
X4088400Y900500D01*
X4090399Y904499D01*
X4090399Y912699D01*
X4088400Y916799D01*
X4084300Y920900D01*
X4080200Y923000D01*
X4073999Y925000D01*
X4063800Y925000D01*
X4057700Y923000D01*
X4053599Y920900D01*
X4049499Y916799D01*
X4047500Y912699D01*
X4047500Y904499D01*
X4049499Y900500D01*
X4053599Y896399D01*
X4057700Y894299D01*
X4090399Y860399D02*
G01*
X4061800Y880799D01*
X4061800Y850100D01*
X4090399Y860399D02*
G01*
X4047500Y860399D01*
X1400200Y2709299D02*
G01*
X1404300Y2711399D01*
X1408400Y2715500D01*
X1410399Y2719499D01*
X1410399Y2727700D01*
X1408400Y2731799D01*
X1404300Y2735900D01*
X1400200Y2738000D01*
X1393999Y2740000D01*
X1383800Y2740000D01*
X1377700Y2738000D01*
X1373599Y2735900D01*
X1369499Y2731799D01*
X1367500Y2727700D01*
X1367500Y2719499D01*
X1369499Y2715500D01*
X1373599Y2711399D01*
X1377700Y2709299D01*
X1410399Y2671300D02*
G01*
X1410399Y2691700D01*
X1391999Y2693800D01*
X1393999Y2691700D01*
X1396099Y2685599D01*
X1396099Y2679499D01*
X1393999Y2673299D01*
X1390000Y2669200D01*
X1383800Y2667199D01*
X1379700Y2667199D01*
X1373599Y2669200D01*
X1369499Y2673299D01*
X1367500Y2679499D01*
X1367500Y2685599D01*
X1369499Y2691700D01*
X1371499Y2693800D01*
X1375600Y2695799D01*
X1460200Y2624299D02*
G01*
X1464300Y2626399D01*
X1468400Y2630500D01*
X1470399Y2634499D01*
X1470399Y2642700D01*
X1468400Y2646799D01*
X1464300Y2650900D01*
X1460200Y2653000D01*
X1453999Y2655000D01*
X1443800Y2655000D01*
X1437700Y2653000D01*
X1433599Y2650900D01*
X1429499Y2646799D01*
X1427500Y2642700D01*
X1427500Y2634499D01*
X1429499Y2630500D01*
X1433599Y2626399D01*
X1437700Y2624299D01*
X1464300Y2586300D02*
G01*
X1468400Y2588299D01*
X1470399Y2594499D01*
X1470399Y2598499D01*
X1468400Y2604699D01*
X1462200Y2608800D01*
X1451999Y2610799D01*
X1441800Y2610799D01*
X1433599Y2608800D01*
X1429499Y2604699D01*
X1427500Y2598499D01*
X1427500Y2596500D01*
X1429499Y2590399D01*
X1433599Y2586300D01*
X1439700Y2584200D01*
X1441800Y2584200D01*
X1447899Y2586300D01*
X1451999Y2590399D01*
X1453999Y2596500D01*
X1453999Y2598499D01*
X1451999Y2604699D01*
X1447899Y2608800D01*
X1441800Y2610799D01*
X1395200Y2159299D02*
G01*
X1399300Y2161399D01*
X1403400Y2165500D01*
X1405399Y2169499D01*
X1405399Y2177700D01*
X1403400Y2181799D01*
X1399300Y2185900D01*
X1395200Y2188000D01*
X1388999Y2190000D01*
X1378800Y2190000D01*
X1372700Y2188000D01*
X1368599Y2185900D01*
X1364499Y2181799D01*
X1362500Y2177700D01*
X1362500Y2169499D01*
X1364499Y2165500D01*
X1368599Y2161399D01*
X1372700Y2159299D01*
X1405399Y2135599D02*
G01*
X1403400Y2141700D01*
X1399300Y2143800D01*
X1395200Y2143800D01*
X1391099Y2141700D01*
X1388999Y2137600D01*
X1386999Y2129499D01*
X1385000Y2123299D01*
X1380900Y2119200D01*
X1376800Y2117199D01*
X1370600Y2117199D01*
X1366499Y2119200D01*
X1364499Y2121300D01*
X1362500Y2127399D01*
X1362500Y2135599D01*
X1364499Y2141700D01*
X1366499Y2143800D01*
X1370600Y2145799D01*
X1376800Y2145799D01*
X1380900Y2143800D01*
X1385000Y2139699D01*
X1386999Y2133499D01*
X1388999Y2125399D01*
X1391099Y2121300D01*
X1395200Y2119200D01*
X1399300Y2119200D01*
X1403400Y2121300D01*
X1405399Y2127399D01*
X1405399Y2135599D01*
X1395200Y1704299D02*
G01*
X1399300Y1706399D01*
X1403400Y1710500D01*
X1405399Y1714499D01*
X1405399Y1722699D01*
X1403400Y1726799D01*
X1399300Y1730900D01*
X1395200Y1733000D01*
X1388999Y1735000D01*
X1378800Y1735000D01*
X1372700Y1733000D01*
X1368599Y1730900D01*
X1364499Y1726799D01*
X1362500Y1722699D01*
X1362500Y1714499D01*
X1364499Y1710500D01*
X1368599Y1706399D01*
X1372700Y1704299D01*
X1391099Y1664200D02*
G01*
X1385000Y1666300D01*
X1380900Y1670399D01*
X1378800Y1676500D01*
X1378800Y1678499D01*
X1380900Y1684699D01*
X1385000Y1688800D01*
X1391099Y1690799D01*
X1393100Y1690799D01*
X1399300Y1688800D01*
X1403400Y1684699D01*
X1405399Y1678499D01*
X1405399Y1676500D01*
X1403400Y1670399D01*
X1399300Y1666300D01*
X1391099Y1664200D01*
X1380900Y1664200D01*
X1370600Y1666300D01*
X1364499Y1670399D01*
X1362500Y1676500D01*
X1362500Y1680599D01*
X1364499Y1686700D01*
X1368599Y1688800D01*
X1395200Y1249299D02*
G01*
X1399300Y1251399D01*
X1403400Y1255500D01*
X1405399Y1259499D01*
X1405399Y1267699D01*
X1403400Y1271799D01*
X1399300Y1275900D01*
X1395200Y1278000D01*
X1388999Y1280000D01*
X1378800Y1280000D01*
X1372700Y1278000D01*
X1368599Y1275900D01*
X1364499Y1271799D01*
X1362500Y1267699D01*
X1362500Y1259499D01*
X1364499Y1255500D01*
X1368599Y1251399D01*
X1372700Y1249299D01*
X1397200Y1235799D02*
G01*
X1399300Y1231700D01*
X1405399Y1225599D01*
X1362500Y1225599D01*
X1405399Y1199800D02*
G01*
X1403400Y1205999D01*
X1397200Y1210000D01*
X1386999Y1212100D01*
X1380900Y1212100D01*
X1370600Y1210000D01*
X1364499Y1205999D01*
X1362500Y1199800D01*
X1362500Y1195700D01*
X1364499Y1189600D01*
X1370600Y1185500D01*
X1380900Y1183499D01*
X1386999Y1183499D01*
X1397200Y1185500D01*
X1403400Y1189600D01*
X1405399Y1195700D01*
X1405399Y1199800D01*
X4030500Y2845399D02*
G01*
X4010000Y2816799D01*
X4040699Y2816799D01*
X4030500Y2845399D02*
G01*
X4030500Y2802500D01*
X4070500Y2845399D02*
G01*
X4054200Y2802500D01*
X4070500Y2845399D02*
G01*
X4086899Y2802500D01*
X4060299Y2816799D02*
G01*
X4080799Y2816799D01*
X4024099Y1595399D02*
G01*
X4046599Y1595399D01*
X4034300Y1579000D01*
X4040500Y1579000D01*
X4044499Y1576999D01*
X4046599Y1575000D01*
X4048599Y1568800D01*
X4048599Y1564699D01*
X4046599Y1558600D01*
X4042500Y1554499D01*
X4036400Y1552500D01*
X4030200Y1552500D01*
X4024099Y1554499D01*
X4021999Y1556500D01*
X4020000Y1560599D01*
X4078500Y1595399D02*
G01*
X4062100Y1552500D01*
X4078500Y1595399D02*
G01*
X4094899Y1552500D01*
X4068299Y1566799D02*
G01*
X4088699Y1566799D01*
X4016999Y2225200D02*
G01*
X4016999Y2227199D01*
X4019099Y2231300D01*
X4021099Y2233400D01*
X4025200Y2235399D01*
X4033400Y2235399D01*
X4037500Y2233400D01*
X4039499Y2231300D01*
X4041599Y2227199D01*
X4041599Y2223099D01*
X4039499Y2219000D01*
X4035500Y2212899D01*
X4015000Y2192500D01*
X4043599Y2192500D01*
X4073500Y2235399D02*
G01*
X4057100Y2192500D01*
X4073500Y2235399D02*
G01*
X4089899Y2192500D01*
X4063299Y2206799D02*
G01*
X4083699Y2206799D01*
X3801999Y1015189D02*
G01*
X3801999Y1017190D01*
X3804099Y1021289D01*
X3806099Y1023389D01*
X3810200Y1025390D01*
X3818400Y1025390D01*
X3822500Y1023389D01*
X3824499Y1021289D01*
X3826599Y1017190D01*
X3826599Y1013090D01*
X3824499Y1009090D01*
X3820500Y1002890D01*
X3800000Y982489D01*
X3828599Y982489D01*
X3842100Y1025390D02*
G01*
X3842100Y982489D01*
X3842100Y1025390D02*
G01*
X3860500Y1025390D01*
X3866700Y1023389D01*
X3868699Y1021289D01*
X3870799Y1017190D01*
X3870799Y1013090D01*
X3868699Y1009090D01*
X3866700Y1006990D01*
X3860500Y1004989D01*
X3842100Y1004989D02*
G01*
X3860500Y1004989D01*
X3866700Y1002890D01*
X3868699Y1000889D01*
X3870799Y996790D01*
X3870799Y990590D01*
X3868699Y986590D01*
X3866700Y984490D01*
X3860500Y982489D01*
X3842100Y982489D01*
D11*
X2262253Y3020520D02*
G01*
X2262253Y2760679D01*
X1506346Y3020520D02*
G01*
X1564584Y3020520D01*
X1604014Y3020520D02*
G01*
X1664584Y3020520D01*
X1704014Y3020520D02*
G01*
X1764584Y3020520D01*
X1804014Y3020520D02*
G01*
X1864584Y3020520D01*
X1904014Y3020520D02*
G01*
X1964584Y3020520D01*
X2004014Y3020520D02*
G01*
X2064584Y3020520D01*
X2104014Y3020520D02*
G01*
X2164584Y3020520D01*
X2204014Y3020520D02*
G01*
X2262253Y3020520D01*
X1506346Y2760679D02*
G01*
X1544605Y2760679D01*
X1623995Y2760679D02*
G01*
X1664584Y2760679D01*
X1704014Y2760679D02*
G01*
X1764584Y2760679D01*
X1804014Y2760679D02*
G01*
X1864584Y2760679D01*
X1904014Y2760679D02*
G01*
X1964584Y2760679D01*
X2004014Y2760679D02*
G01*
X2064584Y2760679D01*
X2104014Y2760679D02*
G01*
X2164584Y2760679D01*
X2204014Y2760679D02*
G01*
X2262253Y2760679D01*
X1506346Y3020520D02*
G01*
X1506346Y2928591D01*
X1506346Y2760679D02*
G01*
X1506346Y2852600D01*
X2267253Y2565520D02*
G01*
X2267253Y2305679D01*
X1511346Y2565520D02*
G01*
X1569584Y2565520D01*
X1609014Y2565520D02*
G01*
X1669584Y2565520D01*
X1709014Y2565520D02*
G01*
X1769584Y2565520D01*
X1809014Y2565520D02*
G01*
X1869584Y2565520D01*
X1909014Y2565520D02*
G01*
X1969584Y2565520D01*
X2009014Y2565520D02*
G01*
X2069584Y2565520D01*
X2109014Y2565520D02*
G01*
X2169584Y2565520D01*
X2209014Y2565520D02*
G01*
X2267253Y2565520D01*
X1511346Y2305679D02*
G01*
X1549605Y2305679D01*
X1628995Y2305679D02*
G01*
X1669584Y2305679D01*
X1709014Y2305679D02*
G01*
X1769584Y2305679D01*
X1809014Y2305679D02*
G01*
X1869584Y2305679D01*
X1909014Y2305679D02*
G01*
X1969584Y2305679D01*
X2009014Y2305679D02*
G01*
X2069584Y2305679D01*
X2109014Y2305679D02*
G01*
X2169584Y2305679D01*
X2209014Y2305679D02*
G01*
X2267253Y2305679D01*
X1511346Y2565520D02*
G01*
X1511346Y2473591D01*
X1511346Y2305679D02*
G01*
X1511346Y2397600D01*
X2267253Y2100520D02*
G01*
X2267253Y1840679D01*
X1511346Y2100520D02*
G01*
X1569584Y2100520D01*
X1609014Y2100520D02*
G01*
X1669584Y2100520D01*
X1709014Y2100520D02*
G01*
X1769584Y2100520D01*
X1809014Y2100520D02*
G01*
X1869584Y2100520D01*
X1909014Y2100520D02*
G01*
X1969584Y2100520D01*
X2009014Y2100520D02*
G01*
X2069584Y2100520D01*
X2109014Y2100520D02*
G01*
X2169584Y2100520D01*
X2209014Y2100520D02*
G01*
X2267253Y2100520D01*
X1511346Y1840679D02*
G01*
X1549605Y1840679D01*
X1628995Y1840679D02*
G01*
X1669584Y1840679D01*
X1709014Y1840679D02*
G01*
X1769584Y1840679D01*
X1809014Y1840679D02*
G01*
X1869584Y1840679D01*
X1909014Y1840679D02*
G01*
X1969584Y1840679D01*
X2009014Y1840679D02*
G01*
X2069584Y1840679D01*
X2109014Y1840679D02*
G01*
X2169584Y1840679D01*
X2209014Y1840679D02*
G01*
X2267253Y1840679D01*
X1511346Y2100520D02*
G01*
X1511346Y2008591D01*
X1511346Y1840679D02*
G01*
X1511346Y1932600D01*
X2262253Y1640520D02*
G01*
X2262253Y1380679D01*
X1506346Y1640520D02*
G01*
X1564584Y1640520D01*
X1604014Y1640520D02*
G01*
X1664584Y1640520D01*
X1704014Y1640520D02*
G01*
X1764584Y1640520D01*
X1804014Y1640520D02*
G01*
X1864584Y1640520D01*
X1904014Y1640520D02*
G01*
X1964584Y1640520D01*
X2004014Y1640520D02*
G01*
X2064584Y1640520D01*
X2104014Y1640520D02*
G01*
X2164584Y1640520D01*
X2204014Y1640520D02*
G01*
X2262253Y1640520D01*
X1506346Y1380679D02*
G01*
X1544605Y1380679D01*
X1623995Y1380679D02*
G01*
X1664584Y1380679D01*
X1704014Y1380679D02*
G01*
X1764584Y1380679D01*
X1804014Y1380679D02*
G01*
X1864584Y1380679D01*
X1904014Y1380679D02*
G01*
X1964584Y1380679D01*
X2004014Y1380679D02*
G01*
X2064584Y1380679D01*
X2104014Y1380679D02*
G01*
X2164584Y1380679D01*
X2204014Y1380679D02*
G01*
X2262253Y1380679D01*
X1506346Y1640520D02*
G01*
X1506346Y1548591D01*
X1506346Y1380679D02*
G01*
X1506346Y1472600D01*
D12*
X2666300Y2934699D02*
G01*
X2462399Y2934699D01*
X2462399Y925300D01*
X2948999Y925300D01*
X2948999Y2934699D01*
X2745100Y2934699D01*
X2351000Y2934699D02*
G01*
X2351000Y925300D01*
X3060399Y925300D01*
X3060399Y2934699D01*
X2351000Y2934699D01*
D11*
X2267253Y1180520D02*
G01*
X2267253Y920679D01*
X1511346Y1180520D02*
G01*
X1569584Y1180520D01*
X1609014Y1180520D02*
G01*
X1669584Y1180520D01*
X1709014Y1180520D02*
G01*
X1769584Y1180520D01*
X1809014Y1180520D02*
G01*
X1869584Y1180520D01*
X1909014Y1180520D02*
G01*
X1969584Y1180520D01*
X2009014Y1180520D02*
G01*
X2069584Y1180520D01*
X2109014Y1180520D02*
G01*
X2169584Y1180520D01*
X2209014Y1180520D02*
G01*
X2267253Y1180520D01*
X1511346Y920679D02*
G01*
X1549605Y920679D01*
X1628995Y920679D02*
G01*
X1669584Y920679D01*
X1709014Y920679D02*
G01*
X1769584Y920679D01*
X1809014Y920679D02*
G01*
X1869584Y920679D01*
X1909014Y920679D02*
G01*
X1969584Y920679D01*
X2009014Y920679D02*
G01*
X2069584Y920679D01*
X2109014Y920679D02*
G01*
X2169584Y920679D01*
X2209014Y920679D02*
G01*
X2267253Y920679D01*
X1511346Y1180520D02*
G01*
X1511346Y1088591D01*
X1511346Y920679D02*
G01*
X1511346Y1012600D01*
X2800785Y2627053D02*
G01*
X2800785Y2882957D01*
X2899214Y2882959D02*
G01*
X2899214Y2627051D01*
X2899214Y2882959D02*
G01*
X2877807Y2882959D01*
X2822192Y2882959D02*
G01*
X2800785Y2882959D01*
X2899214Y2627051D02*
G01*
X2877818Y2627051D01*
X2822181Y2627051D02*
G01*
X2800785Y2627051D01*
X2800785Y2142053D02*
G01*
X2800785Y2397957D01*
X2899214Y2397959D02*
G01*
X2899214Y2142051D01*
X2899214Y2397959D02*
G01*
X2877807Y2397959D01*
X2822192Y2397959D02*
G01*
X2800785Y2397959D01*
X2899214Y2142051D02*
G01*
X2877818Y2142051D01*
X2822181Y2142051D02*
G01*
X2800785Y2142051D01*
X2909214Y1767946D02*
G01*
X2909214Y1512042D01*
X2810785Y1512040D02*
G01*
X2810785Y1767948D01*
X2810785Y1512040D02*
G01*
X2832192Y1512040D01*
X2887807Y1512040D02*
G01*
X2909214Y1512040D01*
X2810785Y1767948D02*
G01*
X2832181Y1767948D01*
X2887818Y1767948D02*
G01*
X2909214Y1767948D01*
X4025785Y952053D02*
G01*
X4025785Y1207957D01*
X4124214Y1207959D02*
G01*
X4124214Y952051D01*
X4124214Y1207959D02*
G01*
X4102807Y1207959D01*
X4047192Y1207959D02*
G01*
X4025785Y1207959D01*
X4124214Y952051D02*
G01*
X4102818Y952051D01*
X4047181Y952051D02*
G01*
X4025785Y952051D01*
X1380086Y2757653D02*
G01*
X1380086Y3013557D01*
X1478513Y3013559D02*
G01*
X1478513Y2757651D01*
X1478513Y3013559D02*
G01*
X1457106Y3013559D01*
X1401493Y3013559D02*
G01*
X1380086Y3013559D01*
X1478513Y2757651D02*
G01*
X1457119Y2757651D01*
X1401481Y2757651D02*
G01*
X1380086Y2757651D01*
X1370086Y2307653D02*
G01*
X1370086Y2563557D01*
X1468513Y2563559D02*
G01*
X1468513Y2307651D01*
X1468513Y2563559D02*
G01*
X1447106Y2563559D01*
X1391493Y2563559D02*
G01*
X1370086Y2563559D01*
X1468513Y2307651D02*
G01*
X1447119Y2307651D01*
X1391481Y2307651D02*
G01*
X1370086Y2307651D01*
X1380086Y1837653D02*
G01*
X1380086Y2093557D01*
X1478513Y2093559D02*
G01*
X1478513Y1837651D01*
X1478513Y2093559D02*
G01*
X1457106Y2093559D01*
X1401493Y2093559D02*
G01*
X1380086Y2093559D01*
X1478513Y1837651D02*
G01*
X1457119Y1837651D01*
X1401481Y1837651D02*
G01*
X1380086Y1837651D01*
X1370086Y1377653D02*
G01*
X1370086Y1633557D01*
X1468513Y1633559D02*
G01*
X1468513Y1377651D01*
X1468513Y1633559D02*
G01*
X1447106Y1633559D01*
X1391493Y1633559D02*
G01*
X1370086Y1633559D01*
X1468513Y1377651D02*
G01*
X1447119Y1377651D01*
X1391481Y1377651D02*
G01*
X1370086Y1377651D01*
X1370086Y907653D02*
G01*
X1370086Y1163557D01*
X1468513Y1163559D02*
G01*
X1468513Y907651D01*
X1468513Y1163559D02*
G01*
X1447106Y1163559D01*
X1391493Y1163559D02*
G01*
X1370086Y1163559D01*
X1468513Y907651D02*
G01*
X1447119Y907651D01*
X1391481Y907651D02*
G01*
X1370086Y907651D01*
X4117874Y3010000D02*
G01*
X4117874Y2760000D01*
X3102125Y3010000D02*
G01*
X3102125Y2940000D01*
X3102125Y2940000D02*
G01*
X3102125Y2925000D01*
X3100000Y2760000D02*
G01*
X3100000Y2845000D01*
X3102125Y3010000D02*
G01*
X3123167Y3010000D01*
X3196832Y3010000D02*
G01*
X3223167Y3010000D01*
X3296832Y3010000D02*
G01*
X3323167Y3010000D01*
X3396832Y3010000D02*
G01*
X3423167Y3010000D01*
X3496832Y3010000D02*
G01*
X3523167Y3010000D01*
X3596832Y3010000D02*
G01*
X3623167Y3010000D01*
X3696832Y3010000D02*
G01*
X3723167Y3010000D01*
X3796832Y3010000D02*
G01*
X3823167Y3010000D01*
X3896832Y3010000D02*
G01*
X3923167Y3010000D01*
X3996832Y3010000D02*
G01*
X4023167Y3010000D01*
X4096832Y3010000D02*
G01*
X4117874Y3010000D01*
X3100000Y2760000D02*
G01*
X3123167Y2760000D01*
X3196832Y2760000D02*
G01*
X3223167Y2760000D01*
X3296832Y2760000D02*
G01*
X3323167Y2760000D01*
X3396832Y2760000D02*
G01*
X3423167Y2760000D01*
X3496832Y2760000D02*
G01*
X3523167Y2760000D01*
X3596832Y2760000D02*
G01*
X3623167Y2760000D01*
X3696832Y2760000D02*
G01*
X3723167Y2760000D01*
X3796832Y2760000D02*
G01*
X3823167Y2760000D01*
X3896832Y2760000D02*
G01*
X3923167Y2760000D01*
X3996832Y2760000D02*
G01*
X4023167Y2760000D01*
X4096832Y2760000D02*
G01*
X4117874Y2760000D01*
X4127874Y1770000D02*
G01*
X4127874Y1520000D01*
X3112125Y1770000D02*
G01*
X3112125Y1700000D01*
X3112125Y1700000D02*
G01*
X3112125Y1685000D01*
X3110000Y1520000D02*
G01*
X3110000Y1605000D01*
X3112125Y1770000D02*
G01*
X3133167Y1770000D01*
X3206832Y1770000D02*
G01*
X3233167Y1770000D01*
X3306832Y1770000D02*
G01*
X3333167Y1770000D01*
X3406832Y1770000D02*
G01*
X3433167Y1770000D01*
X3506832Y1770000D02*
G01*
X3533167Y1770000D01*
X3606832Y1770000D02*
G01*
X3633167Y1770000D01*
X3706832Y1770000D02*
G01*
X3733167Y1770000D01*
X3806832Y1770000D02*
G01*
X3833167Y1770000D01*
X3906832Y1770000D02*
G01*
X3933167Y1770000D01*
X4006832Y1770000D02*
G01*
X4033167Y1770000D01*
X4106832Y1770000D02*
G01*
X4127874Y1770000D01*
X3110000Y1520000D02*
G01*
X3133167Y1520000D01*
X3206832Y1520000D02*
G01*
X3233167Y1520000D01*
X3306832Y1520000D02*
G01*
X3333167Y1520000D01*
X3406832Y1520000D02*
G01*
X3433167Y1520000D01*
X3506832Y1520000D02*
G01*
X3533167Y1520000D01*
X3606832Y1520000D02*
G01*
X3633167Y1520000D01*
X3706832Y1520000D02*
G01*
X3733167Y1520000D01*
X3806832Y1520000D02*
G01*
X3833167Y1520000D01*
X3906832Y1520000D02*
G01*
X3933167Y1520000D01*
X4006832Y1520000D02*
G01*
X4033167Y1520000D01*
X4106832Y1520000D02*
G01*
X4127874Y1520000D01*
X4117874Y2400000D02*
G01*
X4117874Y2150000D01*
X3102125Y2400000D02*
G01*
X3102125Y2330000D01*
X3102125Y2330000D02*
G01*
X3102125Y2315000D01*
X3100000Y2150000D02*
G01*
X3100000Y2235000D01*
X3102125Y2400000D02*
G01*
X3123167Y2400000D01*
X3196832Y2400000D02*
G01*
X3223167Y2400000D01*
X3296832Y2400000D02*
G01*
X3323167Y2400000D01*
X3396832Y2400000D02*
G01*
X3423167Y2400000D01*
X3496832Y2400000D02*
G01*
X3523167Y2400000D01*
X3596832Y2400000D02*
G01*
X3623167Y2400000D01*
X3696832Y2400000D02*
G01*
X3723167Y2400000D01*
X3796832Y2400000D02*
G01*
X3823167Y2400000D01*
X3896832Y2400000D02*
G01*
X3923167Y2400000D01*
X3996832Y2400000D02*
G01*
X4023167Y2400000D01*
X4096832Y2400000D02*
G01*
X4117874Y2400000D01*
X3100000Y2150000D02*
G01*
X3123167Y2150000D01*
X3196832Y2150000D02*
G01*
X3223167Y2150000D01*
X3296832Y2150000D02*
G01*
X3323167Y2150000D01*
X3396832Y2150000D02*
G01*
X3423167Y2150000D01*
X3496832Y2150000D02*
G01*
X3523167Y2150000D01*
X3596832Y2150000D02*
G01*
X3623167Y2150000D01*
X3696832Y2150000D02*
G01*
X3723167Y2150000D01*
X3796832Y2150000D02*
G01*
X3823167Y2150000D01*
X3896832Y2150000D02*
G01*
X3923167Y2150000D01*
X3996832Y2150000D02*
G01*
X4023167Y2150000D01*
X4096832Y2150000D02*
G01*
X4117874Y2150000D01*
X3913701Y1195983D02*
G01*
X3913701Y944016D01*
X3126298Y1195983D02*
G01*
X3137592Y1195983D01*
X3202407Y1195983D02*
G01*
X3237592Y1195983D01*
X3302407Y1195983D02*
G01*
X3337592Y1195983D01*
X3402407Y1195983D02*
G01*
X3437592Y1195983D01*
X3502407Y1195983D02*
G01*
X3537592Y1195983D01*
X3602407Y1195983D02*
G01*
X3637592Y1195983D01*
X3702407Y1195983D02*
G01*
X3737592Y1195983D01*
X3802407Y1195983D02*
G01*
X3837592Y1195983D01*
X3902407Y1195983D02*
G01*
X3913701Y1195983D01*
X3126298Y944016D02*
G01*
X3127435Y944016D01*
X3212565Y944016D02*
G01*
X3237593Y944016D01*
X3302406Y944016D02*
G01*
X3337593Y944016D01*
X3402406Y944016D02*
G01*
X3437593Y944016D01*
X3502406Y944016D02*
G01*
X3537593Y944016D01*
X3602406Y944016D02*
G01*
X3637593Y944016D01*
X3702406Y944016D02*
G01*
X3737593Y944016D01*
X3802406Y944016D02*
G01*
X3837593Y944016D01*
X3902406Y944016D02*
G01*
X3913701Y944016D01*
X3126298Y944016D02*
G01*
X3126298Y1040471D01*
X3126298Y1195983D02*
G01*
X3126298Y1099528D01*
G75*
G01*
X1506347Y2928592D02*
G02*
X1506300Y2852600I-24J-37996D01*
G75*
G01*
X1511347Y2473592D02*
G02*
X1511300Y2397600I-24J-37996D01*
G75*
G01*
X1511347Y2008592D02*
G02*
X1511300Y1932600I-24J-37996D01*
G75*
G01*
X1506347Y1548592D02*
G02*
X1506300Y1472600I-24J-37996D01*
D12*
G75*
G01*
X2666329Y2934724D02*
G03*
X2745069Y2934724I39370J0D01*
D11*
G75*
G01*
X1511347Y1088592D02*
G02*
X1511300Y1012600I-24J-37996D01*
G75*
G01*
X3102126Y2925000D02*
G02*
X3100000Y2845000I-1063J-40000D01*
G75*
G01*
X3112126Y1685000D02*
G02*
X3110000Y1605000I-1063J-40000D01*
G75*
G01*
X3102126Y2315000D02*
G02*
X3100000Y2235000I-1063J-40000D01*
G75*
G01*
X3126299Y1099528D02*
G02*
X3126300Y1040520I1J-29504D01*
D13*
G75*
G01
X2530000Y2880000D02*
G03X2530000Y2880000I-15000J0D01*
D11*
G75*
G01
X1517300Y2706600D02*
G03X1517300Y2706600I-5000J0D01*
G75*
G01
X1522300Y2251600D02*
G03X1522300Y2251600I-5000J0D01*
G75*
G01
X1522300Y1786600D02*
G03X1522300Y1786600I-5000J0D01*
G75*
G01
X1517300Y1326600D02*
G03X1517300Y1326600I-5000J0D01*
G75*
G01
X1522300Y866600D02*
G03X1522300Y866600I-5000J0D01*
D14*
G75*
G01
X3170000Y2805000D02*
G03X3170000Y2805000I-10000J0D01*
G75*
G01
X3180000Y1565000D02*
G03X3180000Y1565000I-10000J0D01*
G75*
G01
X3170000Y2195000D02*
G03X3170000Y2195000I-10000J0D01*
D11*
G75*
G01
X3116070Y906220D02*
G03X3116070Y906220I-3940J0D01*
M02*
