G04 Layer: BottomSolderMaskLayer*
G04 EasyEDA v6.5.22, 2023-01-18 22:18:13*
G04 60aa5606712246c99b0a00d3d653f430,7be1179030e74d40a97a3c751b95adb4,10*
G04 Gerber Generator version 0.2*
G04 Scale: 100 percent, Rotated: No, Reflected: No *
G04 Dimensions in inches *
G04 leading zeros omitted , absolute positions ,3 integer and 6 decimal *
%FSLAX36Y36*%
%MOIN*%

%AMMACRO1*1,1,$1,$2,$3*1,1,$1,$4,$5*1,1,$1,0-$2,0-$3*1,1,$1,0-$4,0-$5*20,1,$1,$2,$3,$4,$5,0*20,1,$1,$4,$5,0-$2,0-$3,0*20,1,$1,0-$2,0-$3,0-$4,0-$5,0*20,1,$1,0-$4,0-$5,$2,$3,0*4,1,4,$2,$3,$4,$5,0-$2,0-$3,0-$4,0-$5,$2,$3,0*%
%ADD10MACRO1,0.008X-0.0315X0.0315X0.0315X0.0315*%
%ADD11C,0.0710*%
%ADD12MACRO1,0.008X-0.0472X0.0315X0.0472X0.0315*%
%ADD13O,0.102488X0.070992*%
%ADD14C,0.0710*%
%ADD15C,0.0789*%
%ADD16MACRO1,0.008X-0.0335X-0.0335X-0.0335X0.0335*%
%ADD17C,0.0749*%

%LPD*%
D10*
G01*
X1584299Y2725245D03*
D11*
G01*
X1684300Y2725250D03*
G01*
X1984300Y2725250D03*
G01*
X2084300Y2725250D03*
G01*
X1784300Y2725250D03*
G01*
X1884300Y2725250D03*
G01*
X2184300Y2725250D03*
G01*
X2184300Y3055949D03*
G01*
X2084300Y3055949D03*
G01*
X1984300Y3055949D03*
G01*
X1884300Y3055949D03*
G01*
X1784300Y3055949D03*
G01*
X1684300Y3055949D03*
G01*
X1584300Y3055949D03*
D10*
G01*
X1589299Y2270245D03*
D11*
G01*
X1689300Y2270250D03*
G01*
X1989300Y2270250D03*
G01*
X2089300Y2270250D03*
G01*
X1789300Y2270250D03*
G01*
X1889300Y2270250D03*
G01*
X2189300Y2270250D03*
G01*
X2189300Y2600949D03*
G01*
X2089300Y2600949D03*
G01*
X1989300Y2600949D03*
G01*
X1889300Y2600949D03*
G01*
X1789300Y2600949D03*
G01*
X1689300Y2600949D03*
G01*
X1589300Y2600949D03*
D10*
G01*
X1589299Y1805245D03*
D11*
G01*
X1689300Y1805250D03*
G01*
X1989300Y1805250D03*
G01*
X2089300Y1805250D03*
G01*
X1789300Y1805250D03*
G01*
X1889300Y1805250D03*
G01*
X2189300Y1805250D03*
G01*
X2189300Y2135949D03*
G01*
X2089300Y2135949D03*
G01*
X1989300Y2135949D03*
G01*
X1889300Y2135949D03*
G01*
X1789300Y2135949D03*
G01*
X1689300Y2135949D03*
G01*
X1589300Y2135949D03*
D10*
G01*
X1584299Y1345245D03*
D11*
G01*
X1684300Y1345250D03*
G01*
X1984300Y1345250D03*
G01*
X2084300Y1345250D03*
G01*
X1784300Y1345250D03*
G01*
X1884300Y1345250D03*
G01*
X2184300Y1345250D03*
G01*
X2184300Y1675949D03*
G01*
X2084300Y1675949D03*
G01*
X1984300Y1675949D03*
G01*
X1884300Y1675949D03*
G01*
X1784300Y1675949D03*
G01*
X1684300Y1675949D03*
G01*
X1584300Y1675949D03*
D12*
G01*
X2405700Y2880000D03*
D13*
G01*
X3005699Y980000D03*
G01*
X2405699Y2780000D03*
G01*
X3005699Y1080000D03*
G01*
X2405699Y2680000D03*
G01*
X3005699Y1180000D03*
G01*
X2405699Y2580000D03*
G01*
X3005699Y1280000D03*
G01*
X2405699Y2480000D03*
G01*
X3005699Y1380000D03*
G01*
X2405699Y2380000D03*
G01*
X3005699Y1480000D03*
G01*
X2405699Y2280000D03*
G01*
X3005699Y1580000D03*
G01*
X2405699Y2180000D03*
G01*
X3005699Y1680000D03*
G01*
X2405699Y2080000D03*
G01*
X3005699Y1780000D03*
G01*
X2405699Y1980000D03*
G01*
X3005699Y1880000D03*
G01*
X2405699Y1880000D03*
G01*
X3005699Y1980000D03*
G01*
X2405699Y1780000D03*
G01*
X3005699Y2080000D03*
G01*
X2405699Y1680000D03*
G01*
X3005699Y2180000D03*
G01*
X2405699Y1580000D03*
G01*
X3005699Y2280000D03*
G01*
X2405699Y1480000D03*
G01*
X3005699Y2380000D03*
G01*
X2405699Y1380000D03*
G01*
X3005699Y2480000D03*
G01*
X2405699Y1280000D03*
G01*
X3005699Y2580000D03*
G01*
X2405699Y1180000D03*
G01*
X3005699Y2680000D03*
G01*
X2405699Y1080000D03*
G01*
X3005699Y2780000D03*
G01*
X2405699Y980000D03*
G01*
X3005699Y2880000D03*
D10*
G01*
X1589299Y885245D03*
D11*
G01*
X1689300Y885250D03*
G01*
X1989300Y885250D03*
G01*
X2089300Y885250D03*
G01*
X1789300Y885250D03*
G01*
X1889300Y885250D03*
G01*
X2189300Y885250D03*
G01*
X2189300Y1215949D03*
G01*
X2089300Y1215949D03*
G01*
X1989300Y1215949D03*
G01*
X1889300Y1215949D03*
G01*
X1789300Y1215949D03*
G01*
X1689300Y1215949D03*
G01*
X1589300Y1215949D03*
D14*
G01*
X2850000Y2656570D03*
G01*
X2850000Y2853420D03*
G01*
X2850000Y2171570D03*
G01*
X2850000Y2368420D03*
G01*
X2860000Y1738420D03*
G01*
X2860000Y1541570D03*
G01*
X4075000Y981570D03*
G01*
X4075000Y1178420D03*
G01*
X1429300Y2787170D03*
G01*
X1429300Y2984020D03*
G01*
X1419300Y2337170D03*
G01*
X1419300Y2534020D03*
G01*
X1429300Y1867170D03*
G01*
X1429300Y2064020D03*
G01*
X1419300Y1407170D03*
G01*
X1419300Y1604020D03*
G01*
X1419300Y937170D03*
G01*
X1419300Y1134020D03*
D15*
G01*
X3160000Y3035000D03*
G01*
X3260000Y3035000D03*
G01*
X3360000Y3035000D03*
G01*
X3460000Y3035000D03*
G01*
X3560000Y3035000D03*
G01*
X3660000Y3035000D03*
G01*
X3760000Y3035000D03*
G01*
X3860000Y3035000D03*
G01*
X3960000Y3035000D03*
G01*
X4060000Y3035000D03*
G01*
X4060000Y2735000D03*
G01*
X3960000Y2735000D03*
G01*
X3860000Y2735000D03*
G01*
X3760000Y2735000D03*
G01*
X3460000Y2735000D03*
G01*
X3360000Y2735000D03*
G01*
X3660000Y2735000D03*
G01*
X3560000Y2735000D03*
G01*
X3260000Y2735000D03*
G01*
X3160000Y2735000D03*
G01*
X3170000Y1795000D03*
G01*
X3270000Y1795000D03*
G01*
X3370000Y1795000D03*
G01*
X3470000Y1795000D03*
G01*
X3570000Y1795000D03*
G01*
X3670000Y1795000D03*
G01*
X3770000Y1795000D03*
G01*
X3870000Y1795000D03*
G01*
X3970000Y1795000D03*
G01*
X4070000Y1795000D03*
G01*
X4070000Y1495000D03*
G01*
X3970000Y1495000D03*
G01*
X3870000Y1495000D03*
G01*
X3770000Y1495000D03*
G01*
X3470000Y1495000D03*
G01*
X3370000Y1495000D03*
G01*
X3670000Y1495000D03*
G01*
X3570000Y1495000D03*
G01*
X3270000Y1495000D03*
G01*
X3170000Y1495000D03*
G01*
X3160000Y2425000D03*
G01*
X3260000Y2425000D03*
G01*
X3360000Y2425000D03*
G01*
X3460000Y2425000D03*
G01*
X3560000Y2425000D03*
G01*
X3660000Y2425000D03*
G01*
X3760000Y2425000D03*
G01*
X3860000Y2425000D03*
G01*
X3960000Y2425000D03*
G01*
X4060000Y2425000D03*
G01*
X4060000Y2125000D03*
G01*
X3960000Y2125000D03*
G01*
X3860000Y2125000D03*
G01*
X3760000Y2125000D03*
G01*
X3460000Y2125000D03*
G01*
X3360000Y2125000D03*
G01*
X3660000Y2125000D03*
G01*
X3560000Y2125000D03*
G01*
X3260000Y2125000D03*
G01*
X3160000Y2125000D03*
D16*
G01*
X3170000Y916456D03*
D17*
G01*
X3270000Y916460D03*
G01*
X3770000Y916460D03*
G01*
X3870000Y916460D03*
G01*
X3370000Y916460D03*
G01*
X3470000Y916460D03*
G01*
X3670000Y916460D03*
G01*
X3570000Y916460D03*
G01*
X3870000Y1223539D03*
G01*
X3770000Y1223539D03*
G01*
X3670000Y1223539D03*
G01*
X3570000Y1223539D03*
G01*
X3470000Y1223539D03*
G01*
X3370000Y1223539D03*
G01*
X3270000Y1223539D03*
G01*
X3170000Y1223539D03*
M02*
